<svg width="342" height="342" viewBox="0 0 342 342" fill="none" xmlns="http://www.w3.org/2000/svg">
<circle cx="171" cy="171" r="171" fill="#F5F5F5"/>
<mask id="mask0_12984_209200" style="mask-type:alpha" maskUnits="userSpaceOnUse" x="0" y="0" width="342" height="342">
<circle cx="171" cy="171" r="171" fill="#F5F5F5"/>
</mask>
<g mask="url(#mask0_12984_209200)">
<g filter="url(#filter0_d_12984_209200)">
<path fill-rule="evenodd" clip-rule="evenodd" d="M88.4259 51C75.6974 51 65.3789 61.3185 65.3789 74.047V346.953C65.3789 359.682 75.6974 370 88.4259 370H252.574C265.302 370 275.621 359.682 275.621 346.953V74.047C275.621 61.3185 265.302 51 252.574 51H217.446C216.933 51 216.402 51.0824 216.019 51.4232C215.487 51.8967 215.163 52.5772 215.148 53.3119L215.119 54.7313C215.119 63.7861 207.778 71.1265 198.723 71.1265H142.49C133.435 71.1265 126.094 63.7861 126.094 54.7313L126.065 53.3119C126.05 52.5772 125.726 51.8967 125.194 51.4232C124.811 51.0824 124.28 51 123.767 51H88.4259Z" fill="white"/>
</g>
</g>
<circle cx="292" cy="171" r="32" fill="#DC0069"/>
<mask id="mask1_12984_209200" style="mask-type:alpha" maskUnits="userSpaceOnUse" x="277" y="160" width="31" height="24">
<path d="M279.678 172.93L277.798 174.809L286.212 183.223L307.428 162.012L305.548 160.133L286.212 179.469L279.678 172.93Z" fill="white"/>
</mask>
<g mask="url(#mask1_12984_209200)">
<path d="M279.678 172.93L277.798 174.809L286.212 183.223L307.428 162.012L305.548 160.133L286.212 179.469L279.678 172.93Z" fill="white"/>
<path d="M312.797 151.801H272.797V191.801H312.797V151.801Z" fill="white"/>
</g>
<g filter="url(#filter1_d_12984_209200)">
<rect x="41" y="93.1348" width="197" height="49.0311" rx="3.50222" fill="white"/>
</g>
<path d="M81.2514 115.393V107.796H84.0462C84.5996 107.796 85.0951 107.893 85.5329 108.085C85.9707 108.274 86.3156 108.554 86.5678 108.926C86.8235 109.297 86.9513 109.75 86.9513 110.286C86.9513 110.791 86.8392 111.221 86.6151 111.579C86.3909 111.936 86.0757 112.209 85.6695 112.398C85.2667 112.587 84.7922 112.682 84.2458 112.682H82.7959V115.393H81.2514ZM82.7802 111.495H84.2038C84.589 111.495 84.9042 111.372 85.1494 111.127C85.3946 110.878 85.5171 110.572 85.5171 110.208C85.5171 109.829 85.3876 109.53 85.1284 109.309C84.8692 109.085 84.554 108.973 84.1828 108.973H82.7802V111.495ZM88.8293 113.029C88.8258 113.305 88.8696 113.547 88.9607 113.754C89.0517 113.957 89.1831 114.114 89.3547 114.226C89.5298 114.335 89.7399 114.389 89.9851 114.389C90.2477 114.389 90.4771 114.333 90.6733 114.221C90.8729 114.109 91.0112 113.925 91.0883 113.669H92.4699C92.4104 114.055 92.2563 114.384 92.0076 114.657C91.7625 114.93 91.4648 115.139 91.1145 115.282C90.7643 115.426 90.4001 115.498 90.0219 115.498C89.486 115.498 89.0132 115.386 88.6035 115.161C88.1972 114.934 87.8802 114.613 87.6526 114.2C87.425 113.787 87.3111 113.3 87.3111 112.74C87.3111 112.197 87.4144 111.708 87.6211 111.274C87.8277 110.836 88.1272 110.491 88.5194 110.239C88.9152 109.983 89.3897 109.856 89.9431 109.856C90.4964 109.856 90.9604 109.973 91.3352 110.208C91.7134 110.439 91.9971 110.763 92.1862 111.179C92.3788 111.593 92.4752 112.071 92.4752 112.614V113.029H88.8293ZM88.8241 112.114H91.041C91.041 111.897 91.0007 111.698 90.9202 111.516C90.8396 111.334 90.717 111.19 90.5524 111.085C90.3913 110.98 90.1882 110.927 89.9431 110.927C89.7049 110.927 89.5018 110.985 89.3337 111.101C89.1691 111.213 89.043 111.36 88.9554 111.542C88.8679 111.724 88.8241 111.915 88.8241 112.114ZM93.4234 115.393V109.961H94.9311V110.728C95.0151 110.595 95.1237 110.467 95.2568 110.344C95.3934 110.218 95.565 110.115 95.7716 110.034C95.9782 109.954 96.2234 109.913 96.5071 109.913C96.8398 109.913 97.1497 109.978 97.4369 110.108C97.7276 110.237 97.9622 110.442 98.1409 110.722C98.3195 110.999 98.4088 111.362 98.4088 111.81V115.393H96.8748V111.999C96.8748 111.705 96.7873 111.484 96.6121 111.337C96.437 111.19 96.2234 111.116 95.9712 111.116C95.8031 111.116 95.6403 111.146 95.4827 111.206C95.3286 111.265 95.2025 111.355 95.1044 111.474C95.0064 111.593 94.9573 111.74 94.9573 111.915V115.393H93.4234ZM100.796 113.029C100.792 113.305 100.836 113.547 100.927 113.754C101.018 113.957 101.149 114.114 101.321 114.226C101.496 114.335 101.706 114.389 101.951 114.389C102.214 114.389 102.443 114.333 102.639 114.221C102.839 114.109 102.977 113.925 103.054 113.669H104.436C104.377 114.055 104.222 114.384 103.974 114.657C103.729 114.93 103.431 115.139 103.081 115.282C102.73 115.426 102.366 115.498 101.988 115.498C101.452 115.498 100.979 115.386 100.57 115.161C100.163 114.934 99.8464 114.613 99.6188 114.2C99.3911 113.787 99.2773 113.3 99.2773 112.74C99.2773 112.197 99.3806 111.708 99.5872 111.274C99.7939 110.836 100.093 110.491 100.486 110.239C100.881 109.983 101.356 109.856 101.909 109.856C102.463 109.856 102.927 109.973 103.301 110.208C103.68 110.439 103.963 110.763 104.152 111.179C104.345 111.593 104.441 112.071 104.441 112.614V113.029H100.796ZM100.79 112.114H103.007C103.007 111.897 102.967 111.698 102.886 111.516C102.806 111.334 102.683 111.19 102.519 111.085C102.357 110.98 102.154 110.927 101.909 110.927C101.671 110.927 101.468 110.985 101.3 111.101C101.135 111.213 101.009 111.36 100.922 111.542C100.834 111.724 100.79 111.915 100.79 112.114ZM101.368 109.325L99.9865 107.954H101.126L101.893 108.742L102.587 107.954H103.785L102.435 109.325H101.368ZM104.92 115.393V114.536L107.599 111.032H105.057V109.961H109.459V110.817L106.775 114.321H109.475V115.393H104.92ZM106.685 109.325L105.304 107.954H106.444L107.211 108.742L107.904 107.954H109.102L107.752 109.325H106.685ZM111.5 113.029C111.496 113.305 111.54 113.547 111.631 113.754C111.722 113.957 111.853 114.114 112.025 114.226C112.2 114.335 112.41 114.389 112.655 114.389C112.918 114.389 113.147 114.333 113.344 114.221C113.543 114.109 113.682 113.925 113.759 113.669H115.14C115.081 114.055 114.927 114.384 114.678 114.657C114.433 114.93 114.135 115.139 113.785 115.282C113.435 115.426 113.07 115.498 112.692 115.498C112.156 115.498 111.683 115.386 111.274 115.161C110.867 114.934 110.551 114.613 110.323 114.2C110.095 113.787 109.981 113.3 109.981 112.74C109.981 112.197 110.085 111.708 110.291 111.274C110.498 110.836 110.797 110.491 111.19 110.239C111.585 109.983 112.06 109.856 112.613 109.856C113.167 109.856 113.631 109.973 114.005 110.208C114.384 110.439 114.667 110.763 114.857 111.179C115.049 111.593 115.145 112.071 115.145 112.614V113.029H111.5ZM111.494 112.114H113.711C113.711 111.897 113.671 111.698 113.59 111.516C113.51 111.334 113.387 111.19 113.223 111.085C113.062 110.98 112.858 110.927 112.613 110.927C112.375 110.927 112.172 110.985 112.004 111.101C111.839 111.213 111.713 111.36 111.626 111.542C111.538 111.724 111.494 111.915 111.494 112.114ZM116.094 115.393V109.961H117.601V110.728C117.685 110.595 117.794 110.467 117.927 110.344C118.064 110.218 118.235 110.115 118.442 110.034C118.649 109.954 118.894 109.913 119.177 109.913C119.51 109.913 119.82 109.978 120.107 110.108C120.398 110.237 120.633 110.442 120.811 110.722C120.99 110.999 121.079 111.362 121.079 111.81V115.393H119.545V111.999C119.545 111.705 119.458 111.484 119.282 111.337C119.107 111.19 118.894 111.116 118.642 111.116C118.473 111.116 118.311 111.146 118.153 111.206C117.999 111.265 117.873 111.355 117.775 111.474C117.677 111.593 117.628 111.74 117.628 111.915V115.393H116.094ZM127.453 115.393H125.924L124.459 113.05L123.739 113.817V115.393H122.205V107.586H123.739V112.214L125.735 109.961H127.385L125.41 112.125L127.453 115.393ZM129.595 115.498C129.248 115.498 128.936 115.433 128.66 115.303C128.383 115.174 128.164 114.986 128.003 114.741C127.842 114.493 127.761 114.191 127.761 113.838C127.761 113.242 127.984 112.79 128.429 112.482C128.873 112.171 129.575 112.009 130.535 111.999L131.213 111.988V111.663C131.213 111.414 131.139 111.223 130.992 111.09C130.849 110.954 130.624 110.887 130.32 110.89C130.096 110.894 129.882 110.947 129.679 111.048C129.479 111.15 129.343 111.326 129.269 111.579H127.992C128.014 111.186 128.127 110.864 128.334 110.612C128.541 110.356 128.821 110.167 129.174 110.045C129.532 109.919 129.936 109.856 130.388 109.856C130.945 109.856 131.391 109.926 131.728 110.066C132.064 110.202 132.307 110.4 132.458 110.659C132.608 110.915 132.684 111.22 132.684 111.573V115.393H131.402L131.276 114.457C131.09 114.85 130.857 115.121 130.577 115.272C130.3 115.422 129.973 115.498 129.595 115.498ZM130.11 114.489C130.25 114.489 130.385 114.464 130.514 114.415C130.647 114.363 130.765 114.295 130.866 114.211C130.971 114.123 131.055 114.025 131.118 113.916C131.181 113.808 131.213 113.696 131.213 113.58V112.776L130.661 112.787C130.406 112.79 130.167 112.822 129.947 112.881C129.726 112.938 129.547 113.03 129.411 113.16C129.278 113.289 129.211 113.465 129.211 113.685C129.211 113.937 129.299 114.135 129.474 114.279C129.649 114.419 129.861 114.489 130.11 114.489Z" fill="black"/>
<path d="M83.8536 125.106V125.607L80.8312 125.614V125.11L83.8536 125.106ZM82.5998 126.868H82.099L82.092 123.845H82.5963L82.5998 126.868ZM86.3342 127.904V127.509V127.302C86.3342 127.043 86.3821 126.819 86.4778 126.629C86.5759 126.44 86.7043 126.276 86.8631 126.136C87.0242 125.993 87.1993 125.866 87.3884 125.754C87.5799 125.642 87.7702 125.534 87.9593 125.432C88.1507 125.327 88.3258 125.218 88.4846 125.106C88.6434 124.992 88.7706 124.863 88.8664 124.721C88.9644 124.576 89.0134 124.406 89.0134 124.209C89.0134 123.953 88.9224 123.744 88.7403 123.583C88.5605 123.421 88.3165 123.341 88.0083 123.341C87.6768 123.341 87.4106 123.434 87.2098 123.621C87.009 123.808 86.8958 124.057 86.8701 124.367H86.2257C86.2327 124.075 86.3051 123.809 86.4428 123.569C86.5806 123.326 86.7825 123.132 87.0487 122.987C87.3149 122.842 87.6429 122.77 88.0328 122.77C88.3714 122.77 88.6656 122.831 88.9154 122.952C89.1652 123.071 89.3578 123.239 89.4933 123.456C89.631 123.671 89.6999 123.922 89.6999 124.209C89.6999 124.471 89.652 124.695 89.5563 124.882C89.4606 125.069 89.3333 125.231 89.1746 125.369C89.0181 125.504 88.8465 125.626 88.6597 125.733C88.4729 125.84 88.285 125.944 88.0959 126.045C87.9067 126.143 87.734 126.247 87.5775 126.356C87.4211 126.464 87.295 126.587 87.1993 126.728C87.1036 126.868 87.0557 127.035 87.0557 127.228V127.33H89.7279V127.904H86.3342ZM90.8921 122.84H93.9145L93.897 123.4H91.4454L91.3158 125.036C91.4839 124.88 91.6672 124.769 91.8657 124.703C92.0665 124.636 92.2836 124.602 92.5171 124.602C92.823 124.602 93.1043 124.665 93.3611 124.791C93.6203 124.915 93.8281 125.099 93.9845 125.344C94.141 125.587 94.2192 125.888 94.2192 126.248C94.2192 126.598 94.1433 126.903 93.9915 127.162C93.8398 127.421 93.6261 127.623 93.3506 127.768C93.0751 127.91 92.7517 127.981 92.3805 127.981C92.0676 127.981 91.7781 127.926 91.512 127.817C91.2458 127.707 91.017 127.554 90.8255 127.358C90.6364 127.162 90.4975 126.937 90.4088 126.682L90.9691 126.447C91.0532 126.639 91.1582 126.809 91.2843 126.959C91.4127 127.108 91.5645 127.225 91.7396 127.309C91.9147 127.393 92.1132 127.435 92.335 127.435C92.6945 127.435 92.9829 127.331 93.2 127.123C93.4195 126.913 93.5292 126.628 93.5292 126.269C93.5292 126.045 93.4779 125.85 93.3751 125.684C93.2724 125.516 93.1335 125.385 92.9584 125.292C92.7856 125.198 92.5941 125.152 92.384 125.152C92.2463 125.152 92.1178 125.164 91.9988 125.19C91.8797 125.213 91.7618 125.26 91.645 125.33C91.5283 125.4 91.4057 125.506 91.2773 125.649C91.2633 125.656 91.2528 125.659 91.2458 125.659C91.2388 125.657 91.2271 125.652 91.2108 125.645L90.6644 125.474L90.8921 122.84ZM96.843 127.904V122.84H100.037L100.034 123.411H97.4944V125.064H99.7814V125.631H97.4909V127.319L100.104 127.326V127.904H96.843ZM104.888 126.153C104.888 126.543 104.824 126.873 104.696 127.144C104.567 127.415 104.367 127.622 104.093 127.764C103.823 127.904 103.47 127.974 103.036 127.974C102.597 127.974 102.241 127.902 101.968 127.757C101.697 127.612 101.498 127.4 101.372 127.12C101.248 126.84 101.187 126.495 101.187 126.087V122.84H101.859V126.185C101.859 126.593 101.961 126.899 102.164 127.102C102.367 127.305 102.658 127.407 103.036 127.407C103.29 127.407 103.506 127.363 103.684 127.274C103.863 127.185 104 127.051 104.093 126.871C104.189 126.689 104.237 126.46 104.237 126.185V122.84H104.888V126.153ZM109.712 127.904H109.026L108.101 125.722H106.739V127.904H106.091V122.84H108.052C108.417 122.84 108.721 122.896 108.966 123.008C109.212 123.118 109.395 123.277 109.516 123.484C109.638 123.69 109.698 123.936 109.698 124.223C109.698 124.499 109.649 124.728 109.551 124.91C109.456 125.092 109.333 125.239 109.184 125.351C109.034 125.461 108.879 125.546 108.718 125.607L109.712 127.904ZM107.842 125.187C108.223 125.187 108.517 125.11 108.725 124.955C108.933 124.799 109.036 124.568 109.036 124.262C109.036 123.963 108.943 123.74 108.756 123.593C108.572 123.444 108.318 123.369 107.996 123.369H106.739V125.187H107.842Z" fill="#404040"/>
<circle cx="62.8885" cy="117.649" r="10.5067" fill="#DC0069"/>
<rect x="62.6025" y="113.535" width="1.09444" height="8.75556" fill="white"/>
<rect x="67.5273" y="117.365" width="1.09444" height="8.75556" transform="rotate(90 67.5273 117.365)" fill="white"/>
<g filter="url(#filter2_d_12984_209200)">
<path d="M41 154.835C41 153.57 42.0453 152.545 43.3348 152.545H235.373C236.663 152.545 237.708 153.57 237.708 154.835V174.962C233.945 176.314 231.363 179.098 231.363 182.314C231.363 185.529 233.945 188.314 237.708 189.665V209.793C237.708 211.057 236.663 212.083 235.373 212.083H43.3348C42.0453 212.083 41 211.057 41 209.793V190.232C44.7631 188.881 47.3455 186.097 47.3455 182.881C47.3455 179.665 44.7631 176.881 41 175.529V154.835Z" fill="white"/>
<g clip-path="url(#clip0_12984_209200)">
<path fill-rule="evenodd" clip-rule="evenodd" d="M68.3275 189.085C66.6889 189.491 65.6936 188.66 65.2045 188.141C64.9108 187.829 64.6487 187.454 64.345 187.033C63.3804 185.698 61.0448 182.455 61.0448 182.455V189.085H58.6172V178.465C60.2489 178.06 61.2512 178.89 61.7403 179.409C62.034 179.721 62.2961 180.096 62.5997 180.517C63.5644 181.852 65.9 185.095 65.9 185.095V178.465H68.3275V189.085ZM63.4723 172.977C57.5085 172.977 52.6738 177.811 52.6738 183.775C52.6738 189.739 57.5085 194.574 63.4723 194.574C69.4363 194.574 74.2709 189.739 74.2709 183.775C74.2709 177.811 69.4363 172.977 63.4723 172.977Z" fill="black"/>
</g>
<path d="M94.1158 172.46H95.6497V180.057H94.2681L90.6591 174.83V180.057H89.1303V172.46H90.6486L94.1158 177.488V172.46ZM99.2267 180.162C98.6943 180.162 98.2303 180.048 97.8345 179.82C97.4423 179.593 97.1376 179.27 96.9204 178.854C96.7068 178.437 96.6 177.943 96.6 177.372C96.6 176.801 96.7068 176.302 96.9204 175.875C97.1376 175.448 97.4423 175.115 97.8345 174.877C98.2303 174.639 98.6961 174.52 99.2319 174.52C99.7677 174.52 100.232 174.637 100.624 174.872C101.016 175.103 101.319 175.432 101.533 175.859C101.747 176.286 101.853 176.791 101.853 177.372C101.853 177.919 101.748 178.402 101.538 178.822C101.331 179.239 101.032 179.566 100.64 179.804C100.251 180.043 99.78 180.162 99.2267 180.162ZM99.2319 179.022C99.5016 179.022 99.7187 178.943 99.8833 178.785C100.048 178.628 100.167 178.421 100.241 178.165C100.318 177.906 100.356 177.624 100.356 177.32C100.356 177.032 100.321 176.761 100.251 176.505C100.185 176.25 100.069 176.043 99.9043 175.885C99.7397 175.728 99.5156 175.649 99.2319 175.649C98.9622 175.649 98.7433 175.724 98.5752 175.875C98.4106 176.022 98.2898 176.223 98.2128 176.479C98.1357 176.731 98.0972 177.011 98.0972 177.32C98.0972 177.603 98.1322 177.877 98.2023 178.139C98.2723 178.398 98.3896 178.61 98.5542 178.775C98.7188 178.939 98.9447 179.022 99.2319 179.022ZM105.894 175.691H104.686L104.697 178.586C104.697 178.719 104.712 178.819 104.744 178.885C104.779 178.948 104.832 178.99 104.902 179.011C104.975 179.029 105.068 179.037 105.18 179.037H105.91V179.983C105.84 180.015 105.73 180.044 105.579 180.072C105.432 180.1 105.226 180.114 104.959 180.114C104.483 180.114 104.114 180.053 103.851 179.931C103.592 179.808 103.411 179.636 103.31 179.416C103.208 179.195 103.157 178.939 103.157 178.649V175.691H102.275V174.625H103.21L103.593 172.986H104.686V174.619H105.894V175.691ZM108.455 174.625V180.057H106.99V174.625H108.455ZM108.471 172.466V173.847H106.979V172.466H108.471ZM109.759 180.057V174.625H111.267V175.392C111.351 175.259 111.46 175.131 111.593 175.008C111.729 174.882 111.901 174.779 112.108 174.698C112.314 174.618 112.559 174.577 112.843 174.577C113.176 174.577 113.486 174.642 113.773 174.772C114.064 174.901 114.298 175.106 114.477 175.386C114.655 175.663 114.745 176.026 114.745 176.474V180.057H113.211V176.663C113.211 176.369 113.123 176.148 112.948 176.001C112.773 175.854 112.559 175.78 112.307 175.78C112.139 175.78 111.976 175.81 111.819 175.87C111.665 175.929 111.538 176.019 111.44 176.138C111.342 176.257 111.293 176.404 111.293 176.579V180.057H109.759ZM118.203 180.162C117.671 180.162 117.207 180.048 116.811 179.82C116.419 179.593 116.114 179.27 115.897 178.854C115.683 178.437 115.577 177.943 115.577 177.372C115.577 176.801 115.683 176.302 115.897 175.875C116.114 175.448 116.419 175.115 116.811 174.877C117.207 174.639 117.673 174.52 118.208 174.52C118.744 174.52 119.208 174.637 119.601 174.872C119.993 175.103 120.296 175.432 120.509 175.859C120.723 176.286 120.83 176.791 120.83 177.372C120.83 177.919 120.725 178.402 120.515 178.822C120.308 179.239 120.009 179.566 119.616 179.804C119.228 180.043 118.757 180.162 118.203 180.162ZM118.208 179.022C118.478 179.022 118.695 178.943 118.86 178.785C119.024 178.628 119.144 178.421 119.217 178.165C119.294 177.906 119.333 177.624 119.333 177.32C119.333 177.032 119.298 176.761 119.228 176.505C119.161 176.25 119.045 176.043 118.881 175.885C118.716 175.728 118.492 175.649 118.208 175.649C117.939 175.649 117.72 175.724 117.552 175.875C117.387 176.022 117.266 176.223 117.189 176.479C117.112 176.731 117.074 177.011 117.074 177.32C117.074 177.603 117.109 177.877 117.179 178.139C117.249 178.398 117.366 178.61 117.531 178.775C117.695 178.939 117.921 179.022 118.208 179.022ZM129.063 180.057H127.534L126.068 177.714L125.349 178.481V180.057H123.815V172.25H125.349V176.878L127.345 174.625H128.995L127.019 176.789L129.063 180.057ZM131.722 180.162C131.47 180.162 131.222 180.123 130.976 180.046C130.735 179.969 130.514 179.855 130.315 179.705C130.115 179.554 129.954 179.368 129.831 179.148C129.712 178.927 129.653 178.672 129.653 178.381V174.625H131.187V178.186C131.187 178.439 131.269 178.645 131.433 178.806C131.598 178.967 131.84 179.048 132.158 179.048C132.46 179.048 132.698 178.971 132.873 178.817C133.052 178.659 133.141 178.44 133.141 178.16V174.625H134.659V180.057H133.503L133.325 178.98C133.262 179.298 133.143 179.544 132.967 179.715C132.796 179.883 132.598 179.999 132.374 180.062C132.153 180.128 131.936 180.162 131.722 180.162ZM135.822 181.748V174.625H137.361L137.366 175.407C137.447 175.278 137.545 175.161 137.661 175.055C137.78 174.947 137.911 174.852 138.055 174.772C138.198 174.691 138.354 174.63 138.522 174.588C138.69 174.542 138.867 174.52 139.053 174.52C139.456 174.52 139.814 174.619 140.13 174.819C140.445 175.015 140.692 175.32 140.87 175.733C141.053 176.143 141.144 176.665 141.144 177.299C141.144 177.957 141.046 178.498 140.849 178.922C140.657 179.342 140.391 179.654 140.051 179.857C139.711 180.06 139.328 180.162 138.9 180.162C138.725 180.162 138.561 180.137 138.407 180.088C138.253 180.043 138.109 179.978 137.976 179.894C137.846 179.81 137.729 179.713 137.624 179.605C137.522 179.493 137.433 179.372 137.356 179.242V181.748H135.822ZM138.533 179.037C138.865 179.037 139.144 178.899 139.368 178.622C139.596 178.346 139.709 177.908 139.709 177.309C139.709 176.784 139.601 176.374 139.384 176.08C139.17 175.782 138.886 175.633 138.533 175.633C138.137 175.633 137.841 175.794 137.645 176.117C137.452 176.435 137.356 176.833 137.356 177.309C137.356 177.614 137.398 177.898 137.482 178.16C137.57 178.423 137.699 178.635 137.871 178.796C138.046 178.957 138.267 179.037 138.533 179.037ZM144.379 180.162C143.846 180.162 143.382 180.048 142.987 179.82C142.594 179.593 142.29 179.27 142.072 178.854C141.859 178.437 141.752 177.943 141.752 177.372C141.752 176.801 141.859 176.302 142.072 175.875C142.29 175.448 142.594 175.115 142.987 174.877C143.382 174.639 143.848 174.52 144.384 174.52C144.92 174.52 145.384 174.637 145.776 174.872C146.168 175.103 146.471 175.432 146.685 175.859C146.898 176.286 147.005 176.791 147.005 177.372C147.005 177.919 146.9 178.402 146.69 178.822C146.483 179.239 146.184 179.566 145.792 179.804C145.403 180.043 144.932 180.162 144.379 180.162ZM144.384 179.022C144.654 179.022 144.871 178.943 145.035 178.785C145.2 178.628 145.319 178.421 145.393 178.165C145.47 177.906 145.508 177.624 145.508 177.32C145.508 177.032 145.473 176.761 145.403 176.505C145.337 176.25 145.221 176.043 145.056 175.885C144.892 175.728 144.668 175.649 144.384 175.649C144.114 175.649 143.895 175.724 143.727 175.875C143.563 176.022 143.442 176.223 143.365 176.479C143.288 176.731 143.249 177.011 143.249 177.32C143.249 177.603 143.284 177.877 143.354 178.139C143.424 178.398 143.542 178.61 143.706 178.775C143.871 178.939 144.097 179.022 144.384 179.022ZM144.909 172.46H146.49L144.93 173.989H143.827L144.909 172.46ZM147.911 180.057V174.625H149.419V175.392C149.503 175.259 149.612 175.131 149.745 175.008C149.881 174.882 150.053 174.779 150.259 174.698C150.466 174.618 150.711 174.577 150.995 174.577C151.328 174.577 151.638 174.642 151.925 174.772C152.215 174.901 152.45 175.106 152.629 175.386C152.807 175.663 152.897 176.026 152.897 176.474V180.057H151.363V176.663C151.363 176.369 151.275 176.148 151.1 176.001C150.925 175.854 150.711 175.78 150.459 175.78C150.291 175.78 150.128 175.81 149.971 175.87C149.816 175.929 149.69 176.019 149.592 176.138C149.494 176.257 149.445 176.404 149.445 176.579V180.057H147.911Z" fill="black"/>
<line opacity="0.4" x1="81.0441" y1="204.786" x2="81.0441" y2="159.841" stroke="#9F9F9F" stroke-width="0.583704" stroke-linecap="round" stroke-linejoin="round" stroke-dasharray="1.17 1.75"/>
<path d="M93.7253 192.568H92.9934L91.4139 189.966L90.5348 190.971V192.568H89.8624V187.504H90.5348V190.124L92.8042 187.504H93.5782L91.8867 189.493L93.7253 192.568ZM95.2533 192.729C95.2533 193.068 95.1797 193.319 95.0326 193.482C94.8879 193.648 94.6311 193.731 94.2622 193.731C94.0637 193.731 93.9388 193.717 93.8874 193.689C93.8337 193.661 93.8069 193.647 93.8069 193.647V193.216L94.1641 193.199C94.3275 193.187 94.4419 193.144 94.5073 193.069C94.5727 192.994 94.6054 192.874 94.6054 192.708V188.947H95.2533V192.729ZM95.2708 187.508V188.18H94.5844V187.508H95.2708ZM97.6502 192.638C97.1809 192.638 96.8085 192.477 96.533 192.155C96.2575 191.833 96.1197 191.362 96.1197 190.744C96.1197 190.368 96.1746 190.04 96.2843 189.76C96.3964 189.479 96.5621 189.262 96.7816 189.108C97.0011 188.954 97.2743 188.877 97.6011 188.877C97.7739 188.877 97.9268 188.899 98.0599 188.944C98.1954 188.988 98.3121 189.044 98.4102 189.112C98.5082 189.179 98.5876 189.249 98.6483 189.322C98.7113 189.394 98.758 189.461 98.7884 189.521V187.364H99.4398V192.568H98.946L98.876 191.826C98.8526 191.896 98.8152 191.978 98.7639 192.071C98.7125 192.162 98.6401 192.252 98.5467 192.341C98.4533 192.427 98.3331 192.498 98.186 192.554C98.0413 192.61 97.8626 192.638 97.6502 192.638ZM97.7657 192.141C98.1323 192.141 98.3938 192.03 98.5502 191.808C98.709 191.584 98.7884 191.219 98.7884 190.712C98.7861 190.43 98.7499 190.189 98.6798 189.991C98.6121 189.792 98.5047 189.642 98.3576 189.539C98.2129 189.434 98.0202 189.381 97.7798 189.381C97.4809 189.381 97.2381 189.488 97.0513 189.7C96.8645 189.913 96.7711 190.25 96.7711 190.712C96.7711 191.165 96.8552 191.517 97.0233 191.766C97.1937 192.016 97.4412 192.141 97.7657 192.141ZM100.551 192.568V187.364H101.181V189.479C101.242 189.379 101.323 189.286 101.426 189.199C101.529 189.11 101.654 189.039 101.801 188.986C101.948 188.93 102.118 188.902 102.312 188.902C102.548 188.902 102.762 188.946 102.953 189.035C103.145 189.121 103.296 189.245 103.408 189.406C103.52 189.567 103.577 189.758 103.577 189.98V192.568H102.929V190.11C102.929 189.893 102.854 189.726 102.704 189.609C102.557 189.49 102.365 189.43 102.127 189.43C101.966 189.43 101.814 189.457 101.671 189.511C101.529 189.562 101.413 189.642 101.325 189.749C101.238 189.854 101.195 189.988 101.195 190.152V192.568H100.551ZM105.817 192.638C105.565 192.638 105.33 192.6 105.113 192.523C104.898 192.443 104.72 192.321 104.577 192.155C104.435 191.987 104.345 191.773 104.308 191.514H104.896C104.929 191.657 104.987 191.776 105.071 191.871C105.157 191.965 105.265 192.036 105.393 192.085C105.522 192.132 105.662 192.155 105.813 192.155C106.056 192.155 106.252 192.11 106.402 192.019C106.551 191.927 106.626 191.787 106.626 191.598C106.626 191.465 106.586 191.359 106.507 191.28C106.43 191.198 106.31 191.138 106.146 191.101L105.397 190.915C105.105 190.845 104.871 190.736 104.696 190.586C104.521 190.437 104.434 190.228 104.434 189.959C104.431 189.747 104.481 189.56 104.584 189.399C104.687 189.238 104.841 189.11 105.046 189.017C105.252 188.924 105.508 188.877 105.813 188.877C106.206 188.877 106.522 188.966 106.763 189.143C107.005 189.318 107.131 189.576 107.141 189.917H106.57C106.547 189.744 106.468 189.608 106.335 189.507C106.205 189.405 106.028 189.353 105.806 189.353C105.575 189.353 105.387 189.4 105.243 189.493C105.098 189.584 105.025 189.727 105.025 189.921C105.025 190.049 105.077 190.151 105.18 190.225C105.282 190.298 105.434 190.358 105.635 190.407L106.36 190.59C106.528 190.634 106.666 190.692 106.773 190.765C106.883 190.837 106.969 190.918 107.032 191.006C107.098 191.095 107.143 191.188 107.169 191.287C107.197 191.382 107.211 191.474 107.211 191.563C107.211 191.785 107.155 191.976 107.043 192.138C106.933 192.296 106.774 192.42 106.566 192.509C106.361 192.595 106.111 192.638 105.817 192.638ZM109.846 187.434C110.171 187.434 110.461 187.488 110.718 187.595C110.975 187.703 111.178 187.859 111.328 188.065C111.477 188.27 111.552 188.52 111.552 188.814C111.552 189.089 111.477 189.321 111.328 189.507C111.18 189.694 110.99 189.837 110.757 189.935C110.927 189.967 111.089 190.047 111.243 190.173C111.4 190.299 111.528 190.452 111.629 190.632C111.729 190.811 111.779 190.999 111.779 191.195C111.779 191.487 111.699 191.742 111.538 191.959C111.379 192.176 111.155 192.345 110.865 192.467C110.576 192.586 110.236 192.645 109.846 192.645C109.458 192.645 109.12 192.586 108.83 192.467C108.541 192.345 108.316 192.176 108.154 191.959C107.996 191.742 107.916 191.487 107.916 191.195C107.916 190.999 107.965 190.811 108.063 190.632C108.164 190.452 108.292 190.299 108.449 190.173C108.605 190.047 108.769 189.967 108.939 189.935C108.708 189.837 108.516 189.694 108.365 189.507C108.215 189.321 108.14 189.089 108.14 188.814C108.14 188.52 108.215 188.27 108.365 188.065C108.514 187.859 108.717 187.703 108.974 187.595C109.233 187.488 109.524 187.434 109.846 187.434ZM109.846 189.662C110.154 189.662 110.404 189.586 110.596 189.434C110.789 189.282 110.886 189.071 110.886 188.8C110.886 188.527 110.789 188.312 110.596 188.156C110.402 187.997 110.152 187.917 109.846 187.917C109.54 187.917 109.29 187.997 109.097 188.156C108.903 188.314 108.806 188.529 108.806 188.8C108.806 189.071 108.903 189.282 109.097 189.434C109.29 189.586 109.54 189.662 109.846 189.662ZM109.846 192.12C110.222 192.12 110.522 192.036 110.746 191.868C110.97 191.697 111.082 191.472 111.082 191.192C111.082 191.008 111.031 190.843 110.928 190.698C110.828 190.553 110.685 190.44 110.501 190.358C110.317 190.274 110.098 190.232 109.846 190.232C109.596 190.232 109.379 190.274 109.195 190.358C109.013 190.44 108.87 190.553 108.767 190.698C108.667 190.843 108.617 191.008 108.617 191.192C108.617 191.472 108.728 191.697 108.949 191.868C109.174 192.036 109.472 192.12 109.846 192.12ZM114.109 192.645C113.829 192.645 113.567 192.593 113.324 192.488C113.084 192.38 112.882 192.229 112.719 192.033C112.557 191.836 112.458 191.602 112.421 191.329H113.051C113.11 191.56 113.231 191.748 113.416 191.892C113.6 192.035 113.824 192.106 114.088 192.106C114.387 192.106 114.642 192.028 114.855 191.871C115.07 191.715 115.23 191.473 115.335 191.146C115.44 190.82 115.48 190.4 115.454 189.889C115.395 190.067 115.303 190.223 115.177 190.358C115.051 190.492 114.899 190.597 114.722 190.674C114.544 190.751 114.348 190.789 114.133 190.789C113.8 190.789 113.505 190.724 113.251 190.593C112.996 190.462 112.798 190.276 112.656 190.033C112.515 189.79 112.445 189.499 112.445 189.161C112.445 188.822 112.515 188.523 112.656 188.264C112.796 188.005 112.996 187.802 113.258 187.655C113.519 187.508 113.83 187.434 114.19 187.434C114.582 187.434 114.921 187.536 115.209 187.739C115.496 187.94 115.718 188.229 115.874 188.607C116.031 188.983 116.109 189.435 116.109 189.963C116.109 190.53 116.031 191.013 115.874 191.413C115.72 191.812 115.494 192.118 115.195 192.33C114.898 192.54 114.536 192.645 114.109 192.645ZM114.204 190.239C114.39 190.239 114.568 190.196 114.736 190.11C114.904 190.023 115.041 189.909 115.146 189.767C115.253 189.622 115.307 189.464 115.307 189.294C115.309 189.032 115.265 188.802 115.174 188.604C115.083 188.403 114.953 188.247 114.785 188.135C114.617 188.02 114.421 187.963 114.197 187.963C113.991 187.963 113.809 188.012 113.65 188.11C113.494 188.208 113.37 188.345 113.279 188.52C113.19 188.695 113.146 188.898 113.146 189.129C113.146 189.468 113.236 189.737 113.416 189.938C113.595 190.139 113.858 190.239 114.204 190.239ZM118.631 191.374C118.631 191.643 118.6 191.871 118.539 192.061C118.479 192.25 118.37 192.393 118.214 192.491C118.06 192.589 117.84 192.638 117.555 192.638C117.376 192.638 117.206 192.617 117.048 192.575C116.891 192.533 116.787 192.502 116.736 192.481L116.781 191.861C116.854 191.887 116.937 191.919 117.03 191.959C117.126 191.996 117.244 192.015 117.384 192.015C117.613 192.015 117.769 191.952 117.853 191.826C117.939 191.7 117.983 191.487 117.983 191.188V187.504H118.631V191.374ZM121.353 191.374C121.353 191.643 121.323 191.871 121.262 192.061C121.201 192.25 121.093 192.393 120.936 192.491C120.782 192.589 120.563 192.638 120.278 192.638C120.098 192.638 119.929 192.617 119.77 192.575C119.614 192.533 119.51 192.502 119.458 192.481L119.504 191.861C119.576 191.887 119.659 191.919 119.752 191.959C119.848 191.996 119.966 192.015 120.106 192.015C120.335 192.015 120.491 191.952 120.575 191.826C120.662 191.7 120.705 191.487 120.705 191.188V187.504H121.353V191.374ZM122.324 192.568V192.173V191.966C122.324 191.707 122.372 191.483 122.468 191.294C122.566 191.104 122.694 190.94 122.853 190.8C123.014 190.657 123.189 190.53 123.378 190.418C123.57 190.306 123.76 190.199 123.949 190.096C124.141 189.991 124.316 189.882 124.475 189.77C124.633 189.656 124.761 189.527 124.856 189.385C124.954 189.24 125.003 189.07 125.003 188.874C125.003 188.617 124.912 188.408 124.73 188.247C124.551 188.086 124.307 188.005 123.998 188.005C123.667 188.005 123.401 188.098 123.2 188.285C122.999 188.472 122.886 188.721 122.86 189.031H122.216C122.223 188.739 122.295 188.473 122.433 188.233C122.571 187.99 122.773 187.796 123.039 187.651C123.305 187.506 123.633 187.434 124.023 187.434C124.361 187.434 124.656 187.495 124.905 187.616C125.155 187.735 125.348 187.903 125.483 188.121C125.621 188.335 125.69 188.586 125.69 188.874C125.69 189.135 125.642 189.359 125.546 189.546C125.451 189.733 125.323 189.895 125.165 190.033C125.008 190.168 124.837 190.29 124.65 190.397C124.463 190.504 124.275 190.608 124.086 190.709C123.897 190.807 123.724 190.911 123.568 191.02C123.411 191.128 123.285 191.252 123.189 191.392C123.094 191.532 123.046 191.699 123.046 191.892V191.994H125.718V192.568H122.324ZM127.905 192.638C127.435 192.638 127.063 192.477 126.788 192.155C126.512 191.833 126.374 191.362 126.374 190.744C126.374 190.368 126.429 190.04 126.539 189.76C126.651 189.479 126.817 189.262 127.036 189.108C127.256 188.954 127.529 188.877 127.856 188.877C128.028 188.877 128.181 188.899 128.314 188.944C128.45 188.988 128.567 189.044 128.665 189.112C128.763 189.179 128.842 189.249 128.903 189.322C128.966 189.394 129.013 189.461 129.043 189.521V187.364H129.694V192.568H129.201L129.131 191.826C129.107 191.896 129.07 191.978 129.018 192.071C128.967 192.162 128.895 192.252 128.801 192.341C128.708 192.427 128.588 192.498 128.441 192.554C128.296 192.61 128.117 192.638 127.905 192.638ZM128.02 192.141C128.387 192.141 128.648 192.03 128.805 191.808C128.964 191.584 129.043 191.219 129.043 190.712C129.041 190.43 129.004 190.189 128.934 189.991C128.867 189.792 128.759 189.642 128.612 189.539C128.467 189.434 128.275 189.381 128.034 189.381C127.735 189.381 127.493 189.488 127.306 189.7C127.119 189.913 127.026 190.25 127.026 190.712C127.026 191.165 127.11 191.517 127.278 191.766C127.448 192.016 127.696 192.141 128.02 192.141ZM132.049 192.638C131.797 192.638 131.563 192.6 131.345 192.523C131.131 192.443 130.952 192.321 130.81 192.155C130.667 191.987 130.577 191.773 130.54 191.514H131.128C131.161 191.657 131.219 191.776 131.303 191.871C131.39 191.965 131.497 192.036 131.626 192.085C131.754 192.132 131.894 192.155 132.046 192.155C132.289 192.155 132.485 192.11 132.634 192.019C132.784 191.927 132.858 191.787 132.858 191.598C132.858 191.465 132.819 191.359 132.739 191.28C132.662 191.198 132.542 191.138 132.379 191.101L131.629 190.915C131.337 190.845 131.104 190.736 130.929 190.586C130.754 190.437 130.666 190.228 130.666 189.959C130.664 189.747 130.714 189.56 130.817 189.399C130.919 189.238 131.073 189.11 131.279 189.017C131.484 188.924 131.74 188.877 132.046 188.877C132.438 188.877 132.755 188.966 132.995 189.143C133.238 189.318 133.364 189.576 133.373 189.917H132.802C132.779 189.744 132.701 189.608 132.568 189.507C132.437 189.405 132.261 189.353 132.039 189.353C131.808 189.353 131.62 189.4 131.475 189.493C131.33 189.584 131.258 189.727 131.258 189.921C131.258 190.049 131.309 190.151 131.412 190.225C131.515 190.298 131.667 190.358 131.867 190.407L132.592 190.59C132.76 190.634 132.898 190.692 133.006 190.765C133.115 190.837 133.202 190.918 133.265 191.006C133.33 191.095 133.376 191.188 133.401 191.287C133.429 191.382 133.443 191.474 133.443 191.563C133.443 191.785 133.387 191.976 133.275 192.138C133.165 192.296 133.007 192.42 132.799 192.509C132.593 192.595 132.344 192.638 132.049 192.638ZM136.394 188.947V189.42H135.515V192.568H134.863V189.42H134.1V188.947H134.863V188.387C134.863 188.1 134.937 187.881 135.084 187.732C135.231 187.58 135.45 187.504 135.742 187.504H136.425L136.429 187.963H135.886C135.739 187.963 135.638 188.003 135.585 188.082C135.531 188.161 135.504 188.282 135.504 188.443V188.947H136.394ZM138.8 190.502V191.013L137.024 191.017V190.509L138.8 190.502ZM141.818 188.947V189.42H140.939V192.568H140.288V189.42H139.524V188.947H140.288V188.387C140.288 188.1 140.361 187.881 140.508 187.732C140.655 187.58 140.875 187.504 141.167 187.504H141.85L141.853 187.963H141.31C141.163 187.963 141.063 188.003 141.009 188.082C140.955 188.161 140.929 188.282 140.929 188.443V188.947H141.818ZM144.401 187.434C144.681 187.434 144.939 187.487 145.175 187.592C145.413 187.697 145.61 187.847 145.767 188.043C145.923 188.24 146.02 188.477 146.058 188.754H145.448C145.38 188.514 145.258 188.324 145.08 188.184C144.903 188.043 144.68 187.973 144.411 187.973C144.113 187.973 143.863 188.059 143.662 188.229C143.464 188.397 143.319 188.645 143.228 188.972C143.137 189.296 143.105 189.695 143.133 190.169C143.196 189.999 143.292 189.849 143.42 189.721C143.551 189.59 143.703 189.49 143.876 189.42C144.048 189.347 144.235 189.311 144.436 189.311C144.77 189.311 145.062 189.377 145.312 189.507C145.561 189.636 145.756 189.82 145.896 190.061C146.036 190.299 146.107 190.584 146.107 190.915C146.107 191.254 146.034 191.554 145.889 191.815C145.747 192.075 145.544 192.278 145.28 192.425C145.016 192.572 144.704 192.645 144.345 192.645C143.953 192.645 143.612 192.544 143.322 192.341C143.035 192.138 142.812 191.848 142.653 191.472C142.497 191.094 142.419 190.641 142.419 190.113C142.419 189.572 142.495 189.1 142.646 188.698C142.8 188.297 143.025 187.986 143.319 187.767C143.613 187.545 143.974 187.434 144.401 187.434ZM144.331 189.837C144.146 189.837 143.969 189.881 143.799 189.97C143.63 190.056 143.493 190.171 143.385 190.313C143.28 190.455 143.228 190.613 143.228 190.786C143.225 191.043 143.27 191.271 143.361 191.472C143.454 191.671 143.585 191.827 143.753 191.941C143.921 192.054 144.116 192.11 144.338 192.11C144.546 192.11 144.73 192.061 144.891 191.962C145.052 191.864 145.178 191.728 145.27 191.553C145.363 191.378 145.41 191.176 145.41 190.947C145.41 190.716 145.368 190.517 145.284 190.351C145.202 190.186 145.08 190.058 144.919 189.97C144.758 189.881 144.562 189.837 144.331 189.837ZM148.261 192.638C148.009 192.638 147.774 192.6 147.557 192.523C147.342 192.443 147.164 192.321 147.021 192.155C146.879 191.987 146.789 191.773 146.751 191.514H147.34C147.372 191.657 147.431 191.776 147.515 191.871C147.601 191.965 147.709 192.036 147.837 192.085C147.966 192.132 148.106 192.155 148.257 192.155C148.5 192.155 148.696 192.11 148.846 192.019C148.995 191.927 149.07 191.787 149.07 191.598C149.07 191.465 149.03 191.359 148.951 191.28C148.874 191.198 148.754 191.138 148.59 191.101L147.841 190.915C147.549 190.845 147.315 190.736 147.14 190.586C146.965 190.437 146.878 190.228 146.878 189.959C146.875 189.747 146.925 189.56 147.028 189.399C147.131 189.238 147.285 189.11 147.49 189.017C147.696 188.924 147.952 188.877 148.257 188.877C148.65 188.877 148.966 188.966 149.206 189.143C149.449 189.318 149.575 189.576 149.585 189.917H149.014C148.991 189.744 148.912 189.608 148.779 189.507C148.648 189.405 148.472 189.353 148.25 189.353C148.019 189.353 147.831 189.4 147.687 189.493C147.542 189.584 147.469 189.727 147.469 189.921C147.469 190.049 147.521 190.151 147.623 190.225C147.726 190.298 147.878 190.358 148.079 190.407L148.804 190.59C148.972 190.634 149.11 190.692 149.217 190.765C149.327 190.837 149.413 190.918 149.476 191.006C149.542 191.095 149.587 191.188 149.613 191.287C149.641 191.382 149.655 191.474 149.655 191.563C149.655 191.785 149.599 191.976 149.487 192.138C149.377 192.296 149.218 192.42 149.01 192.509C148.805 192.595 148.555 192.638 148.261 192.638ZM153.376 188.947L152.07 192.568H151.481L150.171 188.947H150.781L151.744 191.756H151.804L152.77 188.947H153.376Z" fill="#404040"/>
</g>
<g filter="url(#filter3_d_12984_209200)">
<rect x="41" y="222.467" width="197" height="49.0311" rx="3.50222" fill="white"/>
</g>
<path d="M84.104 244.83C83.7293 244.83 83.3615 244.782 83.0008 244.688C82.6401 244.593 82.3109 244.451 82.0132 244.262C81.7155 244.073 81.4686 243.837 81.2724 243.553C81.0798 243.269 80.9642 242.937 80.9257 242.555H82.4965C82.549 242.786 82.6488 242.981 82.7959 243.138C82.943 243.296 83.1286 243.417 83.3528 243.501C83.5769 243.585 83.8256 243.627 84.0987 243.627C84.3789 243.627 84.6346 243.592 84.8657 243.522C85.0969 243.452 85.2825 243.346 85.4226 243.206C85.5627 243.063 85.6327 242.884 85.6327 242.671C85.6327 242.478 85.5749 242.32 85.4594 242.198C85.3473 242.075 85.1949 241.975 85.0023 241.898C84.8097 241.821 84.5908 241.758 84.3456 241.709L83.0323 241.441C82.4579 241.333 82.0027 241.105 81.6664 240.758C81.3302 240.408 81.1569 239.942 81.1464 239.361C81.1429 238.885 81.2689 238.473 81.5246 238.126C81.7838 237.776 82.134 237.507 82.5753 237.317C83.0201 237.128 83.5174 237.034 84.0672 237.034C84.7221 237.034 85.272 237.137 85.7168 237.344C86.165 237.547 86.5048 237.823 86.7359 238.174C86.9706 238.52 87.0914 238.907 87.0984 239.335H85.5592C85.5311 239.069 85.4506 238.857 85.3175 238.699C85.1844 238.541 85.0128 238.428 84.8027 238.358C84.5961 238.288 84.3597 238.253 84.0935 238.253C83.8904 238.253 83.7047 238.275 83.5366 238.321C83.372 238.366 83.2319 238.431 83.1164 238.515C83.0008 238.596 82.9115 238.692 82.8484 238.804C82.7854 238.916 82.7539 239.042 82.7539 239.182C82.7539 239.403 82.8274 239.582 82.9745 239.718C83.1216 239.855 83.3965 239.967 83.7993 240.054L85.1021 240.322C85.5679 240.413 85.9374 240.548 86.2106 240.727C86.4873 240.905 86.6939 241.107 86.8305 241.331C86.9706 241.555 87.0616 241.784 87.1036 242.019C87.1492 242.25 87.1719 242.464 87.1719 242.66C87.1719 243.07 87.0424 243.439 86.7832 243.769C86.5275 244.094 86.1703 244.353 85.7115 244.546C85.2527 244.735 84.7169 244.83 84.104 244.83ZM88.4093 244.725V237.128H90.6367L92.3756 242.544L94.1302 237.128H96.3524V244.725H94.8026V238.914L92.9745 244.725H91.7715L89.9538 238.941V244.725H88.4093ZM100.79 244.83C100.415 244.83 100.047 244.782 99.6867 244.688C99.326 244.593 98.9968 244.451 98.6991 244.262C98.4014 244.073 98.1545 243.837 97.9584 243.553C97.7658 243.269 97.6502 242.937 97.6117 242.555H99.1824C99.235 242.786 99.3348 242.981 99.4819 243.138C99.629 243.296 99.8146 243.417 100.039 243.501C100.263 243.585 100.512 243.627 100.785 243.627C101.065 243.627 101.321 243.592 101.552 243.522C101.783 243.452 101.968 243.346 102.109 243.206C102.249 243.063 102.319 242.884 102.319 242.671C102.319 242.478 102.261 242.32 102.145 242.198C102.033 242.075 101.881 241.975 101.688 241.898C101.496 241.821 101.277 241.758 101.032 241.709L99.7183 241.441C99.1439 241.333 98.6886 241.105 98.3524 240.758C98.0162 240.408 97.8428 239.942 97.8323 239.361C97.8288 238.885 97.9549 238.473 98.2106 238.126C98.4697 237.776 98.8199 237.507 99.2612 237.317C99.706 237.128 100.203 237.034 100.753 237.034C101.408 237.034 101.958 237.137 102.403 237.344C102.851 237.547 103.191 237.823 103.422 238.174C103.657 238.52 103.777 238.907 103.784 239.335H102.245C102.217 239.069 102.137 238.857 102.003 238.699C101.87 238.541 101.699 238.428 101.489 238.358C101.282 238.288 101.046 238.253 100.779 238.253C100.576 238.253 100.391 238.275 100.223 238.321C100.058 238.366 99.9179 238.431 99.8023 238.515C99.6867 238.596 99.5974 238.692 99.5344 238.804C99.4714 238.916 99.4398 239.042 99.4398 239.182C99.4398 239.403 99.5134 239.582 99.6605 239.718C99.8076 239.855 100.082 239.967 100.485 240.054L101.788 240.322C102.254 240.413 102.623 240.548 102.897 240.727C103.173 240.905 103.38 241.107 103.516 241.331C103.657 241.555 103.748 241.784 103.79 242.019C103.835 242.25 103.858 242.464 103.858 242.66C103.858 243.07 103.728 243.439 103.469 243.769C103.213 244.094 102.856 244.353 102.397 244.546C101.939 244.735 101.403 244.83 100.79 244.83ZM112.269 244.725H110.74L109.275 242.382L108.555 243.149V244.725H107.021V236.918H108.555V241.546L110.551 239.293H112.201L110.225 241.457L112.269 244.725ZM113.009 244.725V239.293H114.485V240.58C114.573 240.303 114.695 240.061 114.853 239.855C115.014 239.645 115.209 239.482 115.436 239.366C115.664 239.247 115.921 239.188 116.208 239.188C116.257 239.188 116.303 239.191 116.345 239.198C116.391 239.202 116.424 239.209 116.445 239.219V240.68C116.413 240.666 116.375 240.657 116.329 240.653C116.287 240.65 116.249 240.646 116.214 240.643C115.912 240.618 115.655 240.627 115.441 240.669C115.228 240.711 115.054 240.783 114.921 240.884C114.788 240.986 114.692 241.11 114.632 241.257C114.573 241.405 114.543 241.569 114.543 241.751V244.725H113.009ZM118.401 242.361C118.398 242.637 118.441 242.879 118.532 243.086C118.623 243.289 118.755 243.446 118.926 243.558C119.101 243.667 119.312 243.721 119.557 243.721C119.819 243.721 120.049 243.665 120.245 243.553C120.445 243.441 120.583 243.257 120.66 243.002H122.042C121.982 243.387 121.828 243.716 121.579 243.989C121.334 244.262 121.036 244.471 120.686 244.614C120.336 244.758 119.972 244.83 119.594 244.83C119.058 244.83 118.585 244.718 118.175 244.493C117.769 244.266 117.452 243.945 117.224 243.532C116.997 243.119 116.883 242.632 116.883 242.072C116.883 241.529 116.986 241.04 117.193 240.606C117.399 240.168 117.699 239.823 118.091 239.571C118.487 239.315 118.961 239.188 119.515 239.188C120.068 239.188 120.532 239.305 120.907 239.54C121.285 239.771 121.569 240.095 121.758 240.511C121.951 240.925 122.047 241.403 122.047 241.946V242.361H118.401ZM118.396 241.447H120.613C120.613 241.229 120.572 241.03 120.492 240.848C120.411 240.666 120.289 240.522 120.124 240.417C119.963 240.312 119.76 240.259 119.515 240.259C119.277 240.259 119.073 240.317 118.905 240.433C118.741 240.545 118.615 240.692 118.527 240.874C118.44 241.056 118.396 241.247 118.396 241.447ZM125.012 244.83C124.284 244.83 123.716 244.579 123.31 244.078C122.904 243.574 122.701 242.874 122.701 241.977C122.701 241.41 122.783 240.918 122.948 240.501C123.112 240.084 123.356 239.762 123.678 239.534C124 239.303 124.394 239.188 124.86 239.188C125.056 239.188 125.238 239.21 125.406 239.256C125.578 239.298 125.734 239.357 125.874 239.435C126.014 239.512 126.137 239.601 126.242 239.702C126.347 239.804 126.432 239.913 126.499 240.028V236.918H128.038V244.725H126.925L126.751 243.611C126.702 243.761 126.634 243.909 126.546 244.052C126.459 244.196 126.347 244.327 126.21 244.446C126.073 244.562 125.905 244.655 125.706 244.725C125.51 244.795 125.278 244.83 125.012 244.83ZM125.349 243.726C125.734 243.726 126.021 243.592 126.21 243.322C126.403 243.052 126.499 242.597 126.499 241.956C126.496 241.585 126.452 241.277 126.368 241.032C126.284 240.786 126.158 240.604 125.989 240.485C125.825 240.363 125.615 240.301 125.359 240.301C125.026 240.301 124.75 240.429 124.529 240.685C124.308 240.937 124.198 241.361 124.198 241.956C124.198 242.562 124.301 243.009 124.508 243.296C124.715 243.583 124.995 243.726 125.349 243.726ZM130.815 239.293V244.725H129.349V239.293H130.815ZM130.831 237.134V238.515H129.339V237.134H130.831ZM135.398 240.359H134.19L134.2 243.254C134.2 243.387 134.216 243.487 134.247 243.553C134.282 243.616 134.335 243.658 134.405 243.679C134.479 243.697 134.571 243.705 134.683 243.705H135.414V244.651C135.344 244.683 135.233 244.712 135.083 244.74C134.936 244.768 134.729 244.782 134.463 244.782C133.986 244.782 133.617 244.721 133.354 244.599C133.095 244.476 132.915 244.304 132.813 244.084C132.712 243.863 132.661 243.607 132.661 243.317V240.359H131.778V239.293H132.713L133.097 237.654H134.19V239.287H135.398V240.359Z" fill="black"/>
<path d="M83.8536 254.438V254.939L80.8312 254.946V254.442L83.8536 254.438ZM82.5998 256.2H82.099L82.092 253.177H82.5963L82.5998 256.2ZM87.2028 257.236V253.205H86.2257V252.782C86.5292 252.782 86.765 252.759 86.9331 252.715C87.1012 252.671 87.2203 252.603 87.2904 252.512C87.3627 252.421 87.4024 252.308 87.4094 252.172H87.8717V257.236H87.2028ZM89.5719 252.172H92.5943L92.5768 252.732H90.1252L89.9957 254.368C90.1638 254.212 90.347 254.101 90.5455 254.035C90.7463 253.968 90.9634 253.934 91.1969 253.934C91.5028 253.934 91.7841 253.997 92.041 254.123C92.3001 254.247 92.5079 254.431 92.6644 254.676C92.8208 254.919 92.899 255.22 92.899 255.58C92.899 255.93 92.8231 256.235 92.6714 256.494C92.5196 256.753 92.306 256.955 92.0305 257.1C91.7549 257.242 91.4316 257.313 91.0603 257.313C90.7475 257.313 90.458 257.259 90.1918 257.149C89.9256 257.039 89.6968 256.886 89.5053 256.69C89.3162 256.494 89.1773 256.269 89.0886 256.014L89.6489 255.779C89.733 255.971 89.8381 256.141 89.9641 256.291C90.0926 256.44 90.2443 256.557 90.4194 256.641C90.5945 256.725 90.793 256.767 91.0148 256.767C91.3744 256.767 91.6627 256.663 91.8799 256.455C92.0993 256.245 92.2091 255.96 92.2091 255.601C92.2091 255.377 92.1577 255.182 92.055 255.016C91.9522 254.848 91.8133 254.717 91.6382 254.624C91.4654 254.53 91.274 254.484 91.0638 254.484C90.9261 254.484 90.7977 254.496 90.6786 254.522C90.5595 254.545 90.4416 254.592 90.3249 254.662C90.2081 254.732 90.0855 254.838 89.9571 254.981C89.9431 254.988 89.9326 254.991 89.9256 254.991C89.9186 254.989 89.9069 254.984 89.8906 254.977L89.3442 254.806L89.5719 252.172ZM95.5228 257.236V252.172H98.7168L98.7133 252.743H96.1742V254.396H98.4612V254.963H96.1707V256.651L98.7834 256.658V257.236H95.5228ZM103.568 255.485C103.568 255.875 103.504 256.206 103.376 256.476C103.247 256.747 103.046 256.954 102.773 257.096C102.502 257.236 102.15 257.306 101.716 257.306C101.277 257.306 100.921 257.234 100.647 257.089C100.377 256.944 100.178 256.732 100.052 256.452C99.9283 256.172 99.8664 255.827 99.8664 255.419V252.172H100.539V255.517C100.539 255.925 100.64 256.231 100.844 256.434C101.047 256.637 101.337 256.739 101.716 256.739C101.97 256.739 102.186 256.695 102.363 256.606C102.543 256.517 102.68 256.383 102.773 256.203C102.869 256.021 102.917 255.792 102.917 255.517V252.172H103.568V255.485ZM108.392 257.236H107.706L106.781 255.054H105.419V257.236H104.771V252.172H106.732C107.096 252.172 107.401 252.228 107.646 252.34C107.891 252.45 108.075 252.609 108.196 252.817C108.317 253.022 108.378 253.268 108.378 253.555C108.378 253.831 108.329 254.06 108.231 254.242C108.135 254.424 108.013 254.571 107.863 254.683C107.714 254.793 107.559 254.878 107.398 254.939L108.392 257.236ZM106.522 254.519C106.903 254.519 107.197 254.442 107.405 254.287C107.612 254.131 107.716 253.9 107.716 253.594C107.716 253.295 107.623 253.072 107.436 252.925C107.252 252.776 106.998 252.701 106.676 252.701H105.419V254.519H106.522Z" fill="#404040"/>
<circle cx="62.8885" cy="246.983" r="10.5067" fill="#DC0069"/>
<rect x="62.6025" y="242.869" width="1.09444" height="8.75556" fill="white"/>
<rect x="67.5273" y="246.699" width="1.09444" height="8.75556" transform="rotate(90 67.5273 246.699)" fill="white"/>
<defs>
<filter id="filter0_d_12984_209200" x="29.6055" y="33.1133" width="281.788" height="390.547" filterUnits="userSpaceOnUse" color-interpolation-filters="sRGB">
<feFlood flood-opacity="0" result="BackgroundImageFix"/>
<feColorMatrix in="SourceAlpha" type="matrix" values="0 0 0 0 0 0 0 0 0 0 0 0 0 0 0 0 0 0 127 0" result="hardAlpha"/>
<feOffset dy="17.8867"/>
<feGaussianBlur stdDeviation="17.8867"/>
<feColorMatrix type="matrix" values="0 0 0 0 0 0 0 0 0 0 0 0 0 0 0 0 0 0 0.08 0"/>
<feBlend mode="normal" in2="BackgroundImageFix" result="effect1_dropShadow_12984_209200"/>
<feBlend mode="normal" in="SourceGraphic" in2="effect1_dropShadow_12984_209200" result="shape"/>
</filter>
<filter id="filter1_d_12984_209200" x="5.97778" y="75.6237" width="267.044" height="119.076" filterUnits="userSpaceOnUse" color-interpolation-filters="sRGB">
<feFlood flood-opacity="0" result="BackgroundImageFix"/>
<feColorMatrix in="SourceAlpha" type="matrix" values="0 0 0 0 0 0 0 0 0 0 0 0 0 0 0 0 0 0 127 0" result="hardAlpha"/>
<feOffset dy="17.5111"/>
<feGaussianBlur stdDeviation="17.5111"/>
<feColorMatrix type="matrix" values="0 0 0 0 0 0 0 0 0 0 0 0 0 0 0 0 0 0 0.08 0"/>
<feBlend mode="normal" in2="BackgroundImageFix" result="effect1_dropShadow_12984_209200"/>
<feBlend mode="normal" in="SourceGraphic" in2="effect1_dropShadow_12984_209200" result="shape"/>
</filter>
<filter id="filter2_d_12984_209200" x="5.97778" y="135.034" width="267.044" height="129.582" filterUnits="userSpaceOnUse" color-interpolation-filters="sRGB">
<feFlood flood-opacity="0" result="BackgroundImageFix"/>
<feColorMatrix in="SourceAlpha" type="matrix" values="0 0 0 0 0 0 0 0 0 0 0 0 0 0 0 0 0 0 127 0" result="hardAlpha"/>
<feOffset dy="17.5111"/>
<feGaussianBlur stdDeviation="17.5111"/>
<feColorMatrix type="matrix" values="0 0 0 0 0 0 0 0 0 0 0 0 0 0 0 0 0 0 0.08 0"/>
<feBlend mode="normal" in2="BackgroundImageFix" result="effect1_dropShadow_12984_209200"/>
<feBlend mode="normal" in="SourceGraphic" in2="effect1_dropShadow_12984_209200" result="shape"/>
</filter>
<filter id="filter3_d_12984_209200" x="5.97778" y="204.956" width="267.044" height="119.076" filterUnits="userSpaceOnUse" color-interpolation-filters="sRGB">
<feFlood flood-opacity="0" result="BackgroundImageFix"/>
<feColorMatrix in="SourceAlpha" type="matrix" values="0 0 0 0 0 0 0 0 0 0 0 0 0 0 0 0 0 0 127 0" result="hardAlpha"/>
<feOffset dy="17.5111"/>
<feGaussianBlur stdDeviation="17.5111"/>
<feColorMatrix type="matrix" values="0 0 0 0 0 0 0 0 0 0 0 0 0 0 0 0 0 0 0.08 0"/>
<feBlend mode="normal" in2="BackgroundImageFix" result="effect1_dropShadow_12984_209200"/>
<feBlend mode="normal" in="SourceGraphic" in2="effect1_dropShadow_12984_209200" result="shape"/>
</filter>
<clipPath id="clip0_12984_209200">
<rect width="21.597" height="21.597" fill="white" transform="translate(52.6738 172.977)"/>
</clipPath>
</defs>
</svg>
