<svg width="520" height="89" viewBox="0 0 520 89" fill="none" xmlns="http://www.w3.org/2000/svg">
	<rect width="520" height="89" rx="4" fill="#F3F4F6"/>
	<line x1="64.5" y1="43.5" x2="131.5" y2="44.5" stroke="#D1D5DB" stroke-linecap="round" stroke-linejoin="round" stroke-dasharray="1 3"/>
	<line x1="172.5" y1="43.5" x2="239.5" y2="44.5" stroke="#D1D5DB" stroke-linecap="round" stroke-linejoin="round" stroke-dasharray="1 3"/>
	<line x1="280.5" y1="43.5" x2="347.5" y2="44.5" stroke="#D1D5DB" stroke-linecap="round" stroke-linejoin="round" stroke-dasharray="1 3"/>
	<line x1="388.5" y1="43.5" x2="455.5" y2="44.5" stroke="#D1D5DB" stroke-linecap="round" stroke-linejoin="round" stroke-dasharray="1 3"/>
	<path fill-rule="evenodd" clip-rule="evenodd" d="M472.004 36.0086C476.413 36.0086 480 39.5892 480 44C480 48.4108 476.413 52 472.004 52C467.587 52 464 48.4108 464 44C463.999 39.5805 467.579 36 471.996 36L472.004 36.0086Z" fill="#DC2626" stroke="#FCA5A5" stroke-width="2" stroke-linecap="round" stroke-linejoin="round"/>
	<path fill-rule="evenodd" clip-rule="evenodd" d="M48.0043 36.0086C52.4128 36.0086 56 39.5892 56 44C56 48.4108 52.4128 52 48.0043 52C43.5873 52 40 48.4108 40 44C39.9991 39.5805 43.5786 36 47.9957 36L48.0043 36.0086Z" fill="#059669" stroke="#6EE7B7" stroke-width="2" stroke-linecap="round" stroke-linejoin="round"/>
	<rect x="146.75" y="33.75" width="10.5" height="13.5" rx="1.25" stroke="#4B5563" stroke-width="1.5"/>
	<line x1="149.75" y1="37.25" x2="154.25" y2="41.25" stroke="#4B5563" stroke-width="1.5" stroke-linecap="round" stroke-linejoin="round"/>
	<line x1="149.75" y1="40.25" x2="151.25" y2="44.25" stroke="#4B5563" stroke-width="1.5" stroke-linecap="round" stroke-linejoin="round"/>
	<line x1="149.75" y1="43.25" x2="153.25" y2="47.25" stroke="#4B5563" stroke-width="1.5" stroke-linecap="round" stroke-linejoin="round"/>
	<line x1="153.75" y1="47.75" x2="151.75" y2="54.25" stroke="#4B5563" stroke-width="1.5" stroke-linecap="round" stroke-linejoin="round"/>
	<line x1="150.75" y1="47.75" x2="147.75" y2="50.25" stroke="#4B5563" stroke-width="1.5" stroke-linecap="round" stroke-linejoin="round"/>
	<line x1="150.75" y1="52.75" x2="148.75" y2="54.25" stroke="#4B5563" stroke-width="1.5" stroke-linecap="round" stroke-linejoin="round"/>
	<rect x="362.75" y="33.75" width="10.5" height="13.5" rx="1.25" stroke="#4B5563" stroke-width="1.5"/>
	<line x1="365.75" y1="37.25" x2="370.25" y2="41.25" stroke="#4B5563" stroke-width="1.5" stroke-linecap="round" stroke-linejoin="round"/>
	<line x1="365.75" y1="40.25" x2="370.25" y2="44.25" stroke="#4B5563" stroke-width="1.5" stroke-linecap="round" stroke-linejoin="round"/>
	<line x1="365.75" y1="43.25" x2="369.25" y2="47.25" stroke="#4B5563" stroke-width="1.5" stroke-linecap="round" stroke-linejoin="round"/>
	<line x1="369.75" y1="47.75" x2="367.75" y2="54.25" stroke="#4B5563" stroke-width="1.5" stroke-linecap="round" stroke-linejoin="round"/>
	<line x1="366.75" y1="47.75" x2="363.75" y2="50.25" stroke="#4B5563" stroke-width="1.5" stroke-linecap="round" stroke-linejoin="round"/>
	<line x1="366.75" y1="52.75" x2="364.75" y2="54.25" stroke="#4B5563" stroke-width="1.5" stroke-linecap="round" stroke-linejoin="round"/>
	<rect x="254.75" y="33.75" width="10.5" height="13.5" rx="1.25" stroke="#4B5563" stroke-width="1.5"/>
	<line x1="257.75" y1="37.25" x2="260.25" y2="43.25" stroke="#4B5563" stroke-width="1.5" stroke-linecap="round" stroke-linejoin="round"/>
	<line x1="257.75" y1="40.25" x2="262.25" y2="44.25" stroke="#4B5563" stroke-width="1.5" stroke-linecap="round" stroke-linejoin="round"/>
	<line x1="257.75" y1="43.25" x2="261.25" y2="47.25" stroke="#4B5563" stroke-width="1.5" stroke-linecap="round" stroke-linejoin="round"/>
	<line x1="261.75" y1="47.75" x2="259.75" y2="54.25" stroke="#4B5563" stroke-width="1.5" stroke-linecap="round" stroke-linejoin="round"/>
	<line x1="258.75" y1="47.75" x2="255.75" y2="50.25" stroke="#4B5563" stroke-width="1.5" stroke-linecap="round" stroke-linejoin="round"/>
	<line x1="258.75" y1="52.75" x2="256.75" y2="54.25" stroke="#4B5563" stroke-width="1.5" stroke-linecap="round" stroke-linejoin="round"/>
</svg>
