<svg width="64" height="64" viewBox="0 0 64 64" fill="none" xmlns="http://www.w3.org/2000/svg">
	<mask id="mask0" mask-type="alpha" maskUnits="userSpaceOnUse" x="0" y="0" width="64" height="64">
		<rect width="64" height="64" fill="#C4C4C4"/>
	</mask>
	<g mask="url(#mask0)">
		<path d="M52.4201 17.624C51.5163 16.8896 50.443 16.8896 49.4262 16.8896H47.1667V25.4757H49.7087C50.7819 25.4757 51.7987 25.3062 52.5895 24.4025C53.4933 23.6681 53.9452 22.3124 53.9452 21.0697C53.8887 19.714 53.3239 18.3583 52.4201 17.624Z" fill="#E60025"/>
		<path d="M47.7882 50.8384C47.0538 50.8384 46.3195 51.4032 46.15 52.1376H49.5393C49.3133 51.3468 48.579 50.8384 47.7882 50.8384Z" fill="#E60025"/>
		<path d="M25.5321 50.9517C24.5719 50.9517 23.8375 51.7425 23.8375 52.6463C23.8375 53.5501 24.5719 54.2844 25.4757 54.2844C26.4359 54.2844 27.1703 53.4936 27.1703 52.5898C27.2268 51.686 26.4359 50.9517 25.5321 50.9517Z" fill="#E60025"/>
		<path d="M0 0V64H64V0H0ZM27.3963 35.248H29.9382V16.4378H27.3963V12.0883H36.6037V16.4378H34.1748V35.248H36.6037V39.5975H27.3963V35.248ZM9.32039 55.4139H7.0609V51.0644H6.21359V49.8782H7.0609V48.0141H8.30362V49.8782H9.2639V51.0644H8.30362V54.2277H9.32039V55.4139ZM18.0194 51.1209C17.624 51.1209 17.2286 51.2339 16.9462 51.5163C16.5508 51.8553 16.4943 52.3071 16.4943 52.8155V54.2277H17.2286V55.4139H14.5172V54.2277H15.2515V51.0644H14.5172V49.8782H16.3813V50.8385C16.7202 50.1606 17.3416 49.8782 18.0194 49.8217V51.1209ZM17.1721 16.7202V35.248H19.6011V39.5975H10.3936V35.248H12.8226V16.7202H9.48985V20.7873H6.1571V12.0318H23.9506V20.7873H20.5049V16.7202H17.1721ZM29.1474 51.0644H28.4696V54.2277H29.1474V55.4139H27.1703V54.6796C26.7749 55.301 26.0971 55.5834 25.3628 55.5834C23.7811 55.5834 22.5384 54.2842 22.5384 52.7026C22.5384 51.1209 23.8376 49.7652 25.4192 49.7652C26.1536 49.7652 26.7749 50.1041 27.1139 50.7255V49.9347H29.0909V51.0644H29.1474ZM40.1059 51.0644H39.4281L37.677 55.4139H36.3213L34.6267 51.0644H33.9488V49.8782H36.5472V51.0644H35.9823L36.9991 53.8888L38.0724 51.0644H37.5075V49.8782H40.1059V51.0644ZM50.669 53.098H46.2065C46.376 53.8888 47.0538 54.4537 47.8447 54.4537C48.4095 54.4537 48.8614 54.2277 49.2004 53.7758H50.4996C50.0477 54.8491 49.0309 55.5269 47.9011 55.5269C46.263 55.5269 44.9638 54.2842 44.9638 52.6461C44.9638 51.0079 46.2065 49.7087 47.8447 49.7087C48.6355 49.7087 49.3698 50.0477 49.9347 50.6125C50.4996 51.1774 50.7255 51.9117 50.7255 52.7026L50.669 53.098ZM58.2948 55.4139H55.5269V54.2277H56.3177V49.2004H55.5834V48.0141H57.5605V54.2277H58.2948V55.4139ZM56.0353 27.5658C54.3972 29.6558 52.5896 30.1077 50.1606 30.1077H47.1668V35.248H49.7087V39.5975H40.3319V35.248H42.7608V16.4378H40.3319V12.0883H49.3698C51.4598 12.0883 53.6064 12.3707 55.4139 13.8959C57.2215 15.534 58.2948 18.2454 58.2948 21.1262C58.2948 23.4987 57.504 25.7582 56.0353 27.5658Z" fill="#E60025"/>
		<path d="M23.9506 20.7873V12.0317H6.1571V20.7873H9.48985V16.7202H12.8226V35.248H10.3936V39.5975H19.6011V35.248H17.1721V16.7202H20.5048V20.7873H23.9506Z" fill="white"/>
		<path d="M36.6038 35.248H34.1748V16.4377H36.6038V12.0317H27.3964V16.4377H29.9948V35.248H27.3964V39.5975H36.6038V35.248Z" fill="white"/>
		<path d="M49.3699 12.0317H40.3319V16.3813H42.7609V35.1915H40.3319V39.541H49.7088V35.1915H47.1669V30.0512H50.1607C52.5896 30.0512 54.3972 29.5993 56.0353 27.5092C57.5605 25.7016 58.2948 23.4422 58.2948 21.0132C58.2948 18.1324 57.2216 15.421 55.414 13.7828C53.6064 12.3707 51.5164 12.0317 49.3699 12.0317ZM52.5331 24.4024C51.7988 25.3062 50.7256 25.4757 49.6523 25.4757H47.1104V16.8896H49.3699C50.4431 16.8896 51.4599 16.8896 52.3637 17.624C53.2675 18.3583 53.8888 19.714 53.8888 21.0697C53.8888 22.3124 53.4369 23.6681 52.5331 24.4024Z" fill="white"/>
		<path d="M8.30362 51.0645H9.2639V49.8782H8.30362V48.0142H7.0609V49.8782H6.1571V51.0645H7.0609V55.414H9.32039V54.2278H8.30362V51.0645Z" fill="white"/>
		<path d="M16.3813 50.8385V49.8783H14.5172V51.0645H15.2515V54.2278H14.5172V55.414H17.2286V54.2278H16.4943V52.8156C16.4943 52.3072 16.5508 51.8553 16.9462 51.5164C17.2851 51.234 17.624 51.121 18.0194 51.121V49.8218C17.3416 49.8218 16.7202 50.1607 16.3813 50.8385Z" fill="white"/>
		<path d="M27.1703 50.6688C26.7749 50.0474 26.1535 49.7085 25.4757 49.7085C23.8376 49.7085 22.5948 51.0642 22.5948 52.6458C22.5948 54.2275 23.8376 55.5267 25.4192 55.5267C26.1535 55.5267 26.7749 55.2442 27.2268 54.6229V55.3572H29.2038V54.2275H28.526V51.0642H29.2038V49.878H27.2268V50.6688H27.1703ZM25.5322 54.3404C24.6284 54.3404 23.8941 53.6061 23.8941 52.7023C23.8941 51.742 24.6284 51.0077 25.5887 51.0077C26.4925 51.0077 27.2833 51.742 27.2833 52.6458C27.2268 53.5496 26.436 54.3404 25.5322 54.3404Z" fill="white"/>
		<path d="M37.5641 51.0647H38.1289L37.0557 53.889L36.0389 51.0647H36.6038V49.8784H34.0054V51.0647H34.6832L36.3778 55.4142H37.7335L39.4281 51.0647H40.106V49.8784H37.5641V51.0647Z" fill="white"/>
		<path d="M47.8446 49.7085C46.2065 49.7085 44.9637 51.0077 44.9637 52.6458C44.9637 54.284 46.263 55.5267 47.9011 55.5267C49.0308 55.5267 50.1041 54.7923 50.4995 53.7756H49.1438C48.8049 54.2275 48.353 54.4534 47.7881 54.4534C46.9973 54.4534 46.3194 53.8886 46.15 53.0977H50.6125L50.6689 52.6458C50.6689 51.855 50.443 51.1772 49.8781 50.5558C49.3697 50.0474 48.5789 49.7085 47.8446 49.7085ZM46.15 52.1374C46.3194 51.4031 46.9973 50.8382 47.7881 50.8382C48.6354 50.8382 49.3133 51.3466 49.5392 52.1374H46.15Z" fill="white"/>
		<path d="M57.5605 48.0142H55.5835V49.2004H56.3178V54.2278H55.527V55.414H58.2948V54.2278H57.5605V48.0142Z" fill="white"/>
	</g>
</svg>
