<svg width="32" height="32" viewBox="0 0 40 40" fill="none" xmlns="http://www.w3.org/2000/svg">
	<mask id="mask0" mask-type="alpha" maskUnits="userSpaceOnUse" x="0" y="0" width="40" height="40">
		<rect width="40" height="40" fill="#C4C4C4"/>
	</mask>
	<g mask="url(#mask0)">
		<path d="M32.7623 11.015C32.1975 10.556 31.5267 10.556 30.8912 10.556H29.479V15.9223H31.0677C31.7385 15.9223 32.374 15.8164 32.8682 15.2515C33.4331 14.7926 33.7155 13.9453 33.7155 13.1686C33.6802 12.3213 33.3272 11.4739 32.7623 11.015Z" fill="#E60025"/>
		<path d="M29.8676 31.774C29.4086 31.774 28.9497 32.1271 28.8438 32.586H30.962C30.8208 32.0918 30.3618 31.774 29.8676 31.774Z" fill="#E60025"/>
		<path d="M15.9576 31.8446C15.3574 31.8446 14.8984 32.3389 14.8984 32.9037C14.8984 33.4686 15.3574 33.9276 15.9223 33.9276C16.5224 33.9276 16.9814 33.4333 16.9814 32.8684C17.0167 32.3036 16.5224 31.8446 15.9576 31.8446Z" fill="#E60025"/>
		<path d="M0 0V40H40V0H0ZM17.1227 22.03H18.7114V10.2736H17.1227V7.55516H22.8773V10.2736H21.3592V22.03H22.8773V24.7485H17.1227V22.03ZM5.82524 34.6337H4.41306V31.9153H3.8835V31.1739H4.41306V30.0088H5.18976V31.1739H5.78994V31.9153H5.18976V33.8923H5.82524V34.6337ZM11.2621 31.9506C11.015 31.9506 10.7679 32.0212 10.5914 32.1977C10.3442 32.4095 10.3089 32.692 10.3089 33.0097V33.8923H10.7679V34.6337H9.07326V33.8923H9.53222V31.9153H9.07326V31.1739H10.2383V31.7741C10.4501 31.3504 10.8385 31.1739 11.2621 31.1386V31.9506ZM10.7326 10.4501V22.03H12.2507V24.7485H6.49603V22.03H8.01412V10.4501H5.93116V12.9921H3.84819V7.51986H14.9691V12.9921H12.8155V10.4501H10.7326ZM18.2171 31.9153H17.7935V33.8923H18.2171V34.6337H16.9815V34.1748C16.7343 34.5631 16.3107 34.7396 15.8517 34.7396C14.8632 34.7396 14.0865 33.9276 14.0865 32.9391C14.0865 31.9506 14.8985 31.1033 15.887 31.1033C16.346 31.1033 16.7343 31.3151 16.9462 31.7034V31.2092H18.1818V31.9153H18.2171ZM25.0662 31.9153H24.6425L23.5481 34.6337H22.7008L21.6417 31.9153H21.218V31.1739H22.842V31.9153H22.489L23.1244 33.6805L23.7952 31.9153H23.4422V31.1739H25.0662V31.9153ZM31.6681 33.1862H28.8791C28.985 33.6805 29.4086 34.0335 29.9029 34.0335C30.256 34.0335 30.5384 33.8923 30.7502 33.6099H31.5622C31.2798 34.2807 30.6443 34.7043 29.9382 34.7043C28.9144 34.7043 28.1024 33.9276 28.1024 32.9038C28.1024 31.88 28.8791 31.068 29.9029 31.068C30.3972 31.068 30.8561 31.2798 31.2092 31.6328C31.5622 31.9859 31.7034 32.4448 31.7034 32.9391L31.6681 33.1862ZM36.4342 34.6337H34.7043V33.8923H35.1986V30.7502H34.7396V30.0088H35.9753V33.8923H36.4342V34.6337ZM35.0221 17.2286C33.9982 18.5349 32.8685 18.8173 31.3504 18.8173H29.4793V22.03H31.068V24.7485H25.2074V22.03H26.7255V10.2736H25.2074V7.55516H30.8561C32.1624 7.55516 33.504 7.73169 34.6337 8.68491C35.7635 9.70874 36.4342 11.4034 36.4342 13.2039C36.4342 14.6867 35.94 16.0989 35.0221 17.2286Z" fill="#E60025"/>
		<path d="M14.9691 12.9921V7.5199H3.84814V12.9921H5.93111V10.4502H8.01408V22.03H6.49598V24.7485H12.2506V22.03H10.7325V10.4502H12.8155V12.9921H14.9691Z" fill="white"/>
		<path d="M22.8772 22.03H21.3591V10.2736H22.8772V7.5199H17.1226V10.2736H18.7466V22.03H17.1226V24.7485H22.8772V22.03Z" fill="white"/>
		<path d="M30.8562 7.5199H25.2075V10.2383H26.7256V21.9947H25.2075V24.7132H31.0681V21.9947H29.4794V18.782H31.3505C32.8686 18.782 33.9983 18.4996 35.0222 17.1933C35.9754 16.0636 36.4344 14.6514 36.4344 13.1333C36.4344 11.3328 35.7636 9.63817 34.6338 8.61434C33.5041 7.73172 32.1978 7.5199 30.8562 7.5199ZM32.8333 15.2516C32.3743 15.8165 31.7035 15.9224 31.0328 15.9224H29.4441V10.5561H30.8562C31.527 10.5561 32.1625 10.5561 32.7274 11.015C33.2923 11.474 33.6806 12.3213 33.6806 13.1686C33.6806 13.9453 33.3982 14.7926 32.8333 15.2516Z" fill="white"/>
		<path d="M5.18972 31.9152H5.78989V31.1738H5.18972V30.0088H4.41302V31.1738H3.84814V31.9152H4.41302V34.6337H5.8252V33.8923H5.18972V31.9152Z" fill="white"/>
		<path d="M10.2383 31.774V31.1739H9.07324V31.9153H9.5322V33.8923H9.07324V34.6337H10.7679V33.8923H10.3089V33.0097C10.3089 32.6919 10.3442 32.4095 10.5913 32.1977C10.8032 32.0212 11.015 31.9506 11.2621 31.9506V31.1385C10.8385 31.1385 10.4501 31.3504 10.2383 31.774Z" fill="white"/>
		<path d="M16.9812 31.6682C16.7341 31.2798 16.3458 31.068 15.9221 31.068C14.8983 31.068 14.1216 31.9153 14.1216 32.9038C14.1216 33.8924 14.8983 34.7044 15.8868 34.7044C16.3458 34.7044 16.7341 34.5278 17.0166 34.1395V34.5984H18.2522V33.8924H17.8286V31.9153H18.2522V31.1739H17.0166V31.6682H16.9812ZM15.9574 33.963C15.3925 33.963 14.9336 33.504 14.9336 32.9391C14.9336 32.339 15.3925 31.88 15.9927 31.88C16.5576 31.88 17.0519 32.339 17.0519 32.9038C17.0165 33.4687 16.5223 33.963 15.9574 33.963Z" fill="white"/>
		<path d="M23.4776 31.9152H23.8306L23.1599 33.6805L22.5244 31.9152H22.8774V31.1738H21.2534V31.9152H21.6771L22.7362 34.6337H23.5835L24.6427 31.9152H25.0663V31.1738H23.4776V31.9152Z" fill="white"/>
		<path d="M29.9031 31.068C28.8792 31.068 28.1025 31.88 28.1025 32.9038C28.1025 33.9277 28.9145 34.7044 29.9384 34.7044C30.6445 34.7044 31.3152 34.2454 31.5624 33.6099H30.7151C30.5032 33.8924 30.2208 34.0336 29.8678 34.0336C29.3735 34.0336 28.9498 33.6805 28.8439 33.1863H31.633L31.6683 32.9038C31.6683 32.4096 31.5271 31.9859 31.174 31.5976C30.8563 31.2798 30.362 31.068 29.9031 31.068ZM28.8439 32.5861C28.9498 32.1271 29.3735 31.7741 29.8678 31.7741C30.3973 31.7741 30.821 32.0918 30.9622 32.5861H28.8439Z" fill="white"/>
		<path d="M35.9755 30.0088H34.7399V30.7502H35.1988V33.8923H34.7046V34.6337H36.4345V33.8923H35.9755V30.0088Z" fill="white"/>
	</g>
</svg>
