<svg width="177" height="46" viewBox="0 0 177 46" fill="none" xmlns="http://www.w3.org/2000/svg">
<path fill-rule="evenodd" clip-rule="evenodd" d="M0 46H177V0H0V46Z" fill="black"/>
<path fill-rule="evenodd" clip-rule="evenodd" d="M91 17.0802H84.4405V34H79.5595V17.0802H73V13H91V17.0802Z" fill="white"/>
<path fill-rule="evenodd" clip-rule="evenodd" d="M96 34H100.5V13H96V34Z" fill="white"/>
<path fill-rule="evenodd" clip-rule="evenodd" d="M136.331 22.9428C136.331 26.8385 139.129 29.5736 142.516 29.5736C145.931 29.5736 148.7 26.8385 148.7 22.9428C148.7 19.0179 145.931 16.2821 142.516 16.2821C139.129 16.2821 136.331 19.0179 136.331 22.9428ZM153.5 22.9428C153.5 29.2759 148.611 33.8858 142.545 33.8858C136.478 33.8858 131.561 29.2759 131.561 22.9428C131.561 16.5792 136.478 11.9998 142.545 11.9998C148.611 11.9998 153.5 16.5792 153.5 22.9428Z" fill="white"/>
<path fill-rule="evenodd" clip-rule="evenodd" d="M53.8219 22.9428C53.8219 26.8385 56.6194 29.5736 60.0058 29.5736C63.4221 29.5736 66.1903 26.8385 66.1903 22.9428C66.1903 19.0179 63.4221 16.2821 60.0058 16.2821C56.6194 16.2821 53.8219 19.0179 53.8219 22.9428ZM70.9908 22.9428C70.9908 29.2759 66.1025 33.8858 60.0357 33.8858C53.969 33.8858 49.0508 29.2759 49.0508 22.9428C49.0508 16.5792 53.969 11.9998 60.0357 11.9998C66.1025 11.9998 70.9908 16.5792 70.9908 22.9428Z" fill="white"/>
<path fill-rule="evenodd" clip-rule="evenodd" d="M39.3377 13.2109V26.2046C39.3377 26.2046 34.7492 19.8485 32.8541 17.2321C32.257 16.4085 31.7423 15.6731 31.1652 15.0627C30.2043 14.0451 28.235 12.4177 25.0293 13.2109V34.0246H29.7986V21.0309C29.7986 21.0309 34.3877 27.3876 36.2828 30.004C36.8792 30.827 37.3946 31.5618 37.9717 32.1734C38.9326 33.191 40.8876 34.8191 44.107 34.0246V13.2109H39.3377Z" fill="white"/>
<path fill-rule="evenodd" clip-rule="evenodd" d="M121.848 13.2109V26.2046C121.848 26.2046 117.259 19.8485 115.364 17.2321C114.767 16.4085 114.253 15.6731 113.675 15.0627C112.715 14.0451 110.745 12.4177 107.54 13.2109V34.0246H112.309V21.0309C112.309 21.0309 116.897 27.3876 118.793 30.004C119.389 30.827 119.904 31.5618 120.481 32.1734C121.442 33.191 123.398 34.8191 126.617 34.0246V13.2109H121.848Z" fill="white"/>
</svg>
