<svg width="175" height="65" viewBox="0 0 175 65" fill="none" xmlns="http://www.w3.org/2000/svg">
	<g clip-path="url(#clip0_9041_179342)">
		<path d="M140.65 16.0601C137.31 16.0601 134.55 18.7701 134.55 22.6501C134.454 24.3379 135.051 25.9917 136.202 27.2297C137.354 28.4676 138.96 29.1828 140.65 29.2101C144.02 29.2101 146.75 26.5101 146.75 22.6501C146.75 18.7901 144 16.0601 140.65 16.0601Z" fill="black"/>
		<path d="M59.2302 16.0601C55.8902 16.0601 53.1202 18.7701 53.1202 22.6501C53.0275 24.3388 53.6266 25.9925 54.7793 27.2302C55.932 28.4678 57.5391 29.1827 59.2302 29.2101C62.6002 29.2101 65.3302 26.5101 65.3302 22.6501C65.3302 18.7901 62.6002 16.0601 59.2302 16.0601Z" fill="black"/>
		<path d="M0 0V45.3H174.33V0H0ZM43.54 33C41.3364 33.5919 38.9877 32.8827 37.48 31.17C36.8843 30.4801 36.33 29.7555 35.82 29L29.42 20.12V33H24.71V12.36C26.9139 11.7506 29.2718 12.4627 30.77 14.19C31.3675 14.8679 31.9219 15.5827 32.43 16.33L38.83 25.21V12.36H43.54V33ZM59.26 33.53C56.3623 33.5824 53.5685 32.4516 51.5229 30.3985C49.4774 28.3455 48.3569 25.5475 48.42 22.65C48.5978 16.7996 53.3919 12.1491 59.245 12.1491C65.0981 12.1491 69.8922 16.7996 70.07 22.65C70.1247 25.5352 69.0041 28.3187 66.9654 30.3612C64.9268 32.4036 62.1453 33.5294 59.26 33.48V33.53ZM89.75 16.36H83.43V33H78.72V16.36H72.4V12.36H89.75V16.36ZM99.64 33H94.93V12.36H99.64V33ZM125 33C122.815 33.5819 120.489 32.8724 119 31.17C118.37 30.4829 117.782 29.7582 117.24 29L110.84 20.12V33H106.14V12.36C108.325 11.7707 110.655 12.4814 112.14 14.19C112.741 14.8676 113.299 15.5824 113.81 16.33L120.21 25.21V12.36H125V33ZM140.72 33.53C137.831 33.582 135.045 32.458 133.001 30.4159C130.957 28.3738 129.831 25.5889 129.88 22.7C130.058 16.8496 134.852 12.1991 140.705 12.1991C146.558 12.1991 151.352 16.8496 151.53 22.7C151.571 25.5837 150.439 28.3604 148.393 30.3931C146.347 32.4258 143.563 33.54 140.68 33.48L140.72 33.53Z" fill="black"/>
		<path d="M29.7828 64H30.7672V61.8335H32.1427C33.3863 61.8335 34.2476 60.9854 34.2476 59.7461V59.7373C34.2476 58.4937 33.3863 57.6587 32.1427 57.6587H29.7828V64ZM31.8966 58.4893C32.7535 58.4893 33.2457 58.9507 33.2457 59.7417V59.7505C33.2457 60.5459 32.7535 61.0073 31.8966 61.0073H30.7672V58.4893H31.8966ZM46.9714 64H48.0041L48.5886 62.2861H51.032L51.612 64H52.6447L50.342 57.6587H49.2785L46.9714 64ZM49.8015 58.709H49.8191L50.7639 61.4951H48.8523L49.8015 58.709ZM66.2079 64H67.1922V61.5654H68.5458L69.8378 64H70.9715L69.5521 61.416C70.3124 61.1567 70.7826 60.4712 70.7826 59.6099V59.6011C70.7826 58.4102 69.9652 57.6587 68.6688 57.6587H66.2079V64ZM67.1922 60.7568V58.4849H68.5458C69.3016 58.4849 69.7674 58.9067 69.7674 59.6099V59.6187C69.7674 60.3394 69.3324 60.7568 68.5721 60.7568H67.1922ZM86.1694 64H87.1538V58.5068H89.0918V57.6587H84.2271V58.5068H86.1694V64ZM102.756 64H103.732V59.3022H103.758L107.023 64H107.928V57.6587H106.953V62.3477H106.926L103.666 57.6587H102.756V64ZM121.962 64H125.987V63.1519H122.946V61.1831H125.824V60.3569H122.946V58.5068H125.987V57.6587H121.962V64ZM139.858 64H140.842V61.5654H142.196L143.488 64H144.622L143.202 61.416C143.962 61.1567 144.433 60.4712 144.433 59.6099V59.6011C144.433 58.4102 143.615 57.6587 142.319 57.6587H139.858V64ZM140.842 60.7568V58.4849H142.196C142.952 58.4849 143.417 58.9067 143.417 59.6099V59.6187C143.417 60.3394 142.982 60.7568 142.222 60.7568H140.842Z" fill="black"/>
	</g>
	<defs>
		<clipPath id="clip0_9041_179342">
			<rect width="175" height="65" fill="white"/>
		</clipPath>
	</defs>
</svg>
