<svg width="175" height="65" viewBox="0 0 175 65" fill="none" xmlns="http://www.w3.org/2000/svg">
<path d="M140.65 16.06C137.31 16.06 134.55 18.77 134.55 22.65C134.454 24.3378 135.051 25.9916 136.202 27.2296C137.354 28.4676 138.96 29.1828 140.65 29.21C144.02 29.21 146.75 26.51 146.75 22.65C146.75 18.79 144 16.06 140.65 16.06Z" fill="black"/>
<path d="M59.2302 16.0601C55.8902 16.0601 53.1202 18.7701 53.1202 22.6501C53.0275 24.3388 53.6266 25.9925 54.7793 27.2302C55.932 28.4678 57.5391 29.1827 59.2302 29.2101C62.6002 29.2101 65.3302 26.5101 65.3302 22.6501C65.3302 18.7901 62.6002 16.0601 59.2302 16.0601Z" fill="black"/>
<path d="M0 0V45.3H174.33V0H0ZM43.54 33C41.3364 33.5919 38.9877 32.8827 37.48 31.17C36.8843 30.4801 36.33 29.7555 35.82 29L29.42 20.12V33H24.71V12.36C26.9139 11.7506 29.2718 12.4627 30.77 14.19C31.3675 14.8679 31.9219 15.5827 32.43 16.33L38.83 25.21V12.36H43.54V33ZM59.26 33.53C56.3623 33.5824 53.5685 32.4516 51.5229 30.3985C49.4774 28.3455 48.3569 25.5475 48.42 22.65C48.5978 16.7996 53.3919 12.1491 59.245 12.1491C65.0981 12.1491 69.8922 16.7996 70.07 22.65C70.1247 25.5352 69.0041 28.3187 66.9654 30.3612C64.9268 32.4036 62.1453 33.5294 59.26 33.48V33.53ZM89.75 16.36H83.43V33H78.72V16.36H72.4V12.36H89.75V16.36ZM99.64 33H94.93V12.36H99.64V33ZM125 33C122.815 33.5819 120.489 32.8724 119 31.17C118.37 30.4829 117.782 29.7582 117.24 29L110.84 20.12V33H106.14V12.36C108.325 11.7707 110.655 12.4814 112.14 14.19C112.741 14.8676 113.299 15.5824 113.81 16.33L120.21 25.21V12.36H125V33ZM140.72 33.53C137.831 33.582 135.045 32.458 133.001 30.4159C130.957 28.3738 129.831 25.5889 129.88 22.7C130.058 16.8496 134.852 12.1991 140.705 12.1991C146.558 12.1991 151.352 16.8496 151.53 22.7C151.571 25.5837 150.439 28.3604 148.393 30.3931C146.347 32.4258 143.563 33.54 140.68 33.48L140.72 33.53Z" fill="black"/>
<path d="M29.4802 58.35H27.4902V63.87H26.7102V58.35H24.7202V57.65H29.4802V58.35Z" fill="black"/>
<path d="M39.9998 60.76C39.9395 62.4744 38.5106 63.8208 36.7957 63.7791C35.0808 63.7374 33.7189 62.3232 33.742 60.608C33.765 58.8927 35.1644 57.5156 36.8798 57.52C37.7285 57.5194 38.5408 57.8645 39.1295 58.4759C39.7182 59.0872 40.0324 59.912 39.9998 60.76ZM34.5298 60.76C34.6326 62.0281 35.7259 62.984 36.9963 62.9167C38.2667 62.8495 39.2529 61.7835 39.2214 60.5118C39.1898 59.24 38.1519 58.2242 36.8798 58.22C36.227 58.2325 35.6074 58.5104 35.164 58.9897C34.7206 59.469 34.4916 60.1082 34.5298 60.76Z" fill="black"/>
<path d="M49.9999 60.76C50.0342 61.6179 49.6992 62.4495 49.0797 63.0441C48.4603 63.6387 47.6157 63.9393 46.7599 63.87H44.8599V57.65H46.7599C47.6157 57.5806 48.4603 57.8812 49.0797 58.4758C49.6992 59.0705 50.0342 59.902 49.9999 60.76ZM45.6499 58.35V63.17H46.7499C48.0809 63.17 49.1599 62.091 49.1599 60.76C49.1599 59.4289 48.0809 58.35 46.7499 58.35H45.6499Z" fill="black"/>
<path d="M59.9998 63.87H59.1698L58.5798 62.44H55.5098L54.9198 63.87H54.0898L56.7498 57.65H57.3498L59.9998 63.87ZM55.7798 61.75H58.2998L57.0398 58.75L55.7798 61.75Z" fill="black"/>
<path d="M66.68 61.42V63.87H65.9V61.42L63.65 57.65H64.51L66.29 60.69L68.06 57.65H68.92L66.68 61.42Z" fill="black"/>
<path d="M82.02 57.65H81.02V63.86H82.02V57.65Z" fill="black"/>
<path d="M91.67 58.19L91.27 58.75C90.8059 58.3992 90.2417 58.2065 89.66 58.2C88.81 58.2 88.41 58.59 88.41 59.04C88.41 59.64 89.11 59.86 89.86 60.12C90.86 60.48 92.02 60.83 92.02 62.12C92.02 63.41 90.67 64 89.61 64C88.6946 64.0119 87.8137 63.6509 87.17 63L87.66 62.45C88.1701 63.0147 88.8991 63.3318 89.66 63.32C90.34 63.32 91.28 63.05 91.28 62.2C91.28 61.35 90.49 61.2 89.64 60.89C88.79 60.58 87.7 60.24 87.7 59.14C87.7 58.21 88.42 57.56 89.7 57.56C90.4218 57.56 91.1239 57.7952 91.7 58.23" fill="black"/>
<path d="M106.67 61.42V63.87H105.89V61.42L103.65 57.65H104.51L106.28 60.69L108.06 57.65H108.92L106.67 61.42Z" fill="black"/>
<path d="M119.63 60.7599C119.57 62.473 118.143 63.8189 116.429 63.7791C114.716 63.7393 113.353 62.3285 113.372 60.6146C113.392 58.9006 114.786 57.521 116.5 57.5199C117.351 57.5166 118.166 57.8605 118.756 58.4722C119.347 59.0838 119.663 59.9101 119.63 60.7599ZM114.16 60.7599C114.263 62.0292 115.358 62.9856 116.63 62.9165C117.902 62.8474 118.887 61.778 118.852 60.505C118.816 59.232 117.774 58.2187 116.5 58.2199C115.848 58.2323 115.229 58.5105 114.788 58.9902C114.346 59.4698 114.119 60.1091 114.16 60.7599Z" fill="black"/>
<path d="M129.74 61.58C129.74 62.9221 128.652 64.01 127.31 64.01C125.968 64.01 124.88 62.9221 124.88 61.58V57.65H125.67V61.58C125.622 62.1983 125.924 62.7915 126.453 63.1154C126.982 63.4394 127.648 63.4394 128.177 63.1154C128.706 62.7915 129.008 62.1983 128.96 61.58V57.65H129.74V61.58Z" fill="black"/>
<path d="M140 59.43C140.004 60.3318 139.318 61.0871 138.42 61.17L140.22 63.87H139.32L137.56 61.2H136.38V63.87H135.59V57.65H138C138.507 57.5965 139.013 57.7591 139.393 58.098C139.774 58.4368 139.994 58.9204 140 59.43ZM136.38 58.34V60.52H138C138.425 60.5777 138.844 60.3834 139.075 60.0223C139.306 59.6612 139.306 59.1989 139.075 58.8378C138.844 58.4766 138.425 58.2824 138 58.34H136.38Z" fill="black"/>
<path d="M149.25 58.19L148.85 58.75C148.386 58.3992 147.822 58.2065 147.24 58.2C146.39 58.2 145.99 58.59 145.99 59.04C145.99 59.64 146.68 59.86 147.44 60.12C148.44 60.48 149.6 60.83 149.6 62.12C149.6 63.41 148.25 64 147.19 64C146.275 64.0119 145.394 63.6509 144.75 63L145.24 62.45C145.75 63.0147 146.479 63.3318 147.24 63.32C147.92 63.32 148.85 63.05 148.85 62.2C148.85 61.35 148.06 61.2 147.22 60.89C146.38 60.58 145.28 60.24 145.28 59.14C145.28 58.21 146 57.56 147.28 57.56C148.002 57.56 148.704 57.7952 149.28 58.23" fill="black"/>
</svg>
