<svg width="107" height="40" viewBox="0 0 107 40" fill="none" xmlns="http://www.w3.org/2000/svg">
<path d="M85.9974 9.8833C83.9553 9.8833 82.2677 11.551 82.2677 13.9387C82.2093 14.9773 82.5742 15.9951 83.278 16.7569C83.9819 17.5187 84.9639 17.9588 85.9974 17.9756C88.0579 17.9756 89.7271 16.3141 89.7271 13.9387C89.7271 11.5633 88.0457 9.8833 85.9974 9.8833Z" fill="black"/>
<path d="M36.215 9.8833C34.1729 9.8833 32.4792 11.551 32.4792 13.9387C32.4225 14.9779 32.7888 15.9956 33.4936 16.7572C34.1984 17.5189 35.181 17.9588 36.215 17.9756C38.2755 17.9756 39.9447 16.3141 39.9447 13.9387C39.9447 11.5633 38.2755 9.8833 36.215 9.8833Z" fill="black"/>
<path d="M0 0V27.8769H106.59V0H0ZM26.6216 20.3077C25.2742 20.6719 23.8382 20.2355 22.9163 19.1815C22.5521 18.757 22.2132 18.3111 21.9014 17.8462L17.9882 12.3815V20.3077H15.1084V7.60615C16.4559 7.23116 17.8976 7.66933 18.8137 8.73231C19.179 9.1495 19.518 9.58934 19.8286 10.0492L23.7418 15.5138V7.60615H26.6216V20.3077ZM36.2333 20.6338C34.4615 20.6661 32.7533 19.9702 31.5026 18.7068C30.2519 17.4434 29.5668 15.7215 29.6054 13.9385C29.7141 10.3382 32.6453 7.47634 36.2241 7.47634C39.8029 7.47634 42.7341 10.3382 42.8428 13.9385C42.8763 15.714 42.1911 17.4269 40.9446 18.6838C39.6981 19.9407 37.9974 20.6335 36.2333 20.6031V20.6338ZM54.8757 10.0677H51.0115V20.3077H48.1317V10.0677H44.2674V7.60615H54.8757V10.0677ZM60.9227 20.3077H58.0429V7.60615H60.9227V20.3077ZM76.4286 20.3077C75.0924 20.6658 73.6702 20.2292 72.76 19.1815C72.3748 18.7587 72.0155 18.3127 71.6839 17.8462L67.7707 12.3815V20.3077H64.897V7.60615C66.2333 7.24351 67.6579 7.68083 68.5656 8.73231C68.933 9.14932 69.2741 9.58916 69.5867 10.0492L73.4998 15.5138V7.60615H76.4286V20.3077ZM86.0402 20.6338C84.2739 20.6658 82.5705 19.9741 81.3208 18.7175C80.071 17.4608 79.3822 15.747 79.4124 13.9692C79.5211 10.369 82.4523 7.50711 86.0311 7.50711C89.6098 7.50711 92.541 10.369 92.6498 13.9692C92.675 15.7438 91.9828 17.4526 90.7319 18.7035C89.481 19.9544 87.7788 20.64 86.0158 20.6031L86.0402 20.6338Z" fill="black"/>
<path d="M18.025 35.9078H16.8083V39.3047H16.3314V35.9078H15.1146V35.4771H18.025V35.9078Z" fill="black"/>
<path d="M24.457 37.3908C24.4201 38.4458 23.5465 39.2744 22.4979 39.2487C21.4494 39.2231 20.6167 38.3528 20.6308 37.2973C20.6449 36.2417 21.5005 35.3943 22.5493 35.397C23.0683 35.3966 23.5649 35.609 23.9249 35.9852C24.2848 36.3614 24.477 36.8689 24.457 37.3908ZM21.1125 37.3908C21.1754 38.1711 21.8438 38.7594 22.6206 38.718C23.3973 38.6767 24.0003 38.0207 23.9811 37.238C23.9618 36.4554 23.3272 35.8303 22.5493 35.8278C22.1502 35.8354 21.7714 36.0065 21.5003 36.3014C21.2292 36.5963 21.0891 36.9897 21.1125 37.3908Z" fill="black"/>
<path d="M30.5713 37.3906C30.5923 37.9186 30.3875 38.4303 30.0087 38.7962C29.63 39.1621 29.1136 39.3471 28.5903 39.3044H27.4286V35.4767H28.5903C29.1136 35.4341 29.63 35.6191 30.0087 35.985C30.3875 36.3509 30.5923 36.8626 30.5713 37.3906ZM27.9116 35.9075V38.8737H28.5842C29.398 38.8737 30.0577 38.2097 30.0577 37.3906C30.0577 36.5715 29.398 35.9075 28.5842 35.9075H27.9116Z" fill="black"/>
<path d="M36.6856 39.3047H36.1781L35.8174 38.4247H33.9403L33.5796 39.3047H33.0721L34.6985 35.4771H35.0653L36.6856 39.3047ZM34.1054 38.0001H35.6462L34.8758 36.154L34.1054 38.0001Z" fill="black"/>
<path d="M40.7701 37.797V39.3047H40.2931V37.797L38.9174 35.4771H39.4433L40.5316 37.3478L41.6138 35.4771H42.1397L40.7701 37.797Z" fill="black"/>
<path d="M50.1494 35.4771H49.5379V39.2986H50.1494V35.4771Z" fill="black"/>
<path d="M56.0497 35.8091L55.8051 36.1537C55.5214 35.9378 55.1763 35.8192 54.8207 35.8152C54.301 35.8152 54.0564 36.0552 54.0564 36.3322C54.0564 36.7014 54.4844 36.8368 54.943 36.9968C55.5544 37.2183 56.2637 37.4337 56.2637 38.2275C56.2637 39.0214 55.4382 39.3845 54.7901 39.3845C54.2304 39.3918 53.6918 39.1696 53.2982 38.7691L53.5978 38.4306C53.9097 38.7781 54.3555 38.9733 54.8207 38.966C55.2365 38.966 55.8112 38.7998 55.8112 38.2768C55.8112 37.7537 55.3282 37.6614 54.8085 37.4706C54.2887 37.2798 53.6223 37.0706 53.6223 36.3937C53.6223 35.8214 54.0625 35.4214 54.8451 35.4214C55.2865 35.4214 55.7158 35.5661 56.068 35.8337" fill="black"/>
<path d="M65.2211 37.797V39.3047H64.7442V37.797L63.3746 35.4771H63.9004L64.9826 37.3478L66.071 35.4771H66.5968L65.2211 37.797Z" fill="black"/>
<path d="M73.1453 37.3908C73.1085 38.445 72.236 39.2733 71.1882 39.2488C70.1405 39.2243 69.3072 38.3561 69.319 37.3014C69.3309 36.2466 70.1835 35.3977 71.2315 35.397C71.7515 35.3949 72.2498 35.6066 72.611 35.983C72.9723 36.3594 73.1653 36.8679 73.1453 37.3908ZM69.8008 37.3908C69.8637 38.172 70.5334 38.7605 71.3109 38.7179C72.0884 38.6754 72.6907 38.0173 72.6692 37.234C72.6477 36.4506 72.0102 35.827 71.2315 35.8278C70.8329 35.8354 70.4546 36.0066 70.1844 36.3017C69.9143 36.5969 69.7757 36.9903 69.8008 37.3908Z" fill="black"/>
<path d="M79.3267 37.8955C79.3267 38.7214 78.6615 39.3909 77.8409 39.3909C77.0203 39.3909 76.3551 38.7214 76.3551 37.8955V35.4771H76.8382V37.8955C76.8087 38.276 76.9937 38.641 77.317 38.8404C77.6404 39.0397 78.0475 39.0397 78.3709 38.8404C78.6943 38.641 78.8793 38.276 78.8498 37.8955V35.4771H79.3267V37.8955Z" fill="black"/>
<path d="M85.5999 36.5723C85.6022 37.1272 85.1829 37.592 84.6338 37.643L85.7344 39.3046H85.1841L84.108 37.6615H83.3865V39.3046H82.9035V35.4769H84.377C84.6869 35.4439 84.9963 35.544 85.229 35.7525C85.4618 35.961 85.5965 36.2586 85.5999 36.5723ZM83.3865 35.9015V37.243H84.377C84.6367 37.2785 84.8932 37.159 85.0343 36.9367C85.1754 36.7145 85.1754 36.43 85.0343 36.2078C84.8932 35.9855 84.6367 35.866 84.377 35.9015H83.3865Z" fill="black"/>
<path d="M91.2557 35.8091L91.0111 36.1537C90.7274 35.9378 90.3824 35.8192 90.0267 35.8152C89.507 35.8152 89.2625 36.0552 89.2625 36.3322C89.2625 36.7014 89.6843 36.8368 90.149 36.9968C90.7605 37.2183 91.4697 37.4337 91.4697 38.2275C91.4697 39.0214 90.6443 39.3845 89.9962 39.3845C89.4365 39.3918 88.8979 39.1696 88.5043 38.7691L88.8039 38.4306C89.1158 38.7781 89.5615 38.9733 90.0267 38.966C90.4425 38.966 91.0111 38.7998 91.0111 38.2768C91.0111 37.7537 90.5281 37.6614 90.0145 37.4706C89.5009 37.2798 88.8283 37.0706 88.8283 36.3937C88.8283 35.8214 89.2686 35.4214 90.0512 35.4214C90.4925 35.4214 90.9218 35.5661 91.2741 35.8337" fill="black"/>
</svg>
