<svg width="40" height="26" viewBox="0 0 40 26" fill="none" xmlns="http://www.w3.org/2000/svg">
<g clip-path="url(#clip0_74_2782)">
<path fill-rule="evenodd" clip-rule="evenodd" d="M0 26H40V0H0V26Z" fill="white"/>
<path fill-rule="evenodd" clip-rule="evenodd" d="M39.0666 0L24.0156 9.381H26.7696L39.9996 1.126V0H39.0666Z" fill="#BD0034"/>
<path fill-rule="evenodd" clip-rule="evenodd" d="M26.1611 17.072L39.9991 25.779V24.079L28.9191 17.072H26.1611Z" fill="#BD0034"/>
<path fill-rule="evenodd" clip-rule="evenodd" d="M0 1.92056L11.843 9.38056H14.601L0 0.226562V1.92056Z" fill="#BD0034"/>
<path fill-rule="evenodd" clip-rule="evenodd" d="M13.9385 17.072L0.000488281 25.896V26H2.52549L16.7155 17.072H13.9385Z" fill="#BD0034"/>
<path fill-rule="evenodd" clip-rule="evenodd" d="M37.2373 0H23.2793V8.707L37.2373 0Z" fill="#1A237B"/>
<path fill-rule="evenodd" clip-rule="evenodd" d="M17.0817 0H3.11475L17.0817 8.707V0Z" fill="#1A237B"/>
<path fill-rule="evenodd" clip-rule="evenodd" d="M30.4868 9.38065H39.9998V3.38965L30.4868 9.38065Z" fill="#1A237B"/>
<path fill-rule="evenodd" clip-rule="evenodd" d="M30.4868 17.072L39.9998 22.952V17.072H30.4868Z" fill="#1A237B"/>
<path fill-rule="evenodd" clip-rule="evenodd" d="M3.92383 25.9999H17.0808V17.8679L3.92383 25.9999Z" fill="#1A237B"/>
<path fill-rule="evenodd" clip-rule="evenodd" d="M23.2793 25.9999H36.4603L23.2793 17.8679V25.9999Z" fill="#1A237B"/>
<path fill-rule="evenodd" clip-rule="evenodd" d="M0 17.072V23.295L9.841 17.072H0Z" fill="#1A237B"/>
<path fill-rule="evenodd" clip-rule="evenodd" d="M0 9.3808H9.841L0 3.16479V9.3808Z" fill="#1A237B"/>
<path fill-rule="evenodd" clip-rule="evenodd" d="M18.298 0V10.971H0V15.609H18.298V26H22.01V15.609H40V10.971H22.01V0H18.298Z" fill="#BD0034"/>
</g>
<defs>
<clipPath id="clip0_74_2782">
<rect width="40" height="26" fill="white"/>
</clipPath>
</defs>
</svg>
