<svg width="40" height="27" viewBox="0 0 40 27" fill="none" xmlns="http://www.w3.org/2000/svg">
<g clip-path="url(#clip0_74_3375)">
<path fill-rule="evenodd" clip-rule="evenodd" d="M0 27.0001H40V24.0981H0V27.0001Z" fill="#16007E"/>
<path fill-rule="evenodd" clip-rule="evenodd" d="M0 24.0981H40V21.1921H0V24.0981Z" fill="white"/>
<path fill-rule="evenodd" clip-rule="evenodd" d="M0 21.1911H40V18.2891H0V21.1911Z" fill="#16007E"/>
<path fill-rule="evenodd" clip-rule="evenodd" d="M0 18.2889H40V15.4409H0V18.2889Z" fill="white"/>
<path fill-rule="evenodd" clip-rule="evenodd" d="M0 15.4399H40V12.5649H0V15.4399Z" fill="#16007E"/>
<path fill-rule="evenodd" clip-rule="evenodd" d="M0 12.566H40V9.65601H0V12.566Z" fill="white"/>
<path fill-rule="evenodd" clip-rule="evenodd" d="M0 9.65591H40V6.75391H0V9.65591Z" fill="#16007E"/>
<path fill-rule="evenodd" clip-rule="evenodd" d="M0 6.75391H40V3.87891H0V6.75391Z" fill="white"/>
<path fill-rule="evenodd" clip-rule="evenodd" d="M0 3.879H40V1H0V3.879Z" fill="#16007E"/>
<path fill-rule="evenodd" clip-rule="evenodd" d="M0 15.44H14.438V0.999023H0V15.44Z" fill="#16007E"/>
<path fill-rule="evenodd" clip-rule="evenodd" d="M0 9.65591H14.438V6.75391H0V9.65591Z" fill="white"/>
<path fill-rule="evenodd" clip-rule="evenodd" d="M5.78418 15.44H8.68718V1H5.78418V15.44Z" fill="white"/>
</g>
<defs>
<clipPath id="clip0_74_3375">
<rect width="40" height="27" fill="white"/>
</clipPath>
</defs>
</svg>
