<svg width="40" height="26" viewBox="0 0 40 26" fill="none" xmlns="http://www.w3.org/2000/svg">
<path fill-rule="evenodd" clip-rule="evenodd" d="M0 17.3721H40V8.68408H0V17.3721Z" fill="white"/>
<path fill-rule="evenodd" clip-rule="evenodd" d="M0 26.0001H40V17.3721H0V26.0001Z" fill="#1E2788"/>
<path fill-rule="evenodd" clip-rule="evenodd" d="M0 8.684H40V0H0V8.684Z" fill="#CB0028"/>
<path fill-rule="evenodd" clip-rule="evenodd" d="M14.9082 8.57625C16.4942 8.00925 18.2462 7.69425 19.9872 7.69425C21.7382 7.69425 23.4292 7.95125 25.1802 8.57625L26.4702 5.94825L25.5712 4.37025L23.9352 5.04925L22.8112 3.75125L21.3462 4.65425L19.9872 3.58325L18.6922 4.65425L17.1722 3.75125L16.0922 5.07525L14.4672 4.39825L13.5532 5.94825L14.9082 8.57625Z" fill="white"/>
<path fill-rule="evenodd" clip-rule="evenodd" d="M14.4675 4.45601L13.5535 5.97701L14.9685 8.54301C16.4945 7.95101 18.2465 7.64301 19.9875 7.64301C21.8475 7.64301 23.5445 7.95101 25.1805 8.51801L26.4695 5.94801L25.5715 4.39801L23.9355 5.07501C23.8755 5.07501 23.8755 5.07501 22.7515 3.80601L21.3465 4.70901L19.9875 3.63901L18.6925 4.67901L17.1725 3.80601L16.1535 5.10301L14.4675 4.45601ZM25.1805 8.60101V8.57601C23.5445 8.03601 21.8475 7.75501 19.9875 7.75501C18.2965 7.75501 16.4945 8.03601 14.9085 8.57601L13.4985 5.97701L14.4015 4.37001L16.1535 5.04901L17.1725 3.75101L18.6925 4.62401L19.9875 3.58301L21.3465 4.62401L22.8115 3.75101C23.2585 4.25801 23.8755 4.96001 23.9355 4.99001C23.9965 4.96001 25.1805 4.51101 25.5715 4.34401L26.4695 5.92401L25.1805 8.60101Z" fill="#CB0028"/>
<path fill-rule="evenodd" clip-rule="evenodd" d="M23.1475 7.83802L23.8755 5.18902L25.5215 4.57202L26.3035 5.97702L25.1805 8.43302C24.5025 8.15202 24.1065 8.03602 23.1475 7.83802Z" fill="#3A7AA1"/>
<path fill-rule="evenodd" clip-rule="evenodd" d="M25.5215 4.57227L23.9355 5.18827L23.2035 7.83827C24.1065 8.03627 24.5025 8.15227 25.1805 8.43227L26.3035 5.97627L25.5215 4.57227ZM25.1805 8.43227C24.5025 8.17827 24.1065 8.06627 23.1475 7.83827L23.8755 5.18827L25.5215 4.57227L26.3585 5.97627L25.1805 8.43227Z" fill="#4C73D5"/>
<path fill-rule="evenodd" clip-rule="evenodd" d="M18.9674 7.55666L18.7524 4.82266L19.9874 3.80566L21.3464 4.82266L21.0604 7.58766C20.3274 7.52666 19.8714 7.52666 18.9674 7.55666Z" fill="#3A7AA1"/>
<path fill-rule="evenodd" clip-rule="evenodd" d="M19.9869 3.80566L18.7529 4.85266L18.9669 7.55666C19.8209 7.50166 20.3279 7.52666 21.0609 7.55666L21.3469 4.82266L19.9869 3.80566ZM21.0609 7.58766C20.3279 7.52666 19.8709 7.55666 18.9669 7.58766L18.7529 4.82266L19.9869 3.80566L21.3469 4.82266L21.0609 7.58766Z" fill="#4C73D5"/>
<path fill-rule="evenodd" clip-rule="evenodd" d="M14.9688 8.43251L13.7358 5.92351L14.5228 4.57251L16.2138 5.27451L16.8858 7.83751C16.1538 8.00851 15.7568 8.11951 14.9688 8.43251Z" fill="#3A7AA1"/>
<path fill-rule="evenodd" clip-rule="evenodd" d="M14.5224 4.57227L13.7354 5.94827L14.9684 8.43227C15.7564 8.11927 16.1534 8.00927 16.8854 7.83827L16.2134 5.27427L14.5224 4.57227ZM14.9684 8.43227L13.7354 5.94827L14.5224 4.57227L16.2134 5.24627L16.8854 7.83827C16.1534 8.03627 15.7564 8.15227 14.9684 8.43227Z" fill="#4C73D5"/>
<path fill-rule="evenodd" clip-rule="evenodd" d="M14.6821 7.1905C15.0841 7.2175 15.3051 7.2175 15.6521 7.0785C15.9881 6.9075 16.0921 6.6815 16.2131 6.5415C16.2681 6.8495 16.2681 7.1635 15.8671 7.3885C15.4811 7.6125 14.9691 7.5565 14.6821 7.1905Z" fill="white"/>
<path fill-rule="evenodd" clip-rule="evenodd" d="M15.4206 7.55653C15.1456 7.55653 14.8036 7.38853 14.6826 7.19053H15.0296C15.2496 7.19053 15.4206 7.16253 15.6516 7.07753C15.9326 6.90753 16.0926 6.70853 16.2136 6.57153C16.0926 6.73953 15.9326 6.90753 15.6516 7.07753C15.3046 7.21753 15.0846 7.21753 14.6826 7.19053C14.9686 7.50153 15.4816 7.61253 15.8666 7.38853C16.2136 7.21753 16.2686 6.96453 16.2136 6.70853C16.2686 6.96453 16.2136 7.21753 15.8666 7.38853C15.7566 7.50153 15.5366 7.55653 15.4206 7.55653Z" fill="white"/>
<path fill-rule="evenodd" clip-rule="evenodd" d="M20.2725 5.2462V5.3842H20.1575L20.1025 5.50021L20.1575 5.5272L20.1025 5.6402H20.1575V5.7532H20.2235L20.2725 5.8392L20.3275 5.8692L20.3775 5.9242V5.9482H20.4935L20.5535 5.9762L20.8345 5.9482V5.8932V5.8392H20.9995V5.6952H21.0605V5.58521L21.1215 5.6132V5.5272L21.0605 5.4702V5.4172L20.9995 5.3322V5.1882H20.8345V5.1032L20.9995 4.9902V4.96021H20.8345V4.9902H20.7185V5.0492V5.1032H20.6645V4.9902L20.5535 4.96021L20.4435 5.02021V5.1032V5.13121L20.3275 5.0492L20.2725 4.9902V5.0492L20.3275 5.1882L20.2725 5.2462Z" fill="#FBFC2B"/>
<path fill-rule="evenodd" clip-rule="evenodd" d="M20.4931 5.92372L20.5531 5.94772L20.8341 5.92372V5.89372V5.83872H20.9991V5.69472L21.0601 5.67072V5.61272L21.1211 5.58472L21.0601 5.49972V5.41672L20.9991 5.33172L20.9511 5.18872H20.8341V5.10372L20.9511 4.98972L20.8341 4.95972V5.02072H20.7191L20.7851 5.10372L20.6641 5.13072L20.6141 4.98972L20.5531 4.95972C20.5531 4.95972 20.4931 5.02072 20.4431 5.04872C20.4931 5.04872 20.4931 5.10372 20.4931 5.10372L20.4431 5.13072L20.3271 5.04872L20.2721 5.02072V5.04872L20.3271 5.16072V5.24572L20.2721 5.30172V5.38372L20.1571 5.41672L20.1021 5.52772C20.1571 5.52772 20.1571 5.55172 20.1571 5.61272V5.63972V5.75272H20.2721V5.83872H20.3271L20.4431 5.89372V5.94772L20.4931 5.92372ZM20.5531 6.00972L20.3771 5.97672V5.92372L20.2721 5.86872L20.2231 5.75272H20.1571L20.1021 5.61272L20.1571 5.52772H20.1021L20.1571 5.38372L20.2721 5.35972V5.24572V5.21572V5.16072V5.07472L20.2231 4.98972L20.2721 4.95972V4.98972L20.3771 5.02072L20.4431 5.10372V5.02072C20.4431 4.98972 20.4431 4.98972 20.5531 4.95972L20.6641 4.98972V5.10372L20.7191 5.07472V5.04872C20.7191 4.98972 20.7191 4.95972 20.8341 4.95972H20.9991V4.98972L20.9511 5.13072V5.18872C20.9511 5.16072 20.9991 5.18872 20.9991 5.18872V5.33172L21.0601 5.38372L21.1711 5.58472L21.0601 5.61272L21.1211 5.69472L20.9991 5.75272V5.83872L20.8341 5.86872L20.9511 5.89372L20.8341 5.97672L20.5531 6.00972Z" fill="#C2A21F"/>
<path fill-rule="evenodd" clip-rule="evenodd" d="M20.1571 5.52723H20.2721V5.63923V5.83923H20.3271V5.75323H20.4431V5.92323V5.94823H20.4931L20.5531 5.92323L20.6141 5.89323V5.94823V5.89323C20.6141 5.89323 20.6641 5.86923 20.6641 5.89323L20.7191 5.94823L20.7851 5.92323L20.7191 5.89323V5.83923L20.8341 5.75323L20.9501 5.83923V5.75323V5.58523L20.9991 5.46923H21.0601V5.44523L20.9991 5.33223L20.9501 5.18823H20.8341H20.7851L20.8341 5.30123V5.33223L20.9501 5.35923L20.8341 5.52723H20.7851V5.63923L20.7191 5.67123V5.75323L20.6641 5.83923H20.6141L20.5531 5.80823V5.69523H20.4931L20.4431 5.63923V5.61323V5.58523L20.3771 5.52723C20.3771 5.52723 20.3771 5.50023 20.3271 5.50023V5.46923V5.38323L20.3771 5.35923L20.3271 5.33223V5.30123L20.3771 5.24623H20.3271L20.2721 5.27423V5.38323H20.1571L20.1021 5.50023L20.1571 5.52723Z" fill="#C2A21F"/>
<path fill-rule="evenodd" clip-rule="evenodd" d="M20.8345 5.18848L20.7855 5.21548L20.8345 5.30148L20.9505 5.52748L20.9995 5.46948H21.0605L20.9995 5.33248L20.9505 5.21548L20.8345 5.18848ZM20.8345 5.58448V5.63948L20.7185 5.69548V5.83848L20.8345 5.75248V5.58448L20.9505 5.52748C20.8345 5.55148 20.8345 5.58448 20.8345 5.58448ZM20.7185 5.97648L20.6645 5.89348H20.6145V5.86948H20.6645C20.7185 5.86948 20.7185 5.92348 20.7185 5.92348H20.7855L20.7185 5.89348V5.83848H20.6645L20.6145 5.86948C20.4935 5.83848 20.4935 5.83848 20.4935 5.80848V5.69548C20.4435 5.75248 20.4435 5.75248 20.4435 5.63948H20.3775V5.58448L20.3275 5.55148V5.50048C20.2725 5.50048 20.2725 5.50048 20.2725 5.38348V5.35948L20.3775 5.33248L20.4435 5.38348H20.3275V5.46948L20.4435 5.52748V5.61348L20.4935 5.63948V5.69548C20.5535 5.69548 20.5535 5.80848 20.5535 5.80848L20.6145 5.83848H20.6645C20.6645 5.75248 20.6645 5.75248 20.7185 5.75248C20.6645 5.75248 20.7185 5.67048 20.7185 5.67048L20.7855 5.63948V5.52748L20.8345 5.50048V5.30148L20.7185 5.21548L20.8345 5.18848H20.9995V5.33248L21.0605 5.41748V5.46948L20.9995 5.50048L20.9505 5.58448V5.75248C20.9505 5.75248 20.9995 5.80848 20.9995 5.83848H20.9505L20.8345 5.75248L20.7185 5.83848L20.8345 5.92348L20.7185 5.97648ZM20.3775 5.97648V5.94848V5.75248L20.3275 5.83848V5.86948V5.89348L20.2725 5.86948V5.63948V5.52748L20.1575 5.55148L20.1025 5.52748L20.1575 5.38348L20.2725 5.35948V5.27448V5.21548H20.3775L20.3275 5.33248V5.30148V5.24648V5.27448C20.3275 5.27448 20.2725 5.27448 20.2725 5.30148V5.38348L20.1575 5.44548V5.52748L20.2725 5.50048V5.63948L20.3275 5.83848V5.75248H20.4435V5.89348V5.92348H20.5535V5.97648H20.3775Z" fill="#C2A21F"/>
<path fill-rule="evenodd" clip-rule="evenodd" d="M20.5532 5.69521L20.6142 5.67121V5.6392L20.5532 5.6132L20.4932 5.58521L20.5532 5.6132L20.6142 5.58521H20.6642L20.6142 5.6132V5.6392V5.67121L20.7192 5.69521L20.6142 5.67121L20.5532 5.75321V5.69521Z" fill="#613F21"/>
<path fill-rule="evenodd" clip-rule="evenodd" d="M20.4932 5.75296L20.5532 5.69496V5.63996V5.61296L20.6142 5.63996V5.61296V5.58496V5.61296V5.63996V5.67096H20.7192C20.7192 5.75296 20.7192 5.75296 20.6142 5.69496L20.4932 5.75296Z" fill="#C2A21F"/>
<path fill-rule="evenodd" clip-rule="evenodd" d="M20.8344 5.35941L20.7854 5.38341L20.7184 5.46941H20.6644L20.6144 5.38341H20.5534L20.4934 5.50041H20.4434L20.3774 5.41741V5.38341H20.5534V5.30141V5.27441H20.6144V5.30141V5.35941H20.7854H20.8344Z" fill="#C2A21F"/>
<path fill-rule="evenodd" clip-rule="evenodd" d="M20.6141 5.38385H20.3771L20.4931 5.46985L20.5532 5.38385H20.6141ZM20.4931 5.52785H20.4431L20.3771 5.41685L20.3271 5.35985L20.5532 5.33185V5.30185C20.5532 5.24585 20.5531 5.24585 20.6141 5.24585H20.7181L20.6141 5.30185V5.35985L20.8341 5.33185L20.7181 5.49985H20.6642L20.6141 5.38385L20.5532 5.41685V5.49985L20.4931 5.52785Z" fill="#C2A21F"/>
<path fill-rule="evenodd" clip-rule="evenodd" d="M20.4434 5.38379H20.4934V5.41679V5.44579H20.4434V5.41679V5.38379Z" fill="#613F21"/>
<path fill-rule="evenodd" clip-rule="evenodd" d="M20.6641 5.38379H20.7191V5.41679V5.44579H20.6641V5.41679V5.38379Z" fill="#613F21"/>
<path fill-rule="evenodd" clip-rule="evenodd" d="M20.3776 5.27451L20.3276 5.24651V5.21551C20.4436 5.18851 20.4936 5.18851 20.5536 5.18851C20.6646 5.16151 20.7186 5.18851 20.8346 5.18851C20.7186 5.21551 20.6646 5.18851 20.5536 5.21551C20.4936 5.21551 20.4436 5.24651 20.3776 5.27451Z" fill="#C2A21F"/>
<path fill-rule="evenodd" clip-rule="evenodd" d="M20.3775 5.131H20.3275L20.2725 5.021L20.3275 5.049L20.3775 5.131Z" fill="#C2A21F"/>
<path fill-rule="evenodd" clip-rule="evenodd" d="M20.4436 5.13099H20.3276L20.2236 4.98999L20.3776 5.02099L20.4436 5.13099Z" fill="#C2A21F"/>
<path fill-rule="evenodd" clip-rule="evenodd" d="M20.7852 5.07521L20.9512 4.96021H20.8342V4.99021L20.7192 5.02021L20.7852 5.07521Z" fill="#C2A21F"/>
<path fill-rule="evenodd" clip-rule="evenodd" d="M20.6639 5.10358H20.4429V5.07558H20.5529V5.04858L20.6139 5.07558H20.6639V5.10358Z" fill="#C2A21F"/>
<path fill-rule="evenodd" clip-rule="evenodd" d="M20.4434 5.13083V5.07483L20.5534 5.04883L20.4934 5.07483H20.5534V5.04883H20.6644V5.10383V5.13083H20.4434Z" fill="#C2A21F"/>
<path fill-rule="evenodd" clip-rule="evenodd" d="M20.6643 4.99021H20.6143V4.96021L20.6643 4.99021Z" fill="#C2A21F"/>
<path fill-rule="evenodd" clip-rule="evenodd" d="M20.5534 4.95996V4.98996L20.4434 5.02096L20.5534 4.95996Z" fill="#C2A21F"/>
<path fill-rule="evenodd" clip-rule="evenodd" d="M20.1571 5.67086V5.61286V5.52686L20.1021 5.63986L20.1571 5.67086Z" fill="#C2A21F"/>
<path fill-rule="evenodd" clip-rule="evenodd" d="M20.2727 5.75289V5.63989L20.1577 5.69489L20.2727 5.75289Z" fill="#C2A21F"/>
<path fill-rule="evenodd" clip-rule="evenodd" d="M20.2727 5.75289H20.1577L20.2727 5.63989L20.2237 5.75289H20.2727H20.2237L20.2727 5.63989V5.75289Z" fill="#C2A21F"/>
<path fill-rule="evenodd" clip-rule="evenodd" d="M19.1438 5.30175H19.0888V5.41675L19.0398 5.44575L18.9678 5.55175V5.58475V5.67075V5.69575L19.0398 5.80875L19.0888 5.86875L19.1438 5.89375L19.3088 5.94775V6.00975H19.3758H19.4308L19.6508 5.97675V5.94775V5.86875H19.8218L19.8718 5.75275H19.9368V5.63975H19.9868L19.9368 5.58475V5.52775V5.46975L19.8218 5.35975L19.7668 5.24575L19.7058 5.21575V5.13075L19.7668 5.04875V4.98975H19.7058L19.6508 5.04875H19.5898V5.07475L19.6508 5.13075H19.5408V5.04875L19.4308 4.98975L19.3088 5.04875V5.13075L19.2538 5.07475L19.1438 5.04875H19.0888V5.10375L19.1438 5.18875V5.30175Z" fill="#FBFC2B"/>
<path fill-rule="evenodd" clip-rule="evenodd" d="M19.3753 5.97672L19.4303 6.00972L19.6503 5.97672V5.92372V5.86972L19.8213 5.83872V5.75272H19.9373L19.8713 5.63972L19.9863 5.61372L19.8713 5.52772V5.46972L19.7663 5.38372V5.24672L19.6503 5.21572V5.13072L19.7663 5.02072H19.7063L19.6503 5.04872L19.5893 5.07572L19.6503 5.13072H19.5403V5.04872L19.4303 4.99072C19.4303 5.02072 19.3753 5.07572 19.3083 5.07572V5.13072V5.16172L19.1983 5.10372L19.1433 5.07572L19.0883 5.10372L19.1983 5.18872V5.30172H19.0883L19.1433 5.41672L19.0393 5.46972L18.9673 5.58472C19.0393 5.58472 19.0393 5.58472 18.9673 5.63972L19.0393 5.67072V5.75272L19.0883 5.86972H19.1433L19.3083 5.94872V5.97672H19.3753ZM19.4303 6.00972H19.2533V5.94872L19.1433 5.89372H19.0393V5.80872V5.83872L18.9673 5.63972V5.58472V5.52772V5.44572L19.0883 5.38372L19.0393 5.30172L19.1433 5.24672V5.18872L19.0393 5.13072V5.04872V5.02072H19.1433L19.2533 5.04872L19.3083 5.13072V5.04872L19.4303 4.95972L19.5403 5.02072V5.13072H19.5893V5.10372C19.5893 5.02072 19.5893 5.02072 19.6503 4.99072V4.95972H19.7663H19.8213V5.04872L19.7063 5.13072V5.21572H19.7663L19.8213 5.35972L19.9373 5.44572L19.9863 5.63972H19.8713L19.9373 5.75272H19.8713V5.86972L19.6503 5.89372L19.7063 5.94872L19.6503 6.00972H19.4303Z" fill="#C2A21F"/>
<path fill-rule="evenodd" clip-rule="evenodd" d="M18.9673 5.58506H19.0893V5.64006L19.1433 5.67106V5.86906L19.1983 5.89406V5.83906H19.3083V5.94806V5.97706H19.3753L19.4303 5.94806H19.4793V5.97706L19.5403 5.92406L19.5893 5.97706H19.6503V5.92406L19.5893 5.83906L19.6503 5.80906L19.7063 5.86906H19.7663L19.7063 5.75306V5.64006L19.8213 5.52706L19.9373 5.50006V5.47006L19.8213 5.35906L19.7663 5.24606L19.7063 5.21606L19.6503 5.24606V5.33206V5.38406H19.7063V5.58506H19.6503V5.67106L19.5893 5.75306V5.83906L19.5403 5.86906L19.4303 5.89406V5.83906V5.75306H19.3753C19.3083 5.75306 19.3083 5.67106 19.3083 5.67106V5.64006V5.61306L19.2543 5.58506V5.52706H19.1983V5.41706L19.2543 5.38406H19.1983V5.33206V5.30206H19.2543L19.1433 5.27406L19.0893 5.30206V5.41706L19.0393 5.47006L18.9673 5.52706V5.58506Z" fill="#C2A21F"/>
<path fill-rule="evenodd" clip-rule="evenodd" d="M19.6503 5.24606V5.27406L19.7063 5.30206V5.58506L19.7663 5.50006L19.8713 5.47006L19.7663 5.38406V5.24606H19.6503ZM19.5893 6.01006L19.5403 5.92406V5.94806L19.4793 5.92406L19.5403 5.89306L19.5893 5.97606L19.6503 5.94806H19.5893V5.83906L19.6503 5.75306L19.7063 5.80806H19.6503V5.64006L19.7063 5.58506L19.6503 5.61306V5.67106V5.75306L19.5893 5.83906L19.5403 5.89306H19.4303L19.3753 5.83906V5.75306C19.3083 5.75306 19.3083 5.75306 19.3083 5.67106V5.64006V5.61306H19.1983V5.52706C19.1433 5.52706 19.1433 5.52706 19.1433 5.41706V5.38406H19.2543L19.3083 5.41706L19.1983 5.44506C19.1983 5.47006 19.1983 5.50006 19.2543 5.52706L19.3083 5.58506V5.64006C19.3753 5.64006 19.3753 5.75306 19.3753 5.75306C19.4303 5.75306 19.4303 5.83906 19.4303 5.83906L19.4793 5.86906H19.5403C19.5403 5.86906 19.5403 5.80806 19.5893 5.80806C19.5403 5.80806 19.5893 5.69506 19.5893 5.69506L19.6503 5.64006V5.58506L19.7063 5.55206L19.6503 5.33206V5.24606V5.21606H19.7663L19.8213 5.35906L19.9373 5.47006V5.50006L19.8213 5.52706L19.7063 5.64006L19.7663 5.75306V5.83906L19.7063 5.89306L19.6503 5.83906L19.5893 5.86906L19.6503 5.94806L19.5893 6.01006ZM19.3083 6.01006L19.2543 5.97606L19.3083 5.83906H19.1983V5.89306V5.92406L19.1433 5.89306V5.67106L19.0393 5.58506L18.9673 5.61306V5.58506L19.0393 5.44506L19.0883 5.38406V5.30206L19.1433 5.24606C19.1983 5.24606 19.2543 5.27406 19.2543 5.27406L19.1983 5.35906V5.33206V5.30206H19.1433C19.1983 5.30206 19.1433 5.30206 19.1433 5.30206V5.41706L19.0393 5.47006L18.9673 5.55206L19.0883 5.52706L19.1433 5.64006V5.86906V5.83906L19.3083 5.80806V5.94806V5.97606L19.4303 5.94806V6.01006H19.3083Z" fill="#C2A21F"/>
<path fill-rule="evenodd" clip-rule="evenodd" d="M19.43 5.75289V5.69489V5.63989H19.375H19.43H19.54H19.479V5.69489L19.589 5.75289H19.479L19.375 5.80889L19.43 5.75289Z" fill="#613F21"/>
<path fill-rule="evenodd" clip-rule="evenodd" d="M19.3755 5.83889V5.75289L19.4305 5.69489V5.63989H19.4795H19.5405H19.4795V5.69489L19.5895 5.75289H19.4795L19.3755 5.83889Z" fill="#C2A21F"/>
<path fill-rule="evenodd" clip-rule="evenodd" d="M19.6504 5.38376V5.44576L19.5894 5.52776H19.5404V5.44576H19.4304L19.3754 5.52776H19.3084V5.46976L19.2544 5.38376L19.4304 5.41676V5.30176H19.5404L19.4794 5.33176V5.38376H19.6504Z" fill="#C2A21F"/>
<path fill-rule="evenodd" clip-rule="evenodd" d="M19.4794 5.417L19.2534 5.445L19.3084 5.527C19.3754 5.5 19.3754 5.47 19.4304 5.445L19.4794 5.417ZM19.3754 5.585H19.3084L19.2534 5.47V5.384H19.4304V5.332V5.302H19.5404H19.5894L19.4794 5.332V5.384L19.6504 5.359L19.5894 5.527H19.5404L19.4794 5.47H19.4304V5.552L19.3754 5.585Z" fill="#C2A21F"/>
<path fill-rule="evenodd" clip-rule="evenodd" d="M19.3086 5.44531C19.3756 5.44531 19.3756 5.44531 19.3756 5.46931H19.3086V5.44531Z" fill="#613F21"/>
<mask id="mask0_74_2799" style="mask-type:alpha" maskUnits="userSpaceOnUse" x="0" y="0" width="40" height="26">
<path d="M0 26H40V0H0V26Z" fill="white"/>
</mask>
<g mask="url(#mask0_74_2799)">
<path fill-rule="evenodd" clip-rule="evenodd" d="M19.541 5.46907H19.59V5.44507H19.541V5.46907Z" fill="#613F21"/>
<path fill-rule="evenodd" clip-rule="evenodd" d="M19.2539 5.30172V5.27472C19.3089 5.24572 19.3089 5.21572 19.4299 5.18872C19.5409 5.18872 19.5889 5.21572 19.6499 5.21572C19.5889 5.24572 19.5409 5.24572 19.4299 5.24572C19.3089 5.27472 19.3089 5.30172 19.2539 5.30172Z" fill="#C2A21F"/>
<path fill-rule="evenodd" clip-rule="evenodd" d="M19.3084 5.13083H19.1984L19.0884 5.04883H19.1434L19.2534 5.10383L19.3084 5.13083Z" fill="#C2A21F"/>
<path fill-rule="evenodd" clip-rule="evenodd" d="M19.3086 5.16102H19.1986L19.0386 5.02002L19.2536 5.07502L19.3086 5.16102Z" fill="#C2A21F"/>
<path fill-rule="evenodd" clip-rule="evenodd" d="M19.6504 5.13099L19.7664 4.98999H19.7064L19.6504 5.04899H19.5894L19.6504 5.13099Z" fill="#C2A21F"/>
<path fill-rule="evenodd" clip-rule="evenodd" d="M19.5406 5.13095H19.3086H19.4306V5.07495L19.4796 5.10395L19.5406 5.13095Z" fill="#C2A21F"/>
<path fill-rule="evenodd" clip-rule="evenodd" d="M19.3086 5.131L19.4306 5.104L19.3756 5.131H19.4306V5.104H19.5406V5.131H19.3086Z" fill="#C2A21F"/>
<path fill-rule="evenodd" clip-rule="evenodd" d="M19.5407 5.04875H19.4797L19.4307 4.98975L19.5407 5.04875Z" fill="#C2A21F"/>
<path fill-rule="evenodd" clip-rule="evenodd" d="M19.4301 4.99023V5.04923L19.3081 5.07523L19.4301 4.99023Z" fill="#C2A21F"/>
<path fill-rule="evenodd" clip-rule="evenodd" d="M18.9673 5.75296L19.0393 5.63996V5.58496L18.9673 5.63996V5.75296Z" fill="#C2A21F"/>
<path fill-rule="evenodd" clip-rule="evenodd" d="M19.0391 5.80865L19.0891 5.63965L19.0391 5.75265V5.80865Z" fill="#C2A21F"/>
<path fill-rule="evenodd" clip-rule="evenodd" d="M19.0391 5.83889V5.80889L19.0891 5.63989L19.0391 5.80889V5.75289L19.0891 5.63989L19.0391 5.83889Z" fill="#C2A21F"/>
<path fill-rule="evenodd" clip-rule="evenodd" d="M21.1211 7.55664L21.3471 4.82264L22.8111 4.00464L23.8751 5.18864L23.1471 7.83764C22.4761 7.69464 22.0741 7.61264 21.1211 7.55664Z" fill="#1E2788"/>
<path fill-rule="evenodd" clip-rule="evenodd" d="M22.8116 4.00481L21.3466 4.82181L21.1216 7.55681C22.0746 7.61181 22.4766 7.69381 23.1476 7.83781L23.8746 5.18881L22.8116 4.00481ZM23.1476 7.83781C22.4766 7.69381 22.0746 7.64281 21.1216 7.58781L21.3466 4.82181L22.8116 3.97681L23.8746 5.18881L23.1476 7.83781Z" fill="#160080"/>
<path fill-rule="evenodd" clip-rule="evenodd" d="M19.766 6.31852L19.706 6.34752V6.45852H19.65L19.54 6.57152L19.589 6.60152V6.68152V6.70952L19.65 6.79752V6.84952L19.766 6.90752L19.871 6.96452V7.02252H19.987V7.04952L20.272 7.02252V6.96452V6.84952H20.377L20.443 6.76952V6.65352H20.553L20.493 6.60152L20.443 6.54152V6.48552L20.377 6.37352L20.328 6.25952L20.272 6.22952V6.14752L20.328 6.06152V6.00952H20.272V6.06152H20.157V6.09152L20.224 6.14752H20.102V6.06152L19.987 6.00952L19.937 6.06152V6.14752L19.871 6.17752L19.821 6.09152L19.766 6.06152H19.65V6.11952L19.766 6.22952V6.31852Z" fill="#FBFC2B"/>
<path fill-rule="evenodd" clip-rule="evenodd" d="M19.987 6.96477V7.02277L20.273 6.96477V6.90677V6.84977H20.378V6.76977L20.444 6.73877V6.65277L20.553 6.62577L20.444 6.57077V6.48577L20.328 6.40077V6.28977L20.273 6.25977V6.14777L20.328 6.03377H20.273V6.06177C20.273 6.06177 20.224 6.09177 20.157 6.09177L20.224 6.14777L20.102 6.17777V6.06177L19.987 6.00977V6.09177V6.14777V6.17777H19.871L19.821 6.11877L19.706 6.09177V6.11877L19.821 6.22977V6.31877L19.706 6.34777V6.45777L19.651 6.48577L19.59 6.57077C19.651 6.60177 19.651 6.60177 19.59 6.68177H19.651V6.76977L19.706 6.84977H19.766L19.871 6.96477L19.937 7.02277L19.987 6.96477ZM19.987 7.04977H19.871V6.96477L19.766 6.90677H19.651V6.79677V6.84977L19.541 6.62577V6.57077L19.59 6.45777L19.706 6.43377L19.651 6.34777L19.766 6.28977V6.22977L19.651 6.11877V6.06177V6.03377H19.766L19.871 6.06177L19.937 6.14777V6.06177L19.987 6.00977L20.157 6.03377V6.14777V6.11877C20.157 6.03377 20.157 6.03377 20.273 6.03377V6.00977H20.328H20.378V6.06177L20.273 6.17777V6.22977L20.328 6.25977L20.378 6.37277L20.493 6.48577L20.553 6.65277L20.444 6.68177L20.493 6.76977H20.444V6.84977L20.273 6.90677V6.96477V7.04977H19.987Z" fill="#C2A21F"/>
<path fill-rule="evenodd" clip-rule="evenodd" d="M19.5894 6.60149H19.7064V6.68149H19.7664V6.84949H19.8214H19.8714L19.9374 6.96449H19.8714V7.02249H19.9864V6.96449H20.0414V7.02249V6.90749H20.1574V7.02249L20.2724 6.96449L20.2234 6.90749L20.1574 6.84949L20.2724 6.79649V6.84949H20.3274L20.2724 6.76949V6.62549L20.3774 6.54049L20.4434 6.51549V6.48549L20.3774 6.37249L20.3274 6.28949L20.2724 6.22949V6.25949H20.2234L20.2724 6.34749V6.40049V6.43349V6.60149V6.68149L20.1574 6.70849V6.84949H20.1024H19.9864V6.76949V6.68149L19.8714 6.65349V6.62549V6.60149L19.8214 6.57149V6.54049V6.43349H19.8714L19.8214 6.40049V6.37249V6.34749L19.8714 6.31849H19.7664L19.7064 6.34749V6.45749L19.6504 6.48549L19.5894 6.57149V6.60149Z" fill="#C2A21F"/>
<path fill-rule="evenodd" clip-rule="evenodd" d="M20.2725 6.25974L20.2235 6.28974L20.2725 6.34774V6.57174L20.3275 6.51574H20.4435L20.3275 6.40074V6.28974L20.2725 6.25974ZM20.1575 7.04974L20.1025 6.90674L20.0415 7.02274L19.9865 6.96474L20.0415 6.90674V6.96474V6.90674H20.1575V6.96474H20.2725H20.1575V6.84974L20.2725 6.76974V6.84974V6.79674V6.62574V6.60174V6.62574V6.68174L20.2235 6.73874L20.1575 6.84974L19.9865 6.90674V6.84974V6.76974L19.9375 6.68174H19.8715V6.62574H19.8215V6.57174C19.7665 6.57174 19.7665 6.57174 19.7665 6.43374L19.8715 6.40074V6.45774H19.8215V6.54074C19.8715 6.54074 19.8715 6.54074 19.8715 6.60174H19.9375V6.65374L19.9865 6.68174V6.73874V6.84974H20.0415H20.1025C20.1575 6.84974 20.1575 6.79674 20.1575 6.79674V6.70874L20.2235 6.68174V6.60174C20.2235 6.60174 20.2235 6.57174 20.2725 6.57174V6.34774L20.2235 6.28974L20.2725 6.22974L20.3275 6.25974L20.3775 6.37274L20.4935 6.48574V6.51574L20.3775 6.57174L20.2725 6.65374L20.3275 6.76974V6.84974H20.2725H20.1575L20.2725 6.96474L20.1575 7.04974ZM19.8715 7.04974V6.96474V6.84974H19.8215V6.90674H19.7665L19.7065 6.68174L19.6505 6.60174L19.5895 6.62574L19.5405 6.57174L19.6505 6.45774V6.43374V6.34774C19.7065 6.31874 19.7665 6.28974 19.7665 6.28974H19.8715L19.8215 6.37274V6.34774H19.7665H19.7065V6.45774L19.6505 6.48574L19.5895 6.57174H19.7065L19.7665 6.68174V6.84974L19.8715 6.79674L19.9375 6.96474H19.9865V7.04974H19.8715Z" fill="#C2A21F"/>
<path fill-rule="evenodd" clip-rule="evenodd" d="M19.9868 6.76949V6.70849V6.68149V6.65349V6.62549V6.65349H20.0418L20.1018 6.62549V6.65349L20.0418 6.68149V6.70849L20.1568 6.73949V6.76949L20.0418 6.73949L19.9868 6.79649V6.76949Z" fill="#613F21"/>
<path fill-rule="evenodd" clip-rule="evenodd" d="M19.9868 6.84956V6.76956V6.70856V6.68156H20.0418L20.1018 6.65356L20.0418 6.68156V6.70856C20.1568 6.70856 20.1568 6.70856 20.1568 6.73956C20.1568 6.73956 20.1568 6.76956 20.0418 6.76956L19.9868 6.84956Z" fill="#C2A21F"/>
<path fill-rule="evenodd" clip-rule="evenodd" d="M20.2726 6.43366L20.2236 6.48566L20.1576 6.54066L20.0416 6.45766H19.9866V6.57166L19.8716 6.48566V6.43366H19.9866V6.34766H20.1026H20.0416V6.43366H20.2726Z" fill="#C2A21F"/>
<path fill-rule="evenodd" clip-rule="evenodd" d="M20.0413 6.4336L19.8713 6.4576L19.9863 6.5406V6.4576H20.0413V6.4336ZM19.9863 6.5716L19.8713 6.4856L19.8213 6.4336L19.9863 6.4006V6.3476C19.9863 6.3186 19.9863 6.3186 20.1023 6.3186H20.1573L20.0413 6.3476V6.4336L20.2723 6.3726L20.1573 6.5716L20.0413 6.4856H19.9863V6.5716Z" fill="#C2A21F"/>
<path fill-rule="evenodd" clip-rule="evenodd" d="M19.987 6.45801V6.48501V6.51601H19.937V6.48501C19.937 6.48501 19.937 6.45801 19.987 6.45801Z" fill="#613F21"/>
<path fill-rule="evenodd" clip-rule="evenodd" d="M19.8713 6.34774H19.8213V6.28974C19.9373 6.25974 19.9873 6.22974 19.9873 6.22974C20.1023 6.22974 20.1573 6.22974 20.2723 6.25974C20.1573 6.28974 20.1023 6.25974 19.9873 6.28974C19.9873 6.28974 19.9373 6.31874 19.8713 6.34774Z" fill="#C2A21F"/>
<path fill-rule="evenodd" clip-rule="evenodd" d="M19.8711 6.17777H19.8211L19.7061 6.06177H19.7661L19.8211 6.11877L19.8711 6.17777Z" fill="#C2A21F"/>
<path fill-rule="evenodd" clip-rule="evenodd" d="M19.9369 6.17769H19.8209L19.6499 6.03369L19.8209 6.09169L19.9369 6.17769Z" fill="#C2A21F"/>
<path fill-rule="evenodd" clip-rule="evenodd" d="M20.2237 6.11901L20.3277 6.01001H20.2727V6.06101H20.1577L20.2237 6.11901Z" fill="#C2A21F"/>
<path fill-rule="evenodd" clip-rule="evenodd" d="M20.102 6.14755H19.937L19.987 6.11955V6.09155L20.041 6.11955L20.102 6.14755Z" fill="#C2A21F"/>
<path fill-rule="evenodd" clip-rule="evenodd" d="M19.937 6.17765V6.11865H19.987V6.14765V6.11865H20.102L20.157 6.14765V6.17765H19.937Z" fill="#C2A21F"/>
<path fill-rule="evenodd" clip-rule="evenodd" d="M20.1023 6.06152H20.0413L19.9873 6.00952L20.1023 6.06152Z" fill="#C2A21F"/>
<path fill-rule="evenodd" clip-rule="evenodd" d="M19.987 6.00977V6.06177L19.937 6.09177L19.987 6.00977Z" fill="#C2A21F"/>
<path fill-rule="evenodd" clip-rule="evenodd" d="M19.5894 6.73932L19.6504 6.65332V6.60132L19.5894 6.68132V6.73932Z" fill="#C2A21F"/>
<path fill-rule="evenodd" clip-rule="evenodd" d="M19.6504 6.79688L19.7064 6.68188L19.6504 6.76988V6.79688Z" fill="#C2A21F"/>
<path fill-rule="evenodd" clip-rule="evenodd" d="M19.6504 6.84964V6.79664L19.7064 6.68164L19.6504 6.79664V6.76964L19.7064 6.68164L19.6504 6.84964Z" fill="#C2A21F"/>
<path fill-rule="evenodd" clip-rule="evenodd" d="M21.457 7.0498V7.1628V7.2178H21.561C21.683 7.2178 21.683 7.1908 21.683 7.1908V7.0778L21.457 7.0498Z" fill="#CB0028"/>
<path fill-rule="evenodd" clip-rule="evenodd" d="M21.457 7.2178V7.1628V7.0498L21.683 7.0778V7.1628V7.1908C21.683 7.1908 21.683 7.2178 21.628 7.2178H21.457Z" fill="#D30028"/>
<path fill-rule="evenodd" clip-rule="evenodd" d="M21.8475 7.24609L21.7925 7.30409V7.38909H21.9635C22.0245 7.33109 22.0245 7.33109 22.0245 7.30409L21.8475 7.24609Z" fill="#CB0028"/>
<path fill-rule="evenodd" clip-rule="evenodd" d="M21.964 7.38861H21.793V7.30361L21.848 7.24561L22.025 7.30361L21.964 7.38861H22.025H21.964Z" fill="#D30028"/>
<path fill-rule="evenodd" clip-rule="evenodd" d="M22.4092 7.07812V7.16312V7.21812H22.5312L22.5802 7.19012V7.13612L22.4092 7.07812Z" fill="#CB0028"/>
<path fill-rule="evenodd" clip-rule="evenodd" d="M22.5312 7.21788H22.4092V7.16288V7.07788L22.5802 7.10588V7.19088L22.5312 7.21788Z" fill="#D30028"/>
<path fill-rule="evenodd" clip-rule="evenodd" d="M22.867 7.21777L22.751 7.27677V7.38877H22.922C22.976 7.38877 22.976 7.33077 22.976 7.30377V7.24577L22.867 7.21777Z" fill="#CB0028"/>
<path fill-rule="evenodd" clip-rule="evenodd" d="M22.922 7.38877H22.751V7.27677L22.867 7.21777L22.977 7.24577V7.33077C22.977 7.38877 22.977 7.38877 22.922 7.38877Z" fill="#D30028"/>
<path fill-rule="evenodd" clip-rule="evenodd" d="M21.8477 5.41693L22.1347 5.61293C22.1897 5.55193 22.3547 5.58493 22.3547 5.58493C22.4097 5.63993 22.4767 5.63993 22.5317 5.67093C22.6917 5.69493 22.8117 5.75293 22.9217 5.69493C23.0327 5.69493 23.0927 5.63993 23.2027 5.61293V5.58493H23.1477C23.0927 5.61293 22.9217 5.61293 22.8677 5.61293C22.7507 5.58493 22.7507 5.52693 22.5797 5.49993V5.46993C22.7507 5.46993 22.7507 5.46993 22.8677 5.44493C22.9217 5.44493 22.9767 5.38393 22.9767 5.38393V5.33193L22.9217 5.30193C22.8677 5.35893 22.8117 5.38393 22.7507 5.35893C22.6417 5.33193 22.5317 5.30193 22.4767 5.30193C22.4097 5.30193 22.4097 5.27393 22.4097 5.27393C22.2437 5.27393 22.1347 5.27393 22.0747 5.30193C21.9637 5.33193 21.9637 5.35893 21.8477 5.41693Z" fill="#CB0028"/>
<path fill-rule="evenodd" clip-rule="evenodd" d="M22.8672 5.75281C22.7512 5.75281 22.6912 5.6948 22.5312 5.6708C22.5312 5.6708 22.4762 5.63981 22.4092 5.63981L22.3542 5.6128C22.2442 5.5848 22.1892 5.5848 22.1352 5.6128L21.8472 5.41681C21.9642 5.33181 21.9642 5.3018 22.0742 5.3018C22.1352 5.2738 22.2442 5.24581 22.4092 5.27381V5.3018H22.4762H22.5802C22.6412 5.3318 22.6912 5.33181 22.7512 5.33181C22.8112 5.35881 22.8672 5.3588 22.9222 5.3018H22.9762V5.33181V5.38381C22.9222 5.38381 22.9222 5.44481 22.8672 5.46981H22.6912C22.7512 5.46981 22.8112 5.46981 22.8672 5.44481C22.8672 5.44481 22.9222 5.38381 22.9762 5.38381V5.33181C22.8672 5.38381 22.8112 5.38381 22.7512 5.38381C22.6912 5.35881 22.6412 5.33181 22.5802 5.33181C22.5312 5.33181 22.5312 5.3018 22.4762 5.3018H22.4092C22.2442 5.2738 22.1352 5.3018 22.0742 5.3018C21.9642 5.3318 21.9642 5.35881 21.9092 5.38381L22.1352 5.6128C22.1352 5.6128 22.2442 5.5848 22.3542 5.5848C22.4092 5.6128 22.4092 5.61281 22.4092 5.63981H22.5312C22.6912 5.69481 22.8112 5.75281 22.9222 5.69481C23.0322 5.69481 23.0932 5.63981 23.1472 5.63981V5.5848C23.0932 5.6398 22.9222 5.6398 22.8672 5.6128C22.8112 5.6128 22.7512 5.5848 22.7512 5.5848C22.6912 5.5268 22.6912 5.5268 22.5802 5.4998L22.6412 5.46981C22.6912 5.52681 22.6912 5.5268 22.7512 5.5268C22.7512 5.5848 22.8112 5.5848 22.8672 5.5848C22.9222 5.6128 23.0932 5.6128 23.1472 5.5848H23.2032L23.1472 5.63981C23.0932 5.67081 23.0322 5.69481 22.9222 5.75281H22.8672Z" fill="#BA0019"/>
<path fill-rule="evenodd" clip-rule="evenodd" d="M21.9639 5.38379C22.0249 5.38379 22.0249 5.38379 22.0249 5.44579V5.38379C22.0249 5.38379 21.9639 5.35979 21.9639 5.33179V5.38379Z" fill="#82373B"/>
<path fill-rule="evenodd" clip-rule="evenodd" d="M22.1347 5.58497V5.49997L22.0737 5.46997H22.1347V5.58497Z" fill="#82373B"/>
<path fill-rule="evenodd" clip-rule="evenodd" d="M22.1895 5.30176L22.2445 5.33176V5.41676V5.33176V5.30176H22.1895Z" fill="#82373B"/>
<path fill-rule="evenodd" clip-rule="evenodd" d="M22.409 5.58507V5.50007C22.409 5.50007 22.409 5.47007 22.354 5.44507L22.409 5.47007V5.58507Z" fill="#82373B"/>
<path fill-rule="evenodd" clip-rule="evenodd" d="M22.6417 5.5V5.585C22.5797 5.64 22.5797 5.64 22.5317 5.64C22.5797 5.64 22.6417 5.64 22.6417 5.613V5.5Z" fill="#82373B"/>
<path fill-rule="evenodd" clip-rule="evenodd" d="M22.6916 5.46971C22.6416 5.46971 22.6416 5.38371 22.6416 5.38371C22.6416 5.38371 22.6416 5.35971 22.6916 5.38371V5.46971Z" fill="#82373B"/>
<path fill-rule="evenodd" clip-rule="evenodd" d="M22.8115 5.61328V5.63928V5.69528L22.8675 5.67128C22.8675 5.67128 22.8675 5.63928 22.8115 5.61328Z" fill="#82373B"/>
<path fill-rule="evenodd" clip-rule="evenodd" d="M22.867 5.75279L22.811 5.69479V5.63979L22.751 5.61279H22.811V5.63979C22.867 5.63979 22.811 5.67079 22.811 5.67079V5.69479C22.867 5.67079 22.867 5.63979 22.867 5.63979L22.811 5.61279L22.867 5.63979V5.69479V5.75279Z" fill="#83353B"/>
<path fill-rule="evenodd" clip-rule="evenodd" d="M22.9771 5.67104H23.0331V5.61304H22.9771V5.67104Z" fill="#82373B"/>
<path fill-rule="evenodd" clip-rule="evenodd" d="M21.8475 5.44524C21.7925 5.46924 21.7385 5.46924 21.7385 5.46924L21.5615 5.41724C21.4565 5.46924 21.4565 5.46924 21.4565 5.52724C21.5615 5.55124 21.5615 5.61324 21.6275 5.63924C21.6275 5.63924 21.6275 5.75324 21.5615 5.75324C21.5615 5.83924 21.4565 5.89324 21.4565 5.89324C21.4565 5.89324 21.4565 5.97624 21.5615 6.00924L21.7385 5.97624V6.06124V6.11924L21.7925 6.14724L21.7385 6.17724C21.7385 6.22924 21.6825 6.25924 21.6825 6.29024C21.6275 6.34724 21.6275 6.34724 21.6825 6.34724V6.43324C21.6825 6.45824 21.6825 6.48524 21.7385 6.45824C21.6825 6.51524 21.7385 6.54124 21.7385 6.60124C21.6825 6.65324 21.7385 6.68124 21.6825 6.73924C21.6825 6.73924 21.6825 6.79724 21.6275 6.84924C21.5615 6.90724 21.5615 6.90724 21.4565 7.04924L21.6825 7.07824L21.7385 7.04924V6.90724C21.7385 6.90724 21.7925 6.76924 21.8475 6.70924C21.8475 6.70924 21.9095 6.68124 21.9635 6.68124C21.9635 6.68124 21.9635 6.70924 22.0245 6.70924C21.9635 6.76924 21.9635 6.84924 21.9635 6.84924V7.07824C21.9635 7.10524 21.9095 7.10524 21.8475 7.21724L22.0245 7.27624L22.0745 7.21724V7.04924C22.0745 6.90724 22.2435 6.84924 22.2435 6.76924H22.3545C22.3545 6.76924 22.3545 6.73924 22.4095 6.70924V6.76924C22.4095 6.76924 22.4095 6.70924 22.4765 6.70924C22.4765 6.73924 22.4765 6.76924 22.5315 6.76924C22.5315 6.76924 22.5795 6.76924 22.6415 6.73924L22.4765 6.96524V7.04924L22.4095 7.07824L22.5795 7.10524L22.6415 7.04924C22.6915 7.04924 22.6915 7.04924 22.6915 7.02224C22.6915 6.96524 22.6915 6.90724 22.7505 6.90724C22.7505 6.90724 22.8115 6.84924 22.8675 6.73924C22.9215 6.73924 22.9765 6.76924 22.9765 6.84924V7.04924L22.8675 7.19024V7.21724L23.0325 7.24624L23.0925 7.19024V7.07824C23.1475 7.02224 23.2025 6.96524 23.2575 6.84924V6.76924V6.65324V6.62624V6.48524C23.2575 6.40024 23.3185 6.34724 23.3725 6.31824V6.22924C23.3185 6.22924 23.3185 6.22924 23.3185 6.20524C23.3185 6.20524 23.3725 6.17724 23.3725 6.14724V6.11924V5.97624C23.3725 5.97624 23.3725 5.92424 23.3185 5.92424V5.94824L23.2025 6.00924H23.0925H22.9765H22.8675H22.7505V6.03424H22.6915C22.4765 6.03424 22.5315 6.06124 22.4765 6.06124C22.4095 6.06124 22.4095 6.03424 22.3545 6.03424L22.2435 6.00924C22.1895 5.97624 22.1345 5.89324 22.0745 5.83924C22.2435 5.75324 22.2995 5.75324 22.3545 5.63924H22.1345L21.8475 5.44524Z" fill="#FBFC2B"/>
<path fill-rule="evenodd" clip-rule="evenodd" d="M21.7385 6.09175V6.06175V6.00975H21.6825H21.5615C21.4575 5.97675 21.4575 5.92375 21.4575 5.92375C21.4575 5.92375 21.4575 5.86875 21.5615 5.83875V5.75275C21.6285 5.75275 21.6285 5.67075 21.6285 5.67075C21.5615 5.61275 21.4575 5.55175 21.4575 5.55175C21.4575 5.46975 21.4575 5.44575 21.5615 5.41675L21.6825 5.46975L21.5615 5.44575L21.4575 5.46975C21.5615 5.52775 21.6285 5.61275 21.6285 5.63975V5.75275L21.5615 5.83875V5.89375V5.97675H21.6825H21.7385V6.09175ZM21.6825 6.34775C21.6285 6.34775 21.6285 6.31875 21.6825 6.28975C21.6825 6.25975 21.7385 6.22975 21.7385 6.20475L21.7935 6.11875L21.7385 6.14775V6.09175L21.7935 6.11875L21.7385 6.17775C21.7385 6.25975 21.6825 6.28975 21.6825 6.28975V6.34775ZM21.6825 6.70875C21.6825 6.70875 21.6825 6.62575 21.7385 6.60175C21.6825 6.54075 21.6825 6.51575 21.7385 6.45775C21.6825 6.48575 21.6825 6.45775 21.6285 6.43375L21.6825 6.37275V6.40075V6.43375L21.7385 6.45775V6.57075V6.68175L21.6825 6.70875ZM22.4765 7.04975V6.96475L22.6415 6.73875C22.5805 6.76975 22.5315 6.76975 22.5315 6.76975L22.4765 6.73875C22.4095 6.76975 22.4095 6.84975 22.3545 6.73875H22.4095L22.4765 6.70875L22.5315 6.73875H22.6415L22.4765 7.04975ZM23.0325 7.24575L22.8675 7.21775L22.9765 7.04975V6.90675C22.9765 6.79675 22.9225 6.76975 22.8675 6.73875C22.8115 6.84975 22.7515 6.84975 22.7515 6.84975L22.6915 7.02275C22.6915 7.04975 22.6915 7.04975 22.6415 7.04975L22.5805 7.10575L22.4095 7.07775L22.4765 7.04975L22.5805 7.07775L22.6415 7.04975C22.6915 7.04975 22.6915 7.02275 22.6915 7.02275V6.90675C22.7515 6.84975 22.8115 6.79675 22.8675 6.70875C22.9225 6.73875 22.9765 6.76975 22.9765 6.84975V7.04975L22.8675 7.19075L23.0325 7.21775L23.0925 7.19075V7.07775C23.0925 7.02275 23.1475 6.96475 23.2585 6.90675V6.76975C23.2035 6.70875 23.2035 6.68175 23.2035 6.65375C23.2035 6.60175 23.2585 6.51575 23.2585 6.48575C23.2585 6.43375 23.2585 6.37275 23.3185 6.34775V6.31875V6.22975C23.3185 6.17775 23.3185 6.17775 23.3735 6.14775V5.97675H23.3185L23.2035 6.00975C23.1475 6.00975 23.1475 6.03375 23.0925 6.00975H22.9765C22.9225 6.03375 22.8675 6.03375 22.8115 6.00975H22.7515V6.03375H22.6915L22.5315 6.06175H22.4095H22.3545L22.2445 6.03375C22.1895 6.00975 22.1345 5.92375 22.0745 5.83875C22.2445 5.75275 22.3005 5.69575 22.3545 5.61275L22.1345 5.63975L21.8475 5.44575C21.7935 5.46975 21.7385 5.46975 21.7385 5.46975V5.49975C21.7385 5.49975 21.7935 5.44575 21.8475 5.41675L22.1345 5.63975L22.3545 5.61275C22.3545 5.75275 22.2445 5.80875 22.0745 5.83875C22.1345 5.92375 22.1895 5.97675 22.2445 6.00975L22.3545 6.03375C22.4095 6.03375 22.4095 6.03375 22.4095 6.06175C22.5315 6.03375 22.5315 6.03375 22.6915 6.00975H22.7515H22.8675H22.9765H23.0925H23.2035L23.3185 5.94775V5.92375C23.3735 5.92375 23.3735 5.94775 23.3735 5.94775V6.11875L23.3185 6.20475L23.3735 6.31875C23.3735 6.34775 23.3185 6.34775 23.3185 6.34775C23.3185 6.34775 23.2585 6.43375 23.2585 6.48575V6.62575V6.73875V6.84975C23.1475 6.96475 23.1475 7.04975 23.0925 7.07775V7.19075L23.0325 7.24575ZM22.0245 7.30375L21.8475 7.24575C21.8475 7.16275 21.9095 7.13575 21.9645 7.10575V6.84975V6.76975V6.68175C21.9095 6.68175 21.8475 6.70875 21.8475 6.70875C21.8475 6.76975 21.7385 6.84975 21.7385 6.84975V7.04975L21.6825 7.07775L21.4575 7.04975C21.4575 6.96475 21.5615 6.90675 21.5615 6.90675L21.6285 6.84975C21.6285 6.76975 21.6825 6.76975 21.6825 6.70875C21.6825 6.76975 21.6825 6.79675 21.6285 6.84975L21.5615 6.90675C21.5615 6.90675 21.5615 6.96475 21.4575 7.04975L21.6825 7.07775L21.7385 7.04975V6.90675C21.7385 6.90675 21.7935 6.76975 21.8475 6.70875C21.9095 6.68175 21.9645 6.68175 21.9645 6.68175C22.0245 6.73875 21.9645 6.76975 21.9645 6.76975V6.84975V7.07775C21.9645 7.13575 21.9095 7.16275 21.9095 7.21775L22.0245 7.27675C22.0245 7.24575 22.0745 7.21775 22.0745 7.21775V7.04975C22.0745 6.96475 22.1345 6.96475 22.1345 6.90675C22.1895 6.84975 22.2445 6.84975 22.2445 6.76975H22.3005H22.3545H22.2445C22.2445 6.84975 22.1895 6.84975 22.1345 6.90675C22.1345 6.96475 22.0745 7.02275 22.0745 7.04975V7.21775C22.0745 7.21775 22.0745 7.24575 22.0245 7.27675V7.30375Z" fill="#E8D629"/>
<path fill-rule="evenodd" clip-rule="evenodd" d="M21.7383 5.67089L21.8473 5.69489V5.75289L21.9093 5.69489L21.9643 5.67089C21.9093 5.67089 21.9093 5.63989 21.8473 5.63989C21.8473 5.63989 21.7933 5.67089 21.7383 5.67089Z" fill="#624E0F"/>
<path fill-rule="evenodd" clip-rule="evenodd" d="M21.8478 5.75289L21.7388 5.69489V5.67089L21.8478 5.63989L21.9638 5.67089H21.8478L21.7928 5.69489L21.8478 5.75289V5.69489L21.9638 5.67089V5.69489L21.8478 5.75289Z" fill="#624E0F"/>
<path fill-rule="evenodd" clip-rule="evenodd" d="M22.244 6.40052V6.34752C22.189 6.34752 22.189 6.29052 22.189 6.25952C22.189 6.29052 22.189 6.37352 22.244 6.40052Z" fill="#C2A21F"/>
<path fill-rule="evenodd" clip-rule="evenodd" d="M22.409 6.37308C22.409 6.37308 22.354 6.22908 22.354 6.20508C22.354 6.20508 22.409 6.26008 22.409 6.29008V6.37308Z" fill="#C2A21F"/>
<path fill-rule="evenodd" clip-rule="evenodd" d="M22.4092 6.65335C22.4092 6.68135 22.4092 6.65335 22.4092 6.65335C22.4092 6.60135 22.4762 6.57135 22.4762 6.54135L22.5312 6.43335C22.4762 6.43335 22.4762 6.48535 22.4092 6.54135V6.65335Z" fill="#C2A21F"/>
<path fill-rule="evenodd" clip-rule="evenodd" d="M22.4092 6.68152V6.51552L22.4762 6.45752L22.4092 6.54052V6.65352V6.60152C22.4762 6.54052 22.4762 6.51552 22.4762 6.45752C22.5312 6.48552 22.4762 6.57152 22.4762 6.57152L22.4092 6.68152Z" fill="#C2A21F"/>
<path fill-rule="evenodd" clip-rule="evenodd" d="M22.5799 6.60166C22.5309 6.60166 22.5799 6.51566 22.5799 6.48566C22.5799 6.48566 22.5799 6.40066 22.6419 6.34766C22.6419 6.43366 22.6419 6.51566 22.5799 6.60166Z" fill="#C2A21F"/>
<path fill-rule="evenodd" clip-rule="evenodd" d="M22.5802 6.6259L22.5312 6.6019L22.5802 6.5159L22.6423 6.3479C22.6423 6.4339 22.6422 6.5409 22.5802 6.6019V6.6259Z" fill="#C2A21F"/>
<path fill-rule="evenodd" clip-rule="evenodd" d="M22.6914 6.31849C22.6914 6.31849 22.5804 6.17749 22.6414 6.17749C22.6414 6.17749 22.6914 6.25949 22.6914 6.29049V6.31849Z" fill="#C2A21F"/>
<path fill-rule="evenodd" clip-rule="evenodd" d="M22.867 6.40032V6.31832C22.867 6.25932 22.811 6.20532 22.811 6.20532H22.867V6.34732V6.40032Z" fill="#C2A21F"/>
<path fill-rule="evenodd" clip-rule="evenodd" d="M23.0323 6.29004C22.9763 6.29004 23.0324 6.34804 23.0934 6.37304V6.57104V6.51604H23.1473C23.1473 6.51604 23.0934 6.45804 23.0934 6.43404C23.0934 6.37304 23.0323 6.34804 23.0323 6.29004Z" fill="#C2A21F"/>
<path fill-rule="evenodd" clip-rule="evenodd" d="M23.0926 6.57136V6.51536C23.0926 6.48536 23.0926 6.43336 23.0316 6.37336V6.31836V6.34736C23.0316 6.31836 23.0316 6.31836 22.9766 6.31836C23.0316 6.31836 23.0316 6.34736 23.0316 6.34736C23.0926 6.34736 23.0926 6.37336 23.0926 6.40036C23.0926 6.45836 23.1476 6.48536 23.1476 6.51536L23.0926 6.57136Z" fill="#C2A21F"/>
<path fill-rule="evenodd" clip-rule="evenodd" d="M23.6604 6.0918C24.1064 6.1778 24.5034 6.2598 24.8454 6.3728C25.2354 6.5158 25.5714 6.6258 25.9134 6.7968L25.3504 8.0668C25.0104 7.9228 24.6684 7.8378 24.3374 7.7278C23.9964 7.6128 23.6604 7.5268 23.3184 7.3888L23.6604 6.0918Z" fill="white"/>
<path fill-rule="evenodd" clip-rule="evenodd" d="M23.6604 6.09177L23.3184 7.38877L23.5944 7.50177C23.8254 7.58777 24.1064 7.64277 24.3374 7.72777L24.5034 7.75477C24.7834 7.83777 25.0704 7.92277 25.2854 8.03577L25.9134 6.79677C25.6324 6.68177 25.2354 6.51577 24.8454 6.37277C24.5034 6.28977 24.1064 6.17777 23.6604 6.09177ZM25.3504 8.09377C25.0704 7.95077 24.7834 7.86777 24.5034 7.77977L24.3374 7.75477C24.1064 7.64277 23.8254 7.58777 23.5944 7.52677L23.3184 7.38877L23.6604 6.06177C24.1064 6.17777 24.5034 6.25977 24.8454 6.37277C25.2354 6.51577 25.6324 6.65377 25.9134 6.79677L25.3504 8.09377Z" fill="white"/>
<path fill-rule="evenodd" clip-rule="evenodd" d="M23.5936 6.37305C23.5936 6.37305 24.1066 6.51605 24.7826 6.68205C25.2846 6.85005 25.7916 7.07805 25.7916 7.07805L25.4556 7.81005C25.1806 7.67005 24.8446 7.55705 24.5026 7.44705C24.1066 7.30405 23.7646 7.21805 23.3726 7.13605L23.5936 6.37305Z" fill="#CB0028"/>
<path fill-rule="evenodd" clip-rule="evenodd" d="M25.456 7.81041C25.181 7.69441 24.845 7.58741 24.503 7.44741C24.106 7.33141 23.765 7.21741 23.373 7.13541L23.544 6.34741C23.594 6.34741 24.106 6.48541 24.783 6.65341C25.119 6.76941 25.682 7.04941 25.792 7.07841C25.742 7.07841 25.235 6.84941 24.783 6.68141C24.106 6.51541 23.594 6.37341 23.594 6.37341L23.429 7.13541C23.765 7.21741 24.106 7.30341 24.503 7.38841C24.845 7.55641 25.181 7.66941 25.456 7.78041C25.742 7.16341 25.792 7.07841 25.792 7.07841C25.792 7.10541 25.571 7.61241 25.456 7.81041Z" fill="#D30028"/>
<path fill-rule="evenodd" clip-rule="evenodd" d="M23.6604 6.68149C23.7154 6.68149 23.7644 6.68149 23.7644 6.62549H23.9354V6.68149C24.0524 6.70849 24.0524 6.70849 24.1064 6.76949C24.1064 6.76949 24.2714 6.84949 24.3374 6.84949H24.7284C24.7284 6.84949 24.8454 6.90749 24.8934 6.90749C24.9494 6.96449 25.0104 7.04949 25.0104 7.04949C25.1194 7.07749 25.1814 7.10549 25.2854 7.13549C25.4064 7.13549 25.4564 7.16249 25.5714 7.16249C25.6324 7.16249 25.6324 7.19049 25.6324 7.21749C25.6324 7.21749 25.5214 7.27649 25.4564 7.27649C25.2854 7.27649 25.1814 7.21749 25.0704 7.21749C25.1194 7.24549 25.1814 7.33049 25.1814 7.38849V7.58749V7.44749C25.1194 7.38849 25.1194 7.38849 25.0704 7.38849C25.0104 7.38849 24.9494 7.33049 24.8454 7.27649C24.8454 7.27649 24.8454 7.33049 24.7834 7.38849H24.7284L24.5034 7.30349V7.27649H24.5574H24.7284V7.21749H24.8454C24.8454 7.10549 24.7834 7.04949 24.6684 7.04949H24.2714L24.3374 7.07749C24.1064 7.07749 23.9964 7.07749 23.8754 7.10549C23.8254 7.10549 23.7644 7.13549 23.7644 7.13549H23.7154V7.07749C23.8254 7.07749 23.8754 7.04949 23.9354 7.04949L23.8754 6.96449H23.7154C23.6604 6.96449 23.5444 6.90749 23.5444 6.90749V6.84949L23.6604 6.90749H23.8254V6.84949V6.79649C23.8254 6.79649 23.7644 6.76949 23.7154 6.76949C23.6604 6.76949 23.6604 6.70849 23.6604 6.70849V6.68149Z" fill="black"/>
<path fill-rule="evenodd" clip-rule="evenodd" d="M23.7645 7.07807C23.8255 7.05007 23.8745 7.05007 23.9355 7.05007L23.8255 7.02207H23.7645L23.7145 6.96507C23.6605 6.96507 23.5435 6.96507 23.5435 6.90707H23.5935C23.5935 6.90707 23.6605 6.96507 23.7145 6.96507H23.7645H23.8255H23.8745L23.9355 7.05007C23.8745 7.07807 23.8255 7.07807 23.7645 7.07807ZM24.8445 7.19007C24.7835 7.10507 24.7835 7.05007 24.6675 7.05007H24.2715L24.3365 7.07807H24.1065C24.0515 7.07807 23.9355 7.10507 23.8745 7.10507L23.8255 7.13607C23.7645 7.13607 23.7645 7.16307 23.7645 7.16307L23.6605 7.10507H23.7145L23.7645 7.13607C23.7645 7.13607 23.7645 7.10507 23.8255 7.10507C23.8255 7.10507 23.8745 7.10507 23.8745 7.07807H24.1065H24.3365L24.2715 7.05007H24.6675C24.7835 7.05007 24.8445 7.10507 24.8445 7.19007ZM24.7835 7.38907H24.7285L24.5025 7.30407C24.5025 7.24607 24.5025 7.24607 24.5575 7.24607C24.6135 7.27607 24.7285 7.27607 24.7285 7.27607V7.21807H24.7835H24.7285V7.27607C24.7285 7.27607 24.6135 7.30407 24.5575 7.27607H24.5025L24.7285 7.33107H24.7835L24.8445 7.30407V7.27607C24.8445 7.27607 24.8445 7.33107 24.7835 7.38907ZM25.1805 7.61207V7.58807V7.44707C25.1185 7.38907 25.1185 7.38907 25.0705 7.38907C25.0095 7.38907 24.9495 7.38907 24.8935 7.30407C24.9495 7.33107 25.0095 7.38907 25.0705 7.38907H25.1805V7.55707V7.58807V7.38907L25.0705 7.21807H25.1805C25.2855 7.24607 25.3505 7.27607 25.4555 7.27607C25.5215 7.27607 25.5715 7.21807 25.5715 7.21807C25.4555 7.16307 25.4065 7.16307 25.2855 7.13607C25.1805 7.10507 25.1185 7.10507 25.0095 7.07807C25.0095 7.07807 24.9495 6.96507 24.8935 6.96507C24.8445 6.90707 24.7835 6.84907 24.7835 6.84907H24.3365H24.2215C24.1065 6.79707 24.1065 6.76907 24.1065 6.76907C24.0515 6.76907 24.0515 6.73907 24.0515 6.70907C23.9955 6.70907 23.9955 6.68207 23.9355 6.68207V6.62607H23.7645L23.7145 6.68207C23.6605 6.73907 23.6605 6.76907 23.7145 6.76907H23.8255C23.8255 6.79707 23.8745 6.84907 23.8745 6.84907V6.90707H23.6605H23.5935V6.84907C23.7645 6.90707 23.8255 6.90707 23.8255 6.90707V6.84907C23.8255 6.79707 23.7645 6.79707 23.7145 6.79707C23.6605 6.76907 23.6605 6.73907 23.6605 6.70907V6.68207C23.7145 6.65307 23.7645 6.65307 23.7645 6.60107H23.9355L23.9955 6.68207L24.0515 6.70907L24.1065 6.73907C24.1065 6.73907 24.1065 6.76907 24.2215 6.76907C24.2715 6.79707 24.2715 6.84907 24.3365 6.84907H24.7285C24.7285 6.84907 24.8445 6.90707 24.8935 6.90707C24.9495 6.96507 25.0095 7.02207 25.0095 7.05007C25.1185 7.07807 25.1805 7.10507 25.2855 7.10507C25.4065 7.13607 25.4555 7.13607 25.5715 7.13607L25.6315 7.19007C25.6315 7.21807 25.5715 7.27607 25.4555 7.27607C25.3505 7.27607 25.2855 7.24607 25.1805 7.24607L25.1185 7.21807C25.1185 7.21807 25.1805 7.33107 25.1805 7.38907L25.2355 7.58807L25.1805 7.61207Z" fill="black"/>
<path fill-rule="evenodd" clip-rule="evenodd" d="M24.503 7.19032C24.558 7.21732 24.613 7.21732 24.729 7.21732H24.845C24.845 7.10532 24.783 7.04932 24.668 7.04932H24.272L24.337 7.07832C24.442 7.13532 24.503 7.16332 24.503 7.16332V7.19032Z" fill="white"/>
<path fill-rule="evenodd" clip-rule="evenodd" d="M24.7285 7.2178C24.6135 7.2178 24.5575 7.2178 24.5025 7.1908C24.4425 7.1628 24.3865 7.1358 24.2715 7.1058V7.0498H24.6675C24.7835 7.0498 24.8445 7.1058 24.8445 7.1908C24.7835 7.1058 24.7835 7.0498 24.6675 7.0498H24.2715L24.3365 7.0778C24.4425 7.1058 24.4425 7.1358 24.5025 7.1628C24.5575 7.1908 24.6135 7.1908 24.7285 7.2178L24.7835 7.1908L24.7285 7.2178Z" fill="black"/>
<path fill-rule="evenodd" clip-rule="evenodd" d="M16.8859 7.83781L16.2139 5.24581L17.2269 3.97681L18.7529 4.82181L18.9679 7.58781C18.2459 7.61181 17.7339 7.69381 16.8859 7.83781Z" fill="#1E2788"/>
<path fill-rule="evenodd" clip-rule="evenodd" d="M17.2269 3.97671L16.2129 5.24671L16.8859 7.83771C17.7329 7.69471 18.2459 7.61271 18.9669 7.55671L18.6919 4.82271L17.2269 3.97671ZM16.8859 7.86871V7.83771L16.2129 5.24671L17.2269 3.94971L18.7519 4.79171L18.9669 7.58771C18.2459 7.61271 17.7329 7.69471 16.8859 7.83771V7.86871Z" fill="#160080"/>
<path fill-rule="evenodd" clip-rule="evenodd" d="M14.4014 5.63961L14.6324 5.89361V6.22961L14.9684 6.09161L15.2494 6.28961V5.97661L15.5364 5.86861L15.3044 5.63961L15.3654 5.33161L15.0844 5.44561L14.8034 5.24561V5.52761L14.4014 5.63961Z" fill="#FBFC2B"/>
<path fill-rule="evenodd" clip-rule="evenodd" d="M14.9689 6.06158L15.2499 6.25958V5.97658L15.5359 5.86958L15.3049 5.63958L15.3649 5.30158L15.0849 5.46958C15.0299 5.44558 14.8029 5.27458 14.8029 5.27458V5.52758L14.4019 5.67058L14.6329 5.86958V6.22958L14.9689 6.06158ZM15.2499 6.31858L14.9689 6.09158L14.6329 6.22958V5.89358L14.4019 5.67058L14.8029 5.52758V5.24658L15.0849 5.44558L15.3649 5.30158L15.3049 5.63958L15.5359 5.86958L15.2499 5.97658V6.31858Z" fill="#F4C627"/>
<path fill-rule="evenodd" clip-rule="evenodd" d="M14.4014 5.6709L15.5364 5.8689L15.2494 5.9769L15.0294 5.8089L15.2494 6.2899C15.2494 6.2599 14.9684 6.0919 14.9684 6.0919V5.8089C14.9684 5.8089 14.6324 6.2299 14.6324 6.2049V5.8689L14.4014 5.6709Z" fill="#F4C427"/>
<path fill-rule="evenodd" clip-rule="evenodd" d="M14.8032 5.52734L15.0302 5.75334L14.8032 5.24634V5.52734Z" fill="#F4C627"/>
<path fill-rule="evenodd" clip-rule="evenodd" d="M15.0844 5.46979C15.0844 5.46979 14.9684 5.75279 15.0294 5.75279L15.3654 5.33179L15.0844 5.46979Z" fill="#F4C627"/>
<path fill-rule="evenodd" clip-rule="evenodd" d="M24.7831 5.2461L24.8451 5.5271L24.5571 5.8081L24.8931 5.8931L24.9491 6.2051L25.1801 5.9761L25.4561 6.0611V5.7531L25.6811 5.5271L25.4061 5.4451L25.2851 5.1311L25.1191 5.3321L24.7831 5.2461Z" fill="#FBFC2B"/>
<path fill-rule="evenodd" clip-rule="evenodd" d="M24.7831 5.2461L24.8451 5.5271L24.5571 5.8081L24.8931 5.8931L24.9491 6.1781L25.1801 5.9761L25.4561 6.0611V5.7531L25.6811 5.5271L25.3501 5.4451L25.2851 5.1311L25.1191 5.3321L24.7831 5.2461ZM24.9491 6.2291L24.8931 5.8931L24.5571 5.8081L24.8451 5.5271L24.7831 5.2461L25.1191 5.3321L25.2851 5.1311L25.4061 5.4451L25.6811 5.5271L25.4561 5.7531V6.0611L25.1801 6.0101L24.9491 6.2291Z" fill="#F4C627"/>
<path fill-rule="evenodd" clip-rule="evenodd" d="M24.7831 5.24609L25.4561 6.06109L25.1801 5.97609L25.1191 5.64009L24.9491 6.17809L24.8931 5.89309L25.1191 5.64009L24.5571 5.80809L24.8451 5.52709L24.7831 5.24609Z" fill="#F4C627"/>
<path fill-rule="evenodd" clip-rule="evenodd" d="M25.1191 5.3321V5.6401L25.2851 5.1311L25.1191 5.3321Z" fill="#F4C627"/>
<path fill-rule="evenodd" clip-rule="evenodd" d="M25.3506 5.44531L25.1196 5.63931C25.1806 5.63931 25.6816 5.52731 25.6816 5.52731C25.6816 5.52731 25.4066 5.44531 25.3506 5.44531Z" fill="#F4C627"/>
<path fill-rule="evenodd" clip-rule="evenodd" d="M16.2134 5.24602C16.5494 5.10302 16.9954 4.96002 17.3984 4.90802C17.9044 4.82202 18.2964 4.82202 18.7524 4.82202L18.8024 5.47002C18.4664 5.47002 18.2464 5.47002 17.5634 5.55202C16.9404 5.64002 16.7204 5.69502 16.3794 5.86902L16.2134 5.24602Z" fill="#CB0028"/>
<path fill-rule="evenodd" clip-rule="evenodd" d="M18.6924 4.82224H18.6314C18.2464 4.82224 17.8494 4.85224 17.3984 4.90824C16.9954 4.96024 16.6044 5.07524 16.2134 5.27424L16.3794 5.86924C16.7204 5.69524 16.9404 5.63924 17.5634 5.52724C18.1254 5.46924 18.4054 5.46924 18.6924 5.46924H18.8024C18.7524 5.46924 18.6924 4.82224 18.6924 4.82224ZM16.3794 5.89324L16.2134 5.24624C16.6044 5.04924 16.9954 4.96024 17.3984 4.87824C17.8494 4.82224 18.2464 4.79224 18.6314 4.79224H18.7524L18.8024 5.46924H18.6924C18.4054 5.46924 18.1254 5.46924 17.5634 5.58524C16.9404 5.63924 16.7204 5.75324 16.3794 5.86924V5.89324Z" fill="#D30028"/>
<path fill-rule="evenodd" clip-rule="evenodd" d="M16.5498 6.45809L16.7208 7.16309C17.0618 7.07809 17.3978 7.02209 17.8498 6.90709C18.1848 6.85009 18.5818 6.85009 18.9668 6.85009L18.8628 6.14709C18.5268 6.11909 18.0698 6.11909 17.6788 6.17809C17.2268 6.22909 16.8858 6.34809 16.5498 6.45809Z" fill="#CB0028"/>
<path fill-rule="evenodd" clip-rule="evenodd" d="M18.4058 6.1474C18.1248 6.1474 17.9598 6.1774 17.6788 6.1774C17.2268 6.2294 16.8858 6.3474 16.5498 6.4584C16.5498 6.4584 16.6598 6.8494 16.7208 7.1634C17.0618 7.0784 17.3978 7.0224 17.8498 6.9074C18.1848 6.8494 18.6318 6.8494 18.9178 6.8494L18.8628 6.1474H18.4058ZM16.7208 7.1904H16.6598C16.5498 6.4584 16.5498 6.4334 16.5498 6.4334C16.8858 6.3184 17.2268 6.2294 17.6788 6.1774C18.0198 6.1194 18.4668 6.1194 18.8628 6.1474L18.9678 6.8494C18.6318 6.8494 18.2458 6.9074 17.8498 6.9644C17.3978 7.0494 17.0618 7.0784 16.7208 7.1904Z" fill="#D30028"/>
<path fill-rule="evenodd" clip-rule="evenodd" d="M14.8032 8.62793H25.2852V15.3399C25.0102 17.9889 22.5312 19.9359 20.1572 19.9359C17.7332 20.0219 15.0302 18.0169 14.8032 15.3399V8.62793Z" fill="white"/>
<path fill-rule="evenodd" clip-rule="evenodd" d="M25.2352 8.62783L14.8032 8.68383V15.3398C15.0842 18.0738 17.9042 19.9638 20.1572 19.8778C22.4092 19.8778 24.9492 18.0488 25.2352 15.3398V8.62783ZM19.9862 19.9358C17.6782 19.9358 14.9682 18.0738 14.8032 15.3398V8.62783L25.2852 8.60083V15.3398C25.0702 18.0738 22.4092 19.9358 20.1572 19.9358H19.9862Z" fill="#CB0028"/>
<path fill-rule="evenodd" clip-rule="evenodd" d="M15.0843 8.88184H25.0703V15.3158C24.8443 17.8458 22.4093 19.7068 20.1573 19.6528C17.8493 19.7678 15.1943 17.8458 15.0293 15.2808L15.0843 8.88184Z" fill="#CB0028"/>
<path fill-rule="evenodd" clip-rule="evenodd" d="M25.0098 8.88168L15.0848 8.91168V15.2807C15.2498 17.9337 17.9597 19.7677 20.1567 19.6527C22.3547 19.6527 24.7828 17.8757 25.0098 15.3157V8.88168ZM19.9867 19.7357C17.8497 19.7357 15.1947 17.9057 14.9688 15.2807L15.0298 8.88168L25.0708 8.82568L25.1187 15.3157C24.8447 17.9337 22.3547 19.7067 20.1567 19.7067C20.1017 19.7357 19.9867 19.7357 19.9867 19.7357Z" fill="#CB0028"/>
<path fill-rule="evenodd" clip-rule="evenodd" d="M16.9961 11.0821H19.0391V8.91211H16.9961V11.0821Z" fill="white"/>
<path fill-rule="evenodd" clip-rule="evenodd" d="M23.0928 15.3398V17.5098H24.1068C24.7288 16.6638 24.9488 15.8768 25.0098 15.3398H23.0928Z" fill="white"/>
<path fill-rule="evenodd" clip-rule="evenodd" d="M23.0928 15.3671V17.5101H24.1068C24.8448 16.4691 24.9488 15.5961 25.0098 15.3401L23.9358 15.3671H23.0928ZM24.1068 17.5401L23.0928 17.5101V15.3401H23.9358H25.0098C25.0098 15.5961 24.8448 16.4941 24.1068 17.5401Z" fill="white"/>
<path fill-rule="evenodd" clip-rule="evenodd" d="M20.9995 17.54V19.539C21.9635 19.371 22.6415 18.92 23.0325 18.639V17.54H20.9995Z" fill="white"/>
<path fill-rule="evenodd" clip-rule="evenodd" d="M23.032 17.54H20.999L21.06 19.539C21.964 19.371 22.58 18.95 23.032 18.639V17.54ZM20.999 19.567V17.54H23.032L23.093 18.639C22.641 18.95 21.964 19.398 20.999 19.567Z" fill="white"/>
<path fill-rule="evenodd" clip-rule="evenodd" d="M17.0615 17.54V18.639C17.7335 19.118 18.5265 19.43 19.0395 19.515V17.54H17.0615Z" fill="white"/>
<path fill-rule="evenodd" clip-rule="evenodd" d="M19.0391 17.54H17.0611V18.639C17.7331 19.118 18.5811 19.43 19.0391 19.515V17.54ZM19.0391 19.539C18.5811 19.43 17.7331 19.143 17.0611 18.639L16.9961 17.54H19.0391V19.539Z" fill="white"/>
<path fill-rule="evenodd" clip-rule="evenodd" d="M15.0845 15.3398C15.1945 16.1878 15.5365 16.9468 15.8665 17.4828L16.9955 17.5098V15.3398H15.0845Z" fill="white"/>
<path fill-rule="evenodd" clip-rule="evenodd" d="M16.9955 15.3398L15.0845 15.3668C15.1945 16.2978 15.5855 17.0608 15.8665 17.4828L16.9955 17.5098V15.3398ZM16.9955 17.5098L15.8665 17.4828C15.5855 17.0848 15.1945 16.2978 15.0845 15.3398H16.9955V17.5098Z" fill="white"/>
<path fill-rule="evenodd" clip-rule="evenodd" d="M15.084 13.197H16.995V11.082H15.084V13.197Z" fill="white"/>
<path fill-rule="evenodd" clip-rule="evenodd" d="M19.0391 13.197H20.9991V11.082H19.0391V13.197Z" fill="white"/>
<path fill-rule="evenodd" clip-rule="evenodd" d="M21 11.0551H23.033V8.91211H21V11.0551Z" fill="white"/>
<path fill-rule="evenodd" clip-rule="evenodd" d="M23.0928 13.197H25.0098V11.082H23.0928V13.197Z" fill="white"/>
<path fill-rule="evenodd" clip-rule="evenodd" d="M16.9961 15.34H19.0391V13.197H16.9961V15.34Z" fill="white"/>
<path fill-rule="evenodd" clip-rule="evenodd" d="M21 15.34H23.033V13.197H21V15.34Z" fill="white"/>
<path fill-rule="evenodd" clip-rule="evenodd" d="M19.0391 17.5401H20.9991V15.3401H19.0391V17.5401Z" fill="white"/>
<path fill-rule="evenodd" clip-rule="evenodd" d="M22.0744 6.3729C22.0244 6.3729 22.0244 6.2899 22.0244 6.2599C22.0244 6.2599 21.9644 6.1779 21.9644 6.1189C22.0244 6.2049 22.0744 6.3179 22.0744 6.3729Z" fill="#C2A21F"/>
<path fill-rule="evenodd" clip-rule="evenodd" d="M22.0744 6.3729C22.0244 6.3729 22.0244 6.3729 22.0244 6.3179L21.9644 6.1189C22.0244 6.2049 22.0744 6.3179 22.0744 6.3729Z" fill="#C2A21F"/>
</g>
</svg>
