<svg width="40" height="26" viewBox="0 0 40 26" fill="none" xmlns="http://www.w3.org/2000/svg">
<path fill-rule="evenodd" clip-rule="evenodd" d="M13.2749 26H39.9999V0H13.2749V26Z" fill="#EA0020"/>
<path fill-rule="evenodd" clip-rule="evenodd" d="M0 26H13.275V0H0V26Z" fill="#2A680B"/>
<path fill-rule="evenodd" clip-rule="evenodd" d="M18.3707 17.1113C16.3997 17.0023 7.42265 11.3673 7.36865 10.4653L7.87065 9.6853C8.74565 11.0323 17.9507 16.4353 18.8207 16.2103L18.3707 17.1113Z" fill="#FCFF2C"/>
<path fill-rule="evenodd" clip-rule="evenodd" d="M18.4004 17.1113C18.3704 17.2213 18.3094 17.2213 18.1994 17.1113C17.4684 17.1113 15.2454 15.9843 12.6284 14.4073C9.56135 12.6033 7.00235 10.9163 7.31035 10.4653L7.36835 10.3503C7.14035 11.1423 12.3454 14.1873 12.7134 14.2973C15.6964 16.2103 18.2574 17.2213 18.4804 16.8813L18.4004 17.1113ZM7.76135 9.57032C7.61835 10.0203 10.0974 11.7033 13.1374 13.3953C16.1464 15.3143 18.7633 16.4353 18.9613 16.3263C18.9613 16.2103 19.0434 16.2103 19.0434 16.2103H18.7914C18.0044 15.8753 15.8364 14.8573 13.1894 13.2863C10.5454 11.7033 8.26935 10.2463 7.89835 9.68532C7.89835 9.57032 7.87135 9.45532 7.87135 9.45532L7.78635 9.57032H7.76135Z" fill="#FCFF2C"/>
<path fill-rule="evenodd" clip-rule="evenodd" d="M18.876 16.3261C18.453 16.3261 15.98 15.1931 13.107 13.3951C9.84499 11.4821 7.56299 10.0201 7.76099 9.57008L7.84599 9.45508H7.87099L7.81599 9.57008C7.61799 10.0201 10.521 11.8121 13.137 13.3951C15.98 15.0841 18.453 16.3261 18.876 16.3261C18.931 16.3261 18.931 16.3261 18.931 16.2101H18.988H18.791C17.889 15.8751 15.668 14.8571 13.189 13.2861C10.746 11.8121 8.26999 10.3501 7.89799 9.68508C7.87099 9.57008 7.84599 9.57008 7.87099 9.45508C7.89799 9.57008 7.89799 9.57008 7.89799 9.68508C8.29399 10.2461 10.969 11.9331 13.189 13.2861C15.668 14.7421 17.919 15.8751 18.791 16.2101C18.903 16.2101 18.988 16.2101 19.016 16.0951C19.043 16.2101 19.043 16.2101 18.988 16.2101C18.961 16.3261 18.931 16.3261 18.876 16.3261ZM18.285 17.2221H18.2C17.469 17.1111 15.218 15.9841 12.599 14.4071C9.10999 12.3791 7.36799 11.1421 7.25599 10.5811C7.22599 10.5811 7.22599 10.4661 7.31099 10.4661L7.36799 10.3501L7.31099 10.4661V10.5811C7.42299 11.0321 9.14099 12.3791 12.628 14.4071C15.218 15.9841 17.469 17.0021 18.2 17.1111H18.371L18.453 17.0021H18.371C17.752 17.0021 15.413 15.9841 12.687 14.2971C12.687 14.2971 12.574 14.1871 12.461 14.1871C9.05599 12.1591 7.36799 10.9161 7.36799 10.3501C7.42299 10.7021 8.23999 11.7031 12.513 14.1871C12.599 14.1871 12.687 14.1871 12.714 14.2971C15.413 15.9841 17.752 17.0021 18.371 17.0021C18.371 17.0021 18.453 17.0021 18.48 16.8811C18.48 17.0021 18.48 17.0021 18.453 17.0021L18.428 17.1111C18.4 17.2221 18.34 17.2221 18.285 17.2221Z" fill="black"/>
<path fill-rule="evenodd" clip-rule="evenodd" d="M13.275 11.0323C15.245 11.0323 17.694 10.8063 19.044 10.2463L18.763 9.7903C17.977 10.2463 15.495 10.4663 13.275 10.5813C10.603 10.4663 8.77499 10.3503 7.87099 9.6853L7.56299 10.2463C9.25399 10.9163 11.051 11.0323 13.275 11.0323Z" fill="#FCFF2C"/>
<path fill-rule="evenodd" clip-rule="evenodd" d="M18.876 9.79004C18.733 9.91004 18.032 10.131 16.683 10.351C15.836 10.466 14.739 10.581 13.305 10.581C11.983 10.581 10.884 10.466 10.037 10.351C8.71803 10.246 8.04203 9.91004 7.76103 9.79004C7.81603 9.79004 7.81603 9.68604 7.87103 9.68604C8.04203 9.79004 8.71803 10.02 10.067 10.246C10.884 10.351 11.983 10.466 13.305 10.466C14.739 10.466 15.781 10.351 16.655 10.246C18.004 10.02 18.706 9.68604 18.791 9.68604L18.876 9.79004ZM19.156 10.246C19.071 10.351 18.2 10.702 16.85 10.916C15.952 11.032 14.767 11.143 13.275 11.143C11.898 11.143 10.746 11.032 9.86903 10.916C8.49003 10.702 7.76103 10.351 7.47803 10.351C7.56303 10.246 7.56303 10.246 7.56303 10.131C8.35203 10.466 9.05603 10.702 9.89903 10.702C10.746 10.916 11.898 11.032 13.275 11.032C14.739 11.032 15.952 10.916 16.793 10.702C18.2 10.466 18.931 10.246 19.043 10.131L19.156 10.246Z" fill="#FCFF2C"/>
<path fill-rule="evenodd" clip-rule="evenodd" d="M7.84603 9.68556L7.78603 9.78956H7.89803C8.20903 9.91056 8.88503 10.2466 10.037 10.3506C10.999 10.4656 12.123 10.5816 13.275 10.5816H13.305C14.514 10.5816 15.556 10.4656 16.683 10.3506C18.032 10.1306 18.705 9.91056 18.876 9.68556H18.763C18.705 9.68556 18.032 10.0206 16.655 10.2466C15.528 10.3506 14.486 10.4656 13.305 10.4656C11.812 10.4656 10.688 10.3506 10.067 10.2466C8.60803 10.0206 7.95903 9.68556 7.84603 9.68556ZM13.275 10.5816C12.095 10.5816 10.999 10.4656 10.037 10.3506C8.88503 10.2466 8.20903 10.0206 7.87103 9.91056L7.76103 9.78956L7.81603 9.68556H7.87103C7.95903 9.68556 8.60803 10.0206 10.067 10.2466C10.688 10.3506 11.812 10.3506 13.275 10.3506C14.486 10.3506 15.528 10.3506 16.655 10.2466C17.95 10.0206 18.68 9.68556 18.763 9.57056L18.903 9.68556C18.733 9.91056 18.032 10.1306 16.683 10.3506C15.583 10.4656 14.514 10.5816 13.305 10.5816H13.275ZM7.56303 10.1306L7.47803 10.3506C7.81603 10.3506 8.55003 10.7026 9.89903 10.9156C10.969 11.0326 12.065 11.1426 13.247 11.1426H13.275C14.572 11.1426 15.751 11.0326 16.85 10.9156C18.23 10.5816 19.071 10.3506 19.156 10.2466L19.043 10.1306C18.961 10.2466 18.257 10.4656 16.792 10.7026C15.638 10.9156 14.514 11.0326 13.275 11.0326C12.095 11.0326 10.999 10.9156 9.89903 10.8066C9.02803 10.7026 8.29403 10.4656 7.56303 10.1306ZM13.247 11.1426C12.065 11.1426 10.969 11.0326 9.86903 10.9156C8.52303 10.7026 7.81603 10.3506 7.47803 10.3506V10.2466L7.56303 10.1306C8.32203 10.3506 9.02803 10.5816 9.89903 10.7026C10.999 10.9156 12.095 11.0326 13.275 11.0326C14.514 11.0326 15.638 10.9156 16.792 10.7026C18.2 10.4656 18.931 10.2466 19.043 10.0206L19.156 10.2466C19.104 10.3506 18.2 10.7026 16.85 10.9156C15.751 11.0326 14.572 11.1426 13.275 11.1426H13.247Z" fill="black"/>
<path fill-rule="evenodd" clip-rule="evenodd" d="M6.85938 13.3955C8.06938 14.0665 10.7464 14.4075 13.2754 14.4075C15.5834 14.4075 18.5954 14.0665 19.7194 13.3955L19.6944 12.8345C19.3234 13.3955 16.1194 13.8465 13.2474 13.8465C10.4074 13.8465 7.76138 13.3955 6.85938 12.8345V13.3955Z" fill="#FCFF2C"/>
<path fill-rule="evenodd" clip-rule="evenodd" d="M19.7749 12.7197V12.9457C19.6069 13.1697 18.5379 13.3957 17.2159 13.6267C16.2049 13.7307 14.9099 13.8467 13.2469 13.8467C11.6999 13.8467 10.4329 13.7307 9.4769 13.6267C7.9599 13.3957 6.9729 13.0547 6.7749 12.9457L6.8049 12.7197C7.3679 13.1697 8.9729 13.3957 9.5039 13.5057C10.4329 13.6267 11.6999 13.7307 13.2469 13.7307C14.9099 13.7307 16.2049 13.6267 17.1859 13.5057C18.1719 13.3957 19.5249 13.0547 19.7749 12.7197ZM19.7749 13.2857V13.3957C19.6069 13.6267 18.5379 13.9617 17.2159 14.1877C16.2049 14.4067 14.9099 14.5227 13.2469 14.5227C11.6999 14.5227 10.4329 14.4067 9.4769 14.1877C7.9599 13.9617 6.9729 13.6267 6.7749 13.3957V13.2857C7.3679 13.6267 8.9729 13.9617 9.5039 14.0667C10.4329 14.1877 11.6999 14.2967 13.2469 14.2967C14.9099 14.2967 16.2049 14.1877 17.1859 14.0667C18.1719 13.8467 19.5249 13.5057 19.7749 13.2857Z" fill="#FCFF2C"/>
<path fill-rule="evenodd" clip-rule="evenodd" d="M6.77441 12.7197L6.83541 12.9457C6.94541 13.0547 7.89841 13.3957 9.50341 13.6267C10.6034 13.7307 11.8704 13.8467 13.2474 13.8467C14.7394 13.8467 16.0614 13.7307 17.2154 13.6267C18.5134 13.3957 19.6074 13.0547 19.7474 12.9457V12.7197C19.5514 13.0547 18.1724 13.3957 17.1854 13.5057C16.0614 13.6267 14.7394 13.7307 13.2474 13.7307C11.8704 13.7307 10.6034 13.6267 9.50341 13.5057C8.88541 13.3957 7.36841 13.1697 6.77441 12.7197ZM13.2474 13.9617C11.8704 13.9617 10.6034 13.8467 9.47641 13.6267C8.04141 13.3957 7.00241 13.0547 6.77441 12.9457V12.7197C7.36841 13.1697 9.02841 13.3957 9.50341 13.5057C10.6034 13.6267 11.8704 13.7307 13.2474 13.7307C14.7124 13.7307 16.0614 13.6267 17.1854 13.3957C18.1724 13.3957 19.5244 12.9457 19.7474 12.7197L19.7744 12.9457C19.6344 13.1697 18.5384 13.3957 17.2154 13.6267C16.0614 13.8467 14.7394 13.9617 13.2474 13.9617ZM6.77441 13.2857L6.83541 13.3957C6.94541 13.5057 7.89841 13.9617 9.50341 14.1877C10.6034 14.4067 11.8704 14.5227 13.2474 14.5227C14.7124 14.5227 16.0614 14.4067 17.2154 14.1877C18.5134 13.9617 19.5794 13.6267 19.7474 13.3957V13.2857C19.5514 13.5057 18.1724 13.8467 17.1854 14.1877C16.0614 14.2967 14.7124 14.4067 13.2474 14.4067C11.8704 14.4067 10.6034 14.2967 9.50341 14.1877C8.88541 13.9617 7.36841 13.6267 6.77441 13.2857ZM13.2474 14.5227C11.8704 14.5227 10.6034 14.4067 9.47641 14.1877C8.04141 13.9617 7.00241 13.6267 6.77441 13.5057V13.2857C7.36841 13.6267 9.02841 13.9617 9.50341 14.0667C10.6034 14.1877 11.8704 14.2967 13.2474 14.2967C14.7124 14.2967 16.0334 14.1877 17.1854 14.0667C18.1724 13.8467 19.5244 13.5057 19.7474 13.2857L19.7744 13.3957C19.6344 13.6267 18.5384 13.9617 17.2154 14.1877C16.0614 14.4067 14.7394 14.5227 13.2474 14.5227Z" fill="black"/>
<path fill-rule="evenodd" clip-rule="evenodd" d="M13.2747 17.002C10.4907 16.881 8.15371 16.21 7.67871 16.095L8.01371 16.661C8.88471 17.002 11.2237 17.563 13.2747 17.563C15.4127 17.563 17.2437 17.222 18.5377 16.661L18.9027 16.095C18.0317 16.551 15.0467 16.881 13.2747 17.002Z" fill="#FCFF2C"/>
<path fill-rule="evenodd" clip-rule="evenodd" d="M19.016 15.9844C18.961 16.0944 18.931 16.2104 18.876 16.2104C18.565 16.3264 17.694 16.5504 16.4 16.7714C15.528 16.8804 15.02 17.0024 13.305 17.0024C10.125 16.8804 8.09899 16.3264 7.61799 16.2104L7.56299 16.0944C9.36099 16.5504 11.252 16.8804 13.305 16.8804C14.88 16.8804 15.495 16.7714 16.342 16.6614C17.889 16.4354 18.648 16.2104 18.876 16.0944L19.016 15.9844ZM18.705 16.5504C18.648 16.6614 18.565 16.6614 18.538 16.7714C17.919 17.0024 16.933 17.2214 16.543 17.2214C15.696 17.5624 14.432 17.5624 13.275 17.5624C10.798 17.5624 8.80299 17.1114 7.89799 16.6614L7.81599 16.5504H7.95899C9.58899 17.2214 11.502 17.4474 13.275 17.4474C14.432 17.4474 15.556 17.3424 16.482 17.1114C17.919 16.8804 18.48 16.6614 18.648 16.5504H18.705Z" fill="#FCFF2C"/>
<path fill-rule="evenodd" clip-rule="evenodd" d="M13.305 17.0019C10.46 17.0019 8.52303 16.5509 7.61803 16.2099L7.47803 16.0949C9.61703 16.5509 11.502 16.8809 13.305 16.8809C14.712 16.8809 15.388 16.7719 16.086 16.6609L16.342 16.5509C17.837 16.4359 18.565 16.2099 18.821 16.0949L19.016 15.9839H18.988L18.876 16.0949C18.596 16.2099 17.837 16.4359 16.342 16.6609H16.119C15.388 16.7719 14.712 16.8809 13.305 16.8809C11.474 16.8809 9.61703 16.5509 7.56303 16.0949L7.61803 16.2099C8.52303 16.4359 10.46 16.8809 13.305 17.0019C14.739 17.0019 15.327 16.8809 16.034 16.7719H16.4C17.554 16.5509 18.452 16.3259 18.876 16.2099L18.988 15.9839L18.903 16.2099C18.452 16.4359 17.554 16.6609 16.4 16.7719L16.034 16.8809C15.327 16.8809 14.739 17.0019 13.305 17.0019ZM7.81603 16.5509L7.89803 16.6609C8.88503 17.1109 10.969 17.5629 13.275 17.5629C14.404 17.5629 15.668 17.4469 16.543 17.2219C16.932 17.2219 17.919 17.0019 18.513 16.7719C18.538 16.6609 18.596 16.6609 18.648 16.5509C18.513 16.6609 18.004 16.8809 16.482 17.2219C15.751 17.2219 14.572 17.5629 13.36 17.5629C11.252 17.4469 9.42103 17.1109 7.92903 16.5509H7.81603ZM13.275 17.6719C10.746 17.5629 8.80303 17.1109 7.89803 16.6609L7.78603 16.5509H7.81603H7.84603H7.95903C9.42103 17.1109 11.252 17.4469 13.275 17.4469C14.572 17.4469 15.723 17.2219 16.482 17.1109C18.059 16.8809 18.538 16.5509 18.648 16.5509H18.68H18.705C18.68 16.6609 18.596 16.7719 18.538 16.7719C17.95 17.0019 16.963 17.2219 16.543 17.3429C15.638 17.5629 14.432 17.6719 13.275 17.6719Z" fill="black"/>
<path fill-rule="evenodd" clip-rule="evenodd" d="M13.2748 6.64062C16.7648 6.64062 19.6068 9.57062 19.6068 13.0546C19.6068 16.5506 16.7648 19.3596 13.2748 19.3596C9.78382 19.3596 6.94482 16.5506 6.94482 13.0546C6.94482 9.57062 9.78382 6.64062 13.2748 6.64062ZM13.2748 7.20162C16.4568 7.20162 19.0158 9.91062 19.0158 13.0546C19.0158 16.2096 16.4568 18.7986 13.2748 18.7986C10.0968 18.7986 7.56282 16.2096 7.56282 13.0546C7.56282 9.91062 10.0968 7.20162 13.2748 7.20162Z" fill="#FCFF2C"/>
<path fill-rule="evenodd" clip-rule="evenodd" d="M13.2749 6.75578C16.7099 6.75578 19.5519 9.68579 19.5519 13.0548C19.5519 16.5508 16.7099 19.2438 13.2749 19.2438C9.84489 19.2438 7.00289 16.5508 7.00289 13.0548C7.00289 9.68579 9.84489 6.75578 13.2749 6.75578ZM13.2749 6.52979C16.7929 6.52979 19.6949 9.56979 19.6949 13.0548C19.6949 16.5508 16.7929 19.4748 13.2749 19.4748C9.75889 19.4748 6.85889 16.5508 6.85889 13.0548C6.85889 9.56979 9.75889 6.52979 13.2749 6.52979Z" fill="#FCFF2C"/>
<path fill-rule="evenodd" clip-rule="evenodd" d="M13.2749 6.75578C9.84494 6.75578 7.00294 9.68579 7.00294 13.0548C7.00294 16.5508 9.84494 19.2438 13.2749 19.2438C16.7369 19.2438 19.5519 16.5508 19.5519 13.0548C19.5519 9.68579 16.7369 6.75578 13.2749 6.75578ZM13.2749 19.3598C9.81694 19.3598 6.97294 16.5508 6.97294 13.0548C6.97294 9.56979 9.81694 6.75578 13.2749 6.75578C16.7649 6.75578 19.5799 9.56979 19.5799 13.0548C19.5799 16.5508 16.7649 19.3598 13.2749 19.3598ZM13.2749 6.64079C9.75894 6.64079 6.85894 9.56979 6.85894 13.0548C6.85894 16.5508 9.75894 19.4748 13.2749 19.4748C16.7929 19.4748 19.6949 16.5508 19.6949 13.0548C19.6949 9.56979 16.7929 6.64079 13.2749 6.64079ZM13.2749 19.4748C9.75894 19.4748 6.83594 16.5508 6.83594 13.0548C6.83594 9.56979 9.75894 6.52979 13.2749 6.52979C16.7929 6.52979 19.7199 9.56979 19.7199 13.0548C19.7199 16.5508 16.7929 19.4748 13.2749 19.4748Z" fill="black"/>
<path fill-rule="evenodd" clip-rule="evenodd" d="M13.2749 7.32142C16.4569 7.32142 19.0159 9.91042 19.0159 13.0544C19.0159 16.2104 16.4569 18.7994 13.2749 18.7994C10.1249 18.7994 7.56285 16.2104 7.56285 13.0544C7.56285 9.91042 10.1249 7.32142 13.2749 7.32142ZM13.2749 7.20142C16.5119 7.20142 19.1559 9.79042 19.1559 13.0544C19.1559 16.3264 16.5119 18.9094 13.2749 18.9094C10.0669 18.9094 7.42285 16.3264 7.42285 13.0544C7.42285 9.79042 10.0669 7.20142 13.2749 7.20142Z" fill="#FCFF2C"/>
<path fill-rule="evenodd" clip-rule="evenodd" d="M13.2747 7.32131C10.1247 7.32131 7.61768 9.91031 7.61768 13.0543C7.61768 16.2103 10.1247 18.7993 13.2747 18.7993C16.4567 18.7993 19.0157 16.2103 19.0157 13.0543C19.0157 9.91031 16.4567 7.32131 13.2747 7.32131ZM13.2747 18.7993C10.0967 18.7993 7.56268 16.2103 7.56268 13.0543C7.56268 9.91031 10.0967 7.20131 13.2747 7.20131C16.4567 7.20131 19.0437 9.91031 19.0437 13.0543C19.0437 16.2103 16.4567 18.7993 13.2747 18.7993ZM13.2747 7.20131C10.0667 7.20131 7.42268 9.79031 7.42268 13.0543C7.42268 16.3263 10.0667 18.9093 13.2747 18.9093C16.5117 18.9093 19.1557 16.3263 19.1557 13.0543C19.1557 9.79031 16.5117 7.20131 13.2747 7.20131ZM13.2747 18.9093C10.0367 18.9093 7.36768 16.3263 7.36768 13.0543C7.36768 9.79031 10.0367 7.09131 13.2747 7.09131C16.5427 7.09131 19.1557 9.79031 19.1557 13.0543C19.1557 16.3263 16.5427 18.9093 13.2747 18.9093Z" fill="black"/>
<mask id="mask0_74_2994" style="mask-type:alpha" maskUnits="userSpaceOnUse" x="0" y="0" width="40" height="26">
<path d="M0 26H40V0H0V26Z" fill="white"/>
</mask>
<g mask="url(#mask0_74_2994)">
<path fill-rule="evenodd" clip-rule="evenodd" d="M13.022 19.475H13.558V6.53101H13.022V19.475Z" fill="#FCFF2C"/>
<path fill-rule="evenodd" clip-rule="evenodd" d="M12.9702 19.591H13.0772V6.53003H12.9702V19.591ZM13.5002 19.591H13.6132V6.53003H13.5002V19.591Z" fill="#FCFF2C"/>
<path fill-rule="evenodd" clip-rule="evenodd" d="M13.052 6.53027H12.97V19.5913H13.077L13.052 6.53027ZM13.077 19.5913H12.97L12.939 6.53027H13.077L13.107 19.5913H13.077ZM13.613 6.53027H13.5L13.531 19.5913H13.613V6.53027ZM13.613 19.5913H13.5L13.473 6.53027H13.613L13.643 19.5913H13.613Z" fill="black"/>
<path fill-rule="evenodd" clip-rule="evenodd" d="M6.83545 12.7196C7.67945 12.0426 10.6034 11.5986 13.2474 11.5986C15.9184 11.5986 18.9885 12.1586 19.6945 12.7196V13.2856C19.1045 12.7196 16.6834 12.1586 13.2474 12.1586C9.81645 12.1586 7.31045 12.7196 6.83545 13.2856V12.7196Z" fill="#FCFF2C"/>
<path fill-rule="evenodd" clip-rule="evenodd" d="M6.85945 13.2862L6.83545 12.7202H6.85945V13.2862Z" fill="black"/>
<path fill-rule="evenodd" clip-rule="evenodd" d="M19.7198 13.286L19.6948 12.835C19.6948 12.72 19.7198 12.72 19.7198 12.835V13.286Z" fill="black"/>
<path fill-rule="evenodd" clip-rule="evenodd" d="M13.2749 11.5986C14.7969 11.5986 16.2899 11.7026 17.4689 11.9336C18.6479 12.1596 19.4949 12.3786 19.7749 12.7196V12.9456C19.4089 12.4946 18.2849 12.1596 17.3869 12.0426C16.2599 11.8126 14.7969 11.7026 13.2749 11.7026C11.6999 11.7026 10.2079 11.8126 9.0559 12.0426C8.2099 12.1596 6.9179 12.6036 6.7749 12.9456V12.7196C6.8589 12.4946 7.8169 12.1596 9.0559 11.9336C10.2079 11.7026 11.6999 11.5986 13.2749 11.5986ZM13.2749 12.0426C14.7969 12.0426 16.2899 12.1596 17.4689 12.3786C18.6479 12.7196 19.4949 12.9456 19.7749 13.2856V13.3956C19.4089 13.0546 18.2849 12.7196 17.3869 12.6036C16.2599 12.3786 14.7969 12.1596 13.2749 12.1596C11.6999 12.1596 10.2079 12.3786 9.0559 12.6036C8.1849 12.7196 6.9179 13.0546 6.7749 13.3956V13.2856C6.8589 13.0546 7.8169 12.7196 9.0559 12.3786C10.2079 12.1596 11.6999 12.0426 13.2749 12.0426Z" fill="#FCFF2C"/>
<path fill-rule="evenodd" clip-rule="evenodd" d="M13.2749 11.7032C14.7389 11.7032 16.2049 11.7032 17.4689 12.0432C18.1719 12.1592 19.4089 12.4942 19.7749 12.9452L19.7469 12.7202C19.4949 12.4942 18.7059 12.1592 17.4689 11.9332C16.2049 11.7032 14.7389 11.5992 13.3299 11.5992C11.7829 11.5992 10.2649 11.7032 9.0559 11.9332C7.7609 12.1592 6.8589 12.4942 6.8359 12.7202V12.8352C7.0549 12.4942 8.2949 12.1592 9.0559 12.0432C10.2929 11.7032 11.8129 11.7032 13.2749 11.7032ZM6.7749 12.9452V12.7202C6.8589 12.4942 7.8709 12.1592 9.0559 11.8122C10.2649 11.7032 11.7829 11.4822 13.2749 11.4822C14.7389 11.4822 16.2049 11.7032 17.4689 11.8122C18.7059 12.1592 19.5249 12.3792 19.7749 12.7202V12.9452C19.4089 12.4942 18.1479 12.1592 17.3869 12.0432C16.2049 11.8122 14.7389 11.7032 13.3049 11.7032C11.8129 11.7032 10.2929 11.8122 9.0559 12.0432C8.0999 12.2692 6.9179 12.6032 6.8359 12.9452H6.7749ZM13.2749 12.1592C14.7389 12.1592 16.2049 12.3792 17.4689 12.6032C18.1719 12.7202 19.4089 13.0552 19.7749 13.3952L19.7469 13.2862C19.4949 13.0552 18.7059 12.7202 17.4689 12.3792C16.2049 12.1592 14.7389 12.0432 13.3049 12.0432C11.8129 12.0432 10.2649 12.1592 9.0559 12.4942C7.7309 12.7202 6.8589 13.0552 6.8359 13.2862V13.3952C7.0549 13.0552 8.3519 12.7202 9.0559 12.6032C10.2929 12.3792 11.8129 12.1592 13.2749 12.1592ZM6.7749 13.5062V13.3952V13.2862C6.8359 13.0552 7.8459 12.7202 9.0559 12.3792C10.2649 12.1592 11.7829 12.0432 13.2749 12.0432C14.7389 12.0432 16.2049 12.1592 17.4689 12.3792C18.7059 12.7202 19.5249 12.9452 19.7749 13.2862V13.3952C19.3839 13.0552 18.1479 12.7202 17.3869 12.6032C16.2049 12.3792 14.7389 12.2692 13.3299 12.2692C11.8129 12.2692 10.2929 12.3792 9.0559 12.6032C8.0999 12.7202 6.9449 13.1702 6.8359 13.3952C6.8049 13.5062 6.8049 13.5062 6.7749 13.5062Z" fill="black"/>
<path fill-rule="evenodd" clip-rule="evenodd" d="M13.247 8.66797C15.638 8.66797 17.752 9.00997 18.705 9.56997L19.016 10.131C18.2 9.68597 15.952 9.22897 13.247 9.34997C11.109 9.34997 8.71799 9.56997 7.56299 10.131L7.95899 9.45497C8.91299 8.89397 11.224 8.66797 13.247 8.66797Z" fill="#FCFF2C"/>
<path fill-rule="evenodd" clip-rule="evenodd" d="M13.275 8.66797C14.599 8.66797 15.919 8.66797 16.85 8.89397C17.694 9.11297 18.453 9.34997 18.733 9.56997L18.876 9.78997C18.648 9.45497 17.694 9.22897 16.793 9.00997C15.837 8.89397 14.599 8.77797 13.275 8.77797C11.925 8.77797 10.628 8.89397 9.70199 9.11297C8.71799 9.34997 8.15399 9.45497 7.89899 9.68597L8.04199 9.45497C8.38299 9.22897 8.91299 9.11297 9.64399 8.89397C10.603 8.77797 11.925 8.66797 13.275 8.66797ZM13.275 9.22897C14.685 9.22897 15.98 9.34997 16.991 9.45497C18.004 9.68597 18.903 9.90997 19.044 10.021L19.156 10.246C18.821 10.021 18.032 9.78997 16.963 9.68597C15.952 9.34997 14.657 9.34997 13.275 9.34997C11.755 9.34997 10.546 9.45497 9.53399 9.68597C8.46499 9.78997 7.73099 10.131 7.56299 10.246L7.64599 10.021C7.98599 9.90997 8.54999 9.68597 9.50399 9.45497C10.546 9.34997 11.783 9.22897 13.275 9.22897Z" fill="#FCFF2C"/>
<path fill-rule="evenodd" clip-rule="evenodd" d="M13.275 8.77821C14.739 8.77821 15.919 8.89321 16.793 9.00921C17.554 9.22821 18.453 9.34921 18.821 9.68521L18.706 9.57021C18.48 9.34921 17.724 9.11321 16.85 8.89321C15.98 8.77821 14.767 8.66821 13.36 8.66821H13.275C11.843 8.66821 10.576 8.77821 9.64399 8.89321C8.91299 9.11321 8.38299 9.34921 8.04199 9.45521L7.89899 9.68521C8.18499 9.34921 8.82999 9.22821 9.67699 9.00921C10.603 8.89321 11.87 8.77821 13.275 8.77821ZM18.876 9.79021C18.62 9.45521 17.636 9.22821 16.793 9.11321C15.919 8.89321 14.739 8.77821 13.275 8.77821C11.87 8.77821 10.603 8.89321 9.70199 9.11321C8.82999 9.34921 8.20999 9.45521 7.89899 9.68521L8.01399 9.34921C8.38299 9.22821 8.91299 9.00921 9.64399 8.89321C10.576 8.66821 11.843 8.66821 13.275 8.66821H13.36C14.767 8.66821 15.98 8.66821 16.85 8.89321C17.752 9.00921 18.48 9.34921 18.733 9.57021L18.903 9.68521V9.79021H18.876ZM13.36 9.22821H13.275C11.585 9.22821 10.433 9.34921 9.50399 9.45521C8.71799 9.68521 8.09999 9.79021 7.64599 10.0202L7.56299 10.2462C7.73099 10.1312 8.43799 9.79021 9.53399 9.57021C10.491 9.45521 11.675 9.34921 13.165 9.34921H13.275H13.393C14.91 9.34921 16.12 9.45521 16.963 9.57021C18.004 9.79021 18.733 10.0202 19.071 10.2462L19.016 10.0202C18.903 9.91021 18.004 9.68521 16.991 9.45521C16.062 9.34921 14.797 9.22821 13.36 9.22821ZM19.156 10.2462C18.821 10.0202 18.032 9.79021 16.963 9.68521C16.12 9.45521 14.91 9.34921 13.393 9.34921H13.275H13.165C11.675 9.34921 10.521 9.45521 9.53399 9.68521C8.46499 9.79021 7.73099 10.1312 7.56299 10.2462L7.61799 10.0202C8.09999 9.79021 8.71799 9.57021 9.50399 9.45521C10.433 9.34921 11.56 9.22821 13.275 9.22821H13.36C14.797 9.22821 16.062 9.34921 16.991 9.45521C18.032 9.68521 18.903 9.91021 19.044 10.0202L19.156 10.2462Z" fill="black"/>
<path fill-rule="evenodd" clip-rule="evenodd" d="M16.457 15.7539C15.276 15.4179 14.063 15.4179 13.275 15.4179C9.30899 15.5339 8.04099 16.3259 7.89799 16.5509L7.56299 16.0949C8.57799 15.3149 10.746 14.8579 13.305 14.9739C14.657 14.9739 15.781 15.0839 16.737 15.1929L16.457 15.7539Z" fill="#FCFF2C"/>
<path fill-rule="evenodd" clip-rule="evenodd" d="M13.305 14.8574C14.486 14.8574 15.638 14.8574 16.792 15.0844L16.71 15.3144C15.668 15.0844 14.712 14.9734 13.305 14.9734C11.843 14.9734 10.265 15.0844 8.85799 15.5344C8.40699 15.6494 7.64599 15.9844 7.61799 16.2104L7.56299 16.0944C7.56299 15.8754 8.20899 15.5344 8.82999 15.4184C10.265 14.9734 11.843 14.8574 13.305 14.8574ZM13.275 15.4184C14.404 15.4184 15.443 15.4184 16.482 15.6494L16.427 15.8754C15.413 15.6494 14.432 15.5344 13.275 15.5344C11.812 15.5344 10.292 15.7534 9.02799 16.0944C8.60799 16.2104 7.95899 16.4354 7.89799 16.6614L7.81599 16.5504C7.84599 16.4354 8.20899 16.2104 8.97299 15.8754C10.432 15.4184 11.843 15.4184 13.275 15.4184Z" fill="#FCFF2C"/>
<path fill-rule="evenodd" clip-rule="evenodd" d="M13.305 14.8574C11.502 14.8574 10.067 15.0844 8.83003 15.4184C8.04103 15.6494 7.56303 15.8754 7.56303 16.0944L7.61803 16.2104C7.73103 15.8754 8.71803 15.5344 8.85803 15.4184C10.067 15.0844 11.502 14.9734 13.305 14.9734C14.572 14.9734 15.613 15.0844 16.71 15.3144L16.792 15.0844C15.613 14.9734 14.459 14.8574 13.305 14.8574ZM7.61803 16.2104L7.47803 16.0944C7.56303 15.7534 8.52303 15.4184 8.83003 15.3144C10.037 14.9734 11.502 14.8574 13.305 14.8574C14.459 14.8574 15.638 14.8574 16.792 15.0844L16.737 15.3144C15.613 15.0844 14.572 14.9734 13.305 14.9734C11.502 14.9734 10.067 15.1934 8.88503 15.5344C8.29403 15.7534 7.64603 15.9844 7.64603 16.2104H7.61803ZM13.275 15.4184C11.727 15.4184 10.408 15.5344 9.00003 15.9844C8.20903 16.2104 7.84603 16.4354 7.84603 16.5504L7.89803 16.6614C8.01403 16.4354 8.71803 16.2104 9.02803 16.0944C10.155 15.7534 11.559 15.5344 13.076 15.5344H13.275H13.417C14.572 15.5344 15.528 15.6494 16.457 15.8754L16.482 15.6494C15.413 15.4184 14.344 15.4184 13.275 15.4184ZM7.89803 16.6614H7.87103L7.78603 16.5504C7.81603 16.4354 8.24003 16.2104 8.97303 15.8754C10.408 15.4184 11.727 15.4184 13.275 15.4184C14.344 15.4184 15.413 15.4184 16.482 15.6494L16.457 15.8754C15.528 15.6494 14.572 15.5344 13.417 15.5344H13.275H13.076C11.559 15.5344 10.155 15.7534 9.02803 16.0944C8.57703 16.2104 7.95903 16.4354 7.89803 16.6614Z" fill="black"/>
<path fill-rule="evenodd" clip-rule="evenodd" d="M14.8805 15.3145H14.9095H14.8805H14.8525H14.8225V15.1935H14.8525H14.9095H14.8225V15.3145H14.8525H14.8805ZM14.7395 15.3145H14.7675L14.7975 15.1935L14.7675 15.3145H14.7395ZM14.7125 15.3145H14.7395V15.1935H14.7125V15.3145ZM14.7125 15.1935H14.7395H14.7675L14.7395 15.3145H14.7125V15.1935ZM14.6245 15.3145L14.6575 15.1935H14.6845H14.7125H14.6845L14.6575 15.3145H14.6245ZM14.5725 15.1935V15.3145H14.5995C14.5995 15.1935 14.6245 15.1935 14.6245 15.1935H14.5995H14.5725ZM14.5415 15.3145L14.5725 15.1935H14.5995H14.6245V15.3145H14.5995H14.5725H14.5415ZM14.4325 15.1935L14.4595 15.3145C14.4595 15.3145 14.4865 15.3145 14.4865 15.1935H14.4595H14.4325ZM14.4325 15.1935H14.4865H14.5145H14.4865V15.3145H14.4595H14.4325V15.1935ZM14.3435 15.1935V15.3145H14.3165C14.3165 15.3145 14.2895 15.3145 14.2895 15.1935H14.3165H14.3435H14.3715H14.3435H14.3165H14.2895H14.3165H14.3435H14.3715V15.3145H14.3435V15.1935ZM14.2615 15.1935V15.3145V15.1935V15.0845H14.2895L14.2615 15.1935H14.2895H14.2615ZM14.2035 15.3145L14.2615 15.1935V15.3145H14.2035ZM14.2035 15.1935L14.1495 15.3145C14.1495 15.1935 14.1495 15.1935 14.0635 15.1935H14.1495C14.1495 15.1935 14.1495 15.0845 14.2035 15.0845V15.1935H14.1495H14.2035ZM14.0095 15.3145V15.0845H14.0635V15.1935V15.0845V15.1935H14.0095V15.3145ZM13.8955 15.1935H13.9235H13.9505H14.0095H13.9505H13.9235V15.0845H13.9505H14.0095V15.1935H13.9505H13.9235H13.9505H14.0095H13.9505H13.9235H13.8955ZM13.8655 15.1935H13.8955H13.8655H13.8415L13.8655 15.0845C13.8655 15.0845 13.8955 15.0845 13.8955 15.1935H13.8415H13.8655ZM13.7535 15.1935L13.7805 15.0845V15.1935C13.7805 15.0845 13.8135 15.0845 13.8135 15.0845H13.8415V15.1935H13.8135H13.7805H13.7535ZM13.6705 15.1935H13.6975V15.0845C13.6975 15.0845 13.6705 15.0845 13.6705 15.1935ZM13.6425 15.1935C13.6425 15.1935 13.6705 15.1935 13.6705 15.0845H13.6975V15.1935H13.6705H13.6425ZM13.5575 15.1935H13.5855H13.6135V15.0845C13.6135 15.0845 13.5855 15.0845 13.5575 15.1935ZM13.6135 15.1935H13.5855H13.5575V15.0845H13.5855H13.6135H13.6425L13.6135 15.1935ZM13.5305 15.1935H13.5005H13.4725H13.5005H13.5305V15.0845L13.5005 15.1935H13.4725L13.5005 15.0845H13.5305V15.1935ZM13.3605 15.1935L13.3935 15.0845H13.4175H13.4455H13.4725V15.1935H13.4455V15.0845C13.4455 15.0845 13.4175 15.0845 13.4175 15.1935H13.3935H13.3605ZM13.3605 15.1935V15.0845V15.1935ZM13.2195 15.1935V15.0845H13.2475H13.2755H13.3055H13.3305C13.3605 15.0845 13.3605 15.1935 13.3305 15.1935H13.3055H13.3305L13.3055 15.0845C13.3055 15.0845 13.2755 15.0845 13.2755 15.1935V15.0845H13.2475C13.2475 15.1935 13.2475 15.1935 13.2195 15.1935ZM13.1895 15.1935V15.0845V15.1935ZM13.1375 15.1935L13.1655 15.0845H13.1895L13.1655 15.1935H13.1375ZM13.0765 15.1935H13.1075C13.1375 15.1935 13.1075 15.1935 13.1075 15.1935L13.0765 15.0845V15.1935ZM13.1075 15.1935H13.1375H13.1075H13.0765H13.0515L13.0765 15.0845H13.1075H13.1375V15.1935H13.0765H13.1075ZM12.9395 15.1935H12.9695H12.9945L12.9695 15.0845V15.1935H12.9395ZM12.9395 15.1935V15.0845H12.9695H13.0225V15.1935H12.9945H12.9695H12.9395ZM12.9095 15.1935H12.8825V15.0845H12.9095H12.9395V15.1935H12.9095H12.8825H12.9095ZM12.7995 15.1935L12.8265 15.0845V15.1935C12.8265 15.0845 12.8265 15.0845 12.8515 15.0845V15.1935H12.8265H12.7995ZM12.7695 15.1935H12.7415H12.7145C12.7145 15.0845 12.7415 15.0845 12.7415 15.0845C12.7415 15.0845 12.7695 15.0845 12.7695 15.1935H12.7145H12.7415H12.7695ZM12.5735 15.3145V15.1935H12.5985L12.6285 15.0845V15.1935H12.6565L12.6865 15.0845C12.6865 15.0845 12.6865 15.1935 12.7145 15.1935H12.6865H12.6565H12.6285H12.5985H12.5735V15.3145ZM12.4615 15.3145H12.5135V15.1935V15.3145C12.5135 15.3145 12.4615 15.3145 12.4615 15.1935H12.5135V15.3145H12.4615ZM12.4315 15.1935H12.4615C12.4615 15.1935 12.4315 15.1935 12.4315 15.3145H12.4035H12.3785L12.3455 15.1935H12.3785H12.4035H12.4615H12.3785C12.3785 15.1935 12.4035 15.3145 12.4035 15.1935H12.4315ZM12.2935 15.1935H12.3185V15.3145H12.3455V15.1935H12.3185H12.2935H12.3185H12.3455H12.3185H12.3455V15.3145H12.2935V15.1935ZM12.1505 15.1935V15.3145H12.1755L12.2055 15.1935H12.1755H12.1505ZM12.1235 15.1935H12.1505L12.1755 15.0845H12.2055V15.1935H12.2365H12.2055C12.2055 15.3145 12.2055 15.3145 12.1755 15.3145H12.1505H12.1235V15.1935Z" fill="black"/>
<path fill-rule="evenodd" clip-rule="evenodd" d="M16.1197 15.4181V15.3141H16.1467L16.1747 15.4181H16.1467H16.1197ZM16.0067 15.4181L16.0337 15.3141H16.0617H16.0867V15.4181H16.0617H16.0867V15.3141H16.0617L16.0337 15.4181H16.0067ZM15.9797 15.4181H15.9517H15.9187H15.9517C15.9517 15.4181 15.9797 15.4181 15.9797 15.3141H15.9517H15.9797H16.0067V15.4181H15.9797ZM15.8367 15.3141V15.4181H15.8907C15.8907 15.4181 15.9187 15.4181 15.9187 15.3141H15.8907H15.8367ZM15.8367 15.4181V15.3141H15.8907H15.8367H15.9187V15.4181H15.8367ZM15.6687 15.4181L15.7237 15.3141H15.7507H15.7817H15.8367L15.7817 15.4181V15.3141H15.7507V15.4181V15.3141H15.7237L15.6967 15.4181H15.6687ZM15.6387 15.4181H15.6137V15.3141H15.6387H15.6137H15.6387C15.6387 15.4181 15.6387 15.3141 15.6387 15.3141H15.6687H15.6967L15.6687 15.4181H15.6387ZM15.5837 15.4181V15.1931H15.6137L15.5837 15.4181ZM15.4427 15.3141H15.4707H15.4127H15.3887C15.3887 15.3141 15.4127 15.3141 15.4127 15.1931H15.4427C15.4427 15.1931 15.4707 15.1931 15.4707 15.3141H15.4427V15.1931H15.4127V15.3141H15.4427ZM15.2447 15.3141H15.3027L15.2757 15.1931V15.3141H15.2447ZM15.3027 15.3141H15.2757H15.2447V15.1931H15.2757C15.2757 15.1931 15.3027 15.1931 15.3027 15.3141C15.3277 15.3141 15.3277 15.3141 15.3027 15.3141H15.2447H15.2757H15.3027ZM15.1627 15.3141H15.1897H15.2177V15.1931H15.1897C15.1897 15.3141 15.1627 15.3141 15.1627 15.3141ZM15.2177 15.3141H15.1897H15.1627V15.1931H15.1897H15.2177H15.2447L15.2177 15.3141ZM15.0477 15.3141H15.0747V15.1931C15.0477 15.1931 15.0477 15.1931 15.0477 15.3141ZM15.0197 15.3141C15.0197 15.1931 15.0477 15.1931 15.0477 15.1931H15.0747H15.1077V15.3141H15.0747H15.0197ZM15.0197 15.3141H14.9927H14.9647L14.9927 15.1931H15.0197L14.9927 15.3141H15.0197ZM14.9647 15.3141H14.9347H14.9097V15.1931H14.9347H14.9647H14.9347H14.9097V15.3141H14.9347H14.9647Z" fill="black"/>
<path fill-rule="evenodd" clip-rule="evenodd" d="M16.4569 15.875H16.4269H16.3999L16.7649 15.084H16.7919V15.193L16.4569 15.875Z" fill="#EA0020"/>
<path fill-rule="evenodd" clip-rule="evenodd" d="M7.89836 9.45508C9.86936 9.45508 18.9614 14.9741 19.0164 16.0951L18.4524 16.8811C18.1994 15.7541 8.94036 10.3511 7.42236 10.3511L7.89836 9.45508Z" fill="#FCFF2C"/>
<path fill-rule="evenodd" clip-rule="evenodd" d="M18.5132 16.8808L18.9312 16.2098C18.9312 16.0948 18.9612 16.0948 18.9612 16.2098L18.5132 16.8808Z" fill="black"/>
<path fill-rule="evenodd" clip-rule="evenodd" d="M7.47803 10.3506L7.89803 9.57064C7.89803 9.45464 7.89803 9.45464 7.89803 9.57064C7.89803 9.57064 7.92903 9.57064 7.89803 9.57064L7.47803 10.3506Z" fill="black"/>
<path fill-rule="evenodd" clip-rule="evenodd" d="M19.0435 16.2101C19.2995 15.6491 16.7925 13.7311 13.6975 11.9341C10.5205 10.1311 8.26955 9.1131 7.87155 9.4551L7.76155 9.5701H7.81655H8.01455C8.74555 9.5701 10.7985 10.4661 13.6705 12.1591C14.9345 12.8351 18.9885 15.4181 18.9605 16.2101V16.3261L19.0435 16.2101ZM7.36855 10.3511C7.76155 10.1311 10.4325 11.3671 13.2195 12.9451C16.0615 14.7421 18.7055 16.6611 18.4805 17.0021L18.4005 17.1111H18.3705C18.3705 17.1111 18.4005 17.1111 18.3705 16.8811C18.2575 16.5511 16.3415 14.9741 13.1895 13.0551C10.0975 11.3671 7.56355 10.2461 7.31055 10.4661L7.36855 10.3511Z" fill="#FCFF2C"/>
<path fill-rule="evenodd" clip-rule="evenodd" d="M18.961 16.3261L18.931 16.2101V16.3261V16.2101H18.961C18.961 15.4181 14.853 12.7201 13.643 12.1591C10.798 10.4661 8.74503 9.57012 8.04203 9.57012H7.81603C7.87103 9.45512 7.98603 9.45512 8.04203 9.45512C8.74503 9.45512 10.798 10.4661 13.67 12.0431C14.542 12.6031 19.016 15.3141 18.988 16.2101L19.044 16.0951C19.272 15.7541 16.905 13.8471 13.698 12.0431C10.293 10.0201 8.24004 9.11312 7.87104 9.45512L7.81603 9.57012H7.76103L7.87104 9.34912H8.06904C8.97304 9.34912 11.642 10.7021 13.698 11.9331C16.512 13.5061 19.355 15.5341 19.044 16.2101L18.988 16.3261H18.961ZM7.47803 10.4661C8.21003 10.4661 10.603 11.5981 13.19 13.0551C16.29 14.9731 18.257 16.5511 18.371 16.8811C18.4 17.0021 18.4 17.0021 18.4 17.1111L18.48 17.0021V16.8811C18.371 16.4351 15.669 14.5221 13.22 13.0551C10.746 11.5981 8.24003 10.3501 7.56304 10.3501H7.36803V10.4661H7.47803ZM18.371 17.1111C18.371 17.1111 18.4 17.1111 18.371 16.8811C18.231 16.5511 16.205 14.9731 13.19 13.1701C10.576 11.5981 8.21003 10.4661 7.47803 10.4661H7.31104L7.36803 10.3501H7.56304C8.24003 10.3501 10.746 11.4821 13.247 12.9451C15.751 14.5221 18.4 16.3261 18.513 16.8811C18.538 16.8811 18.513 17.0021 18.513 17.0021L18.428 17.1111H18.4H18.371Z" fill="black"/>
<path fill-rule="evenodd" clip-rule="evenodd" d="M9.42139 13.7306C9.42139 14.7426 9.86939 15.7536 10.5454 16.4356C11.3064 17.2216 12.2054 17.6716 13.2754 17.6716C14.3714 17.6716 15.3024 17.2216 16.0064 16.5506C16.6834 15.8756 17.1334 14.8576 17.1334 13.7306V8.66859L9.42139 8.55859V13.7306Z" fill="white"/>
<path fill-rule="evenodd" clip-rule="evenodd" d="M17.1034 8.66808H9.42139L9.47639 13.7301C9.47639 14.7421 9.86939 15.7541 10.5754 16.4361C11.3344 17.2221 12.2664 17.5631 13.2744 17.5631C14.3434 17.5631 15.2454 17.2221 16.0064 16.4361C16.7094 15.7541 17.1034 14.7421 17.1034 13.7301V8.66808ZM13.2744 17.6721C12.2664 17.6721 11.3344 17.2221 10.5454 16.5511C9.81639 15.7541 9.42139 14.7421 9.42139 13.7301V8.55908H17.1334V13.7301C17.1334 14.7421 16.7374 15.7541 16.0334 16.5511C15.2754 17.2221 14.3434 17.6721 13.2744 17.6721Z" fill="black"/>
<path fill-rule="evenodd" clip-rule="evenodd" d="M15.4709 10.3506V13.3956V13.7306C15.4709 13.8466 15.4709 13.9616 15.4429 14.0666C15.4129 14.6326 15.1899 14.9736 14.8229 15.3146C14.4589 15.7536 13.8659 15.9846 13.2749 15.9846C12.6869 15.9846 12.1229 15.7536 11.7279 15.3146C11.3349 14.8576 11.1089 14.4076 11.1089 13.7306V10.3506H15.4709ZM9.58887 13.7306C9.58887 14.7426 9.98487 15.7536 10.6279 16.4356C11.3619 17.0016 12.2659 17.5626 13.2749 17.5626C14.3169 17.5626 15.2179 17.0016 15.9189 16.4356C16.5429 15.7536 16.9639 14.7426 16.9639 13.7306V8.77856H9.58887V13.7306Z" fill="#EA0020"/>
<path fill-rule="evenodd" clip-rule="evenodd" d="M11.1364 10.3506V13.7306C11.1364 14.4076 11.3344 14.8576 11.7554 15.3146C12.1754 15.7536 12.7144 15.9846 13.2754 15.9846C13.8414 15.9846 14.4324 15.7536 14.8224 15.3146C15.1904 14.9736 15.4134 14.5226 15.4134 14.0666C15.4434 13.9616 15.4434 13.8466 15.4434 13.7306V10.3506H11.1364ZM13.2754 15.9846C12.7144 15.9846 12.1504 15.7536 11.7274 15.3146C11.3344 14.8576 11.0844 14.4076 11.0844 13.7306V10.2466L15.4704 10.3506V13.3956V13.7306V14.0666C15.4134 14.6326 15.2184 14.9736 14.8524 15.3146C14.4324 15.7536 13.8414 15.9846 13.2754 15.9846ZM16.9324 8.77856H9.58936V13.7306C9.58936 14.7426 9.98536 15.6496 10.6884 16.4356C11.3924 17.0016 12.3184 17.4476 13.2754 17.4476C14.2614 17.4476 15.1904 17.1116 15.8914 16.4356C16.5674 15.6496 16.9324 14.7426 16.9324 13.7306V8.77856ZM13.2754 17.5626C12.2934 17.5626 11.3924 17.1116 10.6284 16.4356C9.92736 15.7536 9.58936 14.7426 9.58936 13.7306V8.77856H16.9634V13.7306C16.9634 14.7426 16.5944 15.7536 15.9184 16.4356C15.1904 17.1116 14.2894 17.5626 13.2754 17.5626Z" fill="black"/>
<path fill-rule="evenodd" clip-rule="evenodd" d="M12.8267 13.1699C12.8267 13.3959 12.8517 13.3959 12.9697 13.5059C13.0217 13.6269 13.1647 13.7309 13.2747 13.7309C13.4177 13.7309 13.5307 13.6269 13.6127 13.5059C13.6977 13.3959 13.7527 13.3959 13.7527 13.1699V12.4939H12.8267V13.1699Z" fill="#1A0095"/>
<path fill-rule="evenodd" clip-rule="evenodd" d="M13.5577 12.7197H13.4727C13.4727 12.8347 13.5307 12.8347 13.5307 12.8347C13.6127 12.8347 13.6707 12.8347 13.6707 12.7197H13.5577Z" fill="white"/>
<path fill-rule="evenodd" clip-rule="evenodd" d="M13.2749 12.9453C13.2749 12.9453 13.1899 12.9453 13.1899 13.0543L13.2749 13.1703C13.3599 13.1703 13.3929 13.0543 13.3929 13.0543C13.3929 12.9453 13.3599 12.9453 13.2749 12.9453Z" fill="white"/>
<path fill-rule="evenodd" clip-rule="evenodd" d="M13.5577 13.1699L13.4727 13.2859C13.4727 13.3959 13.5307 13.3959 13.5307 13.3959C13.6127 13.3959 13.6707 13.3959 13.6707 13.2859C13.6707 13.2859 13.6127 13.1699 13.5577 13.1699Z" fill="white"/>
<path fill-rule="evenodd" clip-rule="evenodd" d="M13.0222 13.1699L12.9702 13.2859C12.9702 13.3959 13.0222 13.3959 13.0222 13.3959C13.0772 13.3959 13.1372 13.3959 13.1372 13.2859C13.1372 13.2859 13.0772 13.1699 13.0222 13.1699Z" fill="white"/>
<path fill-rule="evenodd" clip-rule="evenodd" d="M13.0222 12.7197H12.9702C12.9702 12.8347 13.0222 12.8347 13.0222 12.8347C13.0772 12.8347 13.1372 12.8347 13.1372 12.7197H13.0222Z" fill="white"/>
<path fill-rule="evenodd" clip-rule="evenodd" d="M12.8267 14.8575C12.8267 14.9735 12.8517 15.0845 12.9697 15.1935C13.0217 15.3145 13.1647 15.4185 13.2747 15.4185C13.4177 15.4185 13.5307 15.3145 13.6127 15.1935C13.6977 15.0845 13.7527 14.9735 13.7527 14.8575V14.1875H12.8267V14.8575Z" fill="#1A0095"/>
<path fill-rule="evenodd" clip-rule="evenodd" d="M13.5577 14.4072C13.5577 14.4072 13.4727 14.4072 13.4727 14.5222H13.5577H13.6427C13.6427 14.4072 13.6127 14.4072 13.5577 14.4072Z" fill="white"/>
<path fill-rule="evenodd" clip-rule="evenodd" d="M13.2749 14.6328C13.2749 14.6328 13.1899 14.6328 13.1899 14.7418H13.2749H13.3929C13.3929 14.6328 13.3599 14.6328 13.2749 14.6328Z" fill="white"/>
<path fill-rule="evenodd" clip-rule="evenodd" d="M13.5577 14.8574C13.5577 14.8574 13.4727 14.8574 13.4727 14.9734L13.5577 15.0844C13.6127 15.0844 13.6427 14.9734 13.6427 14.9734C13.6427 14.8574 13.6127 14.8574 13.5577 14.8574Z" fill="white"/>
<path fill-rule="evenodd" clip-rule="evenodd" d="M13.0222 14.8574C12.9942 14.8574 12.9702 14.8574 12.9702 14.9734C12.9702 14.9734 12.9942 15.0844 13.0222 15.0844C13.0772 15.0844 13.1372 14.9734 13.1372 14.9734C13.1372 14.8574 13.0772 14.8574 13.0222 14.8574Z" fill="white"/>
<path fill-rule="evenodd" clip-rule="evenodd" d="M13.0222 14.4072C12.9942 14.4072 12.9702 14.4072 12.9702 14.5222H13.0222H13.1372C13.1372 14.4072 13.0772 14.4072 13.0222 14.4072Z" fill="white"/>
<path fill-rule="evenodd" clip-rule="evenodd" d="M11.502 13.1699C11.502 13.3959 11.532 13.3959 11.615 13.5059C11.7 13.6269 11.843 13.7309 11.956 13.7309C12.095 13.7309 12.175 13.6269 12.294 13.5059C12.378 13.3959 12.431 13.3959 12.431 13.1699V12.4939H11.502V13.1699Z" fill="#1A0095"/>
<path fill-rule="evenodd" clip-rule="evenodd" d="M12.2056 12.7197H12.1226C12.1226 12.8347 12.1756 12.8347 12.2056 12.8347C12.2936 12.8347 12.3186 12.8347 12.3186 12.7197H12.2056Z" fill="white"/>
<path fill-rule="evenodd" clip-rule="evenodd" d="M11.9558 12.9453C11.8978 12.9453 11.8428 12.9453 11.8428 13.0543C11.8428 13.0543 11.8978 13.1703 11.9558 13.1703C12.0078 13.1703 12.0388 13.0543 12.0388 13.0543C12.0388 12.9453 12.0078 12.9453 11.9558 12.9453Z" fill="white"/>
<path fill-rule="evenodd" clip-rule="evenodd" d="M12.2056 13.1699C12.1756 13.1699 12.1226 13.2859 12.1226 13.2859C12.1226 13.3959 12.1756 13.3959 12.2056 13.3959C12.2936 13.3959 12.3186 13.3959 12.3186 13.2859C12.3186 13.2859 12.2936 13.1699 12.2056 13.1699Z" fill="white"/>
<path fill-rule="evenodd" clip-rule="evenodd" d="M11.6997 13.1699C11.6747 13.1699 11.6147 13.2859 11.6147 13.2859C11.6147 13.3959 11.6747 13.3959 11.6997 13.3959C11.7547 13.3959 11.8127 13.3959 11.8127 13.2859C11.8127 13.2859 11.7547 13.1699 11.6997 13.1699Z" fill="white"/>
<path fill-rule="evenodd" clip-rule="evenodd" d="M11.6997 12.7197H11.6147C11.6147 12.8347 11.6747 12.8347 11.6997 12.8347C11.7547 12.8347 11.8127 12.8347 11.8127 12.7197H11.6997Z" fill="white"/>
<path fill-rule="evenodd" clip-rule="evenodd" d="M14.2036 13.1699C14.2036 13.3959 14.2616 13.3959 14.3436 13.5059C14.4326 13.6269 14.5416 13.7309 14.6576 13.7309C14.7666 13.7309 14.9096 13.6269 14.9926 13.5059C15.0746 13.3959 15.1356 13.3959 15.1356 13.1699V12.4939H14.2036V13.1699Z" fill="#1A0095"/>
<path fill-rule="evenodd" clip-rule="evenodd" d="M14.9098 12.7197H14.8228C14.8228 12.8347 14.8798 12.8347 14.9098 12.8347C14.9648 12.8347 15.0198 12.8347 15.0198 12.7197H14.9098Z" fill="white"/>
<path fill-rule="evenodd" clip-rule="evenodd" d="M14.6573 12.9453C14.5993 12.9453 14.5723 12.9453 14.5723 13.0543C14.5723 13.0543 14.5993 13.1703 14.6573 13.1703C14.7123 13.1703 14.7393 13.0543 14.7393 13.0543C14.7393 12.9453 14.7123 12.9453 14.6573 12.9453Z" fill="white"/>
<path fill-rule="evenodd" clip-rule="evenodd" d="M14.9098 13.1699C14.8798 13.1699 14.8228 13.2859 14.8228 13.2859C14.8228 13.3959 14.8798 13.3959 14.9098 13.3959C14.9648 13.3959 15.0198 13.3959 15.0198 13.2859C15.0198 13.2859 14.9648 13.1699 14.9098 13.1699Z" fill="white"/>
<path fill-rule="evenodd" clip-rule="evenodd" d="M14.4319 13.1699C14.3709 13.1699 14.3159 13.2859 14.3159 13.2859C14.3159 13.3959 14.3709 13.3959 14.4319 13.3959C14.4859 13.3959 14.5139 13.3959 14.5139 13.2859C14.5139 13.2859 14.4859 13.1699 14.4319 13.1699Z" fill="white"/>
<path fill-rule="evenodd" clip-rule="evenodd" d="M14.4319 12.7197H14.3159C14.3159 12.8347 14.3709 12.8347 14.4319 12.8347C14.4859 12.8347 14.5139 12.8347 14.5139 12.7197H14.4319Z" fill="white"/>
<path fill-rule="evenodd" clip-rule="evenodd" d="M12.8267 11.5986C12.8267 11.7026 12.8517 11.8126 12.9697 11.9336C13.0217 12.0426 13.1647 12.0426 13.2747 12.0426C13.4177 12.0426 13.5307 12.0426 13.6127 11.9336C13.6977 11.8126 13.7527 11.7026 13.7527 11.5986V10.8066H12.8267V11.5986Z" fill="#1A0095"/>
<path fill-rule="evenodd" clip-rule="evenodd" d="M13.5577 11.0322C13.5577 11.0322 13.4727 11.0322 13.4727 11.1422L13.5577 11.2582C13.6127 11.2582 13.6707 11.1422 13.6707 11.1422C13.6707 11.0322 13.6127 11.0322 13.5577 11.0322Z" fill="white"/>
<path fill-rule="evenodd" clip-rule="evenodd" d="M13.2749 11.2578L13.1899 11.3668L13.2749 11.4828C13.3599 11.4828 13.3929 11.3668 13.3929 11.3668C13.3929 11.3668 13.3599 11.2578 13.2749 11.2578Z" fill="white"/>
<path fill-rule="evenodd" clip-rule="evenodd" d="M13.5577 11.5986C13.5577 11.5986 13.4727 11.5986 13.4727 11.7026H13.5577H13.6707C13.6707 11.5986 13.6127 11.5986 13.5577 11.5986Z" fill="white"/>
<path fill-rule="evenodd" clip-rule="evenodd" d="M13.0222 11.5986C13.0222 11.5986 12.9702 11.5986 12.9702 11.7026H13.0222H13.1372C13.1372 11.5986 13.0772 11.5986 13.0222 11.5986Z" fill="white"/>
<path fill-rule="evenodd" clip-rule="evenodd" d="M13.0222 11.0322C13.0222 11.0322 12.9702 11.0322 12.9702 11.1422L13.0222 11.2582C13.0772 11.2582 13.1372 11.1422 13.1372 11.1422C13.1372 11.0322 13.0772 11.0322 13.0222 11.0322Z" fill="white"/>
<path fill-rule="evenodd" clip-rule="evenodd" d="M10.0674 10.1308C10.0674 9.68579 10.2924 9.68579 10.2924 9.68579C10.2924 9.68579 10.6034 9.78979 10.6034 10.1308H10.0674Z" fill="#FCFF2C"/>
<path fill-rule="evenodd" clip-rule="evenodd" d="M9.84469 9.68555L9.78369 10.0205H10.0677C10.0677 9.68555 10.2927 9.68555 10.2927 9.68555C10.2927 9.68555 10.5757 9.78955 10.6027 10.0205H10.8837L10.7987 9.68555H9.84469Z" fill="#FCFF2C"/>
<path fill-rule="evenodd" clip-rule="evenodd" d="M10.3477 9.68555C10.3477 9.68555 10.6027 9.78955 10.6027 10.0205H10.7987V9.68555H10.3477ZM10.2927 9.68555H9.84467L9.81667 10.0205H10.0677C10.0677 9.78955 10.2077 9.68555 10.2927 9.68555ZM10.8837 10.1305H10.6027C10.5457 9.78955 10.3227 9.68555 10.3227 9.68555C10.3227 9.68555 10.0977 9.68555 10.0977 10.0205L9.78467 10.1305L9.81667 9.68555H10.7987L10.8837 10.1305Z" fill="black"/>
<path fill-rule="evenodd" clip-rule="evenodd" d="M9.75928 10.0205H10.8843C10.9413 10.0205 10.9413 10.1305 10.9413 10.1305C10.9413 10.1305 10.9413 10.2465 10.8843 10.2465H9.75928V10.1305V10.0205Z" fill="#FCFF2C"/>
<path fill-rule="evenodd" clip-rule="evenodd" d="M9.75942 10.131H10.8844H10.9414H9.75942ZM10.8844 10.246H9.75942L9.73242 10.131L9.75942 10.021H10.8844C10.9414 10.021 10.9684 10.131 10.9684 10.131C10.9684 10.131 10.9414 10.246 10.8844 10.246Z" fill="black"/>
<path fill-rule="evenodd" clip-rule="evenodd" d="M10.1802 10.0205C10.1802 9.91053 10.2922 9.79053 10.2922 9.79053C10.2922 9.79053 10.4602 9.91053 10.4602 10.0205H10.1802Z" fill="#FCFF2C"/>
<path fill-rule="evenodd" clip-rule="evenodd" d="M10.2923 9.79004C10.2923 9.79004 10.2073 9.91004 10.2073 10.02H10.4323C10.4323 9.91004 10.2923 9.79004 10.2923 9.79004ZM10.4603 10.131H10.1803C10.1553 9.91004 10.2923 9.79004 10.2923 9.79004C10.2923 9.79004 10.4603 9.91004 10.4603 10.02V10.131Z" fill="black"/>
<path fill-rule="evenodd" clip-rule="evenodd" d="M9.78428 9.57032H10.8843H9.78428ZM10.8843 9.68532H9.78428C9.75928 9.68532 9.75928 9.57032 9.75928 9.57032C9.75928 9.57032 9.75928 9.45532 9.78428 9.45532H10.8843L10.9413 9.57032L10.8843 9.68532Z" fill="black"/>
<path fill-rule="evenodd" clip-rule="evenodd" d="M9.81669 9.57031H10.7977C10.8837 9.57031 10.8837 9.68531 10.8837 9.68531H10.7977H9.81669H9.78369L9.81669 9.57031Z" fill="#FCFF2C"/>
<path fill-rule="evenodd" clip-rule="evenodd" d="M9.81679 9.68556H10.7978H10.8838H9.81679ZM10.7978 9.68556H9.81679H9.75879L9.81679 9.57056H10.7978C10.8838 9.57056 10.8838 9.68556 10.8838 9.68556H10.7978Z" fill="black"/>
<path fill-rule="evenodd" clip-rule="evenodd" d="M10.1553 8.89355H10.2073H10.2653H10.3773H10.4323H10.4903V9.00955L10.4323 9.11355H10.1803C10.1553 9.11355 10.1553 9.00955 10.1553 9.00955V8.89355Z" fill="#FCFF2C"/>
<path fill-rule="evenodd" clip-rule="evenodd" d="M10.2075 8.89355H10.1555V9.00955L10.4325 9.11355L10.4605 9.00955V8.89355H10.4325H10.3775H10.3475H10.2655H10.2925H10.2075ZM10.4325 9.11355H10.1555L10.1245 9.00955V8.89355H10.2075H10.2405H10.2655H10.3775H10.4325H10.4075H10.4905L10.5205 9.00955L10.4325 9.11355Z" fill="black"/>
<path fill-rule="evenodd" clip-rule="evenodd" d="M10.4327 9.11328V9.57028H10.1807L10.2077 9.11328H10.4327Z" fill="#FCFF2C"/>
<path fill-rule="evenodd" clip-rule="evenodd" d="M10.4327 9.11328H10.2077V9.57028L10.4327 9.45528V9.11328ZM10.4607 9.57028H10.1807L10.2077 9.11328H10.4327L10.4607 9.57028Z" fill="black"/>
<path fill-rule="evenodd" clip-rule="evenodd" d="M10.4604 9.11328H10.5454V9.22828H10.6034V9.11328H10.6884V9.22828H10.7464V9.11328H10.8834V9.22828C10.8834 9.34928 10.7984 9.34928 10.7984 9.34928H10.5204C10.5204 9.34928 10.4604 9.34928 10.4604 9.22828V9.11328Z" fill="#FCFF2C"/>
<path fill-rule="evenodd" clip-rule="evenodd" d="M10.5454 9.11328H10.4604L10.4904 9.22828L10.7984 9.34928V9.22828V9.11328H10.7464L10.7984 9.22828H10.6884V9.11328H10.6034L10.6284 9.22828H10.5454V9.11328ZM10.7984 9.34928H10.4904L10.4604 9.22828V9.11328H10.5454L10.6034 9.22828V9.11328H10.6884L10.7464 9.22828V9.11328H10.8834V9.34928H10.7984Z" fill="black"/>
<path fill-rule="evenodd" clip-rule="evenodd" d="M10.7985 9.34961V9.57061H10.5205L10.5455 9.34961H10.7985Z" fill="#FCFF2C"/>
<path fill-rule="evenodd" clip-rule="evenodd" d="M10.7985 9.34961H10.5455V9.57061L10.7985 9.45461V9.34961ZM10.5205 9.57061H10.7985V9.34961H10.5205V9.57061Z" fill="black"/>
<path fill-rule="evenodd" clip-rule="evenodd" d="M9.81689 9.11328H9.89989V9.22828H9.92689V9.11328H10.0119V9.22828H10.0669V9.11328H10.1549V9.22828C10.1549 9.34928 10.1249 9.34928 10.0969 9.34928H9.84489C9.81689 9.34928 9.81689 9.34928 9.81689 9.22828V9.11328Z" fill="#FCFF2C"/>
<path fill-rule="evenodd" clip-rule="evenodd" d="M9.86918 9.11328H9.81718V9.22828L10.0972 9.34928L10.1252 9.22828V9.11328H10.0672L10.0972 9.22828H10.0122L9.98518 9.11328H9.92718L9.95418 9.22828H9.89918L9.86918 9.11328ZM10.0972 9.34928H9.81718L9.78418 9.22828V9.11328H9.89918V9.22828L9.92718 9.11328H10.0122L10.0372 9.22828L10.0672 9.11328H10.1552L10.1802 9.34928H10.0972Z" fill="black"/>
<path fill-rule="evenodd" clip-rule="evenodd" d="M10.0972 9.34961V9.57061H9.84521L9.86922 9.34961H10.0972Z" fill="#FCFF2C"/>
<path fill-rule="evenodd" clip-rule="evenodd" d="M10.0972 9.34961H9.86922V9.57061L10.0972 9.45461V9.34961ZM10.1252 9.57061H9.84521V9.34961H10.0972L10.1252 9.57061Z" fill="black"/>
<path fill-rule="evenodd" clip-rule="evenodd" d="M10.292 9.35H10.347V9.229H10.292V9.35Z" fill="black"/>
<path fill-rule="evenodd" clip-rule="evenodd" d="M10.603 9.4551H10.688V9.3501H10.603V9.4551Z" fill="black"/>
<path fill-rule="evenodd" clip-rule="evenodd" d="M9.92676 9.4551H9.98476V9.3501H9.92676V9.4551Z" fill="black"/>
<path fill-rule="evenodd" clip-rule="evenodd" d="M13.1069 8.89355H13.1899H13.2469H13.3299H13.3599H13.4729V9.00955L13.4179 9.11355H13.1649L13.1069 9.00955V8.89355Z" fill="#FCFF2C"/>
<path fill-rule="evenodd" clip-rule="evenodd" d="M13.1897 8.89355H13.1067L13.1377 9.00955L13.4177 9.11355L13.4457 9.00955V8.89355H13.3597H13.3937H13.3307H13.3057H13.2477H13.2747H13.1897ZM13.4177 9.11355H13.1377L13.0767 9.00955V8.89355H13.1897H13.2477H13.2197H13.3307H13.3597H13.4727L13.5007 9.00955L13.4177 9.11355Z" fill="black"/>
<path fill-rule="evenodd" clip-rule="evenodd" d="M13.4175 9.11328V9.57028H13.1655L13.1895 9.11328H13.4175Z" fill="#FCFF2C"/>
<path fill-rule="evenodd" clip-rule="evenodd" d="M13.393 9.11328H13.189L13.165 9.57028L13.417 9.45528L13.393 9.11328ZM13.445 9.57028H13.165V9.11328H13.417L13.445 9.57028Z" fill="black"/>
<path fill-rule="evenodd" clip-rule="evenodd" d="M13.4727 9.11328H13.5307V9.22828H13.5577V9.11328H13.6707V9.22828H13.6977V9.11328H13.7807V9.22828C13.7807 9.34928 13.7527 9.34928 13.7527 9.34928H13.4997C13.4997 9.34928 13.4727 9.34928 13.4727 9.22828V9.11328Z" fill="#FCFF2C"/>
<path fill-rule="evenodd" clip-rule="evenodd" d="M13.5303 9.11328H13.4723V9.22828L13.7533 9.34928V9.22828V9.11328H13.6973L13.7283 9.22828H13.6703L13.6423 9.11328H13.5573L13.6133 9.22828H13.5303V9.11328ZM13.7533 9.34928H13.4723L13.4453 9.22828V9.11328H13.5303V9.22828L13.5573 9.11328H13.6703V9.22828L13.6973 9.11328H13.7803L13.8133 9.34928H13.7533Z" fill="black"/>
<path fill-rule="evenodd" clip-rule="evenodd" d="M13.7285 9.34961V9.57061H13.4995L13.5305 9.34961H13.7285Z" fill="#FCFF2C"/>
<path fill-rule="evenodd" clip-rule="evenodd" d="M13.5311 9.4551H13.7291V9.3501H13.5311V9.4551ZM13.4731 9.5701L13.5001 9.3501H13.7291L13.7531 9.5701H13.4731Z" fill="black"/>
<path fill-rule="evenodd" clip-rule="evenodd" d="M12.769 9.11328H12.852V9.22828H12.909V9.11328H12.994V9.22828H13.022V9.11328H13.137V9.22828C13.137 9.34928 13.107 9.34928 13.107 9.34928H12.827C12.827 9.34928 12.769 9.34928 12.769 9.22828V9.11328Z" fill="#FCFF2C"/>
<path fill-rule="evenodd" clip-rule="evenodd" d="M12.8516 9.11328H12.7686L12.7986 9.22828L13.0766 9.34928L13.1066 9.22828V9.11328H13.0216L13.0516 9.22828H12.9946V9.11328H12.9096L12.9386 9.22828H12.8516V9.11328ZM13.0766 9.34928H12.8266L12.7686 9.22828V9.11328H12.8516V9.22828L12.9096 9.11328H12.8816H12.9946L13.0216 9.22828V9.11328H13.1376V9.34928H13.0766Z" fill="black"/>
<path fill-rule="evenodd" clip-rule="evenodd" d="M12.8271 9.57012H13.0771V9.34912H12.8271V9.57012Z" fill="#FCFF2C"/>
<path fill-rule="evenodd" clip-rule="evenodd" d="M13.0517 9.34961H12.8267L12.8517 9.57061L13.0517 9.45461V9.34961ZM12.8267 9.57061H13.0767V9.34961H12.8267V9.57061Z" fill="black"/>
<path fill-rule="evenodd" clip-rule="evenodd" d="M13.022 10.1308C13.022 9.68579 13.275 9.68579 13.275 9.68579C13.275 9.68579 13.558 9.78979 13.53 10.1308H13.022Z" fill="#FCFF2C"/>
<path fill-rule="evenodd" clip-rule="evenodd" d="M12.8266 9.68555L12.7686 10.0205H13.0216C13.0216 9.68555 13.2746 9.68555 13.2746 9.68555C13.2746 9.68555 13.5306 9.78955 13.5306 10.0205H13.8136L13.7526 9.68555H12.8266Z" fill="#FCFF2C"/>
<path fill-rule="evenodd" clip-rule="evenodd" d="M13.305 9.68555C13.36 9.68555 13.557 9.78955 13.557 10.0205H13.78L13.728 9.68555H13.305ZM13.275 9.68555H12.826L12.799 10.0205H13.022C13.022 9.78955 13.189 9.68555 13.275 9.68555ZM13.841 10.1305H13.53C13.53 9.78955 13.275 9.68555 13.275 9.68555C13.275 9.68555 13.022 9.68555 13.022 10.0205L12.769 10.1305L12.799 9.68555H13.753L13.841 10.1305Z" fill="black"/>
<path fill-rule="evenodd" clip-rule="evenodd" d="M12.7689 10.0205H13.8409L13.8659 10.1305L13.8409 10.2465H12.7689L12.7139 10.1305L12.7689 10.0205Z" fill="#FCFF2C"/>
<path fill-rule="evenodd" clip-rule="evenodd" d="M12.7689 10.131H13.8409H12.7689ZM13.8409 10.246H12.7689L12.7139 10.131L12.7689 10.021H13.8409C13.8659 10.021 13.8659 10.131 13.8659 10.131C13.8659 10.131 13.8659 10.246 13.8409 10.246Z" fill="black"/>
<path fill-rule="evenodd" clip-rule="evenodd" d="M13.1372 10.0205C13.1372 9.91053 13.2752 9.79053 13.2752 9.79053C13.2752 9.79053 13.4452 9.91053 13.4452 10.0205H13.1372Z" fill="#FCFF2C"/>
<path fill-rule="evenodd" clip-rule="evenodd" d="M13.2747 9.79004C13.2747 9.79004 13.1647 9.91004 13.1647 10.02H13.4177C13.4177 9.91004 13.2747 9.79004 13.2747 9.79004ZM13.4447 10.131H13.1367C13.1367 9.91004 13.2747 9.79004 13.2747 9.79004C13.2747 9.79004 13.4447 9.91004 13.4447 10.02V10.131Z" fill="black"/>
<path fill-rule="evenodd" clip-rule="evenodd" d="M12.7689 9.57032H13.7799H13.8409H12.7689ZM13.7799 9.68532H12.7689L12.7139 9.57032L12.7689 9.45532H13.7799C13.8409 9.45532 13.8659 9.57032 13.8659 9.57032C13.8659 9.57032 13.8409 9.68532 13.7799 9.68532Z" fill="black"/>
<path fill-rule="evenodd" clip-rule="evenodd" d="M12.799 9.57031H13.753L13.814 9.68531H13.753H12.799H12.769C12.769 9.68531 12.769 9.57031 12.799 9.57031Z" fill="#FCFF2C"/>
<path fill-rule="evenodd" clip-rule="evenodd" d="M12.7987 9.68556H13.7527H13.7797H12.7987ZM13.7527 9.68556H12.7987H12.7417C12.7417 9.68556 12.7687 9.57056 12.7987 9.57056H13.7527C13.8137 9.57056 13.8407 9.68556 13.8407 9.68556H13.7527Z" fill="black"/>
<path fill-rule="evenodd" clip-rule="evenodd" d="M13.2749 9.35H13.3049V9.229H13.2749V9.35Z" fill="black"/>
<path fill-rule="evenodd" clip-rule="evenodd" d="M13.585 9.4551H13.642V9.3501H13.585V9.4551Z" fill="black"/>
<path fill-rule="evenodd" clip-rule="evenodd" d="M12.939 9.4551H12.994V9.3501H12.939V9.4551Z" fill="black"/>
<path fill-rule="evenodd" clip-rule="evenodd" d="M16.0615 8.89355H16.1195H16.1745H16.2595H16.3145H16.3995V9.00955L16.3415 9.11355H16.0865L16.0615 9.00955V8.89355Z" fill="#FCFF2C"/>
<path fill-rule="evenodd" clip-rule="evenodd" d="M16.1197 8.89355H16.0617V9.00955L16.3417 9.11355L16.3997 9.00955V8.89355H16.3147H16.3417H16.2597H16.1747H16.2047H16.1197ZM16.3417 9.11355H16.0867L16.0337 9.00955V8.89355H16.1197H16.1747H16.1467H16.2597H16.2897H16.3147H16.2897H16.3997L16.4277 9.00955L16.3417 9.11355Z" fill="black"/>
<path fill-rule="evenodd" clip-rule="evenodd" d="M16.3419 9.11328V9.57028H16.0869L16.1199 9.11328H16.3419Z" fill="#FCFF2C"/>
<path fill-rule="evenodd" clip-rule="evenodd" d="M16.3419 9.11328H16.1199V9.57028L16.3419 9.45528V9.11328ZM16.3719 9.57028H16.0869V9.11328H16.3419L16.3719 9.57028Z" fill="black"/>
<path fill-rule="evenodd" clip-rule="evenodd" d="M16.3999 9.11328H16.4569V9.22828H16.5119V9.11328H16.5949V9.22828H16.6549V9.11328H16.7369V9.22828C16.7369 9.34928 16.7099 9.34928 16.7099 9.34928H16.4269C16.3999 9.34928 16.3999 9.34928 16.3999 9.22828V9.11328Z" fill="#FCFF2C"/>
<path fill-rule="evenodd" clip-rule="evenodd" d="M16.4571 9.11328H16.4001V9.22828L16.7101 9.34928V9.22828V9.11328H16.6551V9.22828H16.5951V9.11328H16.5121L16.5431 9.22828H16.4571V9.11328ZM16.7101 9.34928H16.4001L16.3721 9.22828V9.11328H16.4571L16.4821 9.22828L16.5121 9.11328H16.4821H16.5951L16.6251 9.22828L16.6551 9.11328H16.6251H16.7371L16.7651 9.34928H16.7101Z" fill="black"/>
<path fill-rule="evenodd" clip-rule="evenodd" d="M16.6832 9.34961V9.57061H16.4272L16.4572 9.34961H16.6832Z" fill="#FCFF2C"/>
<path fill-rule="evenodd" clip-rule="evenodd" d="M16.6552 9.34961H16.4572V9.57061L16.6552 9.45461V9.34961ZM16.7102 9.57061H16.4272V9.34961H16.6832L16.7102 9.57061Z" fill="black"/>
<path fill-rule="evenodd" clip-rule="evenodd" d="M15.6963 9.11328H15.7513V9.22828H15.8363V9.11328H15.9183V9.22828H15.9793V9.11328H16.0613V9.22828C16.0613 9.34928 16.0613 9.34928 16.0333 9.34928H15.7513C15.7513 9.34928 15.6963 9.34928 15.6963 9.22828V9.11328Z" fill="#FCFF2C"/>
<path fill-rule="evenodd" clip-rule="evenodd" d="M15.751 9.11328H15.696L15.724 9.22828L16.034 9.34928L16.062 9.22828V9.11328H15.98L16.006 9.22828H15.918V9.11328H15.836V9.22828H15.751V9.11328ZM16.034 9.34928H15.724L15.668 9.22828V9.11328H15.751L15.781 9.22828L15.836 9.11328H15.918L15.952 9.22828L15.98 9.11328H15.952H16.062L16.086 9.34928H16.034Z" fill="black"/>
<path fill-rule="evenodd" clip-rule="evenodd" d="M15.751 9.57012H16.006V9.34912H15.751V9.57012Z" fill="#FCFF2C"/>
<path fill-rule="evenodd" clip-rule="evenodd" d="M16.0061 9.34961H15.7511V9.57061L16.0061 9.45461V9.34961ZM16.0331 9.57061H15.7511L15.7231 9.34961H16.0061L16.0331 9.57061Z" fill="black"/>
<path fill-rule="evenodd" clip-rule="evenodd" d="M15.9517 10.1308C15.9517 9.68579 16.2047 9.68579 16.2047 9.68579C16.2047 9.68579 16.4817 9.78979 16.4817 10.1308H15.9517Z" fill="#FCFF2C"/>
<path fill-rule="evenodd" clip-rule="evenodd" d="M15.7235 9.68555L15.6685 10.0205H15.9515C15.9515 9.68555 16.2045 9.68555 16.2285 9.68555C16.2285 9.68555 16.4815 9.78955 16.4815 10.0205H16.7655L16.7095 9.68555H15.7235Z" fill="#FCFF2C"/>
<path fill-rule="evenodd" clip-rule="evenodd" d="M16.2599 9.68555C16.2899 9.68555 16.4819 9.78955 16.4819 10.0205H16.7379L16.6829 9.68555H16.2599ZM16.2049 9.68555H15.7239L15.6969 10.0205H15.9519C15.9519 9.78955 16.1199 9.68555 16.2049 9.68555ZM16.7649 10.1305H16.4819C16.4569 9.78955 16.2289 9.68555 16.2049 9.68555C16.2049 9.68555 15.9799 9.78955 15.9799 10.0205L15.6689 10.1305L15.7239 9.68555H16.7099L16.7649 10.1305Z" fill="black"/>
<path fill-rule="evenodd" clip-rule="evenodd" d="M15.6683 10.0205H16.7653L16.7923 10.1305L16.7653 10.2465H15.6683C15.6383 10.2465 15.6133 10.1305 15.6133 10.1305C15.6133 10.1305 15.6383 10.0205 15.6683 10.0205Z" fill="#FCFF2C"/>
<path fill-rule="evenodd" clip-rule="evenodd" d="M15.6683 10.131H16.7653H16.7923H15.6683ZM16.7653 10.246H15.6683C15.6383 10.246 15.6133 10.246 15.6133 10.131C15.6133 10.131 15.6383 10.021 15.6683 10.021H16.7653L16.7923 10.131V10.246H16.7653Z" fill="black"/>
<path fill-rule="evenodd" clip-rule="evenodd" d="M16.0864 10.0205C16.0864 9.91053 16.2044 9.79053 16.2044 9.79053C16.2044 9.79053 16.3724 9.91053 16.3724 10.0205H16.0864Z" fill="#FCFF2C"/>
<path fill-rule="evenodd" clip-rule="evenodd" d="M16.2044 9.79004C16.2044 9.79004 16.1194 9.91004 16.1194 10.02H16.3414C16.3414 9.91004 16.2044 9.79004 16.2044 9.79004ZM16.3994 10.131H16.0864C16.0614 9.91004 16.2044 9.79004 16.2044 9.79004C16.2284 9.79004 16.3994 9.91004 16.3994 10.02V10.131Z" fill="black"/>
<path fill-rule="evenodd" clip-rule="evenodd" d="M15.6962 9.57032H16.7372H16.7652H15.6962ZM16.7372 9.68532H15.6962C15.6382 9.68532 15.6382 9.57032 15.6382 9.57032C15.6382 9.57032 15.6382 9.45532 15.6962 9.45532H16.7372C16.7922 9.45532 16.7922 9.57032 16.7922 9.57032C16.7922 9.57032 16.7922 9.68532 16.7372 9.68532Z" fill="black"/>
<path fill-rule="evenodd" clip-rule="evenodd" d="M15.7235 9.57031H16.7095L16.7655 9.68531H16.7095H15.7235H15.6685C15.6685 9.68531 15.6965 9.57031 15.7235 9.57031Z" fill="#FCFF2C"/>
<path fill-rule="evenodd" clip-rule="evenodd" d="M15.7237 9.68556H16.7097H16.7377H15.7237ZM16.7097 9.68556H15.7237H15.6387C15.6387 9.68556 15.6687 9.57056 15.7237 9.57056H16.7097C16.7657 9.57056 16.7927 9.68556 16.7927 9.68556H16.7097Z" fill="black"/>
<path fill-rule="evenodd" clip-rule="evenodd" d="M16.2051 9.35H16.2601V9.229H16.2051V9.35Z" fill="black"/>
<path fill-rule="evenodd" clip-rule="evenodd" d="M16.543 9.4551H16.595V9.3501H16.543V9.4551Z" fill="black"/>
<path fill-rule="evenodd" clip-rule="evenodd" d="M15.8359 9.4551H15.9179V9.3501H15.8359V9.4551Z" fill="black"/>
<path fill-rule="evenodd" clip-rule="evenodd" d="M10.1553 11.9336H10.2073H10.2653H10.3773H10.4323H10.4903V12.0426H10.4323H10.1803H10.1553V11.9336Z" fill="#FCFF2C"/>
<path fill-rule="evenodd" clip-rule="evenodd" d="M10.2075 11.9336H10.1555V12.0426H10.4325H10.4605V11.9336H10.4325L10.3775 12.0426L10.3475 11.9336H10.2655H10.2925L10.2075 12.0426V11.9336ZM10.4325 12.0426H10.1805H10.1245V11.9336H10.2075H10.2405H10.2655H10.3775H10.4325H10.4075H10.4905L10.5205 12.0426H10.4325Z" fill="black"/>
<path fill-rule="evenodd" clip-rule="evenodd" d="M10.4327 12.043V12.494H10.1807L10.2077 12.043H10.4327Z" fill="#FCFF2C"/>
<path fill-rule="evenodd" clip-rule="evenodd" d="M10.2082 12.494H10.4332V12.043H10.2082V12.494ZM10.4602 12.494H10.1802L10.2082 12.043H10.4332L10.4602 12.494Z" fill="black"/>
<path fill-rule="evenodd" clip-rule="evenodd" d="M10.4907 12.1592H10.5757H10.6027H10.6887H10.7457H10.8837V12.2692H10.7987H10.5207H10.4907V12.1592Z" fill="#FCFF2C"/>
<path fill-rule="evenodd" clip-rule="evenodd" d="M10.5454 12.1592H10.4904V12.2692H10.7984V12.1592H10.7464H10.7984H10.6884H10.6034H10.6284H10.5754H10.5454ZM10.7984 12.2692H10.4904H10.4604V12.1592L10.5754 12.0432L10.6034 12.1592L10.6884 12.0432L10.7464 12.1592L10.8834 12.0432V12.2692H10.7984Z" fill="black"/>
<path fill-rule="evenodd" clip-rule="evenodd" d="M10.7985 12.2695V12.4945H10.5205L10.5455 12.2695H10.7985Z" fill="#FCFF2C"/>
<path fill-rule="evenodd" clip-rule="evenodd" d="M10.545 12.495H10.798V12.27H10.545V12.495ZM10.52 12.494H10.798V12.269H10.52V12.494Z" fill="black"/>
<path fill-rule="evenodd" clip-rule="evenodd" d="M9.81689 12.1592H9.89989H9.92689H10.0119H10.0669H10.1549V12.2692H10.1249H9.84489H9.81689V12.1592Z" fill="#FCFF2C"/>
<path fill-rule="evenodd" clip-rule="evenodd" d="M9.86918 12.1592H9.81718V12.2692H10.1252V12.1592H10.0972H10.0122H9.98518H9.92718H9.95418H9.89918H9.86918ZM10.1252 12.2692H9.84518H9.78418V12.1592L9.89918 12.0432V12.1592H9.92718L10.0122 12.0432L10.0372 12.1592H10.0972H10.0672L10.1552 12.0432L10.1802 12.2692H10.1252Z" fill="black"/>
<path fill-rule="evenodd" clip-rule="evenodd" d="M10.0972 12.2695V12.4945H9.84521L9.86922 12.2695H10.0972Z" fill="#FCFF2C"/>
<path fill-rule="evenodd" clip-rule="evenodd" d="M9.86922 12.495H10.0972V12.27H9.86922V12.495ZM10.1252 12.494H9.84521V12.27H10.0972L10.1252 12.494Z" fill="black"/>
<path fill-rule="evenodd" clip-rule="evenodd" d="M10.0674 13.0547C10.0674 12.7197 10.2924 12.7197 10.2924 12.7197C10.2924 12.7197 10.6034 12.7197 10.6034 13.0547H10.0674Z" fill="#FCFF2C"/>
<path fill-rule="evenodd" clip-rule="evenodd" d="M9.84469 12.7197L9.78369 13.0547H10.0677C10.0677 12.7197 10.2927 12.7197 10.2927 12.7197C10.2927 12.7197 10.6027 12.7197 10.6027 13.0547H10.8837L10.7987 12.7197H9.84469Z" fill="#FCFF2C"/>
<path fill-rule="evenodd" clip-rule="evenodd" d="M10.3477 12.7197C10.3477 12.7197 10.6027 12.7197 10.6027 13.0547H10.8837L10.7987 12.7197H10.3477ZM10.2927 12.7197H9.84467L9.81667 13.0547H10.0677C10.0677 12.7197 10.2077 12.7197 10.2927 12.7197ZM10.8837 13.0547H10.6027C10.5457 12.7197 10.3227 12.7197 10.3227 12.7197C10.3227 12.7197 10.0977 12.7197 10.0977 13.0547H9.78467L9.81667 12.7197H10.7987L10.8837 13.0547Z" fill="black"/>
<path fill-rule="evenodd" clip-rule="evenodd" d="M9.78428 13.0547H10.8843H10.9413C10.9413 13.1697 10.9413 13.1697 10.8843 13.1697H9.78428C9.75928 13.1697 9.75928 13.1697 9.75928 13.0547H9.78428Z" fill="#FCFF2C"/>
<path fill-rule="evenodd" clip-rule="evenodd" d="M9.78428 13.0547V13.1697H10.8843C10.9413 13.1697 10.9413 13.1697 10.9413 13.0547H9.78428ZM10.8843 13.1697H9.78428C9.75928 13.1697 9.75928 13.1697 9.75928 13.0547H9.78428H10.8843H10.9693C10.9693 13.1697 10.9413 13.1697 10.8843 13.1697Z" fill="black"/>
<path fill-rule="evenodd" clip-rule="evenodd" d="M10.1802 13.0547C10.1802 12.8347 10.3232 12.7197 10.3232 12.7197C10.3232 12.7197 10.4602 12.8347 10.4602 13.0547H10.1802Z" fill="#FCFF2C"/>
<path fill-rule="evenodd" clip-rule="evenodd" d="M10.2923 12.7197C10.2923 12.8347 10.2073 12.8347 10.2073 13.0547H10.4323C10.4323 12.8347 10.3223 12.8347 10.2923 12.7197ZM10.4903 13.0547H10.1803C10.1553 12.8347 10.2923 12.7197 10.2923 12.7197C10.2923 12.7197 10.4603 12.8347 10.4603 13.0547H10.4903Z" fill="black"/>
<path fill-rule="evenodd" clip-rule="evenodd" d="M9.78428 12.4941H10.8843H10.9413C10.9413 12.6031 10.8843 12.6031 10.8843 12.6031H9.78428C9.78428 12.6031 9.75928 12.6031 9.75928 12.4941H9.78428Z" fill="#FCFF2C"/>
<path fill-rule="evenodd" clip-rule="evenodd" d="M9.78379 12.6039H10.8838V12.4949H9.78379V12.6039ZM10.8838 12.6039H9.78379C9.75879 12.6039 9.75879 12.6039 9.75879 12.4939H9.78379H10.8838H10.9408C10.9408 12.6039 10.8838 12.6039 10.8838 12.6039Z" fill="black"/>
<path fill-rule="evenodd" clip-rule="evenodd" d="M9.81669 12.6035H10.7977H10.8837C10.8837 12.7195 10.8837 12.7195 10.7977 12.7195H9.81669C9.81669 12.7195 9.78369 12.7195 9.78369 12.6035H9.81669Z" fill="#FCFF2C"/>
<path fill-rule="evenodd" clip-rule="evenodd" d="M9.81679 12.6035V12.7195H10.7978C10.7978 12.7195 10.8838 12.7195 10.8838 12.6035H9.81679ZM10.7978 12.7195H9.81679C9.81679 12.7195 9.75879 12.7195 9.75879 12.6035H9.81679H10.7978H10.8838C10.8838 12.7195 10.8838 12.7195 10.7978 12.7195Z" fill="black"/>
<path fill-rule="evenodd" clip-rule="evenodd" d="M10.292 12.2689H10.347V12.1589H10.292V12.2689Z" fill="black"/>
<path fill-rule="evenodd" clip-rule="evenodd" d="M10.6279 12.3789C10.6279 12.2699 10.6889 12.2699 10.6889 12.3789H10.6279Z" fill="black"/>
<path fill-rule="evenodd" clip-rule="evenodd" d="M9.95459 12.3789C9.95459 12.2699 9.98459 12.2699 9.98459 12.3789H9.95459Z" fill="black"/>
<path fill-rule="evenodd" clip-rule="evenodd" d="M15.891 15.084H15.952H15.918L15.952 15.193L15.979 15.084L16.034 15.193H15.979L16.034 15.314L16.086 15.193L16.12 15.314L16.061 15.418H15.979L15.751 15.193V15.084H15.891Z" fill="#FCFF2C"/>
<path fill-rule="evenodd" clip-rule="evenodd" d="M15.8365 15.084H15.7815L16.0065 15.418H16.0335L16.1195 15.314L16.0615 15.193V15.314L15.9795 15.193H16.0335L15.9515 15.084V15.193L15.8915 15.084H15.9185H15.8365ZM16.0065 15.418H15.9795L15.7515 15.193V15.084H15.8365H15.9515H15.9185L15.9515 15.193V15.084L16.0615 15.193H16.0065L16.0615 15.314V15.193L16.1195 15.314L16.0065 15.418Z" fill="black"/>
<path fill-rule="evenodd" clip-rule="evenodd" d="M15.9517 15.4181L15.6687 15.7541L15.4707 15.4181L15.7817 15.1931L15.9517 15.4181Z" fill="#FCFF2C"/>
<path fill-rule="evenodd" clip-rule="evenodd" d="M15.7509 15.1934L15.4709 15.4184L15.6679 15.7544L15.9519 15.4184L15.7509 15.1934ZM15.6679 15.7544L15.4429 15.4184L15.7509 15.1934L15.9799 15.4184L15.6679 15.7544Z" fill="black"/>
<path fill-rule="evenodd" clip-rule="evenodd" d="M15.9795 15.418H16.0335L16.0065 15.534H16.0335H16.0865H16.1195L16.0865 15.649L16.1195 15.754L16.1465 15.649L16.2045 15.754L16.1195 15.875H16.0865L15.9185 15.534L15.9795 15.418Z" fill="#FCFF2C"/>
<path fill-rule="evenodd" clip-rule="evenodd" d="M15.9519 15.418L15.9189 15.534L16.1199 15.875L16.2049 15.754L16.1469 15.649L16.1199 15.754L16.0869 15.649L16.1199 15.534H16.0619H15.9799L16.0339 15.418H15.9519ZM16.1199 15.875H16.0869L15.8369 15.534H15.8909L15.9519 15.418H16.0619L16.0069 15.534H16.0619H16.1199V15.649H16.1469L16.2289 15.754L16.1199 15.875Z" fill="black"/>
<path fill-rule="evenodd" clip-rule="evenodd" d="M16.0866 15.8749L15.9186 15.9839L15.7236 15.7539L15.9186 15.5339L16.0866 15.8749Z" fill="#FCFF2C"/>
<path fill-rule="evenodd" clip-rule="evenodd" d="M15.9186 15.5342L15.7516 15.7542L15.9186 15.9842L16.0616 15.7542L15.9186 15.5342ZM15.9186 15.9842L15.7236 15.7542L15.9186 15.5342L16.0866 15.7542L15.9186 15.9842Z" fill="black"/>
<path fill-rule="evenodd" clip-rule="evenodd" d="M15.4706 14.9736H15.5286L15.4706 15.0836H15.5286H15.5836H15.6136H15.5836L15.6136 15.1936L15.6686 15.0836L15.7236 15.1936L15.6376 15.3146H15.5836L15.4126 15.0836L15.4706 14.9736Z" fill="#FCFF2C"/>
<path fill-rule="evenodd" clip-rule="evenodd" d="M15.4707 14.9736L15.4127 15.0836L15.6137 15.3146L15.7237 15.1936L15.6687 15.0836L15.6377 15.1936L15.5837 15.0836H15.6137H15.5557H15.4707L15.5287 14.9736H15.4707ZM15.6137 15.3146H15.5837L15.3877 15.0836L15.4707 14.9736H15.5557L15.4947 15.0836H15.5557H15.6377H15.5837L15.6377 15.1936L15.6687 15.0836L15.7507 15.1936L15.6137 15.3146Z" fill="black"/>
<path fill-rule="evenodd" clip-rule="evenodd" d="M15.5836 15.3145L15.4136 15.4185L15.2456 15.1935L15.4136 15.0845L15.5836 15.3145Z" fill="#FCFF2C"/>
<path fill-rule="evenodd" clip-rule="evenodd" d="M15.4133 15.084L15.2453 15.314L15.4133 15.418L15.5563 15.314L15.4133 15.084ZM15.4133 15.418L15.2183 15.314L15.4133 15.084L15.5833 15.314L15.4133 15.418Z" fill="black"/>
<path fill-rule="evenodd" clip-rule="evenodd" d="M14.9648 15.8749C15.2178 15.5339 15.4128 15.7539 15.4428 15.7539C15.4428 15.7539 15.5838 15.9839 15.3278 16.2099L14.9648 15.8749Z" fill="#FCFF2C"/>
<path fill-rule="evenodd" clip-rule="evenodd" d="M15.1079 15.418L14.7969 15.649L14.9649 15.875C15.2179 15.534 15.4129 15.754 15.4129 15.754C15.4129 15.754 15.5839 15.984 15.3579 16.21L15.5279 16.436L15.7809 16.095L15.1079 15.418Z" fill="#FCFF2C"/>
<path fill-rule="evenodd" clip-rule="evenodd" d="M15.1081 15.418L14.7971 15.649L14.9931 15.875C15.1081 15.649 15.3581 15.649 15.4131 15.754L15.1081 15.418ZM15.4431 15.754L15.4711 15.875C15.4951 15.984 15.4711 16.095 15.3881 16.21L15.5281 16.436L15.7811 16.095L15.4431 15.754ZM15.5281 16.436L15.3281 16.21C15.5561 15.984 15.4131 15.754 15.4131 15.754H15.2761C15.1901 15.754 15.0751 15.754 14.9931 15.875L14.7671 15.649L15.1081 15.314L15.7811 16.095L15.5281 16.436Z" fill="black"/>
<path fill-rule="evenodd" clip-rule="evenodd" d="M14.7669 15.6495L15.5559 16.4355H15.5279C15.5279 16.5505 15.4709 16.5505 15.4709 16.5505L14.7119 15.7535C14.7119 15.7535 14.7119 15.6495 14.7389 15.6495C14.7389 15.5345 14.7389 15.5345 14.7669 15.6495Z" fill="#FCFF2C"/>
<path fill-rule="evenodd" clip-rule="evenodd" d="M14.7394 15.7539L15.4954 16.5509L15.5284 16.4359L14.7674 15.6499L14.7124 15.7539H14.7394ZM15.4954 16.5509H15.4434L14.7124 15.7539V15.6499L14.7394 15.5339L15.5564 16.4359C15.5564 16.4359 15.5834 16.4359 15.5564 16.5509H15.4954Z" fill="black"/>
<path fill-rule="evenodd" clip-rule="evenodd" d="M15.0747 15.8751C15.2177 15.7541 15.3577 15.8751 15.3577 15.8751C15.3577 15.8751 15.4127 15.9841 15.2757 16.2101L15.0747 15.8751Z" fill="#FCFF2C"/>
<path fill-rule="evenodd" clip-rule="evenodd" d="M15.2757 15.8751C15.2447 15.8751 15.1627 15.8751 15.0747 15.9841L15.2757 16.2101C15.3877 15.9841 15.3577 15.8751 15.3577 15.8751H15.2757ZM15.2757 16.2101L15.0747 15.9841C15.2177 15.7541 15.3577 15.8751 15.3577 15.8751C15.3877 15.8751 15.4127 15.9841 15.2757 16.2101Z" fill="black"/>
<path fill-rule="evenodd" clip-rule="evenodd" d="M15.2176 15.1934L15.9516 15.9844V16.0944H15.9186L15.1626 15.3144V15.1934H15.2176Z" fill="#FCFF2C"/>
<path fill-rule="evenodd" clip-rule="evenodd" d="M15.1897 15.1934L15.1627 15.3144L15.9187 16.0944H15.9517L15.1897 15.1934ZM15.9187 16.0944H15.8907L15.1357 15.3144C15.1077 15.3144 15.1077 15.1934 15.1357 15.1934H15.2177L15.9517 15.9844V16.0944H15.9187Z" fill="black"/>
<path fill-rule="evenodd" clip-rule="evenodd" d="M15.1627 15.3145L15.8917 16.0945C15.8367 16.2105 15.8367 16.2105 15.7817 16.0945L15.0747 15.4185V15.3145H15.1627Z" fill="#FCFF2C"/>
<path fill-rule="evenodd" clip-rule="evenodd" d="M15.1627 15.3145H15.1077L15.8367 16.2105V16.0945L15.1627 15.3145ZM15.8367 16.2105H15.7817L15.0747 15.4185V15.3145H15.1627L15.9187 16.0945H15.8917L15.8367 16.2105Z" fill="black"/>
<path fill-rule="evenodd" clip-rule="evenodd" d="M15.751 15.418C15.781 15.314 15.836 15.418 15.781 15.418H15.724H15.668H15.751Z" fill="black"/>
<path fill-rule="evenodd" clip-rule="evenodd" d="M15.9184 15.7539H15.9794L15.9184 15.8749L15.8364 15.7539H15.9184Z" fill="black"/>
<path fill-rule="evenodd" clip-rule="evenodd" d="M15.4129 15.1934C15.4129 15.1934 15.4709 15.1934 15.4129 15.3144H15.3579L15.4129 15.1934Z" fill="black"/>
<path fill-rule="evenodd" clip-rule="evenodd" d="M16.0615 11.9336H16.1195H16.1745H16.2595H16.3145H16.3995V12.0426H16.3415H16.0865H16.0615V11.9336Z" fill="#FCFF2C"/>
<path fill-rule="evenodd" clip-rule="evenodd" d="M16.1197 11.9336H16.0617V12.0426H16.3417H16.3997V11.9336H16.3147H16.3417L16.2597 12.0426V11.9336H16.1747H16.2047L16.1197 12.0426V11.9336ZM16.3417 12.0426H16.0617H16.0337V11.9336H16.1197H16.1747H16.1467H16.2597H16.2897H16.3147H16.2897H16.3997L16.4277 12.0426H16.3417Z" fill="black"/>
<path fill-rule="evenodd" clip-rule="evenodd" d="M16.3419 12.043V12.494H16.0869L16.1199 12.043H16.3419Z" fill="#FCFF2C"/>
<path fill-rule="evenodd" clip-rule="evenodd" d="M16.3144 12.043H16.1194V12.494H16.3414L16.3144 12.043ZM16.3724 12.494H16.0864V12.043H16.3414L16.3724 12.494Z" fill="black"/>
<path fill-rule="evenodd" clip-rule="evenodd" d="M16.3999 12.1592H16.4569H16.5119H16.5949H16.6549H16.7369V12.2692H16.6829H16.4269H16.3999V12.1592Z" fill="#FCFF2C"/>
<path fill-rule="evenodd" clip-rule="evenodd" d="M16.4568 12.1592H16.3998V12.2692H16.6828H16.7098V12.1592H16.6548H16.5948H16.5668H16.5118H16.5428H16.4568ZM16.6828 12.2692H16.3998H16.3418V12.1592L16.4568 12.0432L16.4818 12.1592H16.5118H16.4818L16.5948 12.0432V12.1592H16.6548H16.6248L16.7368 12.0432V12.2692H16.6828Z" fill="black"/>
<path fill-rule="evenodd" clip-rule="evenodd" d="M16.6552 12.2695L16.6832 12.4945H16.4272L16.4572 12.2695H16.6552Z" fill="#FCFF2C"/>
<path fill-rule="evenodd" clip-rule="evenodd" d="M16.4568 12.495H16.6548V12.27H16.4568V12.495ZM16.7098 12.494H16.4268V12.27H16.6548L16.7098 12.494Z" fill="black"/>
<path fill-rule="evenodd" clip-rule="evenodd" d="M15.6963 12.1592H15.7513H15.8363H15.9183H15.9793H16.0613V12.2692H16.0333H15.7233H15.6963V12.1592Z" fill="#FCFF2C"/>
<path fill-rule="evenodd" clip-rule="evenodd" d="M15.751 12.1592H15.696L15.724 12.2692H16.034H16.062V12.1592H15.98H15.918H15.836H15.751ZM16.034 12.2692H15.724H15.668V12.1592L15.751 12.0432L15.781 12.1592H15.836L15.918 12.0432L15.952 12.1592H15.98H15.952L16.062 12.0432L16.086 12.2692H16.034Z" fill="black"/>
<path fill-rule="evenodd" clip-rule="evenodd" d="M15.751 12.494H16.006V12.269H15.751V12.494Z" fill="#FCFF2C"/>
<path fill-rule="evenodd" clip-rule="evenodd" d="M15.9796 12.2695H15.7506V12.4945H16.0066L15.9796 12.2695ZM15.7236 12.4945V12.2695H16.0066L16.0336 12.4945H15.7236Z" fill="black"/>
<path fill-rule="evenodd" clip-rule="evenodd" d="M15.9517 13.0547C15.9517 12.7197 16.2047 12.7197 16.2047 12.7197C16.2047 12.7197 16.4817 12.7197 16.4817 13.0547H15.9517Z" fill="#FCFF2C"/>
<path fill-rule="evenodd" clip-rule="evenodd" d="M15.7235 12.7197L15.6685 13.0547H15.9515C15.9515 12.7197 16.2045 12.7197 16.2045 12.7197C16.2285 12.7197 16.4565 12.7197 16.4815 13.0547H16.7375L16.6825 12.7197H15.7235Z" fill="#FCFF2C"/>
<path fill-rule="evenodd" clip-rule="evenodd" d="M16.2599 12.7197C16.3149 12.7197 16.4819 12.7197 16.4819 13.0547H16.7379L16.6829 12.7197H16.2599ZM16.1749 12.7197H15.7239L15.6969 13.0547H15.9519C15.9519 12.7197 16.1199 12.7197 16.1749 12.7197ZM16.7649 13.0547H16.4819C16.4569 12.7197 16.2049 12.7197 16.2049 12.7197C16.2049 12.7197 15.9799 12.7197 15.9799 13.0547H15.6689L15.7239 12.7197H16.6829L16.7649 13.0547Z" fill="black"/>
<path fill-rule="evenodd" clip-rule="evenodd" d="M15.6683 13.0547H16.7653H16.7923V13.1697H15.6683C15.6383 13.1697 15.6133 13.1697 15.6133 13.0547H15.6683Z" fill="#FCFF2C"/>
<path fill-rule="evenodd" clip-rule="evenodd" d="M15.6683 13.0547V13.1697H16.7653C16.7653 13.1697 16.7923 13.1697 16.7923 13.0547H15.6683ZM16.7653 13.1697H15.6683C15.6133 13.1697 15.6133 13.1697 15.6133 13.0547H15.6683H16.7653H16.7923V13.1697H16.7653Z" fill="black"/>
<path fill-rule="evenodd" clip-rule="evenodd" d="M16.0864 13.0547C16.0864 12.8347 16.2044 12.7197 16.2044 12.7197C16.2044 12.7197 16.3414 12.8347 16.3414 13.0547H16.0864Z" fill="#FCFF2C"/>
<path fill-rule="evenodd" clip-rule="evenodd" d="M16.2044 12.7197C16.2044 12.8347 16.0864 12.8347 16.0864 13.0547H16.3414C16.3414 12.8347 16.2044 12.8347 16.2044 12.7197ZM16.3994 13.0547H16.0864C16.0614 12.8347 16.2044 12.7197 16.2044 12.7197C16.2284 12.7197 16.3994 12.8347 16.3994 13.0547Z" fill="black"/>
<path fill-rule="evenodd" clip-rule="evenodd" d="M15.6687 12.4941H16.7377H16.7927C16.7927 12.6031 16.7657 12.6031 16.7377 12.6031H15.6687C15.6687 12.6031 15.6387 12.6031 15.6387 12.4941H15.6687Z" fill="#FCFF2C"/>
<path fill-rule="evenodd" clip-rule="evenodd" d="M15.6683 12.4941V12.6031H16.7373C16.7653 12.6031 16.7653 12.6031 16.7653 12.4941H15.6683ZM16.7373 12.6031H15.6683C15.6383 12.6031 15.6133 12.6031 15.6133 12.4941H15.6683H16.7373H16.7923C16.7923 12.6031 16.7653 12.6031 16.7373 12.6031Z" fill="black"/>
<path fill-rule="evenodd" clip-rule="evenodd" d="M15.7235 12.6035H16.7095H16.7655C16.7655 12.7195 16.7375 12.7195 16.7375 12.7195H15.7235C15.6685 12.7195 15.6685 12.7195 15.6685 12.6035H15.7235Z" fill="#FCFF2C"/>
<path fill-rule="evenodd" clip-rule="evenodd" d="M15.7237 12.6035V12.7195H16.7097C16.7097 12.7195 16.7377 12.7195 16.7377 12.6035H15.7237ZM16.7097 12.7195H15.7237C15.6687 12.7195 15.6387 12.7195 15.6387 12.6035H15.7237H16.7097H16.7657C16.7657 12.7195 16.7377 12.7195 16.7377 12.7195H16.7097Z" fill="black"/>
<path fill-rule="evenodd" clip-rule="evenodd" d="M16.1738 12.2689H16.2588V12.1589H16.1738V12.2689Z" fill="black"/>
<path fill-rule="evenodd" clip-rule="evenodd" d="M16.543 12.3789C16.543 12.2699 16.595 12.2699 16.595 12.3789H16.543Z" fill="black"/>
<path fill-rule="evenodd" clip-rule="evenodd" d="M15.8364 12.3789C15.8364 12.2699 15.9184 12.2699 15.9184 12.3789H15.8364Z" fill="black"/>
<path fill-rule="evenodd" clip-rule="evenodd" d="M10.4326 15.3145L10.4906 15.1935L10.5206 15.3145L10.5756 15.1935H10.5206L10.6026 15.0845V15.1935L10.6886 15.0845H10.6026H10.6886H10.7986V15.1935L10.5756 15.4185H10.5206L10.4326 15.3145Z" fill="#FCFF2C"/>
<path fill-rule="evenodd" clip-rule="evenodd" d="M10.4606 15.1935L10.4326 15.3145L10.5456 15.4185L10.7466 15.1935L10.6886 15.0845H10.6276H10.6886L10.6276 15.1935L10.5756 15.0845L10.5456 15.1935H10.6036L10.5456 15.3145L10.4606 15.1935ZM10.5456 15.4185H10.5206L10.4326 15.3145L10.4606 15.1935L10.5456 15.3145V15.1935H10.5206L10.5756 15.0845L10.6276 15.1935V15.0845H10.6036H10.6886H10.7986V15.1935L10.5456 15.4185Z" fill="black"/>
<path fill-rule="evenodd" clip-rule="evenodd" d="M10.7985 15.1934L11.1095 15.4184L10.8835 15.7544L10.6035 15.4184L10.7985 15.1934Z" fill="#FCFF2C"/>
<path fill-rule="evenodd" clip-rule="evenodd" d="M10.746 15.1934L10.603 15.4184L10.884 15.7544L11.109 15.4184L10.746 15.1934ZM10.884 15.7544L10.603 15.4184L10.746 15.1934L11.136 15.4184L10.884 15.7544Z" fill="black"/>
<path fill-rule="evenodd" clip-rule="evenodd" d="M10.7983 15.1934L10.8833 15.0844L10.9413 15.1934L10.9993 15.0844H10.9413H10.9993H11.0513H11.0843L11.0513 14.9734H11.1093L11.1943 15.0844L10.9993 15.3144H10.9413L10.7983 15.1934Z" fill="#FCFF2C"/>
<path fill-rule="evenodd" clip-rule="evenodd" d="M10.8838 15.0841L10.7988 15.1931L10.9688 15.3141H10.9988L11.1948 15.0841L11.1088 14.9741H11.0508L11.1088 15.0841H11.0508H10.9988H10.9688H10.9988L10.9688 15.1931L10.8838 15.0841ZM10.9688 15.3141H10.9408L10.7988 15.1931L10.8838 15.0841L10.9688 15.1931L10.9988 15.0841H10.9408H10.9988H11.0508H11.0838L11.0238 14.9741H11.1088L11.1948 15.0841L10.9688 15.3141Z" fill="black"/>
<path fill-rule="evenodd" clip-rule="evenodd" d="M11.1945 15.084L11.3345 15.193L11.1665 15.418L10.9995 15.314L11.1945 15.084Z" fill="#FCFF2C"/>
<path fill-rule="evenodd" clip-rule="evenodd" d="M11.1665 15.084L10.9995 15.314L11.1665 15.418L11.3345 15.193L11.1665 15.084ZM11.1665 15.418L10.9995 15.314L11.1665 15.084L11.3345 15.193L11.1665 15.418Z" fill="black"/>
<path fill-rule="evenodd" clip-rule="evenodd" d="M10.3228 15.754L10.4078 15.65L10.4328 15.754L10.4608 15.65L10.4328 15.534H10.4608H10.5208H10.5758L10.5208 15.418H10.6028L10.6888 15.534L10.4608 15.875H10.4328L10.3228 15.754Z" fill="#FCFF2C"/>
<path fill-rule="evenodd" clip-rule="evenodd" d="M10.4078 15.6495L10.3478 15.7535L10.4328 15.8755L10.4608 15.7535L10.6888 15.5345L10.5758 15.4185H10.5458L10.6028 15.5345H10.5458H10.4608H10.4328L10.4608 15.6495L10.4328 15.7535L10.4078 15.6495ZM10.4328 15.8755L10.3228 15.7535L10.4078 15.6495H10.4328V15.5345H10.4608H10.5458L10.5208 15.4185H10.5758L10.6888 15.5345L10.4328 15.8755Z" fill="black"/>
<path fill-rule="evenodd" clip-rule="evenodd" d="M10.6884 15.5342L10.7984 15.7542L10.6274 15.9842L10.4604 15.7542L10.6884 15.5342Z" fill="#FCFF2C"/>
<path fill-rule="evenodd" clip-rule="evenodd" d="M10.6279 15.5342L10.4909 15.8752L10.6279 15.9842L10.7979 15.7542L10.6279 15.5342ZM10.6279 15.9842L10.4609 15.8752L10.6279 15.5342L10.8839 15.7542L10.6279 15.9842Z" fill="black"/>
<path fill-rule="evenodd" clip-rule="evenodd" d="M11.2522 16.2099C10.9992 15.9839 11.1362 15.7539 11.1362 15.7539C11.1362 15.7539 11.3922 15.5339 11.6152 15.8749L11.2522 16.2099Z" fill="#FCFF2C"/>
<path fill-rule="evenodd" clip-rule="evenodd" d="M10.7461 16.0947L11.0511 16.4357L11.2521 16.2097C10.9991 15.9847 11.1661 15.7537 11.1661 15.7537C11.1661 15.7537 11.3921 15.5337 11.6151 15.8747L11.7831 15.6497L11.4751 15.4177L10.7461 16.0947Z" fill="#FCFF2C"/>
<path fill-rule="evenodd" clip-rule="evenodd" d="M11.3346 15.7539C11.4196 15.7539 11.5016 15.7539 11.6146 15.8749L11.7826 15.6499L11.4466 15.4179L11.1666 15.7539H11.3346ZM11.1086 15.7539L10.7466 16.0949L11.0516 16.4359L11.2246 16.2099C11.1086 16.0949 11.0846 15.9839 11.0846 15.8749C11.1086 15.8749 11.1086 15.7539 11.1086 15.7539ZM11.0516 16.4359L10.7466 16.0949L11.4466 15.3149L11.8126 15.6499L11.6146 15.8749C11.5016 15.7539 11.3926 15.7539 11.3346 15.7539H11.1666C11.1666 15.7539 10.9996 15.9839 11.2516 16.2099L11.0516 16.4359Z" fill="black"/>
<path fill-rule="evenodd" clip-rule="evenodd" d="M11.024 16.4355L11.813 15.6495C11.813 15.5345 11.843 15.5345 11.843 15.6495C11.87 15.6495 11.87 15.7535 11.87 15.7535L11.109 16.4355C11.109 16.5505 11.051 16.5505 11.051 16.4355H10.999H11.024Z" fill="#FCFF2C"/>
<path fill-rule="evenodd" clip-rule="evenodd" d="M11.843 15.6494L11.051 16.4354L11.084 16.5504L11.109 16.4354L11.843 15.7534V15.6494ZM11.084 16.5504H11.024L10.999 16.4354L11.783 15.5344C11.843 15.5344 11.843 15.5344 11.87 15.6494V15.7534L11.084 16.5504Z" fill="black"/>
<path fill-rule="evenodd" clip-rule="evenodd" d="M11.3345 16.2101C11.1665 15.9841 11.2245 15.8751 11.2245 15.8751C11.2245 15.8751 11.3615 15.7541 11.5015 15.8751L11.3345 16.2101Z" fill="#FCFF2C"/>
<path fill-rule="evenodd" clip-rule="evenodd" d="M11.252 15.8751C11.252 15.8751 11.194 15.9841 11.335 16.0951L11.502 15.8751H11.252ZM11.335 16.2101H11.307C11.167 15.9841 11.194 15.8751 11.194 15.8751C11.252 15.8751 11.362 15.7541 11.532 15.8751L11.335 16.2101Z" fill="black"/>
<path fill-rule="evenodd" clip-rule="evenodd" d="M10.603 15.9844L11.392 15.1934H11.447V15.3144L10.688 16.0944H10.603V15.9844Z" fill="#FCFF2C"/>
<path fill-rule="evenodd" clip-rule="evenodd" d="M10.628 16.0946L11.447 15.3146V15.1936H11.392L10.603 15.9846V16.0946H10.628ZM10.628 16.0946H10.603V15.9846L11.362 15.1936H11.447V15.3146L10.628 16.0946Z" fill="black"/>
<path fill-rule="evenodd" clip-rule="evenodd" d="M10.6885 16.0947L11.4195 15.3147H11.5015V15.4177L10.7465 16.0947C10.7465 16.2097 10.6885 16.2097 10.6885 16.0947Z" fill="#FCFF2C"/>
<path fill-rule="evenodd" clip-rule="evenodd" d="M10.7461 16.0947L11.5021 15.3147H11.4471L10.6881 16.0947H10.7461ZM10.7461 16.2097L10.6881 16.0947C10.6281 16.0947 10.6281 16.0947 10.6881 16.0947L11.4191 15.3147H11.5021V15.4177L10.7461 16.2097Z" fill="black"/>
<path fill-rule="evenodd" clip-rule="evenodd" d="M10.7461 15.418C10.7461 15.418 10.7461 15.314 10.7981 15.314L10.8841 15.418H10.7981H10.7461Z" fill="black"/>
<path fill-rule="evenodd" clip-rule="evenodd" d="M11.1664 15.3146C11.1084 15.1936 11.1664 15.1936 11.1664 15.1936L11.2244 15.3146H11.1944H11.1664Z" fill="black"/>
<path fill-rule="evenodd" clip-rule="evenodd" d="M10.603 15.7539H10.628H10.688V15.8749L10.603 15.7539Z" fill="black"/>
</g>
</svg>
