<svg width="40" height="26" viewBox="0 0 40 26" fill="none" xmlns="http://www.w3.org/2000/svg">
<path fill-rule="evenodd" clip-rule="evenodd" d="M0 26H40V0H0V26Z" fill="white"/>
<path fill-rule="evenodd" clip-rule="evenodd" d="M0 26.0001H40V17.3411H0V26.0001Z" fill="#EA0020"/>
<path fill-rule="evenodd" clip-rule="evenodd" d="M0 17.341H40V8.66504H0V17.341Z" fill="#3555E2"/>
<path fill-rule="evenodd" clip-rule="evenodd" d="M7.61551 5.06909C7.50051 5.06909 7.45051 5.17309 7.39551 5.17309L7.61551 9.00009C7.67051 10.1271 8.12651 11.1381 8.91351 11.9351C9.42451 12.3811 10.0945 12.8321 10.7165 13.0631C11.4485 12.8321 12.0635 12.3811 12.5695 11.9351C13.3615 11.1381 13.8725 10.1271 13.8725 9.00009L14.1475 5.17309C14.0375 5.17309 13.9765 5.06909 13.8725 5.06909L13.5865 9.00009C13.5865 10.0171 13.1305 11.0341 12.4045 11.7111C11.9535 12.1561 11.3375 12.4911 10.7165 12.7221C10.1565 12.4911 9.53451 12.1561 9.13851 11.7111C8.40751 11.0341 7.90151 10.0171 7.84651 9.00009L7.61551 5.06909Z" fill="#EA0020"/>
<path fill-rule="evenodd" clip-rule="evenodd" d="M13.8722 5.06921C12.9102 4.61221 11.8432 4.38721 10.7162 4.38721C9.64423 4.38721 8.63323 4.61221 7.61523 5.06921L7.84623 9.00021C7.90123 10.0172 8.40723 11.0342 9.13823 11.7112C9.53423 12.1562 10.1562 12.4912 10.7162 12.7222C11.3372 12.4912 11.9532 12.1562 12.4042 11.7112C13.1302 11.0342 13.5862 10.0172 13.5862 9.00021" fill="#3555E2"/>
<path fill-rule="evenodd" clip-rule="evenodd" d="M10.9419 6.19037L11.0519 6.08137H10.8269L10.7169 5.84937L10.6559 6.08137H10.4419L10.5459 6.19037L10.4419 6.41637H10.6559L10.7169 6.52637L10.8269 6.41637H11.0519" fill="#F8E72A"/>
<path fill-rule="evenodd" clip-rule="evenodd" d="M10.0952 5.06929L10.2052 4.83829L9.98018 4.94829L9.87018 4.72729L9.80918 4.94829L9.53418 4.83829L9.69918 5.06929L9.53418 5.17329H9.80918L9.87018 5.50829L9.98018 5.17329H10.2052" fill="#F8E72A"/>
<path fill-rule="evenodd" clip-rule="evenodd" d="M11.8437 5.06929L11.9537 4.83829L11.6737 4.94829L11.6177 4.72729L11.4967 4.94829L11.2827 4.83829L11.4477 5.06929L11.2827 5.17329H11.4967L11.6177 5.50829L11.6737 5.17329H11.9537" fill="#F8E72A"/>
<path fill-rule="evenodd" clip-rule="evenodd" d="M13.2511 9.5664L12.0081 7.8734L11.4971 8.5544L10.7161 7.0874L10.0401 8.5544L9.53413 7.8734L8.18213 9.5664C8.18213 9.7924 8.29213 10.0174 8.46213 10.2424C8.68813 10.3574 8.85313 10.4674 9.08313 10.4674C9.18813 10.4674 9.36313 10.3574 9.53413 10.3574C9.53413 10.3574 9.59513 10.2424 9.69913 10.2424C9.93013 10.2424 10.1561 10.2424 10.3211 10.3574C10.4911 10.3574 10.6011 10.4674 10.7161 10.4674C10.8261 10.4674 10.9971 10.3574 11.1621 10.3574C11.3371 10.2424 11.5631 10.2424 11.8431 10.2424C11.8431 10.2424 11.9531 10.3574 12.0081 10.3574C12.1781 10.3574 12.2341 10.4674 12.4591 10.4674C12.6241 10.4674 12.9101 10.3574 13.0251 10.2424C13.1901 10.0174 13.2511 9.7924 13.2511 9.5664Z" fill="white"/>
<path fill-rule="evenodd" clip-rule="evenodd" d="M8.46289 10.584C8.63289 10.693 8.68789 10.693 8.74889 10.919C8.91389 11.034 9.13889 11.034 9.30389 10.919C9.36389 10.919 9.42489 10.919 9.53489 10.803C9.59489 10.693 9.80889 10.693 9.92989 10.693C10.0409 10.693 10.2059 10.693 10.3209 10.803C10.4909 10.919 10.7169 11.034 10.9419 10.919C10.9969 10.919 11.1069 10.919 11.1619 10.803C11.2829 10.693 11.4479 10.693 11.5639 10.693C11.7289 10.693 11.8439 10.693 12.0089 10.803C12.2339 10.919 12.4599 11.034 12.6249 10.919H12.7949C12.9099 10.693 12.9099 10.693 12.9649 10.584H12.9099C12.7949 10.693 12.6849 10.693 12.6249 10.693C12.4599 10.693 12.2339 10.693 12.0089 10.584C11.8439 10.468 11.7289 10.468 11.5639 10.468C11.4479 10.468 11.2829 10.584 11.1619 10.584C11.1069 10.693 10.9969 10.693 10.9419 10.693C10.7169 10.693 10.4909 10.693 10.3209 10.584C10.2059 10.468 10.0409 10.468 9.92989 10.468C9.80889 10.468 9.59489 10.584 9.53489 10.584C9.42489 10.693 9.36389 10.693 9.30389 10.693C9.08389 10.693 8.85289 10.693 8.68789 10.584H8.46289Z" fill="white"/>
<path fill-rule="evenodd" clip-rule="evenodd" d="M12.5696 11.1387C12.4596 11.3747 12.3496 11.4797 12.2346 11.5897C11.8436 12.0457 11.2826 12.2717 10.7166 12.4917C10.1556 12.2717 9.69963 12.0457 9.25963 11.5897C9.13863 11.4797 9.08363 11.3747 8.97363 11.1387H9.30363C9.36363 11.1387 9.42463 11.1387 9.53463 11.0347H9.92963H10.3206C10.4906 11.1387 10.7166 11.2537 10.9416 11.1387C10.9966 11.1387 11.1066 11.1387 11.1616 11.0347H11.5636H12.0086C12.1786 11.1387 12.3496 11.1387 12.5696 11.1387Z" fill="white"/>
</svg>
