<svg width="40" height="26" viewBox="0 0 40 26" fill="none" xmlns="http://www.w3.org/2000/svg">
<path fill-rule="evenodd" clip-rule="evenodd" d="M0 26H40V0H0V26Z" fill="white"/>
<path fill-rule="evenodd" clip-rule="evenodd" d="M0 26H40V8.66504H0V26Z" fill="#2534A4"/>
<path fill-rule="evenodd" clip-rule="evenodd" d="M0 26.0001H40V17.3411H0V26.0001Z" fill="#BC0030"/>
<path fill-rule="evenodd" clip-rule="evenodd" d="M4.4932 6.19036C3.9292 6.19036 4.07021 6.75636 4.01521 7.20236C3.82021 9.56636 3.5942 12.1564 4.3532 14.6294C4.97421 16.5484 6.3792 18.2424 8.1242 19.2484C8.5482 19.4734 8.9382 19.6994 9.4472 19.9244C9.9252 19.6994 10.3212 19.3694 10.7972 19.1384C12.5172 18.2424 13.8942 16.4274 14.4852 14.6294C15.2752 12.1564 14.9922 9.56636 14.8262 6.97636C14.7962 6.64136 14.8262 6.08136 14.3182 6.19036H4.4932Z" fill="white"/>
<path fill-rule="evenodd" clip-rule="evenodd" d="M9.4468 6.52637V19.4734C15.4118 16.5484 14.7968 11.8144 14.3698 6.52637H9.4468ZM9.4468 6.52637V19.4734C3.4268 16.5484 4.0698 11.8144 4.4928 6.52637H9.4468Z" fill="#BC0030"/>
<path fill-rule="evenodd" clip-rule="evenodd" d="M10.123 10.0175C10.745 10.0175 11.39 10.2425 12.037 10.3575C11.841 9.68152 11.841 9.23052 12.037 8.78052C11.39 8.78052 10.745 8.89052 10.123 8.89052H8.74301C8.12401 8.89052 7.44801 8.78052 6.83301 8.78052C7.00001 9.23052 7.00001 9.68152 6.83301 10.3575C7.44801 10.2425 8.12401 10.0175 8.74301 10.0175H10.123Z" fill="white"/>
<path fill-rule="evenodd" clip-rule="evenodd" d="M10.6589 12.3809C11.3329 12.3809 11.9539 12.4909 12.5729 12.7229C12.4019 12.0459 12.4019 11.7109 12.5729 11.0339C11.9539 11.2539 11.3329 11.3749 10.6589 11.3749H8.18195C7.56095 11.3749 6.88495 11.2539 6.29395 11.0339C6.46395 11.7109 6.46395 12.0459 6.29395 12.7229C6.88495 12.4909 7.56095 12.3809 8.18195 12.3809H10.6589Z" fill="white"/>
<path fill-rule="evenodd" clip-rule="evenodd" d="M8.63037 6.97656C8.77337 7.53856 8.85537 8.21956 8.85537 8.89056V16.8836H9.98337V8.89056C9.98337 8.21956 10.0654 7.53856 10.2054 6.97656C9.61437 7.20256 9.25137 7.20256 8.63037 6.97656Z" fill="white"/>
<path fill-rule="evenodd" clip-rule="evenodd" d="M6.9149 14.9707C6.2079 14.9707 5.6499 15.5327 5.6499 16.2137C5.6499 16.3237 5.6499 16.3237 5.7059 16.3237C5.9279 16.7687 6.2079 17.1097 6.5499 17.4447C6.6619 17.5607 6.7719 17.5607 6.9149 17.5607C7.6189 17.5607 8.2369 16.9987 8.2369 16.2137C8.2369 15.5327 7.6189 14.9707 6.9149 14.9707Z" fill="#2534A4"/>
<path fill-rule="evenodd" clip-rule="evenodd" d="M9.44662 14.1846C8.52062 14.1846 7.78662 14.9706 7.78662 15.7566C7.78662 16.7686 8.52062 17.4446 9.44662 17.4446C10.3216 17.4446 11.0816 16.7686 11.0816 15.7566C11.0816 14.9706 10.3216 14.1846 9.44662 14.1846Z" fill="#2534A4"/>
<path fill-rule="evenodd" clip-rule="evenodd" d="M11.9231 14.9707C11.2221 14.9707 10.6011 15.5327 10.6011 16.2137C10.6011 16.9987 11.2221 17.5607 11.9231 17.5607C12.0361 17.5607 12.1761 17.5607 12.2921 17.4447C12.6541 17.1097 12.9381 16.7687 13.1881 16.3237C13.1881 16.3237 13.2181 16.3237 13.2181 16.2137C13.2181 15.5327 12.6271 14.9707 11.9231 14.9707Z" fill="#2534A4"/>
<path fill-rule="evenodd" clip-rule="evenodd" d="M5.87061 16.6592C6.63161 17.6762 7.78661 18.6872 9.44661 19.4732C11.0816 18.6872 12.2036 17.6762 12.9956 16.6592H5.87061Z" fill="#2534A4"/>
</svg>
