<svg width="40" height="26" viewBox="0 0 40 26" fill="none" xmlns="http://www.w3.org/2000/svg">
<path fill-rule="evenodd" clip-rule="evenodd" d="M0 25.9999H40V23.9629H0V25.9999Z" fill="#CB001C"/>
<path fill-rule="evenodd" clip-rule="evenodd" d="M0 23.963H40V22.042H0V23.963Z" fill="white"/>
<path fill-rule="evenodd" clip-rule="evenodd" d="M0 22.042H40V20.011H0V22.042Z" fill="#CB001C"/>
<path fill-rule="evenodd" clip-rule="evenodd" d="M0 20.01H40V18.083H0V20.01Z" fill="white"/>
<path fill-rule="evenodd" clip-rule="evenodd" d="M0 18.084H40V15.937H0V18.084Z" fill="#CB001C"/>
<path fill-rule="evenodd" clip-rule="evenodd" d="M0 15.936H40V13.905H0V15.936Z" fill="white"/>
<path fill-rule="evenodd" clip-rule="evenodd" d="M0 13.9049H40V11.9839H0V13.9049Z" fill="#CB001C"/>
<path fill-rule="evenodd" clip-rule="evenodd" d="M0 11.984H40V9.94702H0V11.984Z" fill="white"/>
<path fill-rule="evenodd" clip-rule="evenodd" d="M0 9.94788H40V8.02588H0V9.94788Z" fill="#CB001C"/>
<path fill-rule="evenodd" clip-rule="evenodd" d="M0 8.02601H40V5.98901H0V8.02601Z" fill="white"/>
<path fill-rule="evenodd" clip-rule="evenodd" d="M0 5.98901H40V3.95801H0V5.98901Z" fill="#CB001C"/>
<path fill-rule="evenodd" clip-rule="evenodd" d="M0 3.95792H40V1.91992H0V3.95792Z" fill="white"/>
<path fill-rule="evenodd" clip-rule="evenodd" d="M0 1.921H40V0H0V1.921Z" fill="#CB001C"/>
<path fill-rule="evenodd" clip-rule="evenodd" d="M0 13.905H20.375V0H0V13.905Z" fill="#2A3560"/>
<path fill-rule="evenodd" clip-rule="evenodd" d="M1.80766 1.46777L1.97566 2.03077H2.56966L2.09266 2.37877L2.26066 2.82077L1.80766 2.59477L1.38866 2.82077L1.55366 2.37877L1.07666 2.03077H1.64166L1.80766 1.46777Z" fill="white"/>
<path fill-rule="evenodd" clip-rule="evenodd" d="M1.80766 3.8418L1.97566 4.4158H2.56966L2.09266 4.7528L2.26066 5.3158L1.80766 4.9738L1.38866 5.3158L1.55366 4.7528L1.07666 4.4158H1.64166L1.80766 3.8418Z" fill="white"/>
<path fill-rule="evenodd" clip-rule="evenodd" d="M1.80766 6.21582L1.97566 6.66782H2.56966L2.09266 7.01082L2.26066 7.57282L1.80766 7.23182L1.38866 7.57282L1.55366 7.01082L1.07666 6.66782H1.64166L1.80766 6.21582Z" fill="white"/>
<path fill-rule="evenodd" clip-rule="evenodd" d="M1.80766 8.47363L1.97566 9.04763H2.56966L2.09266 9.38363L2.26066 9.94763L1.80766 9.61063L1.38866 9.94763L1.55366 9.38363L1.07666 9.04763H1.64166L1.80766 8.47363Z" fill="white"/>
<path fill-rule="evenodd" clip-rule="evenodd" d="M1.80766 10.9629L1.97566 11.4159H2.56966L2.09266 11.7579L2.26066 12.3209L1.80766 11.9839L1.38866 12.3209L1.55366 11.7579L1.07666 11.4159H1.64166L1.80766 10.9629Z" fill="white"/>
<path fill-rule="evenodd" clip-rule="evenodd" d="M3.45021 2.71582L3.64621 3.27882H4.18121L3.72921 3.49982L3.90021 4.17882L3.45021 3.84182L3.02521 4.17882L3.19421 3.49982L2.74121 3.27882H3.30621L3.45021 2.71582Z" fill="white"/>
<path fill-rule="evenodd" clip-rule="evenodd" d="M3.45021 5.08398L3.64621 5.65198H4.18121L3.72921 5.98898L3.90021 6.44698L3.45021 6.21598L3.02521 6.44698L3.19421 5.98898L2.74121 5.65198H3.30621L3.45021 5.08398Z" fill="white"/>
<path fill-rule="evenodd" clip-rule="evenodd" d="M3.45021 7.46289L3.64621 8.02589H4.18121L3.72921 8.25189L3.90021 8.81589L3.45021 8.47389L3.02521 8.81589L3.19421 8.25189L2.74121 8.02589H3.30621L3.45021 7.46289Z" fill="white"/>
<path fill-rule="evenodd" clip-rule="evenodd" d="M3.45021 9.7207L3.64621 10.2837H4.18121L3.72921 10.6207L3.90021 11.1897L3.45021 10.8467L3.02521 11.1897L3.19421 10.6207L2.74121 10.2837H3.30621L3.45021 9.7207Z" fill="white"/>
<path fill-rule="evenodd" clip-rule="evenodd" d="M5.08986 1.46777L5.28586 2.03077H5.85186L5.37086 2.37877L5.53986 2.82077L5.08986 2.59477L4.66486 2.82077L4.83286 2.37877L4.38086 2.03077H4.92186L5.08986 1.46777Z" fill="white"/>
<path fill-rule="evenodd" clip-rule="evenodd" d="M5.08986 3.8418L5.28586 4.4158H5.85186L5.37086 4.7528L5.53986 5.3158L5.08986 4.9738L4.66486 5.3158L4.83286 4.7528L4.38086 4.4158H4.92186L5.08986 3.8418Z" fill="white"/>
<path fill-rule="evenodd" clip-rule="evenodd" d="M5.08986 6.21582L5.28586 6.66782H5.85186L5.37086 7.01082L5.53986 7.57282L5.08986 7.23182L4.66486 7.57282L4.83286 7.01082L4.38086 6.66782H4.92186L5.08986 6.21582Z" fill="white"/>
<path fill-rule="evenodd" clip-rule="evenodd" d="M5.08986 8.47363L5.28586 9.04763H5.85186L5.37086 9.38363L5.53986 9.94763L5.08986 9.61063L4.66486 9.94763L4.83286 9.38363L4.38086 9.04763H4.92186L5.08986 8.47363Z" fill="white"/>
<path fill-rule="evenodd" clip-rule="evenodd" d="M5.08986 10.9629L5.28586 11.4159H5.85186L5.37086 11.7579L5.53986 12.3209L5.08986 11.9839L4.66486 12.3209L4.83286 11.7579L4.38086 11.4159H4.92186L5.08986 10.9629Z" fill="white"/>
<path fill-rule="evenodd" clip-rule="evenodd" d="M6.75388 2.71582L6.92188 3.27882H7.45788L7.00788 3.49982L7.17887 4.17882L6.75388 3.84182L6.27688 4.17882L6.47188 3.49982L6.04688 3.27882H6.58288L6.75388 2.71582Z" fill="white"/>
<path fill-rule="evenodd" clip-rule="evenodd" d="M6.75388 5.08398L6.92188 5.65198H7.45788L7.00788 5.98898L7.17887 6.44698L6.75388 6.21598L6.27688 6.44698L6.47188 5.98898L6.04688 5.65198H6.58288L6.75388 5.08398Z" fill="white"/>
<path fill-rule="evenodd" clip-rule="evenodd" d="M6.75388 7.46289L6.92188 8.02589H7.45788L7.00788 8.25189L7.17887 8.81589L6.75388 8.47389L6.27688 8.81589L6.47188 8.25189L6.04688 8.02589H6.58288L6.75388 7.46289Z" fill="white"/>
<path fill-rule="evenodd" clip-rule="evenodd" d="M6.75388 9.7207L6.92188 10.2837H7.45788L7.00788 10.6207L7.17887 11.1897L6.75388 10.8467L6.27688 11.1897L6.47188 10.6207L6.04688 10.2837H6.58288L6.75388 9.7207Z" fill="white"/>
<path fill-rule="evenodd" clip-rule="evenodd" d="M8.39367 1.46777L8.53767 2.03077H9.12767L8.65067 2.37877L8.81567 2.82077L8.39367 2.59477L7.94367 2.82077L8.11267 2.37877L7.65967 2.03077H8.22567L8.39367 1.46777Z" fill="white"/>
<path fill-rule="evenodd" clip-rule="evenodd" d="M8.39367 3.8418L8.53767 4.4158H9.12767L8.65067 4.7528L8.81567 5.3158L8.39367 4.9738L7.94367 5.3158L8.11267 4.7528L7.65967 4.4158H8.22567L8.39367 3.8418Z" fill="white"/>
<path fill-rule="evenodd" clip-rule="evenodd" d="M8.39367 6.21582L8.53767 6.66782H9.12767L8.65067 7.01082L8.81567 7.57282L8.39367 7.23182L7.94367 7.57282L8.11267 7.01082L7.65967 6.66782H8.22567L8.39367 6.21582Z" fill="white"/>
<path fill-rule="evenodd" clip-rule="evenodd" d="M8.39367 8.47363L8.53767 9.04763H9.12767L8.65067 9.38363L8.81567 9.94763L8.39367 9.61063L7.94367 9.94763L8.11267 9.38363L7.65967 9.04763H8.22567L8.39367 8.47363Z" fill="white"/>
<path fill-rule="evenodd" clip-rule="evenodd" d="M8.39367 10.9629L8.53767 11.4159H9.12767L8.65067 11.7579L8.81567 12.3209L8.39367 11.9839L7.94367 12.3209L8.11267 11.7579L7.65967 11.4159H8.22567L8.39367 10.9629Z" fill="white"/>
<path fill-rule="evenodd" clip-rule="evenodd" d="M10.0327 2.71582L10.1987 3.27882H10.7397L10.2867 3.49982L10.5107 4.17882L10.0327 3.84182L9.57968 4.17882L9.74868 3.49982L9.32568 3.27882H9.86468L10.0327 2.71582Z" fill="white"/>
<path fill-rule="evenodd" clip-rule="evenodd" d="M10.0327 5.08398L10.1987 5.65198H10.7397L10.2867 5.98898L10.5107 6.44698L10.0327 6.21598L9.57968 6.44698L9.74868 5.98898L9.32568 5.65198H9.86468L10.0327 5.08398Z" fill="white"/>
<path fill-rule="evenodd" clip-rule="evenodd" d="M10.0327 7.46289L10.1987 8.02589H10.7397L10.2867 8.25189L10.5107 8.81589L10.0327 8.47389L9.57968 8.81589L9.74868 8.25189L9.32568 8.02589H9.86468L10.0327 7.46289Z" fill="white"/>
<path fill-rule="evenodd" clip-rule="evenodd" d="M10.0327 9.7207L10.1987 10.2837H10.7397L10.2867 10.6207L10.5107 11.1897L10.0327 10.8467L9.57968 11.1897L9.74868 10.6207L9.32568 10.2837H9.86468L10.0327 9.7207Z" fill="white"/>
<path fill-rule="evenodd" clip-rule="evenodd" d="M11.673 1.46777L11.814 2.03077H12.406L11.927 2.37877L12.098 2.82077L11.673 2.59477L11.251 2.82077L11.388 2.37877L10.936 2.03077H11.502L11.673 1.46777Z" fill="white"/>
<path fill-rule="evenodd" clip-rule="evenodd" d="M11.673 3.8418L11.814 4.4158H12.406L11.927 4.7528L12.098 5.3158L11.673 4.9738L11.251 5.3158L11.388 4.7528L10.936 4.4158H11.502L11.673 3.8418Z" fill="white"/>
<path fill-rule="evenodd" clip-rule="evenodd" d="M11.673 6.21582L11.814 6.66782H12.406L11.927 7.01082L12.098 7.57282L11.673 7.23182L11.251 7.57282L11.388 7.01082L10.936 6.66782H11.502L11.673 6.21582Z" fill="white"/>
<path fill-rule="evenodd" clip-rule="evenodd" d="M11.673 8.47363L11.814 9.04763H12.406L11.927 9.38363L12.098 9.94763L11.673 9.61063L11.251 9.94763L11.388 9.38363L10.936 9.04763H11.502L11.673 8.47363Z" fill="white"/>
<path fill-rule="evenodd" clip-rule="evenodd" d="M11.673 10.9629L11.814 11.4159H12.406L11.927 11.7579L12.098 12.3209L11.673 11.9839L11.251 12.3209L11.388 11.7579L10.936 11.4159H11.502L11.673 10.9629Z" fill="white"/>
<path fill-rule="evenodd" clip-rule="evenodd" d="M13.312 2.71582L13.48 3.27882H14.043L13.594 3.49982L13.737 4.17882L13.312 3.84182L12.859 4.17882L13.031 3.49982L12.605 3.27882H13.141L13.312 2.71582Z" fill="white"/>
<path fill-rule="evenodd" clip-rule="evenodd" d="M13.312 5.08398L13.48 5.65198H14.043L13.594 5.98898L13.737 6.44698L13.312 6.21598L12.859 6.44698L13.031 5.98898L12.605 5.65198H13.141L13.312 5.08398Z" fill="white"/>
<path fill-rule="evenodd" clip-rule="evenodd" d="M13.312 7.46289L13.48 8.02589H14.043L13.594 8.25189L13.737 8.81589L13.312 8.47389L12.859 8.81589L13.031 8.25189L12.605 8.02589H13.141L13.312 7.46289Z" fill="white"/>
<path fill-rule="evenodd" clip-rule="evenodd" d="M13.312 9.7207L13.48 10.2837H14.043L13.594 10.6207L13.737 11.1897L13.312 10.8467L12.859 11.1897L13.031 10.6207L12.605 10.2837H13.141L13.312 9.7207Z" fill="white"/>
<path fill-rule="evenodd" clip-rule="evenodd" d="M14.9482 1.46777L15.1192 2.03077H15.6852L15.2022 2.37877L15.3712 2.82077L14.9482 2.59477L14.5242 2.82077L14.6672 2.37877L14.2412 2.03077H14.7812L14.9482 1.46777Z" fill="white"/>
<path fill-rule="evenodd" clip-rule="evenodd" d="M14.9482 3.8418L15.1192 4.4158H15.6852L15.2022 4.7528L15.3712 5.3158L14.9482 4.9738L14.5242 5.3158L14.6672 4.7528L14.2412 4.4158H14.7812L14.9482 3.8418Z" fill="white"/>
<path fill-rule="evenodd" clip-rule="evenodd" d="M14.9482 6.21582L15.1192 6.66782H15.6852L15.2022 7.01082L15.3712 7.57282L14.9482 7.23182L14.5242 7.57282L14.6672 7.01082L14.2412 6.66782H14.7812L14.9482 6.21582Z" fill="white"/>
<path fill-rule="evenodd" clip-rule="evenodd" d="M14.9482 8.47363L15.1192 9.04763H15.6852L15.2022 9.38363L15.3712 9.94763L14.9482 9.61063L14.5242 9.94763L14.6672 9.38363L14.2412 9.04763H14.7812L14.9482 8.47363Z" fill="white"/>
<path fill-rule="evenodd" clip-rule="evenodd" d="M14.9482 10.9629L15.1192 11.4159H15.6852L15.2022 11.7579L15.3712 12.3209L14.9482 11.9839L14.5242 12.3209L14.6672 11.7579L14.2412 11.4159H14.7812L14.9482 10.9629Z" fill="white"/>
<path fill-rule="evenodd" clip-rule="evenodd" d="M16.5913 2.71582L16.7573 3.27882H17.3253L16.8693 3.49982L17.0133 4.17882L16.5913 3.84182L16.1663 4.17882L16.3063 3.49982L15.8843 3.27882H16.4203L16.5913 2.71582Z" fill="white"/>
<path fill-rule="evenodd" clip-rule="evenodd" d="M16.5913 5.08398L16.7573 5.65198H17.3253L16.8693 5.98898L17.0133 6.44698L16.5913 6.21598L16.1663 6.44698L16.3063 5.98898L15.8843 5.65198H16.4203L16.5913 5.08398Z" fill="white"/>
<path fill-rule="evenodd" clip-rule="evenodd" d="M16.5913 7.46289L16.7573 8.02589H17.3253L16.8693 8.25189L17.0133 8.81589L16.5913 8.47389L16.1663 8.81589L16.3063 8.25189L15.8843 8.02589H16.4203L16.5913 7.46289Z" fill="white"/>
<path fill-rule="evenodd" clip-rule="evenodd" d="M16.5913 9.7207L16.7573 10.2837H17.3253L16.8693 10.6207L17.0133 11.1897L16.5913 10.8467L16.1663 11.1897L16.3063 10.6207L15.8843 10.2837H16.4203L16.5913 9.7207Z" fill="white"/>
<path fill-rule="evenodd" clip-rule="evenodd" d="M18.2245 1.46777L18.3955 2.03077H19.0195L18.4815 2.37877L18.6495 2.82077L18.2245 2.59477L17.8025 2.82077L17.9715 2.37877L17.5205 2.03077H18.0585L18.2245 1.46777Z" fill="white"/>
<path fill-rule="evenodd" clip-rule="evenodd" d="M18.2245 3.8418L18.3955 4.4158H19.0195L18.4815 4.7528L18.6495 5.3158L18.2245 4.9738L17.8025 5.3158L17.9715 4.7528L17.5205 4.4158H18.0585L18.2245 3.8418Z" fill="white"/>
<path fill-rule="evenodd" clip-rule="evenodd" d="M18.2245 6.21582L18.3955 6.66782H19.0195L18.4815 7.01082L18.6495 7.57282L18.2245 7.23182L17.8025 7.57282L17.9715 7.01082L17.5205 6.66782H18.0585L18.2245 6.21582Z" fill="white"/>
<path fill-rule="evenodd" clip-rule="evenodd" d="M18.2245 8.47363L18.3955 9.04763H19.0195L18.4815 9.38363L18.6495 9.94763L18.2245 9.61063L17.8025 9.94763L17.9715 9.38363L17.5205 9.04763H18.0585L18.2245 8.47363Z" fill="white"/>
<path fill-rule="evenodd" clip-rule="evenodd" d="M18.2245 10.9629L18.3955 11.4159H19.0195L18.4815 11.7579L18.6495 12.3209L18.2245 11.9839L17.8025 12.3209L17.9715 11.7579L17.5205 11.4159H18.0585L18.2245 10.9629Z" fill="white"/>
</svg>
