<svg width="17" height="16" viewBox="0 0 17 16" fill="none" xmlns="http://www.w3.org/2000/svg">
<path d="M9.72668 14.7133C9.68419 14.7135 9.64213 14.7048 9.60322 14.6877C9.56432 14.6707 9.52944 14.6456 9.50084 14.6142C9.47224 14.5827 9.45057 14.5457 9.43722 14.5053C9.42387 14.465 9.41914 14.4223 9.42334 14.38C9.48546 12.9661 9.37351 11.5499 9.09001 10.1633C8.84755 8.7628 8.47138 7.38874 7.96668 6.06C7.94488 5.99744 7.94418 5.92945 7.96466 5.86645C7.98514 5.80344 8.02569 5.74887 8.08011 5.71108C8.13453 5.67329 8.19982 5.65436 8.26602 5.65717C8.33221 5.65999 8.39566 5.6844 8.44668 5.72667C9.24001 6.42334 10.3667 7.72667 11.25 10.0367C12.17 12.42 12.4067 13.7933 12.4667 14.37C12.4714 14.4121 12.4671 14.4547 12.4542 14.4951C12.4412 14.5354 12.4199 14.5725 12.3915 14.604C12.3632 14.6355 12.3285 14.6607 12.2897 14.6778C12.251 14.6949 12.209 14.7036 12.1667 14.7033L9.72668 14.7133Z" fill="white"/>
<path d="M9.72668 14.7133C9.68419 14.7135 9.64213 14.7048 9.60322 14.6877C9.56432 14.6707 9.52944 14.6456 9.50084 14.6142C9.47224 14.5827 9.45057 14.5457 9.43722 14.5053C9.42387 14.465 9.41914 14.4223 9.42334 14.38C9.48546 12.9661 9.37351 11.5499 9.09001 10.1633C8.84755 8.7628 8.47138 7.38874 7.96668 6.06C7.94488 5.99744 7.94418 5.92945 7.96466 5.86645C7.98514 5.80344 8.02569 5.74887 8.08011 5.71108C8.13453 5.67329 8.19982 5.65436 8.26602 5.65717C8.33221 5.65999 8.39566 5.6844 8.44668 5.72667C9.24001 6.42334 10.3667 7.72667 11.25 10.0367C12.17 12.42 12.4067 13.7933 12.4667 14.37C12.4714 14.4121 12.4671 14.4547 12.4542 14.4951C12.4412 14.5354 12.4199 14.5725 12.3915 14.604C12.3632 14.6355 12.3285 14.6607 12.2897 14.6778C12.251 14.6949 12.209 14.7036 12.1667 14.7033L9.72668 14.7133Z" stroke="currentColor" stroke-linecap="round" stroke-linejoin="round"/>
<path d="M8.37668 5.64C8.39141 5.61592 8.3992 5.58823 8.3992 5.56C8.3992 5.53177 8.39141 5.50409 8.37668 5.48C8.07319 4.96774 7.64782 4.53841 7.1384 4.2302C6.62897 3.92198 6.05127 3.74443 5.45668 3.71333C4.87336 3.65511 4.28444 3.7305 3.73461 3.9338C3.18477 4.1371 2.68847 4.46296 2.28334 4.88667C2.26135 4.90822 2.24653 4.93602 2.24088 4.96629C2.23524 4.99656 2.23905 5.02783 2.25179 5.05586C2.26453 5.08389 2.28559 5.10732 2.3121 5.12297C2.33862 5.13862 2.36931 5.14573 2.40001 5.14333L3.29668 5.10333C3.32808 5.10248 3.35899 5.1113 3.38522 5.12858C3.41145 5.14587 3.43174 5.1708 3.44334 5.2L3.82334 6.16667C3.83753 6.20377 3.86585 6.23372 3.90209 6.24997C3.93833 6.26622 3.97954 6.26743 4.01668 6.25333L5.05668 5.84333C5.08597 5.8318 5.11816 5.82978 5.14867 5.83756C5.17918 5.84533 5.20647 5.86252 5.22668 5.88667L5.82334 6.58C5.85209 6.6087 5.89105 6.62482 5.93168 6.62482C5.9723 6.62482 6.01126 6.6087 6.04001 6.58L6.67668 6.00333C6.70367 5.98331 6.73639 5.9725 6.77001 5.9725C6.80362 5.9725 6.83634 5.98331 6.86334 6.00333L7.58334 6.49333C7.59971 6.50465 7.61816 6.5126 7.63762 6.51671C7.65709 6.52083 7.67717 6.52103 7.69672 6.51731C7.71626 6.51358 7.73487 6.50601 7.75146 6.49503C7.76805 6.48405 7.78228 6.46987 7.79334 6.45333L8.37668 5.64Z" fill="white"/>
<path d="M8.37668 5.64C8.39141 5.61592 8.3992 5.58823 8.3992 5.56C8.3992 5.53177 8.39141 5.50409 8.37668 5.48C8.07319 4.96774 7.64782 4.53841 7.1384 4.2302C6.62897 3.92198 6.05127 3.74443 5.45668 3.71333C4.87336 3.65511 4.28444 3.7305 3.73461 3.9338C3.18477 4.1371 2.68847 4.46296 2.28334 4.88667C2.26135 4.90822 2.24653 4.93602 2.24088 4.96629C2.23524 4.99656 2.23905 5.02783 2.25179 5.05586C2.26453 5.08389 2.28559 5.10732 2.3121 5.12297C2.33862 5.13862 2.36931 5.14573 2.40001 5.14333L3.29668 5.10333C3.32808 5.10248 3.35899 5.1113 3.38522 5.12858C3.41145 5.14587 3.43174 5.1708 3.44334 5.2L3.82334 6.16667C3.83753 6.20377 3.86585 6.23372 3.90209 6.24997C3.93833 6.26622 3.97954 6.26743 4.01668 6.25333L5.05668 5.84333C5.08597 5.8318 5.11816 5.82978 5.14867 5.83756C5.17918 5.84533 5.20647 5.86252 5.22668 5.88667L5.82334 6.58C5.85209 6.6087 5.89105 6.62482 5.93168 6.62482C5.9723 6.62482 6.01126 6.6087 6.04001 6.58L6.67668 6.00333C6.70367 5.98331 6.7364 5.9725 6.77001 5.9725C6.80362 5.9725 6.83634 5.98331 6.86334 6.00333L7.58334 6.49333C7.59971 6.50465 7.61816 6.5126 7.63762 6.51671C7.65709 6.52083 7.67717 6.52103 7.69672 6.51731C7.71626 6.51358 7.73487 6.50601 7.75146 6.49503C7.76805 6.48405 7.78228 6.46987 7.79334 6.45333L8.37668 5.64Z" stroke="currentColor" stroke-linecap="round" stroke-linejoin="round"/>
<path d="M7.82335 5.87667C7.79549 5.87125 7.76974 5.85804 7.74909 5.83857C7.72844 5.8191 7.71373 5.79416 7.70669 5.76667C7.60669 5.37334 7.33002 3.8 8.80669 2.22334C9.25744 1.74049 9.80869 1.36246 10.4215 1.11595C11.0343 0.86944 11.6938 0.760448 12.3534 0.79667C12.3837 0.798168 12.4129 0.808865 12.4371 0.827341C12.4612 0.845818 12.4792 0.871201 12.4886 0.900125C12.498 0.929049 12.4984 0.960148 12.4897 0.989296C12.481 1.01844 12.4637 1.04427 12.44 1.06334L11.6367 1.73C11.6121 1.75063 11.5944 1.77832 11.5861 1.80932C11.5777 1.84033 11.5791 1.87314 11.59 1.90334L12.0067 2.95C12.0142 2.96858 12.0179 2.98847 12.0176 3.0085C12.0173 3.02853 12.0129 3.04829 12.0048 3.06662C11.9968 3.08495 11.9851 3.10148 11.9705 3.11523C11.956 3.12898 11.9388 3.13967 11.92 3.14667L10.7234 3.60667C10.6939 3.61785 10.6687 3.63804 10.6513 3.66437C10.634 3.6907 10.6253 3.72183 10.6267 3.75334L10.6467 4.75334C10.6476 4.77315 10.6445 4.79294 10.6375 4.81151C10.6305 4.83008 10.6199 4.84705 10.6062 4.86138C10.5924 4.87572 10.576 4.88712 10.5577 4.8949C10.5395 4.90269 10.5199 4.90669 10.5 4.90667L9.50002 4.93C9.46713 4.93101 9.43544 4.94258 9.40963 4.96299C9.38382 4.9834 9.36526 5.01157 9.35669 5.04334L9.11335 6C9.10904 6.01886 9.10103 6.03667 9.0898 6.05242C9.07857 6.06817 9.06433 6.08154 9.04791 6.09177C9.03149 6.10199 9.01321 6.10887 8.99412 6.112C8.97503 6.11513 8.95551 6.11445 8.93669 6.11L7.82335 5.87667Z" fill="white"/>
<path d="M7.82335 5.87667C7.79549 5.87125 7.76974 5.85804 7.74909 5.83857C7.72844 5.8191 7.71373 5.79416 7.70669 5.76667C7.60669 5.37334 7.33002 3.8 8.80669 2.22334C9.25744 1.74049 9.80869 1.36246 10.4215 1.11595C11.0343 0.86944 11.6938 0.760448 12.3534 0.79667C12.3837 0.798168 12.4129 0.808865 12.4371 0.827341C12.4612 0.845818 12.4792 0.871201 12.4886 0.900125C12.498 0.929049 12.4984 0.960148 12.4897 0.989296C12.481 1.01844 12.4637 1.04427 12.44 1.06334L11.6367 1.73C11.6121 1.75063 11.5944 1.77832 11.5861 1.80932C11.5777 1.84033 11.5791 1.87314 11.59 1.90334L12.0067 2.95C12.0142 2.96858 12.0179 2.98847 12.0176 3.0085C12.0172 3.02853 12.0129 3.04829 12.0048 3.06662C11.9968 3.08495 11.9851 3.10148 11.9705 3.11523C11.956 3.12898 11.9388 3.13967 11.92 3.14667L10.7234 3.60667C10.6939 3.61785 10.6687 3.63804 10.6513 3.66437C10.634 3.6907 10.6253 3.72183 10.6267 3.75334L10.6467 4.75334C10.6476 4.77315 10.6445 4.79294 10.6375 4.81151C10.6305 4.83008 10.6199 4.84705 10.6062 4.86138C10.5924 4.87572 10.576 4.88712 10.5577 4.8949C10.5395 4.90269 10.5199 4.90669 10.5 4.90667L9.50002 4.93C9.46713 4.93101 9.43544 4.94258 9.40963 4.96299C9.38382 4.9834 9.36526 5.01157 9.35669 5.04334L9.11335 6C9.10904 6.01886 9.10103 6.03667 9.0898 6.05242C9.07857 6.06817 9.06433 6.08154 9.04791 6.09177C9.03149 6.10199 9.01321 6.10887 8.99412 6.112C8.97503 6.11513 8.95551 6.11445 8.93669 6.11L7.82335 5.87667Z" stroke="currentColor" stroke-linecap="round" stroke-linejoin="round"/>
<path d="M8.16335 5.77667C8.15626 5.74259 8.13728 5.71214 8.1098 5.69076C8.08232 5.66939 8.04813 5.65849 8.01335 5.66001C7.57335 5.66001 6.01335 5.85334 4.91335 7.66001C4.5667 8.22212 4.34764 8.85345 4.27162 9.50946C4.19559 10.1655 4.26445 10.8302 4.47335 11.4567C4.48423 11.485 4.50344 11.5093 4.52843 11.5265C4.55342 11.5436 4.58303 11.5528 4.61335 11.5528C4.64367 11.5528 4.67327 11.5436 4.69827 11.5265C4.72326 11.5093 4.74246 11.485 4.75335 11.4567L5.17668 10.5067C5.18984 10.4779 5.21175 10.454 5.23929 10.4385C5.26683 10.4229 5.29858 10.4164 5.33001 10.42L6.45001 10.5433C6.46973 10.5457 6.48972 10.544 6.5088 10.5386C6.52789 10.5331 6.5457 10.5239 6.5612 10.5115C6.57671 10.4991 6.58959 10.4837 6.59912 10.4663C6.60864 10.4489 6.61461 10.4298 6.61668 10.41L6.74335 9.13334C6.74707 9.10194 6.7602 9.0724 6.78102 9.0486C6.80185 9.0248 6.82938 9.00786 6.86001 9.00001L7.83668 8.75667C7.87528 8.74645 7.90836 8.72158 7.9289 8.68734C7.94945 8.6531 7.95582 8.6122 7.94668 8.57334L7.70001 7.57334C7.692 7.54572 7.69249 7.51632 7.7014 7.48897C7.71032 7.46163 7.72726 7.4376 7.75001 7.42001L8.35668 6.91334C8.37816 6.89547 8.39422 6.87196 8.40305 6.84546C8.41188 6.81896 8.41314 6.79052 8.40668 6.76334L8.16335 5.77667Z" fill="white"/>
<path d="M8.16335 5.77667C8.15626 5.74259 8.13728 5.71214 8.1098 5.69076C8.08232 5.66939 8.04813 5.65849 8.01335 5.66001C7.57335 5.66001 6.01335 5.85334 4.91335 7.66001C4.5667 8.22212 4.34764 8.85345 4.27162 9.50946C4.19559 10.1655 4.26445 10.8302 4.47335 11.4567C4.48423 11.485 4.50344 11.5093 4.52843 11.5265C4.55342 11.5436 4.58303 11.5528 4.61335 11.5528C4.64367 11.5528 4.67327 11.5436 4.69827 11.5265C4.72326 11.5093 4.74246 11.485 4.75335 11.4567L5.17668 10.5067C5.18984 10.4779 5.21175 10.454 5.23929 10.4385C5.26683 10.4229 5.29858 10.4164 5.33001 10.42L6.45001 10.5433C6.46973 10.5457 6.48971 10.544 6.5088 10.5386C6.52789 10.5331 6.5457 10.5239 6.5612 10.5115C6.57671 10.4991 6.58959 10.4837 6.59912 10.4663C6.60864 10.4489 6.61461 10.4298 6.61668 10.41L6.74335 9.13334C6.74707 9.10194 6.7602 9.0724 6.78102 9.0486C6.80185 9.0248 6.82938 9.00786 6.86001 9.00001L7.83668 8.75667C7.87528 8.74645 7.90836 8.72158 7.9289 8.68734C7.94945 8.6531 7.95582 8.6122 7.94668 8.57334L7.70001 7.57334C7.692 7.54572 7.69249 7.51632 7.7014 7.48897C7.71032 7.46163 7.72726 7.4376 7.75001 7.42001L8.35668 6.91334C8.37816 6.89547 8.39422 6.87196 8.40305 6.84546C8.41188 6.81896 8.41314 6.79052 8.40668 6.76334L8.16335 5.77667Z" stroke="currentColor" stroke-linecap="round" stroke-linejoin="round"/>
<path d="M7.96669 6C7.94559 5.97347 7.93411 5.94057 7.93411 5.90667C7.93411 5.87277 7.94559 5.83987 7.96669 5.81334C8.22002 5.45667 9.22669 4.26 11.3467 4.33334C12.0068 4.35541 12.6539 4.52207 13.2426 4.82157C13.8312 5.12107 14.3469 5.5461 14.7534 6.06667C14.7719 6.09052 14.7828 6.11941 14.7847 6.14957C14.7865 6.17972 14.7792 6.20973 14.7637 6.23567C14.7482 6.2616 14.7253 6.28226 14.6978 6.29493C14.6704 6.3076 14.6398 6.31169 14.61 6.30667L13.5834 6.12667C13.5517 6.12158 13.5192 6.12657 13.4905 6.14092C13.4618 6.15527 13.4383 6.17827 13.4234 6.20667L12.9067 7.20667C12.8982 7.22485 12.8861 7.24109 12.8711 7.2544C12.8561 7.26771 12.8385 7.2778 12.8195 7.28404C12.8004 7.29029 12.7803 7.29257 12.7603 7.29072C12.7403 7.28888 12.7209 7.28297 12.7034 7.27334L11.56 6.66667C11.5323 6.65194 11.5007 6.64628 11.4696 6.65046C11.4385 6.65465 11.4095 6.66848 11.3867 6.69L10.6434 7.35667C10.6146 7.38537 10.5756 7.40149 10.535 7.40149C10.4944 7.40149 10.4554 7.38537 10.4267 7.35667L9.76002 6.62667C9.73556 6.60101 9.70313 6.5844 9.66801 6.57956C9.6329 6.57471 9.59718 6.58192 9.56669 6.6L8.99669 6.95334C8.96638 6.97203 8.93051 6.9796 8.89523 6.97473C8.85995 6.96987 8.82747 6.95287 8.80335 6.92667L7.96669 6Z" fill="white"/>
<path d="M7.96669 6C7.94559 5.97347 7.93411 5.94057 7.93411 5.90667C7.93411 5.87277 7.94559 5.83987 7.96669 5.81334C8.22002 5.45667 9.22669 4.26 11.3467 4.33334C12.0068 4.35541 12.6539 4.52207 13.2426 4.82157C13.8312 5.12107 14.3469 5.5461 14.7534 6.06667C14.7719 6.09052 14.7828 6.11941 14.7847 6.14957C14.7865 6.17972 14.7792 6.20973 14.7637 6.23567C14.7482 6.2616 14.7253 6.28226 14.6978 6.29493C14.6704 6.3076 14.6398 6.31169 14.61 6.30667L13.5834 6.12667C13.5517 6.12158 13.5192 6.12657 13.4905 6.14092C13.4618 6.15527 13.4383 6.17827 13.4234 6.20667L12.9067 7.20667C12.8982 7.22485 12.8861 7.24109 12.8711 7.2544C12.8561 7.26771 12.8385 7.2778 12.8195 7.28404C12.8004 7.29029 12.7803 7.29257 12.7603 7.29072C12.7403 7.28888 12.7209 7.28297 12.7034 7.27334L11.56 6.66667C11.5323 6.65194 11.5007 6.64627 11.4696 6.65046C11.4385 6.65465 11.4095 6.66848 11.3867 6.69L10.6434 7.35667C10.6146 7.38537 10.5756 7.40149 10.535 7.40149C10.4944 7.40149 10.4554 7.38537 10.4267 7.35667L9.76002 6.62667C9.73556 6.60101 9.70313 6.5844 9.66801 6.57956C9.6329 6.57471 9.59718 6.58192 9.56669 6.6L8.99669 6.95334C8.96638 6.97203 8.93051 6.9796 8.89523 6.97473C8.85995 6.96987 8.82747 6.95287 8.80335 6.92667L7.96669 6Z" stroke="currentColor" stroke-linecap="round" stroke-linejoin="round"/>
<path d="M12.85 15.0167C12.9098 15.0147 12.9676 14.9953 13.0165 14.9608C13.0654 14.9264 13.1031 14.8784 13.1251 14.8228C13.147 14.7672 13.1522 14.7064 13.1401 14.6479C13.128 14.5893 13.099 14.5356 13.0567 14.4933C12.4834 13.7467 11.6667 12.7467 9.31669 12.7467C7.55188 12.7669 5.84459 13.3771 4.46669 14.48C4.41874 14.5198 4.38422 14.5735 4.36784 14.6336C4.35146 14.6938 4.354 14.7575 4.37513 14.8162C4.39626 14.8748 4.43494 14.9255 4.48592 14.9614C4.53689 14.9973 4.59769 15.0166 4.66002 15.0167H12.85Z" fill="white"/>
<path d="M12.85 15.0167C12.9098 15.0147 12.9676 14.9953 13.0165 14.9608C13.0654 14.9264 13.1031 14.8784 13.1251 14.8228C13.147 14.7672 13.1522 14.7064 13.1401 14.6479C13.128 14.5893 13.099 14.5356 13.0567 14.4933C12.4834 13.7467 11.6667 12.7467 9.31669 12.7467C7.55188 12.7669 5.84459 13.3771 4.46669 14.48C4.41874 14.5198 4.38422 14.5735 4.36784 14.6336C4.35146 14.6938 4.354 14.7575 4.37513 14.8162C4.39626 14.8748 4.43494 14.9255 4.48592 14.9614C4.53689 14.9973 4.59769 15.0166 4.66002 15.0167H12.85Z" stroke="currentColor" stroke-linecap="round" stroke-linejoin="round"/>
</svg>
