<svg width="16" height="16" viewBox="0 0 16 16" fill="none" xmlns="http://www.w3.org/2000/svg">
<path d="M9.47665 14.7137C9.43416 14.7139 9.3921 14.7052 9.35319 14.6881C9.31429 14.671 9.27941 14.6459 9.25081 14.6145C9.22221 14.5831 9.20054 14.546 9.18719 14.5056C9.17384 14.4653 9.16911 14.4226 9.17331 14.3803C9.23543 12.9664 9.12348 11.5502 8.83998 10.1637C8.59752 8.76313 8.22135 7.38907 7.71665 6.06033C7.69485 5.99776 7.69415 5.92978 7.71463 5.86678C7.73511 5.80377 7.77566 5.7492 7.83008 5.71141C7.8845 5.67362 7.94979 5.65469 8.01599 5.6575C8.08218 5.66031 8.14563 5.68472 8.19665 5.727C8.98998 6.42366 10.1166 7.727 11 10.037C11.92 12.4203 12.1566 13.7937 12.2166 14.3703C12.2214 14.4124 12.2171 14.4551 12.2041 14.4954C12.1912 14.5357 12.1698 14.5729 12.1415 14.6044C12.1132 14.6358 12.0785 14.661 12.0397 14.6781C12.001 14.6952 11.959 14.7039 11.9166 14.7037L9.47665 14.7137Z" fill="white"/>
<path d="M9.47665 14.7137C9.43416 14.7139 9.3921 14.7052 9.35319 14.6881C9.31429 14.671 9.27941 14.6459 9.25081 14.6145C9.22221 14.5831 9.20054 14.546 9.18719 14.5056C9.17384 14.4653 9.16911 14.4226 9.17331 14.3803C9.23543 12.9664 9.12348 11.5502 8.83998 10.1637C8.59752 8.76313 8.22135 7.38907 7.71665 6.06033C7.69485 5.99776 7.69415 5.92978 7.71463 5.86678C7.73511 5.80377 7.77566 5.7492 7.83008 5.71141C7.8845 5.67362 7.94979 5.65469 8.01599 5.6575C8.08218 5.66031 8.14563 5.68472 8.19665 5.727C8.98998 6.42366 10.1166 7.727 11 10.037C11.92 12.4203 12.1566 13.7937 12.2166 14.3703C12.2214 14.4124 12.2171 14.4551 12.2041 14.4954C12.1912 14.5357 12.1698 14.5729 12.1415 14.6044C12.1132 14.6358 12.0785 14.661 12.0397 14.6781C12.001 14.6952 11.959 14.7039 11.9166 14.7037L9.47665 14.7137Z" stroke="#DC0069" stroke-linecap="round" stroke-linejoin="round"/>
<path d="M8.12668 5.64009C8.14141 5.61601 8.1492 5.58832 8.1492 5.56009C8.1492 5.53186 8.14141 5.50418 8.12668 5.48009C7.82319 4.96783 7.39782 4.53851 6.8884 4.23029C6.37897 3.92208 5.80127 3.74453 5.20668 3.71343C4.62336 3.6552 4.03444 3.73059 3.48461 3.93389C2.93477 4.13719 2.43847 4.46306 2.03334 4.88676C2.01135 4.90831 1.99653 4.93611 1.99088 4.96638C1.98524 4.99665 1.98905 5.02792 2.00179 5.05595C2.01453 5.08398 2.03559 5.10741 2.0621 5.12306C2.08862 5.13871 2.11931 5.14582 2.15001 5.14343L3.04668 5.10343C3.07808 5.10257 3.10899 5.11139 3.13522 5.12868C3.16145 5.14597 3.18174 5.1709 3.19334 5.20009L3.57334 6.16676C3.58753 6.20386 3.61585 6.23382 3.65209 6.25006C3.68833 6.26631 3.72954 6.26752 3.76668 6.25343L4.80668 5.84343C4.83597 5.83189 4.86816 5.82987 4.89867 5.83765C4.92918 5.84543 4.95647 5.86261 4.97668 5.88676L5.57334 6.58009C5.60209 6.60879 5.64105 6.62491 5.68168 6.62491C5.7223 6.62491 5.76126 6.60879 5.79001 6.58009L6.42668 6.00343C6.45367 5.9834 6.48639 5.97259 6.52001 5.97259C6.55362 5.97259 6.58634 5.9834 6.61334 6.00343L7.33334 6.49343C7.34971 6.50474 7.36816 6.51269 7.38762 6.5168C7.40709 6.52092 7.42717 6.52112 7.44672 6.5174C7.46626 6.51367 7.48487 6.5061 7.50146 6.49512C7.51805 6.48414 7.53228 6.46996 7.54334 6.45343L8.12668 5.64009Z" fill="white"/>
<path d="M8.12668 5.64009C8.14141 5.61601 8.1492 5.58832 8.1492 5.56009C8.1492 5.53186 8.14141 5.50418 8.12668 5.48009C7.82319 4.96783 7.39782 4.53851 6.8884 4.23029C6.37897 3.92208 5.80127 3.74453 5.20668 3.71343C4.62336 3.6552 4.03444 3.73059 3.48461 3.93389C2.93477 4.13719 2.43847 4.46306 2.03334 4.88676C2.01135 4.90831 1.99653 4.93611 1.99088 4.96638C1.98524 4.99665 1.98905 5.02792 2.00179 5.05595C2.01453 5.08398 2.03559 5.10741 2.0621 5.12306C2.08862 5.13871 2.11931 5.14582 2.15001 5.14343L3.04668 5.10343C3.07808 5.10257 3.10899 5.11139 3.13522 5.12868C3.16145 5.14597 3.18174 5.1709 3.19334 5.20009L3.57334 6.16676C3.58753 6.20386 3.61585 6.23382 3.65209 6.25006C3.68833 6.26631 3.72954 6.26752 3.76668 6.25343L4.80668 5.84343C4.83597 5.83189 4.86816 5.82987 4.89867 5.83765C4.92918 5.84543 4.95647 5.86261 4.97668 5.88676L5.57334 6.58009C5.60209 6.60879 5.64105 6.62491 5.68168 6.62491C5.7223 6.62491 5.76126 6.60879 5.79001 6.58009L6.42668 6.00343C6.45367 5.9834 6.4864 5.97259 6.52001 5.97259C6.55362 5.97259 6.58634 5.9834 6.61334 6.00343L7.33334 6.49343C7.34971 6.50474 7.36816 6.51269 7.38762 6.5168C7.40709 6.52092 7.42717 6.52112 7.44672 6.5174C7.46626 6.51367 7.48487 6.5061 7.50146 6.49512C7.51805 6.48414 7.53228 6.46996 7.54334 6.45343L8.12668 5.64009Z" stroke="#DC0069" stroke-linecap="round" stroke-linejoin="round"/>
<path d="M7.57335 5.87683C7.54549 5.87141 7.51974 5.8582 7.49909 5.83873C7.47844 5.81926 7.46373 5.79432 7.45669 5.76683C7.35669 5.3735 7.08002 3.80016 8.55669 2.2235C9.00744 1.74065 9.55869 1.36262 10.1715 1.11611C10.7843 0.869601 11.4438 0.760609 12.1034 0.79683C12.1337 0.798328 12.1629 0.809025 12.1871 0.827501C12.2112 0.845978 12.2292 0.871361 12.2386 0.900285C12.248 0.92921 12.2484 0.960308 12.2397 0.989457C12.231 1.01861 12.2137 1.04443 12.19 1.0635L11.3867 1.73016C11.3621 1.75079 11.3444 1.77848 11.3361 1.80948C11.3277 1.84049 11.3291 1.8733 11.34 1.9035L11.7567 2.95016C11.7642 2.96874 11.7679 2.98863 11.7676 3.00866C11.7673 3.02869 11.7629 3.04845 11.7548 3.06678C11.7468 3.08511 11.7351 3.10164 11.7205 3.11539C11.706 3.12914 11.6888 3.13983 11.67 3.14683L10.4734 3.60683C10.4439 3.61801 10.4187 3.6382 10.4013 3.66453C10.384 3.69086 10.3753 3.72199 10.3767 3.7535L10.3967 4.7535C10.3976 4.77331 10.3945 4.7931 10.3875 4.81167C10.3805 4.83024 10.3699 4.84721 10.3562 4.86154C10.3424 4.87588 10.326 4.88728 10.3077 4.89506C10.2895 4.90285 10.2699 4.90685 10.25 4.90683L9.25002 4.93016C9.21713 4.93117 9.18544 4.94274 9.15963 4.96315C9.13382 4.98356 9.11526 5.01173 9.10669 5.0435L8.86335 6.00016C8.85904 6.01902 8.85103 6.03683 8.8398 6.05258C8.82857 6.06833 8.81433 6.0817 8.79791 6.09193C8.78149 6.10215 8.76321 6.10903 8.74412 6.11216C8.72503 6.11529 8.70551 6.11461 8.68669 6.11016L7.57335 5.87683Z" fill="white"/>
<path d="M7.57335 5.87683C7.54549 5.87141 7.51974 5.8582 7.49909 5.83873C7.47844 5.81926 7.46373 5.79432 7.45669 5.76683C7.35669 5.3735 7.08002 3.80016 8.55669 2.2235C9.00744 1.74065 9.55869 1.36262 10.1715 1.11611C10.7843 0.869601 11.4438 0.760609 12.1034 0.79683C12.1337 0.798328 12.1629 0.809025 12.1871 0.827501C12.2112 0.845978 12.2292 0.871361 12.2386 0.900285C12.248 0.92921 12.2484 0.960308 12.2397 0.989457C12.231 1.01861 12.2137 1.04443 12.19 1.0635L11.3867 1.73016C11.3621 1.75079 11.3444 1.77848 11.3361 1.80948C11.3277 1.84049 11.3291 1.8733 11.34 1.9035L11.7567 2.95016C11.7642 2.96874 11.7679 2.98863 11.7676 3.00866C11.7672 3.02869 11.7629 3.04845 11.7548 3.06678C11.7468 3.08511 11.7351 3.10164 11.7205 3.11539C11.706 3.12914 11.6888 3.13983 11.67 3.14683L10.4734 3.60683C10.4439 3.61801 10.4187 3.6382 10.4013 3.66453C10.384 3.69086 10.3753 3.72199 10.3767 3.7535L10.3967 4.7535C10.3976 4.77331 10.3945 4.7931 10.3875 4.81167C10.3805 4.83024 10.3699 4.84721 10.3562 4.86154C10.3424 4.87588 10.326 4.88728 10.3077 4.89506C10.2895 4.90285 10.2699 4.90685 10.25 4.90683L9.25002 4.93016C9.21713 4.93117 9.18544 4.94274 9.15963 4.96315C9.13382 4.98356 9.11526 5.01173 9.10669 5.0435L8.86335 6.00016C8.85904 6.01902 8.85103 6.03683 8.8398 6.05258C8.82857 6.06833 8.81433 6.0817 8.79791 6.09193C8.78149 6.10215 8.76321 6.10903 8.74412 6.11216C8.72503 6.11529 8.70551 6.11461 8.68669 6.11016L7.57335 5.87683Z" stroke="#DC0069" stroke-linecap="round" stroke-linejoin="round"/>
<path d="M7.91332 5.77696C7.90623 5.74288 7.88725 5.71243 7.85977 5.69105C7.83229 5.66968 7.7981 5.65878 7.76332 5.6603C7.32332 5.6603 5.76332 5.85363 4.66332 7.6603C4.31667 8.22241 4.09761 8.85374 4.02158 9.50975C3.94556 10.1658 4.01442 10.8305 4.22332 11.457C4.2342 11.4853 4.25341 11.5096 4.2784 11.5268C4.30339 11.5439 4.333 11.5531 4.36332 11.5531C4.39364 11.5531 4.42324 11.5439 4.44824 11.5268C4.47323 11.5096 4.49243 11.4853 4.50332 11.457L4.92665 10.507C4.9398 10.4782 4.96172 10.4543 4.98926 10.4388C5.0168 10.4232 5.04855 10.4167 5.07998 10.4203L6.19998 10.5436C6.2197 10.5459 6.23968 10.5443 6.25877 10.5389C6.27786 10.5334 6.29567 10.5242 6.31117 10.5118C6.32668 10.4994 6.33956 10.484 6.34909 10.4666C6.35861 10.4492 6.36458 10.43 6.36665 10.4103L6.49332 9.13363C6.49704 9.10223 6.51017 9.07269 6.53099 9.04889C6.55182 9.02509 6.57935 9.00815 6.60998 9.0003L7.58665 8.75696C7.62525 8.74674 7.65833 8.72187 7.67887 8.68763C7.69942 8.65339 7.70579 8.61249 7.69665 8.57363L7.44998 7.57363C7.44197 7.54601 7.44246 7.51661 7.45137 7.48926C7.46029 7.46192 7.47723 7.43789 7.49998 7.4203L8.10665 6.91363C8.12813 6.89576 8.14419 6.87225 8.15302 6.84575C8.16185 6.81925 8.16311 6.79081 8.15665 6.76363L7.91332 5.77696Z" fill="white"/>
<path d="M7.91332 5.77696C7.90623 5.74288 7.88725 5.71243 7.85977 5.69105C7.83229 5.66968 7.7981 5.65878 7.76332 5.6603C7.32332 5.6603 5.76332 5.85363 4.66332 7.6603C4.31667 8.22241 4.09761 8.85374 4.02158 9.50975C3.94556 10.1658 4.01442 10.8305 4.22332 11.457C4.2342 11.4853 4.25341 11.5096 4.2784 11.5268C4.30339 11.5439 4.333 11.5531 4.36332 11.5531C4.39364 11.5531 4.42324 11.5439 4.44824 11.5268C4.47323 11.5096 4.49243 11.4853 4.50332 11.457L4.92665 10.507C4.9398 10.4782 4.96172 10.4543 4.98926 10.4388C5.0168 10.4232 5.04855 10.4167 5.07998 10.4203L6.19998 10.5436C6.2197 10.5459 6.23968 10.5443 6.25877 10.5389C6.27786 10.5334 6.29567 10.5242 6.31117 10.5118C6.32668 10.4994 6.33956 10.484 6.34909 10.4666C6.35861 10.4492 6.36458 10.43 6.36665 10.4103L6.49332 9.13363C6.49704 9.10223 6.51017 9.07269 6.53099 9.04889C6.55182 9.02509 6.57935 9.00815 6.60998 9.0003L7.58665 8.75696C7.62525 8.74674 7.65833 8.72187 7.67887 8.68763C7.69942 8.65339 7.70579 8.61249 7.69665 8.57363L7.44998 7.57363C7.44197 7.54601 7.44246 7.51661 7.45137 7.48926C7.46029 7.46192 7.47723 7.43789 7.49998 7.4203L8.10665 6.91363C8.12813 6.89576 8.14419 6.87225 8.15302 6.84575C8.16185 6.81925 8.16311 6.79081 8.15665 6.76363L7.91332 5.77696Z" stroke="#DC0069" stroke-linecap="round" stroke-linejoin="round"/>
<path d="M7.71666 5.99997C7.69556 5.97344 7.68408 5.94054 7.68408 5.90664C7.68408 5.87274 7.69556 5.83984 7.71666 5.81331C7.96999 5.45664 8.97666 4.25997 11.0967 4.33331C11.7567 4.35538 12.4039 4.52204 12.9925 4.82154C13.5812 5.12104 14.0969 5.54607 14.5033 6.06664C14.5219 6.09049 14.5328 6.11938 14.5346 6.14953C14.5365 6.17969 14.5292 6.2097 14.5137 6.23564C14.4982 6.26157 14.4752 6.28223 14.4478 6.2949C14.4204 6.30757 14.3898 6.31166 14.36 6.30664L13.3333 6.12664C13.3016 6.12155 13.2692 6.12654 13.2404 6.14089C13.2117 6.15524 13.1883 6.17824 13.1733 6.20664L12.6567 7.20664C12.6482 7.22482 12.6361 7.24106 12.6211 7.25437C12.6061 7.26768 12.5885 7.27777 12.5694 7.28401C12.5504 7.29026 12.5302 7.29254 12.5103 7.29069C12.4903 7.28885 12.4709 7.28293 12.4533 7.27331L11.31 6.66664C11.2823 6.65191 11.2507 6.64624 11.2196 6.65043C11.1885 6.65462 11.1595 6.66845 11.1367 6.68997L10.3933 7.35664C10.3646 7.38534 10.3256 7.40146 10.285 7.40146C10.2444 7.40146 10.2054 7.38534 10.1767 7.35664L9.50999 6.62664C9.48553 6.60098 9.4531 6.58437 9.41798 6.57952C9.38287 6.57468 9.34715 6.58189 9.31666 6.59997L8.74666 6.95331C8.71635 6.972 8.68048 6.97957 8.6452 6.9747C8.60992 6.96984 8.57744 6.95284 8.55332 6.92664L7.71666 5.99997Z" fill="white"/>
<path d="M7.71666 5.99997C7.69556 5.97344 7.68408 5.94054 7.68408 5.90664C7.68408 5.87274 7.69556 5.83984 7.71666 5.81331C7.96999 5.45664 8.97666 4.25997 11.0967 4.33331C11.7567 4.35538 12.4039 4.52204 12.9925 4.82154C13.5812 5.12104 14.0969 5.54607 14.5033 6.06664C14.5219 6.09049 14.5328 6.11938 14.5346 6.14953C14.5365 6.17969 14.5292 6.2097 14.5137 6.23564C14.4982 6.26157 14.4752 6.28223 14.4478 6.2949C14.4204 6.30757 14.3898 6.31166 14.36 6.30664L13.3333 6.12664C13.3016 6.12155 13.2692 6.12654 13.2404 6.14089C13.2117 6.15524 13.1883 6.17824 13.1733 6.20664L12.6567 7.20664C12.6482 7.22482 12.6361 7.24106 12.6211 7.25437C12.6061 7.26768 12.5885 7.27777 12.5694 7.28401C12.5504 7.29026 12.5302 7.29254 12.5103 7.29069C12.4903 7.28885 12.4709 7.28293 12.4533 7.27331L11.31 6.66664C11.2823 6.65191 11.2507 6.64624 11.2196 6.65043C11.1885 6.65462 11.1595 6.66845 11.1367 6.68997L10.3933 7.35664C10.3646 7.38534 10.3256 7.40146 10.285 7.40146C10.2444 7.40146 10.2054 7.38534 10.1767 7.35664L9.50999 6.62664C9.48553 6.60098 9.4531 6.58437 9.41798 6.57953C9.38287 6.57468 9.34715 6.58189 9.31666 6.59997L8.74666 6.95331C8.71635 6.972 8.68048 6.97957 8.6452 6.9747C8.60992 6.96984 8.57744 6.95284 8.55332 6.92664L7.71666 5.99997Z" stroke="#DC0069" stroke-linecap="round" stroke-linejoin="round"/>
<path d="M12.6 15.0171C12.6598 15.0151 12.7176 14.9957 12.7665 14.9612C12.8154 14.9268 12.8531 14.8788 12.8751 14.8232C12.897 14.7676 12.9022 14.7068 12.8901 14.6483C12.878 14.5897 12.849 14.536 12.8067 14.4937C12.2334 13.7471 11.4167 12.7471 9.06669 12.7471C7.30188 12.7673 5.59459 13.3775 4.21669 14.4804C4.16874 14.5202 4.13422 14.5739 4.11784 14.634C4.10146 14.6942 4.104 14.7579 4.12513 14.8165C4.14626 14.8752 4.18494 14.9259 4.23592 14.9618C4.28689 14.9977 4.34769 15.017 4.41002 15.0171H12.6Z" fill="white"/>
<path d="M12.6 15.0171C12.6598 15.0151 12.7176 14.9957 12.7665 14.9612C12.8154 14.9268 12.8531 14.8788 12.8751 14.8232C12.897 14.7676 12.9022 14.7068 12.8901 14.6483C12.878 14.5897 12.849 14.536 12.8067 14.4937C12.2334 13.7471 11.4167 12.7471 9.06669 12.7471C7.30188 12.7673 5.59459 13.3775 4.21669 14.4804C4.16874 14.5202 4.13422 14.5739 4.11784 14.634C4.10146 14.6942 4.104 14.7579 4.12513 14.8165C4.14626 14.8752 4.18494 14.9259 4.23592 14.9618C4.28689 14.9977 4.34769 15.017 4.41002 15.0171H12.6Z" stroke="#DC0069" stroke-linecap="round" stroke-linejoin="round"/>
</svg>
