<svg width="24" height="24" viewBox="0 0 24 24" fill="none" xmlns="http://www.w3.org/2000/svg">
<path d="M14.215 22.0695C14.1513 22.0698 14.0882 22.0567 14.0298 22.0311C13.9715 22.0055 13.9191 21.9679 13.8762 21.9208C13.8334 21.8736 13.8008 21.818 13.7808 21.7575C13.7608 21.697 13.7537 21.6329 13.76 21.5695C13.8532 19.4487 13.6853 17.3244 13.26 15.2445C12.8963 13.1437 12.3321 11.0826 11.575 9.08952C11.5423 8.99567 11.5413 8.8937 11.572 8.79919C11.6027 8.70468 11.6635 8.62283 11.7452 8.56614C11.8268 8.50945 11.9247 8.48105 12.024 8.48527C12.1233 8.4895 12.2185 8.52611 12.295 8.58952C13.485 9.63452 15.175 11.5895 16.5 15.0545C17.88 18.6295 18.235 20.6895 18.325 21.5545C18.3321 21.6177 18.3257 21.6816 18.3062 21.7421C18.2868 21.8026 18.2548 21.8583 18.2123 21.9056C18.1698 21.9528 18.1177 21.9905 18.0596 22.0162C18.0015 22.0418 17.9385 22.0549 17.875 22.0545L14.215 22.0695Z" fill="white"/>
<path d="M14.215 22.0695C14.1513 22.0698 14.0882 22.0567 14.0298 22.0311C13.9715 22.0055 13.9191 21.9679 13.8762 21.9208C13.8334 21.8736 13.8008 21.818 13.7808 21.7575C13.7608 21.697 13.7537 21.6329 13.76 21.5695C13.8532 19.4487 13.6853 17.3244 13.26 15.2445C12.8963 13.1437 12.3321 11.0826 11.575 9.08952C11.5423 8.99567 11.5413 8.8937 11.572 8.79919C11.6027 8.70468 11.6635 8.62283 11.7452 8.56614C11.8268 8.50945 11.9247 8.48105 12.024 8.48527C12.1233 8.4895 12.2185 8.52611 12.295 8.58952C13.485 9.63452 15.175 11.5895 16.5 15.0545C17.88 18.6295 18.235 20.6895 18.325 21.5545C18.3321 21.6177 18.3257 21.6816 18.3062 21.7421C18.2868 21.8026 18.2548 21.8583 18.2123 21.9056C18.1698 21.9528 18.1177 21.9905 18.0596 22.0162C18.0015 22.0418 17.9385 22.0549 17.875 22.0545L14.215 22.0695Z" stroke="black" stroke-width="1.7" stroke-linecap="round" stroke-linejoin="round"/>
<path d="M12.19 8.45965C12.2121 8.42352 12.2238 8.382 12.2238 8.33965C12.2238 8.2973 12.2121 8.25578 12.19 8.21965C11.7348 7.45126 11.0967 6.80727 10.3326 6.34495C9.56844 5.88263 8.70189 5.6163 7.81 5.56965C6.93502 5.48231 6.05165 5.5954 5.22689 5.90035C4.40214 6.2053 3.65768 6.6941 3.05 7.32965C3.01701 7.36198 2.99478 7.40368 2.98631 7.44908C2.97784 7.49448 2.98355 7.54139 3.00267 7.58344C3.02178 7.62548 3.05337 7.66063 3.09314 7.6841C3.13292 7.70758 3.17895 7.71824 3.225 7.71465L4.57 7.65465C4.61711 7.65337 4.66347 7.66659 4.70282 7.69253C4.74217 7.71846 4.7726 7.75585 4.79 7.79965L5.36 9.24965C5.38128 9.3053 5.42376 9.35024 5.47812 9.37461C5.53249 9.39898 5.5943 9.40079 5.65 9.37965L7.21 8.76465C7.25395 8.74735 7.30222 8.74432 7.34799 8.75598C7.39376 8.76765 7.43469 8.79342 7.465 8.82965L8.36 9.86965C8.40312 9.9127 8.46156 9.93688 8.5225 9.93688C8.58343 9.93688 8.64188 9.9127 8.685 9.86965L9.64 9.00465C9.68049 8.97461 9.72958 8.9584 9.78 8.9584C9.83042 8.9584 9.8795 8.97461 9.92 9.00465L11 9.73965C11.0245 9.75662 11.0522 9.76854 11.0814 9.77472C11.1106 9.78089 11.1407 9.78119 11.1701 9.77561C11.1994 9.77002 11.2273 9.75867 11.2522 9.74219C11.2771 9.72572 11.2984 9.70446 11.315 9.67965L12.19 8.45965Z" fill="white"/>
<path d="M12.19 8.45965C12.2121 8.42352 12.2238 8.382 12.2238 8.33965C12.2238 8.2973 12.2121 8.25578 12.19 8.21965C11.7348 7.45126 11.0967 6.80727 10.3326 6.34495C9.56844 5.88263 8.70189 5.6163 7.81 5.56965C6.93502 5.48231 6.05165 5.5954 5.22689 5.90035C4.40214 6.2053 3.65768 6.6941 3.05 7.32965C3.01701 7.36198 2.99478 7.40368 2.98631 7.44908C2.97784 7.49448 2.98355 7.54139 3.00267 7.58344C3.02178 7.62548 3.05337 7.66063 3.09314 7.6841C3.13292 7.70758 3.17895 7.71824 3.225 7.71465L4.57 7.65465C4.61711 7.65337 4.66347 7.66659 4.70282 7.69253C4.74217 7.71846 4.7726 7.75585 4.79 7.79965L5.36 9.24965C5.38128 9.3053 5.42376 9.35024 5.47812 9.37461C5.53249 9.39898 5.5943 9.40079 5.65 9.37965L7.21 8.76465C7.25395 8.74735 7.30222 8.74432 7.34799 8.75598C7.39376 8.76765 7.43469 8.79342 7.465 8.82965L8.36 9.86965C8.40312 9.9127 8.46156 9.93688 8.5225 9.93688C8.58343 9.93688 8.64188 9.9127 8.685 9.86965L9.64 9.00465C9.68049 8.97461 9.72958 8.9584 9.78 8.9584C9.83042 8.9584 9.8795 8.97461 9.92 9.00465L11 9.73965C11.0245 9.75662 11.0522 9.76854 11.0814 9.77472C11.1106 9.78089 11.1407 9.78119 11.1701 9.77561C11.1994 9.77002 11.2273 9.75867 11.2522 9.74219C11.2771 9.72572 11.2984 9.70446 11.315 9.67965L12.19 8.45965Z" stroke="black" stroke-width="1.7" stroke-linecap="round" stroke-linejoin="round"/>
<path d="M11.36 8.81476C11.3182 8.80663 11.2796 8.78681 11.2486 8.7576C11.2176 8.7284 11.1956 8.691 11.185 8.64976C11.035 8.05976 10.62 5.69976 12.835 3.33476C13.5111 2.61048 14.338 2.04345 15.2572 1.67368C16.1765 1.30391 17.1657 1.14042 18.155 1.19476C18.2006 1.197 18.2444 1.21305 18.2806 1.24076C18.3168 1.26848 18.3438 1.30655 18.3579 1.34994C18.372 1.39333 18.3726 1.43997 18.3596 1.4837C18.3465 1.52742 18.3205 1.56615 18.285 1.59476L17.08 2.59476C17.0431 2.6257 17.0166 2.66723 17.0041 2.71374C16.9915 2.76024 16.9936 2.80947 17.01 2.85476L17.635 4.42476C17.6462 4.45262 17.6518 4.48246 17.6513 4.5125C17.6508 4.54254 17.6444 4.57219 17.6322 4.59969C17.6201 4.62718 17.6026 4.65197 17.5808 4.6726C17.5589 4.69322 17.5332 4.70925 17.505 4.71976L15.71 5.40976C15.6658 5.42653 15.628 5.45682 15.6019 5.49631C15.5759 5.53581 15.563 5.5825 15.565 5.62976L15.595 7.12976C15.5964 7.15948 15.5917 7.18917 15.5812 7.21702C15.5708 7.24488 15.5548 7.27033 15.5342 7.29183C15.5136 7.31333 15.4889 7.33043 15.4616 7.34211C15.4342 7.35378 15.4048 7.35979 15.375 7.35976L13.875 7.39476C13.8257 7.39627 13.7781 7.41362 13.7394 7.44423C13.7007 7.47485 13.6729 7.5171 13.66 7.56476L13.295 8.99976C13.2885 9.02804 13.2765 9.05476 13.2597 9.07838C13.2428 9.10201 13.2215 9.12207 13.1968 9.1374C13.1722 9.15274 13.1448 9.16305 13.1162 9.16775C13.0875 9.17244 13.0582 9.17142 13.03 9.16476L11.36 8.81476Z" fill="white"/>
<path d="M11.36 8.81476C11.3182 8.80663 11.2796 8.78681 11.2486 8.7576C11.2176 8.7284 11.1956 8.691 11.185 8.64976C11.035 8.05976 10.62 5.69976 12.835 3.33476C13.5111 2.61048 14.338 2.04345 15.2572 1.67368C16.1765 1.30391 17.1657 1.14042 18.155 1.19476C18.2006 1.197 18.2444 1.21305 18.2806 1.24076C18.3168 1.26848 18.3438 1.30655 18.3579 1.34994C18.372 1.39333 18.3726 1.43997 18.3596 1.4837C18.3465 1.52742 18.3205 1.56615 18.285 1.59476L17.08 2.59476C17.0431 2.6257 17.0166 2.66723 17.0041 2.71374C16.9915 2.76024 16.9936 2.80947 17.01 2.85476L17.635 4.42476C17.6462 4.45262 17.6518 4.48246 17.6513 4.5125C17.6508 4.54254 17.6444 4.57219 17.6322 4.59969C17.6201 4.62718 17.6026 4.65197 17.5808 4.6726C17.5589 4.69322 17.5332 4.70925 17.505 4.71976L15.71 5.40976C15.6658 5.42653 15.628 5.45682 15.6019 5.49631C15.5759 5.53581 15.563 5.5825 15.565 5.62976L15.595 7.12976C15.5964 7.15948 15.5917 7.18917 15.5812 7.21702C15.5708 7.24488 15.5548 7.27033 15.5342 7.29183C15.5136 7.31333 15.4889 7.33043 15.4616 7.34211C15.4342 7.35378 15.4048 7.35979 15.375 7.35976L13.875 7.39476C13.8257 7.39627 13.7781 7.41362 13.7394 7.44423C13.7007 7.47485 13.6729 7.5171 13.66 7.56476L13.295 8.99976C13.2885 9.02804 13.2765 9.05476 13.2597 9.07838C13.2428 9.10201 13.2215 9.12206 13.1968 9.1374C13.1722 9.15274 13.1448 9.16305 13.1162 9.16775C13.0875 9.17244 13.0582 9.17142 13.03 9.16476L11.36 8.81476Z" stroke="black" stroke-width="1.7" stroke-linecap="round" stroke-linejoin="round"/>
<path d="M11.87 8.66496C11.8594 8.61383 11.8309 8.56815 11.7897 8.53609C11.7484 8.50403 11.6972 8.48768 11.645 8.48996C10.985 8.48996 8.64499 8.77996 6.99499 11.49C6.47503 12.3331 6.14643 13.2801 6.03239 14.2641C5.91835 15.2482 6.02165 16.2452 6.33499 17.185C6.35132 17.2274 6.38012 17.2639 6.41761 17.2897C6.4551 17.3154 6.49951 17.3292 6.54499 17.3292C6.59047 17.3292 6.63488 17.3154 6.67237 17.2897C6.70986 17.2639 6.73866 17.2274 6.75499 17.185L7.38999 15.76C7.40972 15.7168 7.44259 15.681 7.4839 15.6576C7.52521 15.6343 7.57284 15.6246 7.61999 15.63L9.29999 15.815C9.32957 15.8184 9.35954 15.816 9.38817 15.8078C9.4168 15.7996 9.44352 15.7858 9.46677 15.7672C9.49003 15.7486 9.50936 15.7255 9.52364 15.6994C9.53793 15.6733 9.54689 15.6446 9.54999 15.615L9.73999 13.7C9.74557 13.6529 9.76527 13.6085 9.7965 13.5728C9.82774 13.5371 9.86904 13.5117 9.91499 13.5L11.38 13.135C11.4379 13.1196 11.4875 13.0823 11.5183 13.031C11.5491 12.9796 11.5587 12.9183 11.545 12.86L11.175 11.36C11.163 11.3185 11.1637 11.2744 11.1771 11.2334C11.1904 11.1924 11.2159 11.1563 11.25 11.13L12.16 10.37C12.1922 10.3432 12.2163 10.3079 12.2295 10.2681C12.2428 10.2284 12.2447 10.1857 12.235 10.145L11.87 8.66496Z" fill="white"/>
<path d="M11.87 8.66496C11.8594 8.61383 11.8309 8.56815 11.7897 8.53609C11.7484 8.50403 11.6972 8.48768 11.645 8.48996C10.985 8.48996 8.64499 8.77996 6.99499 11.49C6.47503 12.3331 6.14643 13.2801 6.03239 14.2641C5.91835 15.2482 6.02165 16.2452 6.33499 17.185C6.35132 17.2274 6.38012 17.2639 6.41761 17.2897C6.4551 17.3154 6.49951 17.3292 6.54499 17.3292C6.59047 17.3292 6.63488 17.3154 6.67237 17.2897C6.70986 17.2639 6.73866 17.2274 6.75499 17.185L7.38999 15.76C7.40972 15.7168 7.44259 15.681 7.4839 15.6576C7.52521 15.6343 7.57284 15.6246 7.61999 15.63L9.29999 15.815C9.32957 15.8184 9.35954 15.816 9.38817 15.8078C9.4168 15.7996 9.44352 15.7858 9.46677 15.7672C9.49003 15.7486 9.50936 15.7255 9.52364 15.6994C9.53793 15.6733 9.54689 15.6446 9.54999 15.615L9.73999 13.7C9.74557 13.6529 9.76527 13.6085 9.7965 13.5728C9.82774 13.5371 9.86904 13.5117 9.91499 13.5L11.38 13.135C11.4379 13.1196 11.4875 13.0823 11.5183 13.031C11.5491 12.9796 11.5587 12.9183 11.545 12.86L11.175 11.36C11.163 11.3185 11.1637 11.2744 11.1771 11.2334C11.1904 11.1924 11.2159 11.1563 11.25 11.13L12.16 10.37C12.1922 10.3432 12.2163 10.3079 12.2295 10.2681C12.2428 10.2284 12.2447 10.1857 12.235 10.145L11.87 8.66496Z" stroke="black" stroke-width="1.7" stroke-linecap="round" stroke-linejoin="round"/>
<path d="M11.575 8.99996C11.5433 8.96015 11.5261 8.91081 11.5261 8.85996C11.5261 8.80911 11.5433 8.75977 11.575 8.71996C11.955 8.18496 13.465 6.38996 16.645 6.49996C17.6351 6.53307 18.6059 6.78306 19.4888 7.23231C20.3717 7.68156 21.1453 8.3191 21.755 9.09996C21.7828 9.13573 21.7992 9.17907 21.8019 9.2243C21.8047 9.26953 21.7938 9.31455 21.7705 9.35345C21.7473 9.39236 21.7129 9.42334 21.6717 9.44235C21.6306 9.46135 21.5847 9.46749 21.54 9.45996L20 9.18996C19.9525 9.18233 19.9037 9.18981 19.8607 9.21133C19.8176 9.23286 19.7824 9.26736 19.76 9.30996L18.985 10.81C18.9723 10.8372 18.9541 10.8616 18.9316 10.8816C18.9091 10.9015 18.8827 10.9166 18.8541 10.926C18.8256 10.9354 18.7954 10.9388 18.7654 10.936C18.7354 10.9333 18.7064 10.9244 18.68 10.91L16.965 9.99996C16.9234 9.97787 16.876 9.96937 16.8294 9.97565C16.7827 9.98192 16.7392 10.0027 16.705 10.035L15.59 11.035C15.5469 11.078 15.4884 11.1022 15.4275 11.1022C15.3665 11.1022 15.3081 11.078 15.265 11.035L14.265 9.93996C14.2283 9.90147 14.1796 9.87655 14.127 9.86929C14.0743 9.86202 14.0207 9.87283 13.975 9.89996L13.12 10.43C13.0745 10.458 13.0207 10.4694 12.9678 10.4621C12.9149 10.4548 12.8662 10.4293 12.83 10.39L11.575 8.99996Z" fill="white"/>
<path d="M11.575 8.99996C11.5433 8.96015 11.5261 8.91081 11.5261 8.85996C11.5261 8.80911 11.5433 8.75977 11.575 8.71996C11.955 8.18496 13.465 6.38996 16.645 6.49996C17.6351 6.53307 18.6059 6.78306 19.4888 7.23231C20.3717 7.68156 21.1453 8.3191 21.755 9.09996C21.7828 9.13573 21.7992 9.17907 21.8019 9.2243C21.8047 9.26953 21.7938 9.31455 21.7705 9.35345C21.7473 9.39236 21.7129 9.42334 21.6717 9.44235C21.6306 9.46135 21.5847 9.46749 21.54 9.45996L20 9.18996C19.9525 9.18233 19.9037 9.18981 19.8607 9.21133C19.8176 9.23286 19.7824 9.26736 19.76 9.30996L18.985 10.81C18.9723 10.8372 18.9541 10.8616 18.9316 10.8816C18.9091 10.9015 18.8827 10.9166 18.8541 10.926C18.8256 10.9354 18.7954 10.9388 18.7654 10.936C18.7354 10.9333 18.7064 10.9244 18.68 10.91L16.965 9.99996C16.9234 9.97787 16.876 9.96937 16.8294 9.97565C16.7827 9.98192 16.7392 10.0027 16.705 10.035L15.59 11.035C15.5469 11.078 15.4884 11.1022 15.4275 11.1022C15.3665 11.1022 15.3081 11.078 15.265 11.035L14.265 9.93996C14.2283 9.90147 14.1796 9.87655 14.127 9.86929C14.0743 9.86202 14.0207 9.87283 13.975 9.89996L13.12 10.43C13.0745 10.458 13.0207 10.4694 12.9678 10.4621C12.9149 10.4548 12.8662 10.4293 12.83 10.39L11.575 8.99996Z" stroke="black" stroke-width="1.7" stroke-linecap="round" stroke-linejoin="round"/>
<path d="M18.9 22.5246C18.9896 22.5217 19.0764 22.4925 19.1497 22.4409C19.223 22.3892 19.2796 22.3173 19.3126 22.2338C19.3455 22.1504 19.3533 22.0592 19.3351 21.9714C19.3169 21.8836 19.2734 21.803 19.21 21.7396C18.35 20.6196 17.125 19.1196 13.6 19.1196C10.9528 19.15 8.39185 20.0653 6.325 21.7196C6.25308 21.7794 6.2013 21.8598 6.17673 21.9501C6.15216 22.0403 6.15597 22.1359 6.18767 22.2238C6.21936 22.3118 6.27738 22.3879 6.35385 22.4417C6.43031 22.4955 6.5215 22.5245 6.615 22.5246H18.9Z" fill="white"/>
<path d="M18.9 22.5246C18.9896 22.5217 19.0764 22.4925 19.1497 22.4409C19.223 22.3892 19.2796 22.3173 19.3126 22.2338C19.3455 22.1504 19.3533 22.0592 19.3351 21.9714C19.3169 21.8836 19.2734 21.803 19.21 21.7396C18.35 20.6196 17.125 19.1196 13.6 19.1196C10.9528 19.15 8.39185 20.0653 6.325 21.7196C6.25308 21.7794 6.2013 21.8598 6.17673 21.9501C6.15216 22.0403 6.15597 22.1359 6.18767 22.2238C6.21936 22.3118 6.27738 22.3879 6.35385 22.4417C6.43031 22.4955 6.5215 22.5245 6.615 22.5246H18.9Z" stroke="black" stroke-width="1.7" stroke-linecap="round" stroke-linejoin="round"/>
</svg>
