<svg width="24" height="24" viewBox="0 0 24 24" fill="none" xmlns="http://www.w3.org/2000/svg">
<path d="M10.1287 9.00028V15.7432C10.1365 16.2363 10.3378 16.7066 10.6893 17.0525C11.0407 17.3984 11.5141 17.5923 12.0072 17.5923C12.5004 17.5923 12.9737 17.3984 13.3252 17.0525C13.6766 16.7066 13.878 16.2363 13.8857 15.7432L13.8918 6.90496C13.8969 6.48353 13.8184 6.06526 13.6606 5.67442C13.5029 5.28358 13.2691 4.92794 12.9729 4.62812C12.6767 4.32829 12.3239 4.09024 11.935 3.92777C11.5461 3.7653 11.1289 3.68164 10.7074 3.68164C10.2859 3.68164 9.86863 3.7653 9.47974 3.92777C9.09084 4.09024 8.73806 4.32829 8.44185 4.62812C8.14564 4.92794 7.91189 5.28358 7.75415 5.67442C7.59641 6.06526 7.51782 6.48353 7.52293 6.90496V15.8028C7.51434 16.3961 7.62379 16.9852 7.8449 17.5359C8.06602 18.0865 8.39439 18.5877 8.81093 19.0103C9.22747 19.4329 9.72386 19.7685 10.2713 19.9976C10.8186 20.2266 11.4061 20.3446 11.9995 20.3446C12.5929 20.3446 13.1803 20.2266 13.7277 19.9976C14.2751 19.7685 14.7715 19.4329 15.1881 19.0103C15.6046 18.5877 15.933 18.0865 16.1541 17.5359C16.3752 16.9852 16.4846 16.3961 16.4761 15.8028V7.48809" stroke="currentColor" stroke-width="inherit" stroke-miterlimit="10" stroke-linecap="round"/>
</svg>
