<svg width="10" height="10" viewBox="0 0 10 10" fill="none" xmlns="http://www.w3.org/2000/svg">
<circle cx="5" cy="5" r="4.5" stroke="currentColor" stroke-dasharray="2 2"/>
<path d="M4.99989 5.01444C5.68709 5.01444 6.24417 4.45735 6.24417 3.77016C6.24417 3.08296 5.68709 2.52588 4.99989 2.52588C4.3127 2.52588 3.75562 3.08296 3.75562 3.77016C3.75562 4.45735 4.3127 5.01444 4.99989 5.01444Z" stroke="currentColor" stroke-width="0.8" stroke-linecap="round" stroke-linejoin="round"/>
<path fill-rule="evenodd" clip-rule="evenodd" d="M3.02759 6.74539C3.02726 6.65792 3.04682 6.57151 3.0848 6.49271C3.20398 6.25435 3.54008 6.12802 3.81897 6.07081C4.02011 6.02789 4.22402 5.99919 4.42919 5.985C4.80905 5.95161 5.1911 5.95161 5.57097 5.985C5.77613 5.99937 5.98004 6.02805 6.18121 6.07081C6.46009 6.12802 6.79618 6.24242 6.91537 6.49271C6.99175 6.65333 6.99175 6.83982 6.91537 7.00044C6.79618 7.25073 6.46009 7.36513 6.18121 7.41997C5.9803 7.46466 5.77631 7.49414 5.57097 7.50815C5.26181 7.53437 4.95118 7.53914 4.64134 7.52247C4.56983 7.52247 4.5007 7.52247 4.42919 7.50815C4.22463 7.49432 4.02142 7.46484 3.82136 7.41997C3.54008 7.36513 3.20637 7.25073 3.0848 7.00044C3.04701 6.92073 3.02747 6.83359 3.02759 6.74539Z" stroke="currentColor" stroke-width="0.8" stroke-linecap="round" stroke-linejoin="round"/>
</svg>
