<svg width="24" height="24" viewBox="0 0 24 24" fill="none" xmlns="http://www.w3.org/2000/svg">
	<path d="M19.3199 9.45987C19.3199 9.45987 18.7699 16.1899 18.4599 19.0319C18.3099 20.3819 17.4699 21.1719 16.0999 21.2019C13.4899 21.2419 10.8699 21.2519 8.26987 21.1919C6.95087 21.1619 6.11987 20.3519 5.97987 19.0219C5.65987 16.1519 5.11987 9.44287 5.11987 9.44287" stroke="currentColor" stroke-width="1.5" stroke-linecap="round" stroke-linejoin="round"/>
	<path d="M20.7 6.22998H3.73999" stroke="currentColor" stroke-width="1.5" stroke-linecap="round" stroke-linejoin="round"/>
	<path d="M17.4399 6.22998C16.6499 6.22998 15.9699 5.66998 15.8199 4.89998L15.5699 3.67998C15.4199 3.10998 14.9099 2.72998 14.3329 2.72998H10.0929C9.51291 2.72998 9.00291 3.10998 8.85291 3.66998L8.60291 4.87998C8.44291 5.63998 7.77291 6.19998 6.98291 6.19998" stroke="currentColor" stroke-width="1.5" stroke-linecap="round" stroke-linejoin="round"/>
</svg>
