<svg width="16" height="16" viewBox="0 0 16 16" fill="none" xmlns="http://www.w3.org/2000/svg">
<path d="M3.33333 1.3335H4.66667V3.3335H3.33333V1.3335ZM6 1.3335H7.33333V3.3335H6V1.3335ZM8.66667 1.3335H10V3.3335H8.66667V1.3335ZM12.6667 6.00016H11.3333V4.66683H2V12.0002C2 13.1028 2.89733 14.0002 4 14.0002H9.33333C10.436 14.0002 11.3333 13.1028 11.3333 12.0002H12.6667C13.402 12.0002 14 11.4022 14 10.6668V7.3335C14 6.59816 13.402 6.00016 12.6667 6.00016ZM10 12.0002C10 12.177 9.92976 12.3465 9.80474 12.4716C9.67971 12.5966 9.51014 12.6668 9.33333 12.6668H4C3.82319 12.6668 3.65362 12.5966 3.5286 12.4716C3.40357 12.3465 3.33333 12.177 3.33333 12.0002V6.00016H10V12.0002ZM11.3333 10.6668V7.3335H12.6667L12.668 10.6668H11.3333Z" fill="black"/>
</svg>
