<svg width="20" height="20" viewBox="0 0 20 20" fill="none" xmlns="http://www.w3.org/2000/svg">
<g clip-path="url(#clip0_13650_16693)">
<circle cx="10" cy="10" r="10" fill="currentColor"/>
<path d="M6.3737 9.66782C6.19025 9.46143 5.87421 9.44284 5.66782 9.6263C5.46143 9.80975 5.44284 10.1258 5.6263 10.3322L6.3737 9.66782ZM8.66667 13L8.29296 13.3322C8.38785 13.4389 8.52385 13.5 8.66667 13.5C8.80949 13.5 8.94549 13.4389 9.04037 13.3322L8.66667 13ZM14.3737 7.33218C14.5572 7.12579 14.5386 6.80975 14.3322 6.6263C14.1258 6.44284 13.8098 6.46143 13.6263 6.66782L14.3737 7.33218ZM5.6263 10.3322L8.29296 13.3322L9.04037 12.6678L6.3737 9.66782L5.6263 10.3322ZM9.04037 13.3322L14.3737 7.33218L13.6263 6.66782L8.29296 12.6678L9.04037 13.3322Z" fill="white"/>
</g>
<defs>
<clipPath id="clip0_13650_16693">
<rect width="20" height="20" fill="white"/>
</clipPath>
</defs>
</svg>
