<svg width="9" height="8" viewBox="0 0 9 8" fill="none" xmlns="http://www.w3.org/2000/svg">
<path d="M0.873705 3.66782C0.690246 3.46143 0.374209 3.44284 0.167818 3.6263C-0.0385733 3.80975 -0.0571637 4.12579 0.126295 4.33218L0.873705 3.66782ZM3.16667 7L2.79296 7.33218C2.88785 7.43893 3.02385 7.5 3.16667 7.5C3.30949 7.5 3.44549 7.43893 3.54037 7.33218L3.16667 7ZM8.8737 1.33218C9.05716 1.12579 9.03857 0.809754 8.83218 0.626295C8.62579 0.442836 8.30975 0.461427 8.1263 0.667818L8.8737 1.33218ZM0.126295 4.33218L2.79296 7.33218L3.54037 6.66782L0.873705 3.66782L0.126295 4.33218ZM3.54037 7.33218L8.8737 1.33218L8.1263 0.667818L2.79296 6.66782L3.54037 7.33218Z" fill="white"/>
</svg>
