<svg width="20" height="20" viewBox="0 0 20 20" fill="none" xmlns="http://www.w3.org/2000/svg">
<g clip-path="url(#clip0_13650_16880)">
<circle cx="10" cy="10" r="10" fill="#EEF0F4"/>
<path d="M6.64692 12.6465C6.45166 12.8417 6.45168 13.1583 6.64695 13.3536C6.84223 13.5488 7.15881 13.5488 7.35406 13.3535L6.64692 12.6465ZM13.354 7.35357C13.5493 7.15832 13.5493 6.84174 13.3541 6.64647C13.1588 6.45119 12.8422 6.45118 12.647 6.64643L13.354 7.35357ZM12.647 13.3536C12.8422 13.5488 13.1588 13.5488 13.3541 13.3535C13.5493 13.1583 13.5493 12.8417 13.354 12.6464L12.647 13.3536ZM7.35406 6.64647C7.15881 6.45119 6.84223 6.45118 6.64695 6.64643C6.45168 6.84168 6.45166 7.15826 6.64692 7.35353L7.35406 6.64647ZM7.35406 13.3535L10.3537 10.3535L9.64659 9.64647L6.64692 12.6465L7.35406 13.3535ZM10.3537 10.3536L13.354 7.35357L12.647 6.64643L9.64663 9.64643L10.3537 10.3536ZM9.64663 10.3536L12.647 13.3536L13.354 12.6464L10.3537 9.64643L9.64663 10.3536ZM10.3537 9.64647L7.35406 6.64647L6.64692 7.35353L9.64659 10.3535L10.3537 9.64647Z" fill="#BABDC6"/>
</g>
<defs>
<clipPath id="clip0_13650_16880">
<rect width="20" height="20" fill="white"/>
</clipPath>
</defs>
</svg>
