<svg width="24" height="24" viewBox="0 0 24 24" fill="none" xmlns="http://www.w3.org/2000/svg">
<mask id="mask0_588_4198" style="mask-type:alpha" maskUnits="userSpaceOnUse" x="3" y="3" width="18" height="18">
<path d="M21 4.46529L19.5384 3L12 10.5347L4.46529 3L3 4.46529L10.5384 12L3 19.5347L4.46529 21L12 13.4653L19.5384 21L21 19.5347L13.4653 12L21 4.46529Z" fill="white"/>
</mask>
<g mask="url(#mask0_588_4198)">
<path d="M21 4.46529L19.5384 3L12 10.5347L4.46529 3L3 4.46529L10.5384 12L3 19.5347L4.46529 21L12 13.4653L19.5384 21L21 19.5347L13.4653 12L21 4.46529Z" fill="black"/>
<path d="M24 0H0V24H24V0Z" fill="black"/>
</g>
</svg>
