<svg width="24" height="24" viewBox="0 0 25 24" fill="none" xmlns="http://www.w3.org/2000/svg">
<g clip-path="url(#clip0_9083_180750)">
<path d="M8.00977 15C11.8758 15 15.0098 11.866 15.0098 8C15.0098 4.13401 11.8758 1 8.00977 1C4.14377 1 1.00977 4.13401 1.00977 8C1.00977 11.866 4.14377 15 8.00977 15Z" stroke="currentColor" stroke-width="1.5" stroke-linecap="round" stroke-linejoin="round"/>
<path d="M19.5097 9.94C20.4405 10.4763 21.2353 11.2197 21.8327 12.1125C22.43 13.0053 22.8139 14.0236 22.9546 15.0885C23.0952 16.1535 22.9889 17.2365 22.6438 18.2538C22.2988 19.2711 21.7242 20.1953 20.9646 20.9549C20.205 21.7145 19.2808 22.2891 18.2635 22.6341C17.2462 22.9792 16.1632 23.0855 15.0982 22.9449C14.0333 22.8042 13.015 22.4203 12.1222 21.823C11.2294 21.2256 10.486 20.4308 9.94971 19.5" stroke="currentColor" stroke-width="1.5" stroke-linecap="round" stroke-linejoin="round"/>
<path d="M7.00977 6H8.00977V10" stroke="currentColor" stroke-width="1.5" stroke-linecap="round" stroke-linejoin="round"/>
<path d="M17.3097 14.3L18.0097 15L15.2097 17.8" stroke="currentColor" stroke-width="1.5" stroke-linecap="round" stroke-linejoin="round"/>
</g>
<defs>
<clipPath id="clip0_9083_180750">
<rect width="24" height="24" fill="white" transform="translate(0.00976562)"/>
</clipPath>
</defs>
</svg>
