<svg width="24" height="24" viewBox="0 0 24 24" fill="none" xmlns="http://www.w3.org/2000/svg">
<g clip-path="url(#clip0_1152_9481)">
<path d="M22.2872 17.71C21.7472 16.82 20.4072 16.72 19.5372 17.49C19.8972 16.23 19.0572 15.04 17.9772 15.04C16.9072 15.04 16.0702 16.2 16.4172 17.46C15.5072 16.68 14.2182 16.85 13.7022 17.69C13.0422 18.78 13.9722 20.28 15.4072 20.35C14.4552 21.06 14.3472 22.33 15.0272 23.01C15.8772 23.86 17.5072 23.42 17.9772 22.08C18.4472 23.42 20.0772 23.86 20.9272 23C21.6072 22.31 21.4972 21.05 20.5472 20.33C21.9772 20.26 22.9072 18.75 22.2472 17.66L22.2872 17.71Z" stroke="black" stroke-width="1.5" stroke-linecap="round" stroke-linejoin="round"/>
<path d="M18.0001 18.01C17.6063 18.01 17.2286 18.1665 16.9501 18.4449C16.6716 18.7234 16.5151 19.1012 16.5151 19.495C16.5151 19.8888 16.6716 20.2666 16.9501 20.5451C17.2286 20.8235 17.6063 20.98 18.0001 20.98C18.3953 20.98 18.7743 20.823 19.0537 20.5436C19.3332 20.2642 19.4901 19.8852 19.4901 19.49C19.4901 19.0948 19.3332 18.7158 19.0537 18.4364C18.7743 18.157 18.3953 18 18.0001 18V18.01Z" stroke="black" stroke-width="1.5" stroke-linecap="round" stroke-linejoin="round"/>
<path d="M13 23.5H5.5C4.396 23.5 3.5 22.6 3.5 21.5V8.5C3.5 7.39 4.39 6.5 5.5 6.5H13.5C14.6 6.5 15.5 7.39 15.5 8.5V14" stroke="black" stroke-width="1.5" stroke-linecap="round" stroke-linejoin="round"/>
<path d="M11.5 6.5L10.5 4H8.5L7.5 6.5" stroke="black" stroke-width="1.5" stroke-linecap="round" stroke-linejoin="round"/>
<path d="M9.5 0.5V4" stroke="black" stroke-width="1.5" stroke-linecap="round" stroke-linejoin="round"/>
<path d="M13.0002 0.5H6.00018L3.93018 3" stroke="black" stroke-width="1.5" stroke-linecap="round" stroke-linejoin="round"/>
</g>
<defs>
<clipPath id="clip0_1152_9481">
<rect width="24" height="24" fill="white"/>
</clipPath>
</defs>
</svg>
