<svg width="17" height="16" viewBox="0 0 17 16" fill="none" xmlns="http://www.w3.org/2000/svg">
<path d="M8.49331 2.36324L10.406 1.80847C11.1063 1.60533 11.8617 1.79946 12.3773 2.31508L13.8479 3.78562C14.3635 4.30124 14.5576 5.05663 14.3545 5.75697L13.7997 7.66964C13.7058 7.99347 13.5315 8.2883 13.2931 8.52672L7.45575 14.3641C6.6747 15.1451 5.40837 15.1451 4.62733 14.3641L1.7989 11.5356C1.01785 10.7546 1.01785 9.48825 1.7989 8.7072L7.63624 2.86986C7.87466 2.63144 8.16949 2.45717 8.49331 2.36324Z" stroke="black" stroke-linejoin="round"/>
<path d="M5.05555 11.5946C4.789 11.328 4.61854 11.0501 4.54416 10.7609C4.47184 10.4695 4.47494 10.1751 4.55345 9.87755C4.6361 9.58001 4.77454 9.28454 4.96877 8.99113C4.99415 8.95359 5.02016 8.9162 5.04679 8.87896L4.51316 8.35576C4.53796 8.31444 4.56585 8.27415 4.59684 8.23489C4.62784 8.19563 4.66296 8.15637 4.70222 8.11711C4.74148 8.07785 4.78177 8.0417 4.8231 8.00864C4.86442 7.97558 4.90471 7.94768 4.94397 7.92495L5.42246 8.40995C5.50377 8.31859 5.58912 8.22821 5.67852 8.13881C5.76153 8.0558 5.84528 7.97632 5.92978 7.90037L5.44917 7.41976C5.47396 7.37843 5.50186 7.33814 5.53285 7.29888C5.56591 7.25756 5.60207 7.21727 5.64133 7.17801C5.67852 7.14082 5.71778 7.10569 5.7591 7.07263C5.80043 7.03957 5.84175 7.01064 5.88308 6.98585L6.40393 7.51681C6.44708 7.48566 6.49042 7.45538 6.53394 7.42596C6.82941 7.22966 7.12592 7.09226 7.42346 7.01374C7.72306 6.93316 8.0175 6.93006 8.30677 7.00444C8.60018 7.07883 8.88119 7.25033 9.1498 7.51894C9.34609 7.71523 9.50519 7.94665 9.6271 8.21319C9.75314 8.47974 9.82959 8.76281 9.85645 9.06242C9.77587 9.11821 9.67256 9.1616 9.54651 9.19259C9.42254 9.22152 9.30477 9.22358 9.19319 9.19879C9.16426 8.99216 9.10537 8.79071 9.01653 8.59441C8.93181 8.39812 8.81817 8.22869 8.6756 8.08612C8.38839 7.79891 8.04746 7.71213 7.65281 7.82577C7.45751 7.88334 7.24815 7.98922 7.02473 8.14342L8.12081 9.22358C8.09602 9.26491 8.06709 9.30623 8.03403 9.34756C8.00304 9.38682 7.96791 9.42607 7.92865 9.46533C7.89146 9.50253 7.8522 9.53765 7.81088 9.57071C7.77162 9.6017 7.73029 9.63063 7.6869 9.65749L6.55206 8.52266C6.47114 8.59595 6.38865 8.67462 6.30459 8.75868C6.2107 8.85257 6.12351 8.94456 6.04302 9.03465L7.18171 10.1627C7.15898 10.2019 7.13108 10.2422 7.09802 10.2836C7.06703 10.3228 7.0319 10.3621 6.99265 10.4013C6.95545 10.4385 6.9162 10.4737 6.87487 10.5067C6.83355 10.5398 6.79222 10.5687 6.7509 10.5935L5.67437 9.50141C5.52905 9.71583 5.42816 9.91766 5.37168 10.1069C5.25597 10.4995 5.34172 10.8394 5.62893 11.1266C5.77357 11.2712 5.94506 11.3869 6.14342 11.4737C6.34385 11.5626 6.54634 11.6225 6.7509 11.6535C6.77362 11.7713 6.77053 11.8901 6.7416 12.0099C6.71474 12.1318 6.67238 12.2341 6.61452 12.3167C6.31905 12.2899 6.03598 12.2134 5.7653 12.0874C5.49462 11.9613 5.25804 11.7971 5.05555 11.5946Z" fill="black"/>
<circle cx="11.6987" cy="4.46451" r="0.75" transform="rotate(45 11.6987 4.46451)" stroke="black" stroke-width="0.5"/>
</svg>
