<svg width="24" height="24" viewBox="0 0 24 24" fill="none" xmlns="http://www.w3.org/2000/svg">
<mask id="mask0_1878_10653" style="mask-type:alpha" maskUnits="userSpaceOnUse" x="0" y="0" width="24" height="24">
<path d="M0 14.5763C0.0047032 13.7189 0.340611 12.8966 0.9375 12.2812L12.2812 0.9375C12.8966 0.340611 13.7189 0.0047032 14.5763 0C15.419 0.010845 16.2251 0.346702 16.8263 0.9375L0.9375 16.8263C0.346702 16.2251 0.010845 15.419 0 14.5763ZM2.67 18.5625L18.5138 2.67L23.0625 7.17C23.6603 7.78633 23.9963 8.61015 24 9.46875C23.9892 10.3115 23.6533 11.1176 23.0625 11.7188L11.7188 23.0625C11.1176 23.6533 10.3115 23.9892 9.46875 24C8.61145 23.9953 7.78915 23.6594 7.17375 23.0625L2.67 18.5625Z" fill="white"/>
</mask>
<g mask="url(#mask0_1878_10653)">
<path d="M24 0H0V24H24V0Z" fill="black"/>
</g>
</svg>
