<svg width="10" height="10" viewBox="0 0 10 10" fill="none" xmlns="http://www.w3.org/2000/svg">
<circle cx="5" cy="5" r="4.5" fill="#F5F5F5" stroke="black" stroke-dasharray="2 2"/>
<g clip-path="url(#clip0_4398_32186)">
<mask id="mask0_4398_32186" style="mask-type:alpha" maskUnits="userSpaceOnUse" x="2" y="2" width="6" height="6">
<path d="M6.55199 5.41407C7.07347 5.75265 7.5 6.40567 7.5 7.48132H7.05869C7.05869 6.64617 6.75514 6.02195 6.24066 5.73552C6.35558 5.63976 6.45995 5.532 6.55199 5.41407ZM3.44801 5.41407C3.54005 5.532 3.64442 5.63976 3.75934 5.73552C3.24486 6.02195 2.94131 6.64617 2.94131 7.48132H2.5C2.5 6.40567 2.92653 5.75265 3.44801 5.41407ZM5 2.5C5.80791 2.5 6.46949 3.2075 6.46949 4.0769C6.46949 4.9463 5.80791 5.65302 5 5.65302C4.19209 5.65302 3.5344 4.94552 3.5344 4.0769C3.5344 3.20828 4.19209 2.5 5 2.5ZM5 2.94131C4.43493 2.94131 3.97883 3.45034 3.97883 4.0769C3.97883 4.70346 4.43882 5.21171 5.00389 5.21171C5.56896 5.21171 6.02506 4.70268 6.02506 4.0769C6.02506 3.45112 5.56507 2.94131 5 2.94131Z" fill="white"/>
</mask>
<g mask="url(#mask0_4398_32186)">
<path d="M6.55199 5.41407C7.07347 5.75265 7.5 6.40567 7.5 7.48132H7.05869C7.05869 6.64617 6.75514 6.02195 6.24066 5.73552C6.35558 5.63976 6.45995 5.532 6.55199 5.41407ZM3.44801 5.41407C3.54005 5.532 3.64442 5.63976 3.75934 5.73552C3.24486 6.02195 2.94131 6.64617 2.94131 7.48132H2.5C2.5 6.40567 2.92653 5.75265 3.44801 5.41407ZM5 2.5C5.80791 2.5 6.46949 3.2075 6.46949 4.0769C6.46949 4.9463 5.80791 5.65302 5 5.65302C4.19209 5.65302 3.5344 4.94552 3.5344 4.0769C3.5344 3.20828 4.19209 2.5 5 2.5ZM5 2.94131C4.43493 2.94131 3.97883 3.45034 3.97883 4.0769C3.97883 4.70346 4.43882 5.21171 5.00389 5.21171C5.56896 5.21171 6.02506 4.70268 6.02506 4.0769C6.02506 3.45112 5.56507 2.94131 5 2.94131Z" fill="black"/>
<path d="M7.5 2.5H2.5V7.5H7.5V2.5Z" fill="black"/>
</g>
</g>
<defs>
<clipPath id="clip0_4398_32186">
<rect width="5" height="5" fill="white" transform="translate(2.5 2.5)"/>
</clipPath>
</defs>
</svg>
