<svg width="16" height="16" viewBox="0 0 16 16" fill="none" xmlns="http://www.w3.org/2000/svg">
	<path fill-rule="evenodd" clip-rule="evenodd" d="M10.8255 2.38623H5.18064C3.22285 2.38623 2 3.47686 2 5.48158V11.5147C2 13.5509 3.22285 14.6668 5.18064 14.6668H10.8193C12.7833 14.6668 14 13.5698 14 11.5651V5.48158C14.0061 3.47686 12.7895 2.38623 10.8255 2.38623V2.38623Z" stroke="currentColor" stroke-width="1.5" stroke-linecap="round" stroke-linejoin="round"/>
	<path d="M2.06152 6.26953H13.9442" stroke="currentColor" stroke-width="1.5" stroke-linecap="round" stroke-linejoin="round"/>
	<path d="M10.9614 8.87305H10.9668" stroke="currentColor" stroke-width="1.5" stroke-linecap="round" stroke-linejoin="round"/>
	<path d="M8.00293 8.87305H8.00835" stroke="currentColor" stroke-width="1.5" stroke-linecap="round" stroke-linejoin="round"/>
	<path d="M5.03857 8.87305H5.04398" stroke="currentColor" stroke-width="1.5" stroke-linecap="round" stroke-linejoin="round"/>
	<path d="M10.9614 11.4641H10.9668" stroke="currentColor" stroke-width="1.5" stroke-linecap="round" stroke-linejoin="round"/>
	<path d="M8.00293 11.4641H8.00835" stroke="currentColor" stroke-width="1.5" stroke-linecap="round" stroke-linejoin="round"/>
	<path d="M5.03857 11.4641H5.04398" stroke="currentColor" stroke-width="1.5" stroke-linecap="round" stroke-linejoin="round"/>
	<path d="M10.6958 1.33325V3.52711" stroke="currentColor" stroke-width="1.5" stroke-linecap="round" stroke-linejoin="round"/>
	<path d="M5.31055 1.33325V3.52711" stroke="currentColor" stroke-width="1.5" stroke-linecap="round" stroke-linejoin="round"/>
</svg>
