<svg width="16" height="16" viewBox="0 0 16 16" fill="none" xmlns="http://www.w3.org/2000/svg">
<g clip-path="url(#clip0_738_7433)">
<path d="M5.10033 9.53341C6.44422 9.53341 7.53366 8.44397 7.53366 7.10008C7.53366 5.75619 6.44422 4.66675 5.10033 4.66675C3.75643 4.66675 2.66699 5.75619 2.66699 7.10008C2.66699 8.44397 3.75643 9.53341 5.10033 9.53341Z" stroke="currentColor" stroke-linecap="round" stroke-linejoin="round"/>
<path fill-rule="evenodd" clip-rule="evenodd" d="M1.3335 12.665C1.33282 12.4425 1.37249 12.2226 1.44951 12.0221C1.6912 11.4157 2.37276 11.0943 2.9383 10.9488C3.34617 10.8396 3.75968 10.7666 4.17574 10.7305C4.94602 10.6455 5.72077 10.6455 6.49109 10.7305C6.90712 10.767 7.32061 10.84 7.72855 10.9488C8.29408 11.0943 8.97563 11.3854 9.21733 12.0221C9.37222 12.4308 9.37222 12.9052 9.21733 13.3139C8.97563 13.9507 8.29408 14.2417 7.72855 14.3812C7.32113 14.4949 6.90749 14.5699 6.49109 14.6056C5.86415 14.6723 5.23425 14.6844 4.60593 14.642C4.46093 14.642 4.32075 14.642 4.17574 14.6056C3.76091 14.5704 3.34884 14.4954 2.94313 14.3812C2.37276 14.2417 1.69604 13.9507 1.44951 13.3139C1.37289 13.1111 1.33326 12.8894 1.3335 12.665Z" stroke="currentColor" stroke-linecap="round" stroke-linejoin="round"/>
<path d="M9.3335 7.33325H14.6668V1.33325H7.3335V3.66659" stroke="currentColor" stroke-linecap="round" stroke-linejoin="round"/>
<path d="M9 5L10.5 3.5L11.8571 4.375L13 2.5" stroke="currentColor" stroke-linecap="round" stroke-linejoin="round"/>
</g>
<defs>
<clipPath id="clip0_738_7433">
<rect width="16" height="16" fill="white"/>
</clipPath>
</defs>
</svg>
