<svg width="24" height="24" viewBox="0 0 24 24" fill="none" xmlns="http://www.w3.org/2000/svg">
<path d="M7.65 14.3C9.66584 14.3 11.3 12.6658 11.3 10.65C11.3 8.63416 9.66584 7 7.65 7C5.63416 7 4 8.63416 4 10.65C4 12.6658 5.63416 14.3 7.65 14.3Z" stroke="currentColor" stroke-width="1.5" stroke-linecap="round" stroke-linejoin="round"/>
<path fill-rule="evenodd" clip-rule="evenodd" d="M2.00001 18.9974C1.99899 18.6636 2.0585 18.3338 2.17403 18.0331C2.53655 17.1235 3.55889 16.6414 4.40721 16.423C5.01902 16.2592 5.63928 16.1497 6.26336 16.0956C7.41878 15.9681 8.58091 15.9681 9.73639 16.0956C10.3604 16.1504 10.9807 16.2598 11.5926 16.423C12.4409 16.6414 13.4632 17.0779 13.8258 18.0331C14.0581 18.6461 14.0581 19.3577 13.8258 19.9707C13.4632 20.9259 12.4409 21.3624 11.5926 21.5717C10.9815 21.7423 10.361 21.8548 9.73639 21.9083C8.79598 22.0083 7.85113 22.0265 6.90865 21.9629C6.69114 21.9629 6.48088 21.9629 6.26336 21.9083C5.64111 21.8555 5.02301 21.743 4.41446 21.5717C3.55889 21.3624 2.54381 20.9259 2.17403 19.9707C2.05909 19.6665 1.99964 19.334 2.00001 18.9974Z" stroke="currentColor" stroke-width="1.5" stroke-linecap="round" stroke-linejoin="round"/>
<path d="M14 11H22V2H11V5.5" stroke="currentColor" stroke-width="1.5" stroke-linecap="round" stroke-linejoin="round"/>
<path d="M13 8L15 5.5L17 6.5L20 4" stroke="currentColor" stroke-width="1.5" stroke-linecap="round" stroke-linejoin="round"/>
</svg>
