<svg width="24" height="24" viewBox="0 0 24 24" fill="none" xmlns="http://www.w3.org/2000/svg">
	<path d="M9.75996 14.36C9.17996 13.78 8.82996 13 8.82996 12.13C8.82996 10.37 10.24 8.95996 11.99 8.95996C12.85 8.95996 13.65 9.30996 14.22 9.87996" stroke="currentColor" stroke-width="1.5" stroke-linecap="round" stroke-linejoin="round"/>
	<path d="M15.0999 12.69C14.8599 13.98 13.8499 14.99 12.5599 15.232" stroke="currentColor" stroke-width="1.5" stroke-linecap="round" stroke-linejoin="round"/>
	<path d="M6.64999 17.47C5.05999 16.22 3.70999 14.4 2.73999 12.13C3.72399 9.85001 5.06999 8.02001 6.67399 6.76001C8.25399 5.50001 10.084 4.82001 11.984 4.82001C13.884 4.82001 15.714 5.51001 17.314 6.77001" stroke="currentColor" stroke-width="1.5" stroke-linecap="round" stroke-linejoin="round"/>
	<path d="M19.44 8.98999C20.12 9.89999 20.73 10.95 21.24 12.13C19.27 16.68 15.79 19.43 11.99 19.43C11.12 19.43 10.27 19.29 9.44995 19.01" stroke="currentColor" stroke-width="1.5" stroke-linecap="round" stroke-linejoin="round"/>
	<path d="M19.887 4.23999L4.09998 20.01" stroke="currentColor" stroke-width="1.5" stroke-linecap="round" stroke-linejoin="round"/>
</svg>
