<svg width="17" height="17" viewBox="0 0 17 17" fill="none" xmlns="http://www.w3.org/2000/svg">
<g clip-path="url(#clip0_1149_1033)">
<path d="M12.4605 11.962C11.3203 12.8288 9.92684 13.3088 8.5 13.3355C3.83276 13.3355 1.16577 8.00153 1.16577 8.00153C1.99254 6.45468 3.13935 5.10118 4.53952 4.04105M7.09983 2.82757C7.55322 2.71422 8.02661 2.66088 8.5 2.66755C13.1672 2.66755 15.8342 8.00153 15.8342 8.00153V8.00087C15.4275 8.75429 14.9408 9.46771 14.3941 10.1278M9.91351 9.41437C9.16008 10.2211 7.89326 10.2611 7.0865 9.50772C6.27306 8.75429 6.23306 7.48747 6.98648 6.68071C7.01315 6.6407 7.04649 6.60736 7.07983 6.58069" stroke="black" stroke-linecap="round" stroke-linejoin="round"/>
<path d="M1.16568 0.666992L15.8341 15.3355" stroke="black" stroke-linecap="round" stroke-linejoin="round"/>
</g>
<defs>
<clipPath id="clip0_1149_1033">
<rect width="16.002" height="16.002" fill="white" transform="translate(0.499023)"/>
</clipPath>
</defs>
</svg>
