<svg width="24" height="24" viewBox="0 0 24 24" fill="none" xmlns="http://www.w3.org/2000/svg">
<path d="M17.94 17.9401C16.23 19.2401 14.14 19.9601 12 20.0001C5 20.0001 1 12.0001 1 12.0001C2.24 9.6801 3.96 7.6501 6.06 6.0601M9.9 4.2401C10.58 4.0701 11.29 3.9901 12 4.0001C19 4.0001 23 12.0001 23 12.0001V11.9991C22.39 13.1291 21.66 14.1991 20.84 15.1891M14.12 14.1191C12.99 15.3291 11.09 15.3891 9.88 14.2591C8.66 13.1291 8.6 11.2291 9.73 10.0191C9.77 9.9591 9.82 9.9091 9.87 9.8691" stroke="currentColor" stroke-width="1.5" stroke-linecap="round" stroke-linejoin="round"/>
<path d="M1 1L23 23" stroke="currentColor" stroke-width="1.5" stroke-linecap="round" stroke-linejoin="round"/>
</svg>
