<svg width="16" height="16" viewBox="0 0 16 16" fill="none" xmlns="http://www.w3.org/2000/svg">
<path d="M6.10477 13.8473V11.8028C6.10476 11.2827 6.52871 10.8602 7.05396 10.8567H8.97803C9.50576 10.8567 9.93363 11.2803 9.93363 11.8028V13.8536C9.93349 14.2951 10.2895 14.656 10.7353 14.6663H12.018C13.2967 14.6663 14.3333 13.6401 14.3333 12.3742V6.55823C14.3265 6.06023 14.0903 5.59257 13.692 5.28836L9.30509 1.78987C8.53656 1.18072 7.44409 1.18072 6.67556 1.78987L2.30798 5.29471C1.90813 5.59769 1.67155 6.06612 1.66663 6.56458V12.3742C1.66663 13.6401 2.70321 14.6663 3.9819 14.6663H5.2646C5.72153 14.6663 6.09194 14.2996 6.09194 13.8473" stroke="#404040" stroke-linecap="round" stroke-linejoin="round"/>
</svg>
