<svg width="24" height="24" viewBox="0 0 24 24" fill="none" xmlns="http://www.w3.org/2000/svg">
	<path d="M14.5 2H6C5.46957 2 4.96086 2.21071 4.58579 2.58579C4.21071 2.96086 4 3.46957 4 4V20C4 20.5304 4.21071 21.0391 4.58579 21.4142C4.96086 21.7893 5.46957 22 6 22H18C18.5304 22 19.0391 21.7893 19.4142 21.4142C19.7893 21.0391 20 20.5304 20 20V5L14.5 2Z" stroke="currentColor" stroke-linecap="round" stroke-linejoin="round"/>
	<path d="M14 2L15.5 5.5H19.5" stroke="currentColor" stroke-linecap="round" stroke-linejoin="round"/>
	<path d="M9 17.04H9.682V19.932H9V17.04Z" fill="currentColor"/>
	<path d="M11.5054 17C11.7294 17 11.9288 17.0447 12.1034 17.134C12.2794 17.222 12.4214 17.344 12.5294 17.5C12.6374 17.6547 12.7021 17.8313 12.7234 18.03H12.0094C11.9934 17.934 11.9628 17.8507 11.9174 17.78C11.8734 17.708 11.8148 17.652 11.7414 17.612C11.6694 17.572 11.5834 17.552 11.4834 17.552C11.3674 17.552 11.2661 17.5813 11.1794 17.64C11.0928 17.6973 11.0254 17.7933 10.9774 17.928C10.9308 18.0613 10.9074 18.24 10.9074 18.464C10.9074 18.8053 10.9594 19.05 11.0634 19.198C11.1688 19.346 11.3088 19.42 11.4834 19.42C11.5834 19.42 11.6694 19.396 11.7414 19.348C11.8148 19.3 11.8734 19.236 11.9174 19.156C11.9628 19.0747 11.9934 18.9867 12.0094 18.892H12.7234C12.7048 19.0347 12.6708 19.1713 12.6214 19.302C12.5734 19.4313 12.5034 19.5467 12.4114 19.648C12.3194 19.7493 12.1994 19.8287 12.0514 19.886C11.9048 19.9433 11.7228 19.972 11.5054 19.972C11.2308 19.972 10.9928 19.908 10.7914 19.78C10.5901 19.6507 10.4341 19.472 10.3234 19.244C10.2128 19.016 10.1574 18.7527 10.1574 18.454C10.1574 18.1567 10.2121 17.8993 10.3214 17.682C10.4308 17.4647 10.5861 17.2967 10.7874 17.178C10.9901 17.0593 11.2294 17 11.5054 17Z" fill="currentColor"/>
	<path d="M14.3352 19.972C14.1886 19.972 14.0439 19.954 13.9012 19.918C13.7599 19.8807 13.6306 19.8253 13.5132 19.752C13.3959 19.6773 13.2986 19.584 13.2212 19.472C13.1452 19.36 13.1006 19.2287 13.0872 19.078H13.7832C13.8006 19.1567 13.8339 19.2233 13.8832 19.278C13.9326 19.3313 13.9952 19.3727 14.0712 19.402C14.1486 19.43 14.2352 19.444 14.3312 19.444C14.4246 19.444 14.5112 19.4333 14.5912 19.412C14.6712 19.3907 14.7352 19.3573 14.7832 19.312C14.8326 19.2667 14.8572 19.206 14.8572 19.13C14.8572 19.0647 14.8346 19.0127 14.7892 18.974C14.7452 18.934 14.6866 18.9027 14.6132 18.88C14.5399 18.856 14.4606 18.836 14.3752 18.82L13.9032 18.73C13.6832 18.6913 13.5072 18.6033 13.3752 18.466C13.2432 18.3287 13.1752 18.1427 13.1712 17.908C13.1686 17.72 13.2186 17.5587 13.3212 17.424C13.4252 17.288 13.5646 17.184 13.7392 17.112C13.9139 17.04 14.1079 17.004 14.3212 17.004C14.5772 17.004 14.7932 17.0427 14.9692 17.12C15.1466 17.1973 15.2812 17.304 15.3732 17.44C15.4652 17.5747 15.5126 17.7273 15.5152 17.898H14.8372C14.8279 17.81 14.8012 17.7393 14.7572 17.686C14.7132 17.6327 14.6552 17.5947 14.5832 17.572C14.5126 17.548 14.4299 17.536 14.3352 17.536C14.2579 17.536 14.1912 17.544 14.1352 17.56C14.0792 17.5747 14.0326 17.5953 13.9952 17.622C13.9579 17.6487 13.9299 17.68 13.9112 17.716C13.8939 17.7507 13.8852 17.7873 13.8852 17.826C13.8852 17.9007 13.9092 17.9613 13.9572 18.008C14.0066 18.0533 14.1006 18.0907 14.2392 18.12L14.7092 18.208C14.9012 18.2427 15.0526 18.296 15.1632 18.368C15.2739 18.44 15.3566 18.5213 15.4112 18.612C15.4659 18.7013 15.5006 18.7913 15.5152 18.882C15.5312 18.9727 15.5392 19.0553 15.5392 19.13C15.5392 19.2887 15.4872 19.432 15.3832 19.56C15.2806 19.688 15.1386 19.7887 14.9572 19.862C14.7772 19.9353 14.5699 19.972 14.3352 19.972Z" fill="currentColor"/>
	<g clip-path="url(#clip0_12912_207762)">
		<path d="M14.3333 8.6665H9.66667C9.29848 8.6665 9 8.96498 9 9.33317V13.9998C9 14.368 9.29848 14.6665 9.66667 14.6665H14.3333C14.7015 14.6665 15 14.368 15 13.9998V9.33317C15 8.96498 14.7015 8.6665 14.3333 8.6665Z" stroke="currentColor" stroke-linecap="round" stroke-linejoin="round"/>
		<path d="M13.334 8V9.33333" stroke="currentColor" stroke-width="0.8" stroke-linecap="round" stroke-linejoin="round"/>
		<path d="M10.666 8V9.33333" stroke="currentColor" stroke-width="0.8" stroke-linecap="round" stroke-linejoin="round"/>
		<path d="M9 10.6665H15" stroke="currentColor" stroke-width="0.8" stroke-linecap="round" stroke-linejoin="round"/>
		<circle cx="10.4" cy="12.4" r="0.4" fill="currentColor"/>
		<circle cx="11.4" cy="12.4" r="0.4" fill="currentColor"/>
		<circle cx="12.4" cy="12.4" r="0.4" fill="currentColor"/>
		<circle cx="13.4" cy="12.4" r="0.4" fill="currentColor"/>
		<circle cx="13.4" cy="13.4" r="0.4" fill="currentColor"/>
		<circle cx="12.4" cy="13.4" r="0.4" fill="currentColor"/>
		<circle cx="11.4" cy="13.4" r="0.4" fill="currentColor"/>
		<circle cx="10.4" cy="13.4" r="0.4" fill="currentColor"/>
	</g>
	<defs>
		<clipPath id="clip0_12912_207762">
			<rect width="8" height="8" fill="white" transform="translate(8 7)"/>
		</clipPath>
	</defs>
</svg>
