<svg width="24" height="24" viewBox="0 0 24 24" fill="none" xmlns="http://www.w3.org/2000/svg">
	<path fill-rule="evenodd" clip-rule="evenodd" d="M14.73 2.75998H8.06998C6.00998 2.75998 4.22998 4.42898 4.22998 6.47998V17.19C4.22998 19.36 5.87998 21.1 8.05998 21.1H16.04C18.1 21.1 19.76 19.25 19.76 17.18V8.00998L14.69 2.72998L14.73 2.75998Z" stroke="currentColor" stroke-width="1.5" stroke-linecap="round" stroke-linejoin="round"/>
	<path d="M4.5 17C5.33333 16.3333 7.2 15 8 15C9.5 15 9.5 16 11 16C12.5 16 14 12.5 16 12.5C17.5 12.5 20 14.5 20 14.5" stroke="currentColor" stroke-width="1.5"/>
	<circle cx="9" cy="9" r="2" stroke="currentColor" stroke-width="1.5" stroke-linecap="round" stroke-linejoin="round"/>
	<path d="M14.4741 2.75V5.659C14.4741 7.079 15.6141 8.229 17.0341 8.229C18.3441 8.229 19.6941 8.229 19.7841 8.219" stroke="currentColor" stroke-width="1.5" stroke-linecap="round" stroke-linejoin="round"/>
</svg>
