<svg width="24" height="24" viewBox="0 0 24 24" fill="none" xmlns="http://www.w3.org/2000/svg">
<path fill-rule="evenodd" clip-rule="evenodd" d="M16.2801 1.99997H19.5401C20.8901 1.99997 21.9801 3.09997 21.9801 4.46997V7.75997C21.9801 9.11997 20.8801 10.23 19.5301 10.23H16.2601C14.9001 10.23 13.8101 9.11997 13.8101 7.74997V4.44997C13.8101 3.07997 14.9001 1.96997 16.2501 1.96997L16.2801 1.99997Z" stroke="currentColor" stroke-width="1.5" stroke-linecap="round" stroke-linejoin="round"/>
<path fill-rule="evenodd" clip-rule="evenodd" d="M4.44021 1.99997H7.70021C9.05021 1.99997 10.1402 3.09997 10.1402 4.46997V7.75997C10.1402 9.11997 9.04022 10.23 7.69022 10.23H4.42021C3.06021 10.23 1.97021 9.11997 1.97021 7.74997V4.44997C1.97021 3.07997 3.06021 1.96997 4.41021 1.96997L4.44021 1.99997Z" stroke="currentColor" stroke-width="1.5" stroke-linecap="round" stroke-linejoin="round"/>
<path fill-rule="evenodd" clip-rule="evenodd" d="M4.44021 13.76H7.70021C9.05021 13.76 10.1402 14.86 10.1402 16.23V19.52C10.1402 20.88 9.04022 21.99 7.69022 21.99H4.42021C3.06021 21.99 1.97021 20.88 1.97021 19.51V16.21C1.97021 14.84 3.06021 13.73 4.41021 13.73L4.44021 13.76Z" stroke="currentColor" stroke-width="1.5" stroke-linecap="round" stroke-linejoin="round"/>
<path fill-rule="evenodd" clip-rule="evenodd" d="M16.2801 13.76H19.5401C20.8901 13.76 21.9801 14.86 21.9801 16.23V19.52C21.9801 20.88 20.8801 21.99 19.5301 21.99H16.2601C14.9001 21.99 13.8101 20.88 13.8101 19.51V16.21C13.8101 14.84 14.9001 13.73 16.2501 13.73L16.2801 13.76Z" stroke="currentColor" stroke-width="1.5" stroke-linecap="round" stroke-linejoin="round"/>
</svg>
