<svg width="16" height="16" viewBox="0 0 16 16" fill="none" xmlns="http://www.w3.org/2000/svg">
<path d="M8 1.00098C4.13438 1.00098 1 4.13535 1 8.00098C1 11.8666 4.13438 15.001 8 15.001C11.8656 15.001 15 11.8666 15 8.00098C15 4.13535 11.8656 1.00098 8 1.00098ZM8 13.8135C4.79063 13.8135 2.1875 11.2104 2.1875 8.00098C2.1875 4.7916 4.79063 2.18848 8 2.18848C11.2094 2.18848 13.8125 4.7916 13.8125 8.00098C13.8125 11.2104 11.2094 13.8135 8 13.8135Z" fill="currentColor"/>
<path d="M7.25 5.25098C7.25 5.44989 7.32902 5.64065 7.46967 5.78131C7.61032 5.92196 7.80109 6.00098 8 6.00098C8.19891 6.00098 8.38968 5.92196 8.53033 5.78131C8.67098 5.64065 8.75 5.44989 8.75 5.25098C8.75 5.05206 8.67098 4.8613 8.53033 4.72065C8.38968 4.57999 8.19891 4.50098 8 4.50098C7.80109 4.50098 7.61032 4.57999 7.46967 4.72065C7.32902 4.8613 7.25 5.05206 7.25 5.25098ZM8.375 7.00098H7.625C7.55625 7.00098 7.5 7.05723 7.5 7.12598V11.376C7.5 11.4447 7.55625 11.501 7.625 11.501H8.375C8.44375 11.501 8.5 11.4447 8.5 11.376V7.12598C8.5 7.05723 8.44375 7.00098 8.375 7.00098Z" fill="currentColor"/>
</svg>
