<svg width="24" height="24" viewBox="0 0 24 24" fill="none" xmlns="http://www.w3.org/2000/svg">
<mask id="mask0_1878_10763" style="mask-type:alpha" maskUnits="userSpaceOnUse" x="0" y="0" width="24" height="24">
<path d="M12 0C5.37258 0 0 5.37258 0 12C0 18.6274 5.37258 24 12 24C18.6274 24 24 18.6274 24 12C24 8.8174 22.7357 5.76515 20.4853 3.51472C18.2348 1.26428 15.1826 0 12 0ZM13.5 19.5H10.5V9.75H13.5V19.5ZM12 8.5725C10.9645 8.5725 10.125 7.73303 10.125 6.6975C10.125 5.66197 10.9645 4.8225 12 4.8225C13.0355 4.8225 13.875 5.66197 13.875 6.6975C13.875 7.73303 13.0355 8.5725 12 8.5725Z" fill="white"/>
</mask>
<g mask="url(#mask0_1878_10763)">
<path d="M24 0H0V24H24V0Z" fill="currentColor"/>
</g>
</svg>
