<svg width="24" height="24" viewBox="0 0 24 24" fill="none" xmlns="http://www.w3.org/2000/svg">
<path d="M19.5 7H20.3C20.3 6.78783 20.2157 6.58434 20.0657 6.43431L19.5 7ZM14.5 2L15.0657 1.43431C14.9157 1.28429 14.7122 1.2 14.5 1.2V2ZM7 3.7C6.55817 3.7 6.2 4.05817 6.2 4.5C6.2 4.94183 6.55817 5.3 7 5.3V3.7ZM12 5.3C12.4418 5.3 12.8 4.94183 12.8 4.5C12.8 4.05817 12.4418 3.7 12 3.7V5.3ZM17 20.3C17.4418 20.3 17.8 19.9418 17.8 19.5C17.8 19.0582 17.4418 18.7 17 18.7V20.3ZM12 18.7C11.5582 18.7 11.2 19.0582 11.2 19.5C11.2 19.9418 11.5582 20.3 12 20.3V18.7ZM3.7 3V21H5.3V3H3.7ZM5.5 22.8H18.5V21.2H5.5V22.8ZM20.3 21V7H18.7V21H20.3ZM20.0657 6.43431L15.0657 1.43431L13.9343 2.56569L18.9343 7.56569L20.0657 6.43431ZM14.5 1.2H5.5V2.8H14.5V1.2ZM13.7 2V6H15.3V2H13.7ZM15.5 7.8H19.5V6.2H15.5V7.8ZM7 5.3H12V3.7H7V5.3ZM8 11.55H16V9.95H8V11.55ZM16.2 11.75V14.75H17.8V11.75H16.2ZM16 14.95H8V16.55H16V14.95ZM7.8 14.75V11.75H6.2V14.75H7.8ZM17 18.7H12V20.3H17V18.7ZM16.2 14.75C16.2 14.8605 16.1105 14.95 16 14.95V16.55C16.9941 16.55 17.8 15.7441 17.8 14.75H16.2ZM16 11.55C16.1105 11.55 16.2 11.6395 16.2 11.75H17.8C17.8 10.7559 16.9941 9.95 16 9.95V11.55ZM8 9.95C7.00589 9.95 6.2 10.7559 6.2 11.75H7.8C7.8 11.6395 7.88954 11.55 8 11.55V9.95ZM18.5 22.8C19.4941 22.8 20.3 21.9941 20.3 21H18.7C18.7 21.1105 18.6105 21.2 18.5 21.2V22.8ZM3.7 21C3.7 21.9941 4.50589 22.8 5.5 22.8V21.2C5.38954 21.2 5.3 21.1105 5.3 21H3.7ZM13.7 6C13.7 6.99411 14.5059 7.8 15.5 7.8V6.2C15.3895 6.2 15.3 6.11046 15.3 6H13.7ZM8 14.95C7.88954 14.95 7.8 14.8605 7.8 14.75H6.2C6.2 15.7441 7.00589 16.55 8 16.55V14.95ZM5.3 3C5.3 2.88954 5.38954 2.8 5.5 2.8V1.2C4.50589 1.2 3.7 2.00589 3.7 3H5.3Z" fill="currentColor"/>
</svg>
