<svg width="16" height="16" viewBox="0 0 16 16" fill="none" xmlns="http://www.w3.org/2000/svg">
<path fill-rule="evenodd" clip-rule="evenodd" d="M2.82611 6.92766C2.83572 4.1006 5.13528 1.8166 7.96236 1.8262C10.7894 1.83581 13.0734 4.13538 13.0638 6.96246V7.02039C13.029 8.85806 12.0029 10.5567 10.745 11.8842C10.0255 12.6313 9.22209 13.2927 8.35076 13.8552C8.11776 14.0567 7.77216 14.0567 7.53916 13.8552C6.24016 13.0097 5.10007 11.9422 4.17104 10.7016C3.34301 9.61972 2.87289 8.30659 2.82611 6.94506V6.92766Z" stroke="currentColor" stroke-linecap="round" stroke-linejoin="round"/>
<path d="M7.94496 8.6669C8.85103 8.6669 9.58554 7.93239 9.58554 7.02632C9.58554 6.12025 8.85103 5.38574 7.94496 5.38574C7.0389 5.38574 6.30438 6.12025 6.30438 7.02632C6.30438 7.93239 7.0389 8.6669 7.94496 8.6669Z" stroke="currentColor" stroke-linecap="round" stroke-linejoin="round"/>
</svg>
