<svg width="1024" height="1024" viewBox="0 0 1024 1024" fill="none" xmlns="http://www.w3.org/2000/svg">
	<g clip-path="url(#clip0_9041_179254)">
		<rect width="1025" height="1025" fill="black"/>
		<path fill-rule="evenodd" clip-rule="evenodd" d="M741.933 657.777C664.164 676.992 616.924 637.602 593.714 612.986C579.774 598.204 567.335 580.416 552.922 560.49C507.14 497.193 396.292 343.407 396.292 343.407V657.777H281.08V154.212C358.519 135.026 406.088 174.388 429.299 199.003C443.238 213.789 455.677 231.573 470.09 251.503C515.872 314.8 626.72 468.582 626.72 468.582V154.212H741.933V657.777Z" fill="white"/>
		<path d="M224.924 853H238.049V824.113H256.389C272.971 824.113 284.455 812.805 284.455 796.281V796.164C284.455 779.582 272.971 768.449 256.389 768.449H224.924V853ZM253.107 779.523C264.533 779.523 271.096 785.676 271.096 796.223V796.34C271.096 806.945 264.533 813.098 253.107 813.098H238.049V779.523H253.107ZM295.499 853H309.268L317.061 830.148H349.639L357.374 853H371.143L340.44 768.449H326.26L295.499 853ZM333.233 782.453H333.467L346.065 819.602H320.577L333.233 782.453ZM393.378 853H406.503V820.539H424.55L441.777 853H456.894L437.968 818.547C448.105 815.09 454.374 805.949 454.374 794.465V794.348C454.374 778.469 443.476 768.449 426.191 768.449H393.378V853ZM406.503 809.758V779.465H424.55C434.628 779.465 440.839 785.09 440.839 794.465V794.582C440.839 804.191 435.038 809.758 424.902 809.758H406.503ZM500.926 853H514.051V779.758H539.891V768.449H475.027V779.758H500.926V853ZM563.473 853H576.481V790.363H576.833L620.368 853H632.438V768.449H619.43V830.969H619.079L575.602 768.449H563.473V853ZM660.943 853H714.615V841.691H674.068V815.441H712.447V804.426H674.068V779.758H714.615V768.449H660.943V853ZM740.951 853H754.076V820.539H772.123L789.35 853H804.467L785.541 818.547C795.678 815.09 801.947 805.949 801.947 794.465V794.348C801.947 778.469 791.049 768.449 773.764 768.449H740.951V853ZM754.076 809.758V779.465H772.123C782.201 779.465 788.412 785.09 788.412 794.465V794.582C788.412 804.191 782.611 809.758 772.475 809.758H754.076Z" fill="white"/>
	</g>
	<defs>
		<clipPath id="clip0_9041_179254">
			<rect width="1024" height="1024" rx="512" fill="white"/>
		</clipPath>
	</defs>
</svg>
