<svg width="32" height="32" viewBox="0 0 32 32" fill="none" xmlns="http://www.w3.org/2000/svg">
<g clip-path="url(#clip0_2755_18005)">
<path fill-rule="evenodd" clip-rule="evenodd" d="M23.1939 23.868C20.766 24.4685 19.2912 23.2375 18.5665 22.4683C18.1313 22.0064 17.743 21.4505 17.293 20.8278C15.8637 18.8498 12.4031 14.044 12.4031 14.044V23.868H8.80625V8.13163C11.2239 7.53207 12.7089 8.76211 13.4336 9.53134C13.8688 9.9934 14.2571 10.5491 14.7071 11.172C16.1364 13.15 19.597 17.9557 19.597 17.9557V8.13163H23.1939V23.868ZM16 0C7.16349 0 0 7.16338 0 16C0 24.8366 7.16349 32 16 32C24.8366 32 32.0001 24.8366 32.0001 16C32.0001 7.16338 24.8366 0 16 0Z" fill="black"/>
</g>
<defs>
<clipPath id="clip0_2755_18005">
<rect width="32" height="32" fill="white"/>
</clipPath>
</defs>
</svg>
