<svg width="20" height="20" viewBox="0 0 12 12" fill="none" xmlns="http://www.w3.org/2000/svg">
<path d="M10.5938 1.875H1.40625C1.35469 1.875 1.3125 1.91719 1.3125 1.96875V2.71875C1.3125 2.77031 1.35469 2.8125 1.40625 2.8125H10.5938C10.6453 2.8125 10.6875 2.77031 10.6875 2.71875V1.96875C10.6875 1.91719 10.6453 1.875 10.5938 1.875ZM10.5938 9.1875H1.40625C1.35469 9.1875 1.3125 9.22969 1.3125 9.28125V10.0312C1.3125 10.0828 1.35469 10.125 1.40625 10.125H10.5938C10.6453 10.125 10.6875 10.0828 10.6875 10.0312V9.28125C10.6875 9.22969 10.6453 9.1875 10.5938 9.1875ZM10.5938 5.53125H1.40625C1.35469 5.53125 1.3125 5.57344 1.3125 5.625V6.375C1.3125 6.42656 1.35469 6.46875 1.40625 6.46875H10.5938C10.6453 6.46875 10.6875 6.42656 10.6875 6.375V5.625C10.6875 5.57344 10.6453 5.53125 10.5938 5.53125Z" fill="white"/>
</svg>
