<svg width="16" height="16" viewBox="0 0 16 16" fill="none" xmlns="http://www.w3.org/2000/svg">
<path d="M13.9573 8.88067L13.4845 8.71812C13.4808 8.72891 13.4777 8.73855 13.4758 8.74438L13.4748 8.74768C13.4676 8.76269 13.4582 8.77652 13.4468 8.78871L8.78445 13.4511L8.78381 13.4518C8.76854 13.4671 8.75039 13.4792 8.73042 13.4875C8.71044 13.4958 8.68902 13.5 8.66739 13.5H8.66667H3.33333C2.87414 13.5 2.5 13.1259 2.5 12.6667V3.33333C2.5 2.87414 2.87414 2.5 3.33333 2.5H12.6667C13.1259 2.5 13.5 2.87414 13.5 3.33333V8.61417C13.4976 8.6275 13.4952 8.64312 13.4936 8.6606L13.4928 8.66909L13.4923 8.6776C13.4914 8.6919 13.4886 8.70603 13.484 8.71959L13.9573 8.88067ZM13.9573 8.88067C13.9551 8.88702 13.9531 8.89332 13.9512 8.89955C13.9465 8.91425 13.9419 8.92862 13.9353 8.94267C13.9037 9.01502 13.8595 9.08117 13.8047 9.138L13.9913 8.708C13.9878 8.76681 13.9763 8.82488 13.9573 8.88067ZM3.33333 2.83333H2.83333V3.33333V12.6667V13.1667H3.33333H8H8.5V12.6667V8.66667C8.5 8.62246 8.51756 8.58007 8.54882 8.54882C8.58007 8.51756 8.62246 8.5 8.66667 8.5H12.6667H13.1667V8V3.33333V2.83333H12.6667H3.33333ZM8.83333 11.724V12.9311L9.68689 12.0776L12.0776 9.68689L12.9311 8.83333H11.724H9.33333H8.83333V9.33333V11.724Z" fill="black" stroke="currentColor"/>
</svg>
