<svg width="24" height="24" viewBox="0 0 24 24" fill="none" xmlns="http://www.w3.org/2000/svg">
	<path d="M6.40465 3.00006C5.35469 3.00006 4.5 3.83487 4.5 4.85962V19.1404C4.5 20.1652 5.35469 21 6.40465 21H17.593C18.6429 21 19.4976 20.1652 19.4976 19.1404V7.39763C19.4976 7.39763 19.5276 7.05378 19.3747 6.71917C19.2313 6.40553 18.9976 6.18723 18.9976 6.18723C18.9971 6.18646 18.9965 6.18569 18.9959 6.18492L16.22 3.52744C16.2185 3.52593 16.217 3.52443 16.2154 3.52294C16.2154 3.52294 15.9784 3.30268 15.6271 3.15554C15.2134 2.98229 14.7871 3.00058 14.7871 3.00058L14.7934 3L6.40465 3.00006Z" fill="#FF2116"/>
	<path d="M6.40467 3.6109H14.7935C14.7956 3.61092 14.7977 3.61092 14.7998 3.6109C14.7998 3.6109 15.1353 3.61407 15.3806 3.71684C15.6168 3.81575 15.7842 3.96547 15.7853 3.96647C15.7853 3.96648 15.7865 3.96763 15.7865 3.96763L18.5554 6.6189C18.5554 6.6189 18.7222 6.7908 18.8031 6.96771C18.8684 7.1105 18.8724 7.37174 18.8724 7.37174C18.8721 7.37606 18.8719 7.38037 18.8718 7.38469V19.1405C18.8718 19.8375 18.3071 20.3892 17.593 20.3892H6.40467C5.69053 20.3892 5.12585 19.8375 5.12585 19.1405V4.85964C5.12585 4.16259 5.69053 3.61092 6.40467 3.61092V3.6109Z" fill="#F5F5F5"/>
	<path d="M8.24476 13.7171C7.81417 13.2968 8.28004 12.7193 9.54436 12.1061L10.3399 11.7202L10.6498 11.0583C10.8203 10.6943 11.0747 10.1004 11.2152 9.73846L11.4706 9.08041L11.2946 8.59342C11.0781 7.99462 11.001 7.09478 11.1383 6.77121C11.3243 6.33293 11.9335 6.3779 12.1747 6.84771C12.3631 7.21463 12.3438 7.87911 12.1205 8.71712L11.9375 9.40414L12.0987 9.67131C12.1874 9.81826 12.4465 10.1672 12.6744 10.4467L13.1028 10.9668L13.6359 10.8989C15.3294 10.6832 15.9094 11.0498 15.9094 11.5754C15.9094 12.2387 14.5797 12.2935 13.463 11.528C13.2117 11.3558 13.0392 11.1847 13.0392 11.1847C13.0392 11.1847 12.3397 11.3237 11.9952 11.4143C11.6397 11.5078 11.4623 11.5664 10.9416 11.7379C10.9416 11.7379 10.7589 11.9969 10.6398 12.1852C10.1968 12.8857 9.67958 13.4662 9.3102 13.6775C8.89663 13.914 8.46306 13.9302 8.24476 13.7171ZM8.92052 13.4815C9.16256 13.3355 9.65247 12.7699 9.99159 12.2451L10.1289 12.0325L9.50371 12.3393C8.53812 12.8132 8.09639 13.2598 8.32609 13.5299C8.45512 13.6817 8.60949 13.6691 8.92052 13.4815ZM15.1926 11.7632C15.4293 11.6013 15.3949 11.2752 15.1273 11.1437C14.919 11.0413 14.7511 11.0203 14.21 11.0281C13.8775 11.0502 13.3428 11.1156 13.2522 11.1355C13.2522 11.1355 13.5459 11.3337 13.6763 11.4065C13.8499 11.5033 14.2718 11.6829 14.5798 11.775C14.8837 11.8657 15.0594 11.8562 15.1926 11.7632V11.7632ZM12.6707 10.7401C12.5274 10.5931 12.2837 10.2863 12.1293 10.0583C11.9272 9.79967 11.8259 9.6172 11.8259 9.6172C11.8259 9.6172 11.6782 10.0808 11.557 10.3598L11.179 11.2717L11.0695 11.4786C11.0695 11.4786 11.6521 11.2921 11.9485 11.2166C12.2625 11.1365 12.8997 11.0142 12.8997 11.0142L12.6707 10.7401ZM11.8579 7.55905C11.8945 7.25972 11.91 6.96083 11.8115 6.81011C11.5382 6.51849 11.2083 6.76167 11.2641 7.45498C11.2829 7.68821 11.3423 8.08692 11.4217 8.33267L11.566 8.77947L11.6675 8.44295C11.7234 8.25786 11.8091 7.86011 11.8579 7.55905Z" fill="#FF2116"/>
	<path d="M8.97705 15.6633H9.67614C9.89952 15.6633 10.0808 15.6841 10.2201 15.7258C10.3594 15.7662 10.4766 15.8571 10.5717 15.9984C10.6669 16.1383 10.7144 16.3072 10.7144 16.5051C10.7144 16.6868 10.6758 16.8429 10.5986 16.9734C10.5214 17.104 10.4173 17.1982 10.2863 17.256C10.1567 17.3139 9.95674 17.3428 9.68648 17.3428H9.44449V18.4188H8.97705V15.6633ZM9.44449 16.0165V16.9775H9.67614C9.88297 16.9775 10.0257 16.9398 10.1043 16.8644C10.1843 16.789 10.2242 16.6666 10.2242 16.497C10.2242 16.3705 10.198 16.2682 10.1456 16.1902C10.0932 16.1107 10.0353 16.0623 9.97191 16.0448C9.90986 16.026 9.81127 16.0165 9.67614 16.0165L9.44449 16.0165Z" fill="#2C2C2C"/>
	<path d="M11.0723 15.6633H11.7072C12.0147 15.6633 12.2602 15.7164 12.4436 15.8227C12.6283 15.9291 12.7676 16.0872 12.8614 16.2971C12.9565 16.5071 13.0041 16.7399 13.0041 16.9956C13.0041 17.2648 12.9613 17.505 12.8758 17.7163C12.7917 17.9263 12.6621 18.0958 12.487 18.225C12.3133 18.3542 12.0651 18.4188 11.7424 18.4188H11.0723V15.6633ZM11.5397 16.0287V18.0534H11.7341C12.0058 18.0534 12.2029 17.9619 12.3257 17.7789C12.4484 17.5945 12.5097 17.3489 12.5097 17.0421C12.5097 16.3665 12.2512 16.0287 11.7341 16.0287H11.5397Z" fill="#2C2C2C"/>
	<path d="M13.4529 15.6633H15.0207V16.0287H13.9203V16.8523H14.8014V17.2177H13.9203V18.4188H13.4529V15.6633Z" fill="#2C2C2C"/>
</svg>
