<svg width="24" height="24" viewBox="0 0 24 24" fill="none" xmlns="http://www.w3.org/2000/svg">
<path d="M4.78968 7.04989C4.78968 5.79989 5.80268 4.77989 7.05068 4.77989H8.07068C8.66068 4.77989 9.23068 4.53989 9.66368 4.12289L10.3737 3.40289C11.2537 2.51289 12.6837 2.51289 13.5637 3.39289L14.2837 4.11289C14.7037 4.53289 15.2737 4.76989 15.8767 4.76989H16.8967C18.1367 4.76989 19.1567 5.78289 19.1567 7.02989V8.04989C19.1567 8.63989 19.3867 9.21989 19.8137 9.63989L20.5337 10.3499C21.4137 11.2299 21.4237 12.6599 20.5337 13.5399H20.5237L19.8037 14.2599C19.3737 14.6799 19.1467 15.2499 19.1467 15.8499V16.8789C19.1467 18.1189 18.1267 19.1389 16.8767 19.1389H15.8467C15.2467 19.1389 14.6767 19.3689 14.2537 19.7889L13.5337 20.4989C12.6537 21.3789 11.2137 21.3889 10.3337 20.4989C10.3237 20.4889 10.3237 20.4889 10.3237 20.4889L9.60368 19.7689C9.17368 19.3389 8.60368 19.1089 8.01068 19.1089H6.97968C5.72968 19.1089 4.71868 18.0889 4.71868 16.8389V15.8099C4.71868 15.2099 4.47868 14.6399 4.05868 14.2099L3.33868 13.4899C2.44868 12.5999 2.44868 11.1699 3.32868 10.2899V10.2799L4.03868 9.55989C4.45868 9.12989 4.68868 8.55989 4.68868 7.95989V6.92989" stroke="currentColor" stroke-width="1.5" stroke-linecap="round" stroke-linejoin="round"/>
<path d="M9.41992 14.5599L14.5599 9.41992" stroke="currentColor" stroke-width="1.5" stroke-linecap="round" stroke-linejoin="round"/>
<path d="M14.5596 15.3201C14.3596 15.3201 14.1696 15.2401 14.0296 15.1001C13.9596 15.0301 13.9096 14.9401 13.8696 14.8501C13.8296 14.7601 13.8096 14.6701 13.8096 14.5701C13.8096 14.4701 13.8296 14.3701 13.8696 14.2801C13.9096 14.1901 13.9596 14.1101 14.0296 14.0401C14.3096 13.7601 14.8096 13.7601 15.0896 14.0401C15.1596 14.1101 15.2196 14.1901 15.2596 14.2801C15.2896 14.3701 15.3096 14.4701 15.3096 14.5701C15.3096 14.6701 15.2896 14.7601 15.2596 14.8501C15.2196 14.9401 15.1596 15.0301 15.0896 15.1001C14.9496 15.2401 14.7596 15.3201 14.5596 15.3201Z" fill="currentColor"/>
<path d="M9.41992 10.1801C9.31992 10.1801 9.22992 10.1501 9.13992 10.1101C9.04992 10.0701 8.95992 10.0201 8.88992 9.95011C8.81992 9.87011 8.76992 9.79011 8.72992 9.70011C8.68992 9.60011 8.66992 9.52011 8.66992 9.42011C8.66992 9.31011 8.68992 9.22011 8.72992 9.13011C8.76992 9.04011 8.81992 8.95011 8.88992 8.89011C9.17992 8.60011 9.66992 8.60011 9.94992 8.89011C10.0799 9.02011 10.1599 9.22011 10.1599 9.42011C10.1599 9.52011 10.1499 9.60011 10.1099 9.70011C10.0699 9.79011 10.0099 9.87011 9.93992 9.95011C9.86992 10.0201 9.78992 10.0601 9.69992 10.1001C9.60992 10.1401 9.50992 10.1601 9.40992 10.1601L9.41992 10.1801Z" fill="currentColor"/>
</svg>
