<svg width="24" height="24" viewBox="0 0 24 24" fill="none" xmlns="http://www.w3.org/2000/svg">
	<rect x="2.3999" y="2.3999" width="19.2" height="19.2" rx="9.6" fill="currentColor"/>
	<g clip-path="url(#clip0)">
		<path d="M12.01 9.2998C5.37099 9.2998 6.64644 14.6998 9.63308 14.6998C10.2316 14.6998 10.7951 14.4089 11.1544 13.9143L11.5403 13.3829C11.7752 13.0596 12.2449 13.0596 12.4798 13.3829L12.8657 13.9143C13.2248 14.4089 13.7884 14.6998 14.3869 14.6998C17.2348 14.6998 18.7463 9.2998 12.01 9.2998ZM9.95993 12.7361C9.34403 12.7361 8.94353 12.3753 8.75873 12.1589C8.68028 12.067 8.68028 11.9326 8.75873 11.8406C8.94353 11.6241 9.34388 11.2634 9.95993 11.2634C10.576 11.2634 10.9763 11.6242 11.1611 11.8406C11.2396 11.9325 11.2396 12.0669 11.1611 12.1589C10.9763 12.3754 10.5758 12.7361 9.95993 12.7361ZM14.0399 12.7361C13.424 12.7361 13.0235 12.3753 12.8387 12.1589C12.7603 12.067 12.7603 11.9326 12.8387 11.8406C13.0235 11.6241 13.4239 11.2634 14.0399 11.2634C14.656 11.2634 15.0563 11.6242 15.2411 11.8406C15.3196 11.9325 15.3196 12.0669 15.2411 12.1589C15.0563 12.3754 14.6558 12.7361 14.0399 12.7361Z" fill="white"/>
	</g>
	<defs>
		<clipPath id="clip0">
			<rect width="9.6" height="7.20001" fill="white" transform="translate(7.19995 8.3999)"/>
		</clipPath>
	</defs>
</svg>
