<svg width="24" height="24" viewBox="0 0 24 24" fill="none" xmlns="http://www.w3.org/2000/svg">
	<rect x="2.40039" y="2.3999" width="19.2" height="19.2" rx="9.6" fill="currentColor"/>
	<g clip-path="url(#clip0)">
		<path fill-rule="evenodd" clip-rule="evenodd" d="M16.7974 9.59308C16.7974 9.82108 16.7014 10.0371 16.5334 10.1891C16.3382 10.3809 15.8311 10.6902 15.475 10.9074C15.4077 10.9483 15.3459 10.9861 15.2926 11.0191C15.6766 11.4583 16.5846 12.5955 16.5846 13.5751C16.5846 14.1071 16.3822 16.7751 12.3846 16.7751C7.69137 16.7751 7.18457 13.6951 7.18457 12.3751C7.18457 11.0671 7.61657 10.4839 8.26817 10.0151C8.31217 9.98708 8.36417 9.97108 8.42017 9.98308C8.47217 9.99108 8.52017 10.0231 8.55217 10.0671C9.29377 11.1071 9.83737 11.1871 10.5894 11.1871C10.9734 11.1871 11.2734 11.1351 11.4654 11.0871C11.2174 10.7307 10.7934 10.0227 10.7934 9.39068C10.7934 8.46828 11.6254 7.19067 13.1934 7.19067C14.3251 7.19067 14.9251 8.06473 15.2492 8.53679L15.2494 8.53708C15.3134 8.63308 15.3934 8.74508 15.4374 8.79308H15.9974C16.4374 8.79308 16.7974 9.14908 16.7974 9.59308ZM9.69497 12.8099C10.3794 14.1251 11.3534 14.7971 12.5974 14.7971C13.3694 14.7971 13.9922 14.1539 13.9962 13.3819C13.9962 12.8299 13.5442 12.3819 12.9962 12.3819C12.8006 12.3819 12.5926 12.4179 12.3526 12.4619C12.3319 12.4654 12.3111 12.469 12.2902 12.4726C11.9779 12.5262 11.6299 12.5859 11.1962 12.5859C10.4914 12.5859 9.97937 12.4379 9.87937 12.4059C9.83097 12.3859 9.78297 12.3819 9.73897 12.3979C9.69097 12.4099 9.65097 12.4339 9.62697 12.4779C9.58697 12.5379 9.58297 12.6059 9.61097 12.6659C9.61897 12.6939 9.67097 12.7899 9.69497 12.8099ZM13.2005 9.59987C13.5319 9.59987 13.8005 9.33124 13.8005 8.99987C13.8005 8.6685 13.5319 8.39987 13.2005 8.39987C12.8692 8.39987 12.6005 8.6685 12.6005 8.99987C12.6005 9.33124 12.8692 9.59987 13.2005 9.59987Z" fill="white"/>
	</g>
	<defs>
		<clipPath id="clip0">
			<rect width="9.6" height="9.60002" fill="white" transform="translate(7.2002 7.19995)"/>
		</clipPath>
	</defs>
</svg>
