<svg width="24" height="24" viewBox="0 0 24 24" fill="none" xmlns="http://www.w3.org/2000/svg">
	<g>
		<rect x="2.40039" y="2.3999" width="19.2" height="19.2" rx="9.6" fill="currentColor"/>
		<path fill-rule="evenodd" clip-rule="evenodd" d="M14.7941 9.74929C14.7941 11.1573 13.5541 12.288 12.0112 12.288C10.4684 12.288 9.22838 11.1573 9.22838 9.74396C9.22838 8.33062 10.4627 7.19995 12.0055 7.19995C13.5427 7.19995 14.7827 8.32529 14.7827 9.73862C14.7827 11.152 14.7941 9.74929 14.7941 9.74929ZM7.81123 15.1626C7.81123 13.856 9.74266 13.5306 12.0055 13.5306C14.2798 13.5306 16.1998 13.8666 16.1998 15.1733C16.1998 16.4746 14.2627 16.8 11.9998 16.8C9.7198 16.8 7.7998 16.4586 7.7998 15.152L7.81123 15.1626Z" fill="white"/>
	</g>
</svg>
