<svg width="16" height="16" viewBox="0 0 14 14" fill="none" xmlns="http://www.w3.org/2000/svg">
<path fill-rule="evenodd" clip-rule="evenodd" d="M0.857893 2.24844C1.06877 1.89927 2.23067 0.629258 3.05982 0.667598C3.30767 0.688138 3.52677 0.838078 3.70479 1.01198C4.11353 1.41112 5.28365 2.92076 5.35007 3.23844C5.51165 4.01756 4.58323 4.46668 4.86737 5.25197C5.59174 7.02448 6.83994 8.27262 8.61321 8.99628C9.39787 9.28042 9.84701 8.35202 10.6262 8.51429C10.9432 8.58069 12.4536 9.75075 12.8527 10.1595C13.026 10.3368 13.1766 10.5566 13.1971 10.8044C13.2279 11.6774 11.8791 12.8556 11.6162 13.0062C10.9959 13.4499 10.1866 13.4424 9.20001 12.9836C6.44694 11.8382 2.04718 7.52155 0.880487 4.66454C0.43408 3.68345 0.403267 2.86873 0.857893 2.24844Z" stroke="currentColor" stroke-linecap="round" stroke-linejoin="round"/>
</svg>
