<svg width="24" height="24" viewBox="0 0 24 24" fill="none" xmlns="http://www.w3.org/2000/svg">
<mask id="mask0_1878_10839" style="mask-type:alpha" maskUnits="userSpaceOnUse" x="1" y="1" width="22" height="22">
<path d="M17.5388 9.375L16.1438 7.98L21.1088 3.01875L21.15 3.06C22.0694 4.06362 22.5547 5.39003 22.5 6.75C22.441 8.47827 21.991 10.1707 21.1838 11.7C20.1452 13.731 18.7708 15.5719 17.1188 17.145C15.5463 18.7792 13.7188 20.147 11.7075 21.195C9.87504 22.065 8.22254 22.5 6.75004 22.5C5.37016 22.5627 4.0217 22.0759 3.00004 21.1462L2.95879 21.105L7.93879 16.1513L9.33004 17.5462C9.33004 17.5462 14.5425 15.5775 17.5388 9.375ZM20.3438 2.20875L15.3375 7.15875L15.0375 6.8625C14.7937 6.62556 14.6581 6.29872 14.6625 5.95875C14.663 5.66448 14.7851 5.38351 15 5.1825L18.3225 1.875C18.5338 1.6434 18.8304 1.50797 19.1438 1.5C19.4736 1.51433 19.7835 1.66182 20.0025 1.90875L20.3438 2.20875ZM7.12504 15.345L2.16379 20.295L1.87504 19.9988C1.63394 19.7724 1.49805 19.4557 1.50002 19.125C1.51094 18.8223 1.62773 18.533 1.83004 18.3075L5.15254 15C5.36545 14.7944 5.63898 14.6629 5.93254 14.625C6.28459 14.6464 6.61786 14.7911 6.87379 15.0337L7.12504 15.345Z" fill="white"/>
</mask>
<g mask="url(#mask0_1878_10839)">
<path d="M24 0H0V24H24V0Z" fill="black"/>
</g>
</svg>
