<svg width="16" height="16" viewBox="0 0 16 16" fill="none" xmlns="http://www.w3.org/2000/svg">
<path fill-rule="evenodd" clip-rule="evenodd" d="M1.99351 3.24869C2.20439 2.89952 3.36629 1.6295 4.19544 1.66784C4.44329 1.68838 4.66239 1.83832 4.84041 2.01222C5.24915 2.41137 6.41927 3.921 6.48569 4.23868C6.64727 5.0178 5.71885 5.46693 6.00299 6.25222C6.72736 8.02473 7.97556 9.27286 9.74883 9.99653C10.5335 10.2807 10.9826 9.35226 11.7618 9.51453C12.0788 9.58093 13.5892 10.751 13.9884 11.1597C14.1616 11.3371 14.3122 11.5568 14.3328 11.8047C14.3636 12.6776 13.0148 13.8559 12.7518 14.0065C12.1316 14.4501 11.3222 14.4426 10.3356 13.9839C7.58256 12.8385 3.1828 8.5218 2.01611 5.66479C1.5697 4.6837 1.53889 3.86898 1.99351 3.24869Z" stroke="#404040" stroke-linecap="round" stroke-linejoin="round"/>
</svg>
