<svg width="24" height="24" viewBox="0 0 24 24" fill="none" xmlns="http://www.w3.org/2000/svg">
	<g filter="url(#filter0_d)">
		<path d="M10 18C10 18 7.78079 16.3013 7.00004 15C6.21928 13.6987 4.73978 12.041 5.00004 11C5.26029 9.95899 6.21928 9.63092 7.00004 10.4117C7.78079 11.1924 8.30673 12.8841 8.82724 12.6238C9.34774 12.3636 8.95736 9.89117 8.43686 8.45978C7.91636 7.02839 7.37369 4 8.43686 4C9.50004 4 9.50004 5 10 6.5C10.5 8 10.1097 10 10.5 10C10.8904 10 11.0394 9.65063 11.0394 9C11.0394 8.82319 11.0741 8.67375 11.1444 8.54986C11.3331 8.21788 11.7782 8.0694 12.5 8.0694C13.4913 8.0694 13 10 13.5 10C14 10 14 10.041 14 9C14 7.95899 14.4637 8.0694 15.4637 8.0694C16.4637 8.0694 15.9795 10 16.5 10C17.0205 10 16.5 9 17 9C17.5 9 18 9.15773 18 11.5C18 13.8423 18.2808 13.959 17.5 15C16.7193 16.041 16 17 16 17C16 17 16 18 15.4637 18C14.9273 18 14.6507 17 14 17C13.3494 17 13 18 13 18H10ZM16 16V12H15V16H16ZM13 15C13 15.2709 13.232 16 13.5 16C13.7762 16 14 15.2754 14 15V13C14 12.7291 13.7681 12 13.5 12C13.2239 12 13 12.7246 13 13V15ZM11 15C11 15.2709 11.232 16 11.5 16C11.7762 16 12 15.2754 12 15V13C12 12.7291 11.7681 12 11.5 12C11.2239 12 11 12.7246 11 13V15Z" fill="black"/>
	</g>
	<path fill-rule="evenodd" clip-rule="evenodd" d="M7.88526 3.67113C9.05889 3.4645 9.36591 3.7162 9.6196 4.03337C9.87611 4.35406 10.0363 4.8486 10.2175 5.48855C10.291 5.74841 10.3718 6.03439 10.4743 6.34189C10.6905 6.99032 10.7544 7.72627 10.7789 8.37165L10.78 8.42L10.7897 8.40267C10.9212 8.16625 11.0627 8.01342 11.2174 7.90009L11.2958 7.84651C11.6127 7.64464 12.0011 7.5694 12.5 7.5694C12.9483 7.5694 13.2357 7.77915 13.4252 8.1004C13.4833 8.19895 13.5295 8.31277 13.5668 8.43531L13.616 8.623L13.6189 8.53735C13.6385 8.27658 13.7326 8.09235 13.8497 7.95832L13.9012 7.90388C14.177 7.63371 14.5955 7.56264 15.255 7.56824C15.9102 7.5694 16.198 7.77609 16.39 8.09183C16.479 8.23823 16.5414 8.41862 16.5877 8.61148L16.623 8.781L16.6836 8.75799C17.2817 8.53275 17.5146 8.55993 17.7057 8.67615L17.7528 8.70696C17.9261 8.82779 18.0963 9.01762 18.228 9.34685C18.386 9.74178 18.5 10.3987 18.5 11.5C18.5 12.0806 18.5175 12.5225 18.5315 12.8751C18.5803 14.1073 18.573 14.4027 17.9 15.3L17.555 15.76L17.2317 16.1911L16.5008 17.1655C16.4763 17.3774 16.4161 17.7446 16.2645 18.0083C15.8088 18.4464 15.6505 18.5 15.4636 18.5C15.085 18.5 14.7525 18.2375 14.4283 17.8638C14.3078 17.7248 14.203 17.5 14 17.5C13.5904 17.5 13.472 18.1649 13.472 18.1649L9.83245 18.5C9.69606 18.397 7.38616 16.6155 6.57123 15.2572C6.37612 14.9321 6.13594 14.5843 5.89133 14.2294C4.82724 12.6602 4.32929 11.6212 4.51491 10.8787C4.70002 10.1383 5.16011 9.69103 5.67662 9.53909C5.95881 9.45608 6.26598 9.45787 6.5766 9.5611C6.8373 9.64774 7.1034 9.80799 7.35353 10.0581C7.7002 10.4048 8.00587 10.9132 8.27877 11.3785C8.46066 11.6887 8.62132 11.978 8.78144 12.1402C8.58495 11.8616 8.57735 11.5642 8.5462 11.2319C8.46842 10.4023 8.23601 9.37068 7.96691 8.63065C7.6493 7.75724 7.3264 6.31913 7.3264 5.26401C7.3264 4.78715 7.39667 4.38154 7.53141 4.10253C7.62258 3.91374 7.74363 3.77069 7.88526 3.67113Z" fill="white" stroke="black"/>
	<defs>
		<filter id="filter0_d" x="2.96973" y="3" width="17.0794" height="18" filterUnits="userSpaceOnUse" color-interpolation-filters="sRGB">
			<feFlood flood-opacity="0" result="BackgroundImageFix"/>
			<feColorMatrix in="SourceAlpha" type="matrix" values="0 0 0 0 0 0 0 0 0 0 0 0 0 0 0 0 0 0 127 0"/>
			<feOffset dy="1"/>
			<feGaussianBlur stdDeviation="1"/>
			<feColorMatrix type="matrix" values="0 0 0 0 0 0 0 0 0 0 0 0 0 0 0 0 0 0 1 0"/>
			<feBlend mode="normal" in2="BackgroundImageFix" result="effect1_dropShadow"/>
			<feBlend mode="normal" in="SourceGraphic" in2="effect1_dropShadow" result="shape"/>
		</filter>
	</defs>
</svg>
