<svg width="22" height="20" viewBox="0 0 22 20" fill="none" xmlns="http://www.w3.org/2000/svg">
	<path d="M1 18C1.46 18.64 2.2 19.01 3 18.99C3.79 19 4.53 18.63 5 17.99V17.98C5.46 17.33 6.2 16.96 7 16.98V16.97C7.79 16.95 8.53 17.32 9 17.97C9.46 18.61 10.2 18.98 11 18.96C11.79 18.97 12.53 18.6 13 17.96V17.95C13.46 17.3 14.2 16.93 15 16.95V16.94C15.79 16.92 16.53 17.29 17 17.94C17.46 18.58 18.2 18.95 19 18.93C19.79 18.94 20.53 18.57 21 17.93" stroke="currentColor" stroke-width="1.5" stroke-linecap="round" stroke-linejoin="round"/>
	<path d="M1 14C1.46 14.64 2.2 15.01 3 14.99C3.79 15 4.53 14.63 5 13.99V13.98C5.46 13.33 6.2 12.96 7 12.98V12.97C7.79 12.95 8.53 13.32 9 13.97C9.46 14.61 10.2 14.98 11 14.96C11.79 14.97 12.53 14.6 13 13.96V13.95C13.46 13.3 14.2 12.93 15 12.95V12.94C15.79 12.92 16.53 13.29 17 13.94C17.46 14.58 18.2 14.95 19 14.93C19.79 14.94 20.53 14.57 21 13.93" stroke="currentColor" stroke-width="1.5" stroke-linecap="round" stroke-linejoin="round"/>
	<path d="M14.0001 10.0001V2.5001C13.9901 1.6701 14.6701 0.990099 15.4901 0.990099C16.3101 0.980099 16.9901 1.6601 16.9901 2.4801" stroke="currentColor" stroke-width="1.5" stroke-linecap="round" stroke-linejoin="round"/>
	<path d="M8 10V2.5C8 1.67 7.32 1 6.5 1C5.67 1 5 1.67 5 2.5" stroke="currentColor" stroke-width="1.5" stroke-linecap="round" stroke-linejoin="round"/>
	<path d="M14 3H8" stroke="currentColor" stroke-width="1.5" stroke-linecap="round" stroke-linejoin="round"/>
	<path d="M8 8H14" stroke="currentColor" stroke-width="1.5" stroke-linecap="round" stroke-linejoin="round"/>
</svg>
