<svg width="24" height="24" viewBox="0 0 24 24" fill="none" xmlns="http://www.w3.org/2000/svg">
	<path d="M15 9.15252L14.9951 9.1468C13.8295 7.59702 11.9606 7.6199 10.8197 9.20399C9.67867 10.7824 9.69342 13.3158 10.859 14.8598C12.0049 16.381 13.8393 16.381 14.9852 14.8541M12.9344 10.8681H9M9 13.1556H12.9344" stroke="currentColor" stroke-width="1.5" stroke-linecap="round" stroke-linejoin="round"/>
	<path d="M12 3C9.61305 3 7.32387 3.94821 5.63604 5.63604C3.94821 7.32387 3 9.61305 3 12C3 14.3869 3.94821 16.6761 5.63604 18.364C7.32387 20.0518 9.61305 21 12 21C14.3869 21 16.6761 20.0518 18.364 18.364C20.0518 16.6761 21 14.3869 21 12C21 9.61305 20.0518 7.32387 18.364 5.63604C16.6761 3.94821 14.3869 3 12 3Z" stroke="currentColor" stroke-width="1.5"/>
</svg>
