<svg width="16" height="16" viewBox="0 0 24 25" fill="none" xmlns="http://www.w3.org/2000/svg">
	<path d="M12 4.5V5.5M18 16.5H20M14 16.5H12V20.5M12 9.5V12.5M12 12.5H12.01M12 12.5H16.01M16 20.5H20M4 12.5H8M20 12.5H20.01M5 8.5H7C7.55228 8.5 8 8.05228 8 7.5V5.5C8 4.94772 7.55228 4.5 7 4.5H5C4.44772 4.5 4 4.94772 4 5.5V7.5C4 8.05228 4.44772 8.5 5 8.5ZM17 8.5H19C19.5523 8.5 20 8.05228 20 7.5V5.5C20 4.94772 19.5523 4.5 19 4.5H17C16.4477 4.5 16 4.94772 16 5.5V7.5C16 8.05228 16.4477 8.5 17 8.5ZM5 20.5H7C7.55228 20.5 8 20.0523 8 19.5V17.5C8 16.9477 7.55228 16.5 7 16.5H5C4.44772 16.5 4 16.9477 4 17.5V19.5C4 20.0523 4.44772 20.5 5 20.5Z" stroke="currentColor" stroke-width="1.5" stroke-linecap="round" stroke-linejoin="round"/>
</svg>
