<svg width="100" height="100" viewBox="0 0 24 24" fill="none" xmlns="http://www.w3.org/2000/svg">
<path d="M12 23C18.0751 23 23 18.0751 23 12C23 5.92487 18.0751 1 12 1C5.92487 1 1 5.92487 1 12C1 18.0751 5.92487 23 12 23Z" stroke="black" stroke-width="1.5" stroke-linecap="round" stroke-linejoin="round"/>
<path d="M12 18.4583C12.2761 18.4583 12.5 18.2344 12.5 17.9583C12.5 17.6821 12.2761 17.4583 12 17.4583C11.7239 17.4583 11.5 17.6821 11.5 17.9583C11.5 18.2344 11.7239 18.4583 12 18.4583Z" fill="black"/>
<path d="M12.0002 15.9722V13.8333C12.7254 13.8333 13.4343 13.6183 14.0373 13.2154C14.6402 12.8125 15.1102 12.2398 15.3877 11.5698C15.6652 10.8998 15.7379 10.1626 15.5964 9.45134C15.4549 8.74007 15.1057 8.08674 14.5929 7.57394C14.0801 7.06115 13.4268 6.71193 12.7155 6.57046C12.0042 6.42898 11.267 6.50159 10.597 6.77911C9.92699 7.05663 9.35434 7.5266 8.95144 8.12958C8.54854 8.73256 8.3335 9.44147 8.3335 10.1667" stroke="black" stroke-width="1.5" stroke-linecap="round" stroke-linejoin="round"/>
</svg>
