<svg width="17" height="17" viewBox="0 0 17 17" fill="none" xmlns="http://www.w3.org/2000/svg">
<g clip-path="url(#clip0_14709_19155)">
<path d="M0.667969 3.66602V7.6665H4.66846" stroke="currentColor" stroke-width="inherit" stroke-linecap="round" stroke-linejoin="round"/>
<path d="M15.3364 14.3325V10.332H11.3359" stroke="currentColor" stroke-width="inherit" stroke-linecap="round" stroke-linejoin="round"/>
<path d="M13.6629 6.99891C13.3247 6.04332 12.75 5.18896 11.9924 4.51555C11.2347 3.84215 10.3188 3.37164 9.33017 3.14795C8.3415 2.92425 7.31228 2.95464 6.33854 3.2363C5.36479 3.51796 4.47827 4.04169 3.76168 4.75864L0.667969 7.66566M15.3364 10.3327L12.2427 13.2397C11.5261 13.9566 10.6396 14.4804 9.66586 14.762C8.69212 15.0437 7.6629 15.0741 6.67423 14.8504C5.68556 14.6267 4.76967 14.1562 4.01202 13.4828C3.25437 12.8094 2.67966 11.955 2.34151 10.9994" stroke="currentColor" stroke-width="inherit" stroke-linecap="round" stroke-linejoin="round"/>
</g>
<defs>
<clipPath id="clip0_14709_19155">
<rect width="16.002" height="16.002" fill="currentColor" transform="translate(0 0.998047)"/>
</clipPath>
</defs>
</svg>
