<svg width="16" height="16" viewBox="0 0 16 16" fill="none" xmlns="http://www.w3.org/2000/svg">
	<path fill-rule="evenodd" clip-rule="evenodd" d="M3.01781 6.47551C3.86669 4.09341 6.51925 2.83167 8.9496 3.6809L8.95256 3.68193C9.6 3.90513 10.1938 4.27659 10.6854 4.76195C10.6907 4.76722 10.6962 4.77241 10.7017 4.77752L12.0938 6.07177H10.4019C9.98771 6.07177 9.65192 6.40756 9.65192 6.82177C9.65192 7.23598 9.98771 7.57177 10.4019 7.57177H14.0007C14.4149 7.57177 14.7507 7.23598 14.7507 6.82177V3.26891C14.7507 2.85469 14.4149 2.51891 14.0007 2.51891C13.5865 2.51891 13.2507 2.85469 13.2507 3.26891V5.09921L11.7309 3.68634C11.0849 3.05096 10.3027 2.56101 9.44292 2.26435C6.24777 1.14876 2.73558 2.80005 1.60507 5.97136C0.466577 9.14813 2.15848 12.6179 5.35681 13.7355C8.55263 14.8522 12.0648 13.2006 13.2017 10.0361C13.3418 9.64631 13.1393 9.21677 12.7495 9.07671C12.3597 8.93666 11.9301 9.13913 11.7901 9.52894C10.9357 11.907 8.28189 13.1687 5.85162 12.3195C3.42409 11.4712 2.165 8.8542 3.01732 6.47687L3.01781 6.47551Z" fill="currentColor"/>
</svg>
