<svg width="24" height="24" viewBox="0 0 24 24" fill="none" xmlns="http://www.w3.org/2000/svg">
	<path fill-rule="evenodd" clip-rule="evenodd" d="M4.17335 9.58703C5.51707 5.81635 9.71111 3.82628 13.548 5.16699L13.5509 5.16801C14.5763 5.52149 15.5149 6.10907 16.2914 6.87571C16.2968 6.88098 16.3022 6.88617 16.3077 6.89128L19.0947 9.48229H15.6028C15.1886 9.48229 14.8528 9.81808 14.8528 10.2323C14.8528 10.6465 15.1886 10.9823 15.6028 10.9823H21.0009C21.4152 10.9823 21.7509 10.6465 21.7509 10.2323V4.903C21.7509 4.48879 21.4152 4.153 21.0009 4.153C20.5867 4.153 20.2509 4.48879 20.2509 4.903V8.50911L17.3371 5.80019C16.4062 4.88351 15.279 4.17738 14.0413 3.75043C9.43964 2.14336 4.38597 4.52299 2.76062 9.08287C1.12429 13.6482 3.55395 18.6398 8.1588 20.2489C12.7612 21.8571 17.8148 19.4771 19.4495 14.927C19.5896 14.5372 19.3871 14.1077 18.9973 13.9676C18.6075 13.8276 18.1779 14.03 18.0379 14.4199C16.6857 18.1835 12.4904 20.1735 8.65361 18.8329C4.81955 17.4931 2.82272 13.3543 4.17287 9.58838L4.17335 9.58703Z" fill="currentColor"/>
</svg>
