<svg width="16" height="16" viewBox="0 0 14 14" fill="none" xmlns="http://www.w3.org/2000/svg">
<path d="M7 2.5C6.72386 2.5 6.5 2.72386 6.5 3C6.5 3.27614 6.72386 3.5 7 3.5V2.5ZM2.5 9L2.14645 8.64645L1.79289 9L2.14645 9.35355L2.5 9ZM5.35355 6.85355C5.54882 6.65829 5.54882 6.34171 5.35355 6.14645C5.15829 5.95118 4.84171 5.95118 4.64645 6.14645L5.35355 6.85355ZM4.64645 11.8536C4.84171 12.0488 5.15829 12.0488 5.35355 11.8536C5.54882 11.6583 5.54882 11.3417 5.35355 11.1464L4.64645 11.8536ZM7 3.5H10.5V2.5H7V3.5ZM11 4V8H12V4H11ZM10.5 8.5H2.5V9.5H10.5V8.5ZM2.85355 9.35355L5.35355 6.85355L4.64645 6.14645L2.14645 8.64645L2.85355 9.35355ZM2.14645 9.35355L4.64645 11.8536L5.35355 11.1464L2.85355 8.64645L2.14645 9.35355ZM11 8C11 8.27614 10.7761 8.5 10.5 8.5V9.5C11.3284 9.5 12 8.82843 12 8H11ZM10.5 3.5C10.7761 3.5 11 3.72386 11 4H12C12 3.17157 11.3284 2.5 10.5 2.5V3.5Z" fill="currentColor"/>
</svg>
