<svg width="24" height="24" viewBox="0 0 24 24" fill="none" xmlns="http://www.w3.org/2000/svg">
<ellipse cx="12" cy="8.5" rx="6" ry="7.5" stroke="currentColor" stroke-width="1.5"/>
<path d="M11.2496 16.1374C11.3255 15.7302 11.0569 15.3386 10.6497 15.2627C10.2425 15.1868 9.85088 15.4554 9.77498 15.8626L11.2496 16.1374ZM14.225 15.8626C14.1491 15.4554 13.7575 15.1868 13.3503 15.2627C12.9431 15.3386 12.6745 15.7302 12.7504 16.1374L14.225 15.8626ZM10.5123 16C9.77498 15.8626 9.77497 15.8626 9.77496 15.8627C9.77495 15.8627 9.77494 15.8627 9.77493 15.8628C9.77491 15.8629 9.77488 15.8631 9.77485 15.8632C9.77478 15.8636 9.77469 15.8641 9.77457 15.8647C9.77434 15.866 9.774 15.8678 9.77356 15.8702C9.77269 15.8749 9.77142 15.8818 9.76979 15.8907C9.76652 15.9085 9.76177 15.9345 9.75574 15.968C9.74367 16.035 9.72645 16.1318 9.70561 16.2524C9.66395 16.4935 9.60769 16.8305 9.54917 17.2149C9.43323 17.9763 9.3042 18.9505 9.2672 19.7338L10.7655 19.8046C10.7987 19.103 10.9176 18.1926 11.0321 17.4406C11.0888 17.0683 11.1433 16.7414 11.1837 16.5078C11.2039 16.3911 11.2205 16.2978 11.232 16.2341C11.2377 16.2022 11.2422 16.1777 11.2452 16.1613C11.2467 16.1532 11.2478 16.147 11.2485 16.143C11.2489 16.141 11.2492 16.1395 11.2494 16.1386C11.2495 16.1381 11.2495 16.1378 11.2495 16.1376C11.2496 16.1375 11.2496 16.1374 11.2496 16.1374C11.2496 16.1374 11.2496 16.1374 11.2496 16.1374C11.2496 16.1374 11.2496 16.1374 10.5123 16ZM14.7328 19.7338C14.6958 18.9505 14.5668 17.9763 14.4508 17.2149C14.3923 16.8305 14.3361 16.4935 14.2944 16.2524C14.2736 16.1318 14.2563 16.035 14.2443 15.968C14.2382 15.9345 14.2335 15.9085 14.2302 15.8907C14.2286 15.8818 14.2273 15.8749 14.2264 15.8702C14.226 15.8678 14.2257 15.866 14.2254 15.8647C14.2253 15.8641 14.2252 15.8636 14.2252 15.8632C14.2251 15.8631 14.2251 15.8629 14.2251 15.8628C14.2251 15.8627 14.225 15.8627 14.225 15.8627C14.225 15.8626 14.225 15.8626 13.4877 16C12.7504 16.1374 12.7504 16.1374 12.7504 16.1374C12.7504 16.1374 12.7504 16.1374 12.7504 16.1374C12.7504 16.1374 12.7504 16.1375 12.7505 16.1376C12.7505 16.1378 12.7506 16.1381 12.7506 16.1386C12.7508 16.1395 12.7511 16.141 12.7515 16.143C12.7522 16.147 12.7533 16.1532 12.7548 16.1613C12.7578 16.1777 12.7623 16.2022 12.768 16.2341C12.7795 16.2978 12.7961 16.3911 12.8163 16.5078C12.8567 16.7414 12.9112 17.0683 12.9679 17.4406C13.0824 18.1926 13.2013 19.103 13.2345 19.8046L14.7328 19.7338ZM9.2672 19.7338C9.2327 20.4644 9.21624 21.4316 9.54477 22.2276C9.71803 22.6474 9.99623 23.0448 10.4315 23.3308C10.8649 23.6156 11.3933 23.75 12 23.75V22.25C11.6149 22.25 11.3907 22.1662 11.2552 22.0772C11.1217 21.9895 11.0148 21.8576 10.9313 21.6554C10.7464 21.2073 10.7299 20.5591 10.7655 19.8046L9.2672 19.7338ZM13.2345 19.8046C13.2701 20.5591 13.2536 21.2073 13.0687 21.6554C12.9852 21.8576 12.8783 21.9895 12.7448 22.0772C12.6093 22.1662 12.3851 22.25 12 22.25V23.75C12.6067 23.75 13.1351 23.6156 13.5685 23.3308C14.0038 23.0448 14.282 22.6474 14.4552 22.2276C14.7838 21.4316 14.7673 20.4644 14.7328 19.7338L13.2345 19.8046Z" fill="currentColor"/>
<path d="M9 5.5L11.5 3.5" stroke="currentColor" stroke-width="1.5" stroke-linecap="round"/>
<path d="M9 8.5L14.5 4" stroke="currentColor" stroke-width="1.5" stroke-linecap="round"/>
</svg>
