<svg width="24" height="24" viewBox="0 0 24 24" fill="none" xmlns="http://www.w3.org/2000/svg">
<ellipse cx="12" cy="8.5" rx="6" ry="7.5" stroke="black"/>
<path d="M11.0038 16.0916C11.0544 15.8202 10.8754 15.5591 10.6039 15.5085C10.3324 15.4579 10.0713 15.6369 10.0207 15.9084L11.0038 16.0916ZM13.9793 15.9084C13.9287 15.6369 13.6676 15.4579 13.3961 15.5085C13.1246 15.5591 12.9456 15.8202 12.9962 16.0916L13.9793 15.9084ZM10.5123 16C10.0207 15.9084 10.0207 15.9084 10.0207 15.9084C10.0207 15.9085 10.0207 15.9085 10.0207 15.9086C10.0207 15.9087 10.0207 15.9088 10.0206 15.909C10.0206 15.9093 10.0205 15.9098 10.0204 15.9104C10.0201 15.9116 10.0198 15.9134 10.0194 15.9157C10.0185 15.9203 10.0173 15.927 10.0157 15.9358C10.0125 15.9534 10.0078 15.9792 10.0018 16.0124C9.9898 16.0788 9.97269 16.175 9.95196 16.295C9.91051 16.5348 9.85454 16.8701 9.79632 17.2525C9.68062 18.0124 9.55328 18.9759 9.51693 19.7456L10.5158 19.7928C10.5496 19.0776 10.6702 18.1565 10.7849 17.403C10.8419 17.0287 10.8968 16.7001 10.9374 16.4653C10.9576 16.3479 10.9743 16.254 10.9859 16.1897C10.9917 16.1576 10.9962 16.1328 10.9993 16.1162C11.0008 16.1079 11.002 16.1017 11.0027 16.0975C11.0031 16.0955 11.0034 16.0939 11.0036 16.0929C11.0037 16.0924 11.0037 16.0921 11.0038 16.0919C11.0038 16.0918 11.0038 16.0917 11.0038 16.0916C11.0038 16.0916 11.0038 16.0916 11.0038 16.0916C11.0038 16.0916 11.0038 16.0916 10.5123 16ZM14.4831 19.7456C14.4467 18.9759 14.3194 18.0124 14.2037 17.2525C14.1455 16.8701 14.0895 16.5348 14.048 16.295C14.0273 16.175 14.0102 16.0788 13.9982 16.0124C13.9922 15.9792 13.9875 15.9534 13.9843 15.9358C13.9827 15.927 13.9815 15.9203 13.9806 15.9157C13.9802 15.9134 13.9799 15.9116 13.9796 15.9104C13.9795 15.9098 13.9794 15.9093 13.9794 15.909C13.9793 15.9088 13.9793 15.9087 13.9793 15.9086C13.9793 15.9085 13.9793 15.9085 13.9793 15.9084C13.9793 15.9084 13.9793 15.9084 13.4877 16C12.9962 16.0916 12.9962 16.0916 12.9962 16.0916C12.9962 16.0916 12.9962 16.0916 12.9962 16.0916C12.9962 16.0917 12.9962 16.0918 12.9962 16.0919C12.9963 16.0921 12.9963 16.0924 12.9964 16.0929C12.9966 16.0939 12.9969 16.0955 12.9973 16.0975C12.9981 16.1017 12.9992 16.1079 13.0007 16.1162C13.0038 16.1328 13.0083 16.1576 13.0141 16.1897C13.0257 16.254 13.0424 16.3479 13.0626 16.4653C13.1032 16.7001 13.1581 17.0287 13.2151 17.403C13.3298 18.1565 13.4504 19.0776 13.4842 19.7928L14.4831 19.7456ZM9.51693 19.7456C9.48224 20.4801 9.47127 21.3942 9.77586 22.1322C9.93416 22.5158 10.1838 22.8689 10.5688 23.1219C10.9526 23.374 11.4302 23.5 12 23.5V22.5C11.578 22.5 11.303 22.4078 11.1179 22.2861C10.9341 22.1654 10.7987 21.9892 10.7002 21.7507C10.4914 21.2446 10.4804 20.5433 10.5158 19.7928L9.51693 19.7456ZM13.4842 19.7928C13.5196 20.5433 13.5086 21.2446 13.2998 21.7507C13.2013 21.9892 13.0659 22.1654 12.8821 22.2861C12.697 22.4078 12.422 22.5 12 22.5V23.5C12.5698 23.5 13.0474 23.374 13.4312 23.1219C13.8162 22.8689 14.0658 22.5158 14.2241 22.1322C14.5287 21.3942 14.5178 20.4801 14.4831 19.7456L13.4842 19.7928Z" fill="black"/>
<path d="M9 5.5L11.5 3.5" stroke="black" stroke-linecap="round"/>
<path d="M9 8.5L14.5 4" stroke="black" stroke-linecap="round"/>
</svg>
