<svg width="16" height="16" viewBox="0 0 10 10" fill="none" xmlns="http://www.w3.org/2000/svg">
<path d="M2.5 8.75C3.19036 8.75 3.75 8.19036 3.75 7.5C3.75 6.80964 3.19036 6.25 2.5 6.25C1.80964 6.25 1.25 6.80964 1.25 7.5C1.25 8.19036 1.80964 8.75 2.5 8.75Z" stroke="currentColor" stroke-linecap="round" stroke-linejoin="round"/>
<path d="M2.5 3.75C3.19036 3.75 3.75 3.19036 3.75 2.5C3.75 1.80964 3.19036 1.25 2.5 1.25C1.80964 1.25 1.25 1.80964 1.25 2.5C1.25 3.19036 1.80964 3.75 2.5 3.75Z" stroke="currentColor" stroke-linecap="round" stroke-linejoin="round"/>
<path d="M8.3333 1.6665L3.3833 6.6165" stroke="currentColor" stroke-linecap="round" stroke-linejoin="round"/>
<path d="M6.02905 6.0332L8.33322 8.3332" stroke="currentColor" stroke-linecap="round" stroke-linejoin="round"/>
<path d="M3.3833 3.3833L4.99997 4.99997" stroke="currentColor" stroke-linecap="round" stroke-linejoin="round"/>
</svg>
