<svg width="24" height="24" viewBox="0 0 24 24" fill="none" xmlns="http://www.w3.org/2000/svg">
<path fill-rule="evenodd" clip-rule="evenodd" d="M20.738 7.67285L20.1082 6.57714C19.5752 5.65 18.3944 5.33016 17.4682 5.86215C17.0274 6.12248 16.5014 6.19634 16.0061 6.06744C15.5108 5.93853 15.0871 5.61746 14.8283 5.175C14.6618 4.89377 14.5723 4.57344 14.5689 4.24643C14.584 3.72213 14.3866 3.21407 14.0219 2.83797C13.6572 2.46188 13.1562 2.24978 12.633 2.25H11.364C10.8514 2.24999 10.3599 2.45475 9.99829 2.81897C9.63668 3.18321 9.43478 3.67686 9.43724 4.19071C9.42205 5.25164 8.55972 6.10368 7.50128 6.10357C7.17507 6.10017 6.85553 6.01048 6.57499 5.84357C5.64886 5.31159 4.46793 5.63143 3.93504 6.55858L3.25885 7.67285C2.72661 8.59884 3.04132 9.78193 3.96283 10.3193C4.56183 10.666 4.93083 11.3067 4.93083 12C4.93083 12.6934 4.56183 13.334 3.96283 13.6807C3.0425 14.2145 2.72744 15.3947 3.25885 16.3178L3.89799 17.4229C4.14767 17.8745 4.56659 18.2078 5.06204 18.3489C5.5575 18.4901 6.08863 18.4275 6.53794 18.175C6.97962 17.9166 7.50596 17.8458 7.99996 17.9784C8.49396 18.1109 8.91468 18.4357 9.16862 18.8807C9.33512 19.162 9.42459 19.4823 9.42798 19.8093C9.42798 20.8811 10.2947 21.75 11.364 21.75H12.633C13.6986 21.75 14.5638 20.8868 14.5689 19.8186C14.5665 19.3031 14.7697 18.8081 15.1332 18.4436C15.4968 18.0791 15.9907 17.8754 16.5049 17.8779C16.8304 17.8866 17.1485 17.9759 17.4312 18.1379C18.3549 18.6714 19.5351 18.3559 20.0711 17.4321L20.738 16.3178C20.9962 15.8737 21.0671 15.3447 20.9349 14.8479C20.8028 14.3512 20.4785 13.9278 20.0341 13.6714C19.5895 13.4151 19.2654 12.9916 19.1332 12.4949C19.0011 11.9982 19.0719 11.4692 19.33 11.025C19.4979 10.7312 19.741 10.4876 20.0341 10.3193C20.95 9.78221 21.264 8.60604 20.738 7.68215V7.67285Z" stroke="currentColor" stroke-width="1.5" stroke-linecap="round" stroke-linejoin="round"/>
<path d="M12 15C13.6569 15 15 13.6569 15 12C15 10.3431 13.6569 9 12 9C10.3431 9 9 10.3431 9 12C9 13.6569 10.3431 15 12 15Z" stroke="currentColor" stroke-width="1.5" stroke-linecap="round" stroke-linejoin="round"/>
</svg>
