<svg width="24" height="24" viewBox="0 0 24 24" fill="none" xmlns="http://www.w3.org/2000/svg">
<mask id="mask0_588_4560" style="mask-type:alpha" maskUnits="userSpaceOnUse" x="2" y="5" width="20" height="14">
<path d="M20.6888 7.74378C20.4818 6.80389 19.7051 6.09635 18.7501 5.97753C16.5065 5.7677 14.253 5.68382 12.0001 5.72628C9.74714 5.68389 7.4936 5.76777 5.25006 5.97753C4.29058 6.08833 3.50885 6.79913 3.30756 7.74378C3.04738 9.14672 2.94425 10.5743 3.00006 12C2.94733 13.4259 3.05171 14.8533 3.31131 16.2563C3.51937 17.1956 4.29549 17.9027 5.25006 18.0225C7.49361 18.2322 9.74714 18.3161 12.0001 18.2738C14.253 18.3163 16.5065 18.2324 18.7501 18.0225C19.708 17.9067 20.4883 17.1985 20.6963 16.2563C20.9552 14.8532 21.0571 13.4257 21.0001 12C21.0547 10.5741 20.9503 9.14657 20.6888 7.74378ZM10.1251 14.3325V9.28128L14.9626 11.8425L10.1251 14.3325Z" fill="white"/>
</mask>
<g mask="url(#mask0_588_4560)">
<path d="M24 0H0V24H24V0Z" fill="black"/>
</g>
</svg>
