<svg width="24" height="24" viewBox="0 0 24 24" fill="none" xmlns="http://www.w3.org/2000/svg">
<mask id="mask0_1878_10957" style="mask-type:alpha" maskUnits="userSpaceOnUse" x="3" y="3" width="18" height="18">
<path d="M20.2013 8.59875C20.1897 7.91491 20.0629 7.23792 19.8263 6.59625C19.3973 5.48708 18.5204 4.61025 17.4112 4.18125C16.7696 3.94456 16.0926 3.81778 15.4087 3.80625C14.52 3.75 14.25 3.75 12 3.75C9.75 3.75 9.48 3.75 8.59875 3.79875C7.91491 3.81028 7.23792 3.93706 6.59625 4.17375C5.48708 4.60275 4.61025 5.47958 4.18125 6.58875C3.94456 7.23042 3.81778 7.90741 3.80625 8.59125C3.75 9.48 3.75 9.75 3.75 12C3.75 14.25 3.75 14.52 3.79875 15.4012C3.81028 16.0851 3.93706 16.7621 4.17375 17.4037C4.60275 18.5129 5.47958 19.3898 6.58875 19.8188C7.23042 20.0554 7.90741 20.1822 8.59125 20.1938C9.48 20.25 9.75 20.25 12 20.25C14.25 20.25 14.52 20.25 15.4012 20.2013C16.0851 20.1897 16.7621 20.0629 17.4037 19.8263C18.5124 19.3965 19.389 18.5199 19.8188 17.4112C20.0554 16.7696 20.1822 16.0926 20.1938 15.4087C20.25 14.52 20.25 14.25 20.25 12C20.25 9.75 20.25 9.48 20.2013 8.59875ZM18.7013 15.3488C18.6995 15.8692 18.6082 16.3855 18.4312 16.875C18.1534 17.5889 17.5889 18.1534 16.875 18.4312C16.3852 18.6137 15.8676 18.7101 15.345 18.7162C14.475 18.7537 14.22 18.765 12.0112 18.765C9.8025 18.765 9.5475 18.765 8.6775 18.7162C8.14732 18.7128 7.62185 18.6163 7.125 18.4312C6.41215 18.1519 5.84812 17.5879 5.56875 16.875C5.38627 16.3852 5.28985 15.8676 5.28375 15.345C5.25 14.4637 5.25 14.2013 5.25 12C5.25 9.79875 5.25 9.53625 5.29875 8.66625C5.29875 8.14073 5.39011 7.61922 5.56875 7.125C5.84812 6.41215 6.41215 5.84812 7.125 5.56875C7.61476 5.38627 8.13238 5.28985 8.655 5.28375C9.525 5.24625 9.78 5.235 11.9888 5.235C14.1975 5.235 14.4525 5.235 15.3225 5.28375C15.8451 5.28985 16.3627 5.38627 16.8525 5.56875C17.5739 5.84288 18.1468 6.40763 18.4312 7.125C18.6137 7.61476 18.7101 8.13238 18.7162 8.655C18.7537 9.525 18.765 9.78 18.765 11.9888C18.765 14.1975 18.75 14.4637 18.7162 15.3337L18.7013 15.3488ZM12 7.7625C9.65969 7.7625 7.7625 9.65969 7.7625 12C7.7625 14.3403 9.65969 16.2375 12 16.2375C14.3403 16.2375 16.2375 14.3403 16.2375 12C16.2375 10.8761 15.791 9.79832 14.9964 9.00364C14.2017 8.20895 13.1239 7.7625 12 7.7625ZM12 14.7487C10.4819 14.7487 9.25125 13.5181 9.25125 12C9.25125 10.4819 10.4819 9.25125 12 9.25125C13.5181 9.25125 14.7487 10.4819 14.7487 12C14.7487 13.5181 13.5181 14.7487 12 14.7487ZM17.3925 7.5975C17.3925 8.14426 16.9493 8.5875 16.4025 8.5875C15.8557 8.5875 15.4125 8.14426 15.4125 7.5975C15.4125 7.05074 15.8557 6.6075 16.4025 6.6075C16.9493 6.6075 17.3925 7.05074 17.3925 7.5975Z" fill="white"/>
</mask>
<g mask="url(#mask0_1878_10957)">
<path d="M24 0H0V24H24V0Z" fill="black"/>
</g>
</svg>
