<svg width="24" height="24" viewBox="0 0 24 24" fill="none" xmlns="http://www.w3.org/2000/svg">
<mask id="mask0_588_4532" style="mask-type:alpha" maskUnits="userSpaceOnUse" x="4" y="2" width="16" height="20">
<path d="M12.4502 2.625C7.16645 2.625 4.5752 6.2925 4.5752 9.3525C4.5752 11.205 5.2352 12.8512 6.79145 13.4775C6.89903 13.5397 7.03045 13.5446 7.14235 13.4905C7.25425 13.4365 7.33209 13.3305 7.3502 13.2075L7.5752 12.345C7.6502 12.075 7.6202 11.97 7.41395 11.745C6.91247 11.1588 6.65125 10.4046 6.6827 9.63375C6.6827 6.91125 8.78645 4.47375 12.1614 4.47375C15.1614 4.47375 16.7927 6.24 16.7927 8.59875C16.7927 11.7038 15.3714 14.5087 13.2639 14.5087C12.7087 14.502 12.1865 14.2434 11.8445 13.8059C11.5025 13.3684 11.3777 12.7992 11.5052 12.2587C11.8427 10.8938 12.6302 9.42 12.6302 8.43375C12.6302 7.5525 12.0827 7.01625 10.9802 7.01625C9.6077 7.01625 8.8802 8.01 8.8802 9.6075C8.87281 10.1898 8.97851 10.768 9.19145 11.31C9.19145 11.31 7.8752 16.2712 7.75145 17.1637C7.60987 18.5246 7.59857 19.8958 7.7177 21.2588C7.73084 21.3144 7.7745 21.3578 7.83026 21.3705C7.88602 21.3833 7.94417 21.3632 7.9802 21.3188C8.0927 21.18 9.50645 19.485 9.9902 17.7938C10.1289 17.3138 10.7739 14.835 10.7739 14.835C11.3721 15.7677 12.3926 16.3446 13.5002 16.3762C17.0777 16.3762 19.4477 13.0012 19.4477 8.79375C19.4402 5.59875 16.7027 2.625 12.4502 2.625Z" fill="white"/>
</mask>
<g mask="url(#mask0_588_4532)">
<path d="M24 0H0V24H24V0Z" fill="black"/>
</g>
</svg>
