<svg width="24" height="24" viewBox="0 0 24 24" fill="none" xmlns="http://www.w3.org/2000/svg">
<mask id="mask0_1878_10950" style="mask-type:alpha" maskUnits="userSpaceOnUse" x="0" y="0" width="24" height="24">
<path d="M12 14.4375C13.3462 14.4375 14.4375 13.3462 14.4375 12C14.4375 10.6538 13.3462 9.5625 12 9.5625C10.6538 9.5625 9.5625 10.6538 9.5625 12C9.5625 13.3462 10.6538 14.4375 12 14.4375ZM17.7 7.6875C17.4531 7.05053 16.9495 6.5469 16.3125 6.3C15.878 6.13808 15.4187 6.05306 14.955 6.04875C14.1825 6 13.9537 6 12 6C10.0463 6 9.8175 6 9.045 6.045C8.58135 6.04931 8.12198 6.13433 7.6875 6.29625C7.05053 6.54315 6.5469 7.04678 6.3 7.68375C6.13808 8.11823 6.05306 8.5776 6.04875 9.04125C6 9.8175 6 10.0463 6 12C6 13.9537 6 14.1825 6.045 14.955C6.04931 15.4187 6.13433 15.878 6.29625 16.3125C6.54315 16.9495 7.04678 17.4531 7.68375 17.7C8.11823 17.8619 8.5776 17.9469 9.04125 17.9513C9.81375 17.9888 10.0425 17.9963 11.9963 17.9963C13.95 17.9963 14.1788 17.9963 14.9513 17.9513C15.4149 17.9469 15.8743 17.8619 16.3088 17.7C16.9473 17.4555 17.4518 16.951 17.6963 16.3125C17.8582 15.878 17.9432 15.4187 17.9475 14.955C18 14.1825 18 13.9537 18 12C18 10.0463 18 9.8175 17.955 9.045C17.9495 8.58112 17.8632 8.12176 17.7 7.6875ZM12 15.75C9.92893 15.75 8.25 14.0711 8.25 12C8.25 9.92893 9.92893 8.25 12 8.25C14.0711 8.25 15.75 9.92893 15.75 12C15.75 12.9946 15.3549 13.9484 14.6517 14.6517C13.9484 15.3549 12.9946 15.75 12 15.75ZM15.9038 8.97375C15.4191 8.97375 15.0262 8.58088 15.0262 8.09625C15.0262 7.61162 15.4191 7.21875 15.9038 7.21875C16.3884 7.21875 16.7812 7.61162 16.7812 8.09625C16.7812 8.58088 16.3884 8.97375 15.9038 8.97375ZM12 0C5.37258 0 0 5.37258 0 12C0 18.6274 5.37258 24 12 24C18.6274 24 24 18.6274 24 12C24 8.8174 22.7357 5.76515 20.4853 3.51472C18.2348 1.26428 15.1826 0 12 0ZM19.2675 15C19.2555 15.606 19.1414 16.2057 18.93 16.7738C18.549 17.7568 17.7718 18.534 16.7887 18.915C16.2207 19.1264 15.621 19.2405 15.015 19.2525C14.235 19.29 13.9875 19.2975 12.015 19.2975C10.0425 19.2975 9.765 19.2975 9.015 19.2525C8.40898 19.2405 7.80933 19.1264 7.24125 18.915C6.25824 18.534 5.48102 17.7568 5.1 16.7738C4.88861 16.2057 4.77451 15.606 4.7625 15C4.725 14.22 4.7175 13.9725 4.7175 12C4.7175 10.0275 4.7175 9.75 4.7625 9C4.77451 8.39398 4.88861 7.79433 5.1 7.22625C5.48102 6.24324 6.25824 5.46602 7.24125 5.085C7.80933 4.87361 8.40898 4.75951 9.015 4.7475C9.795 4.71 10.0425 4.7025 12.015 4.7025C13.9875 4.7025 14.265 4.7025 15.015 4.7475C15.621 4.75951 16.2207 4.87361 16.7887 5.085C17.7718 5.46602 18.549 6.24324 18.93 7.22625C19.1414 7.79433 19.2555 8.39398 19.2675 9C19.305 9.78 19.3125 10.0275 19.3125 12C19.3125 13.9725 19.305 14.25 19.2675 15Z" fill="white"/>
</mask>
<g mask="url(#mask0_1878_10950)">
<path d="M24 0H0V24H24V0Z" fill="currentColor"/>
</g>
</svg>
