<svg width="24" height="24" viewBox="0 0 24 24" fill="none" xmlns="http://www.w3.org/2000/svg">
<mask id="mask0_1878_10922" style="mask-type:alpha" maskUnits="userSpaceOnUse" x="0" y="0" width="24" height="24">
<path d="M12 0C5.37258 0 0 5.37258 0 12C0 18.6274 5.37258 24 12 24C18.6274 24 24 18.6274 24 12C24 8.8174 22.7357 5.76516 20.4853 3.51472C18.2348 1.26428 15.1826 0 12 0ZM15.825 6.55125H14.52C13.4363 6.55125 13.02 7.365 13.02 8.11875V9.96375H15.8175L15.1987 12.66H13.0238V20.2875H9.75V12.66H7.575V9.96H9.75V7.71C9.75 5.35125 11.07 3.6975 13.875 3.6975H15.825V6.55125Z" fill="white"/>
</mask>
<g mask="url(#mask0_1878_10922)">
<path d="M24 0H0V24H24V0Z" fill="black"/>
</g>
</svg>
