<svg width="24" height="24" viewBox="0 0 24 24" fill="none" xmlns="http://www.w3.org/2000/svg">
<path d="M6 9.75C5.40326 9.75 4.83097 9.98705 4.40901 10.409C3.98705 10.831 3.75 11.4033 3.75 12C3.75 12.5967 3.98705 13.169 4.40901 13.591C4.83097 14.0129 5.40326 14.25 6 14.25C6.59674 14.25 7.16903 14.0129 7.59099 13.591C8.01295 13.169 8.25 12.5967 8.25 12C8.25 11.4033 8.01295 10.831 7.59099 10.409C7.16903 9.98705 6.59674 9.75 6 9.75Z" stroke="currentColor" stroke-width="1.5" stroke-linecap="round" stroke-linejoin="round"/>
<path d="M18 3C17.7045 3 17.4119 3.0582 17.139 3.17127C16.866 3.28434 16.6179 3.45008 16.409 3.65901C16.2001 3.86794 16.0343 4.11598 15.9213 4.38896C15.8082 4.66194 15.75 4.95453 15.75 5.25C15.75 5.54547 15.8082 5.83806 15.9213 6.11104C16.0343 6.38402 16.2001 6.63206 16.409 6.84099C16.6179 7.04992 16.866 7.21566 17.139 7.32873C17.4119 7.4418 17.7045 7.5 18 7.5C18.2955 7.5 18.5881 7.4418 18.861 7.32873C19.134 7.21566 19.3821 7.04992 19.591 6.84099C19.7999 6.63206 19.9657 6.38402 20.0787 6.11104C20.1918 5.83806 20.25 5.54547 20.25 5.25C20.25 4.95453 20.1918 4.66194 20.0787 4.38896C19.9657 4.11598 19.7999 3.86794 19.591 3.65901C19.3821 3.45008 19.134 3.28434 18.861 3.17127C18.5881 3.0582 18.2955 3 18 3V3Z" stroke="currentColor" stroke-width="1.5" stroke-linecap="round" stroke-linejoin="round"/>
<path d="M18 16.5C17.7045 16.5 17.4119 16.5582 17.139 16.6713C16.866 16.7843 16.6179 16.9501 16.409 17.159C16.2001 17.3679 16.0343 17.616 15.9213 17.889C15.8082 18.1619 15.75 18.4545 15.75 18.75C15.75 19.0455 15.8082 19.3381 15.9213 19.611C16.0343 19.884 16.2001 20.1321 16.409 20.341C16.6179 20.5499 16.866 20.7157 17.139 20.8287C17.4119 20.9418 17.7045 21 18 21C18.2955 21 18.5881 20.9418 18.861 20.8287C19.134 20.7157 19.3821 20.5499 19.591 20.341C19.7999 20.1321 19.9657 19.884 20.0787 19.611C20.1918 19.3381 20.25 19.0455 20.25 18.75C20.25 18.4545 20.1918 18.1619 20.0787 17.889C19.9657 17.616 19.7999 17.3679 19.591 17.159C19.3821 16.9501 19.134 16.7843 18.861 16.6713C18.5881 16.5582 18.2955 16.5 18 16.5V16.5Z" stroke="currentColor" stroke-width="1.5" stroke-linecap="round" stroke-linejoin="round"/>
<path d="M16.0394 6.35303L7.96094 10.8971M7.96094 13.103L16.0394 17.6471L7.96094 13.103Z" stroke="currentColor" stroke-width="1.5" stroke-linecap="round" stroke-linejoin="round"/>
</svg>
