<svg width="14" height="13" viewBox="0 0 14 13" fill="none" xmlns="http://www.w3.org/2000/svg">
	<path fill-rule="evenodd" clip-rule="evenodd" d="M7.47615 0.627261L9.02015 3.73326C9.09748 3.88993 9.24681 3.99926 9.42015 4.02459L12.8768 4.52393C13.0168 4.54259 13.1428 4.61593 13.2288 4.72793C13.3901 4.93793 13.3655 5.23524 13.1721 5.41591L10.6668 7.83857C10.5395 7.95857 10.4828 8.13457 10.5161 8.30591L11.1161 11.7246C11.1581 12.0079 10.9648 12.2732 10.6815 12.3192C10.5641 12.3372 10.4441 12.3186 10.3375 12.2659L7.25881 10.6519C7.10415 10.5679 6.91881 10.5679 6.76415 10.6519L3.66283 12.2746C3.4035 12.4066 3.08617 12.3086 2.94483 12.0546C2.89083 11.9519 2.87217 11.8352 2.89083 11.7212L3.49083 8.30257C3.52083 8.13191 3.46417 7.95657 3.34017 7.83591L0.821501 5.41391C0.616167 5.20991 0.614834 4.87793 0.819501 4.67259C0.820167 4.67193 0.820834 4.67059 0.821501 4.66993C0.906167 4.59326 1.01017 4.54193 1.12283 4.52193L4.58017 4.02259C4.75283 3.99526 4.9015 3.88726 4.98017 3.73059L6.52281 0.627261C6.58481 0.501261 6.69481 0.404594 6.82815 0.360594C6.96215 0.315927 7.10881 0.326594 7.23481 0.389928C7.33815 0.441261 7.42281 0.524594 7.47615 0.627261Z" fill="#2563EB"/>
</svg>
