<svg width="24" height="24" viewBox="0 0 24 24" fill="none" xmlns="http://www.w3.org/2000/svg">
	<path d="M15.2727 6H8.72727C5.56419 6 3 8.68629 3 12C3 15.3137 5.56419 18 8.72727 18H15.2727C18.4358 18 21 15.3137 21 12C21 8.68629 18.4358 6 15.2727 6Z" stroke="currentColor" stroke-width="1.5" stroke-linecap="round" stroke-linejoin="round"/>
	<path d="M15 9C14.2044 9 13.4413 9.31607 12.8787 9.87868C12.3161 10.4413 12 11.2044 12 12C12 12.7956 12.3161 13.5587 12.8787 14.1213C13.4413 14.6839 14.2044 15 15 15C15.7956 15 16.5587 14.6839 17.1213 14.1213C17.6839 13.5587 18 12.7956 18 12C18 11.2044 17.6839 10.4413 17.1213 9.87868C16.5587 9.31607 15.7956 9 15 9Z" stroke="currentColor" stroke-width="1.5" stroke-linecap="round" stroke-linejoin="round"/>
</svg>
