<svg width="12" height="12" viewBox="0 0 12 12" fill="none" xmlns="http://www.w3.org/2000/svg">
<path d="M2.625 2.625L3.09375 10.125C3.11602 10.5584 3.43125 10.875 3.84375 10.875H8.15625C8.57039 10.875 8.87977 10.5584 8.90625 10.125L9.375 2.625" stroke="black" stroke-width="0.4" stroke-linecap="round" stroke-linejoin="round"/>
<path d="M1.875 2.625H10.125H1.875Z" fill="black"/>
<path d="M1.875 2.625H10.125" stroke="black" stroke-width="0.4" stroke-miterlimit="10" stroke-linecap="round"/>
<path d="M7.6875 4.125L7.5 9.375M4.5 2.625V1.6875C4.49978 1.61357 4.51419 1.54033 4.54238 1.47199C4.57057 1.40364 4.61199 1.34155 4.66427 1.28927C4.71655 1.237 4.77864 1.19557 4.84698 1.16738C4.91533 1.13919 4.98857 1.12479 5.0625 1.125H6.9375C7.01143 1.12479 7.08467 1.13919 7.15302 1.16738C7.22136 1.19557 7.28345 1.237 7.33573 1.28927C7.38801 1.34155 7.42943 1.40364 7.45762 1.47199C7.48581 1.54033 7.50022 1.61357 7.5 1.6875V2.625H4.5ZM6 4.125V9.375V4.125ZM4.3125 4.125L4.5 9.375L4.3125 4.125Z" stroke="black" stroke-width="0.4" stroke-linecap="round" stroke-linejoin="round"/>
</svg>
