<svg width="26" height="24" viewBox="0 0 26 24" fill="none" xmlns="http://www.w3.org/2000/svg">
	<g filter="url(#filter0_d)">
		<mask id="mask0" mask-type="alpha" maskUnits="userSpaceOnUse" x="3" y="4" width="20" height="15">
			<rect x="3" y="4" width="20" height="15" fill="white"/>
		</mask>
		<g mask="url(#mask0)">
			<path fill-rule="evenodd" clip-rule="evenodd" d="M3 4V19H23V4H3Z" fill="#8290A5"/>
			<path d="M11 9.33333C10.995 8.43416 11.78 7.70291 12.745 7.70291H13.245H13.24C14.205 7.69749 14.99 8.42874 14.99 9.32791L14.985 9.32249C15.02 10.0429 14.615 10.7037 13.985 10.9475V10.9421C13.35 11.2617 12.945 12.1446 12.98 13.1033" stroke="white" stroke-linecap="round" stroke-linejoin="round"/>
			<path d="M13 15.2916V15.2966" stroke="white" stroke-linecap="round" stroke-linejoin="round"/>
		</g>
		<rect x="3" y="4" width="20" height="15" fill="url(#paint0_linear)" style="mix-blend-mode:overlay"/>
		<rect x="3.5" y="4.5" width="19" height="14" rx="1" stroke="black" stroke-opacity="0.1" style="mix-blend-mode:multiply"/>
	</g>
	<defs>
		<filter id="filter0_d" x="0" y="3" width="26" height="21" filterUnits="userSpaceOnUse" color-interpolation-filters="sRGB">
			<feFlood flood-opacity="0" result="BackgroundImageFix"/>
			<feColorMatrix in="SourceAlpha" type="matrix" values="0 0 0 0 0 0 0 0 0 0 0 0 0 0 0 0 0 0 127 0"/>
			<feOffset dy="2"/>
			<feGaussianBlur stdDeviation="1.5"/>
			<feColorMatrix type="matrix" values="0 0 0 0 0 0 0 0 0 0 0 0 0 0 0 0 0 0 0.1 0"/>
			<feBlend mode="normal" in2="BackgroundImageFix" result="effect1_dropShadow"/>
			<feBlend mode="normal" in="SourceGraphic" in2="effect1_dropShadow" result="shape"/>
		</filter>
		<linearGradient id="paint0_linear" x1="13" y1="4" x2="13" y2="19" gradientUnits="userSpaceOnUse">
			<stop stop-color="white" stop-opacity="0.7"/>
			<stop offset="1" stop-opacity="0.3"/>
		</linearGradient>
	</defs>
</svg>
