<svg width="24" height="24" viewBox="0 0 24 24" fill="none" xmlns="http://www.w3.org/2000/svg">
	<path fill-rule="evenodd" clip-rule="evenodd" d="M14.73 2.75998H8.06998C6.00998 2.75998 4.22998 4.42898 4.22998 6.47998V17.19C4.22998 19.36 5.87998 21.1 8.05998 21.1H16.04C18.1 21.1 19.76 19.25 19.76 17.18V8.00998L14.69 2.72998L14.73 2.75998Z" stroke="currentColor" stroke-width="1.5" stroke-linecap="round" stroke-linejoin="round"/>
	<path d="M9.66663 10.6667C9.66663 9.69835 10.5766 8.91669 11.7083 8.91669H12.2916C13.4175 8.91669 14.3333 9.69835 14.3333 10.6667C14.3741 11.4425 13.9016 12.1542 13.1666 12.4167C12.4258 12.7609 11.9533 13.7117 12 14.75" stroke="currentColor" stroke-width="1.5" stroke-linecap="round" stroke-linejoin="round"/>
	<path d="M12 17.0834V17.09" stroke="currentColor" stroke-width="1.5" stroke-linecap="round" stroke-linejoin="round"/>
	<path d="M14.4741 2.75V5.659C14.4741 7.079 15.6141 8.229 17.0341 8.229C18.3441 8.229 19.6941 8.229 19.7841 8.219" stroke="currentColor" stroke-width="1.5" stroke-linecap="round" stroke-linejoin="round"/>
</svg>
