<svg width="24" height="24" viewBox="0 0 24 24" fill="none" xmlns="http://www.w3.org/2000/svg">
<path d="M16.9991 17.6569C16.0455 18.5871 14.8714 19.2736 13.5808 19.6555C12.2902 20.0374 10.923 20.1029 9.60022 19.8463C8.27747 19.5896 7.04002 19.0187 5.99749 18.1841C4.95496 17.3495 4.13952 16.2769 3.62341 15.0615C3.1073 13.846 2.90645 12.5251 3.03864 11.2159C3.17083 9.90659 3.63199 8.64932 4.38127 7.55544C5.13055 6.46155 6.14481 5.5648 7.33423 4.94463C8.52365 4.32446 9.8515 4 11.2002 4" stroke="currentColor" stroke-width="1.5"/>
<path d="M13.9991 4.91211C15.4336 5.38219 16.6964 6.26706 17.6279 7.45483C18.5594 8.6426 19.1177 10.0799 19.2324 11.585C19.347 13.0901 19.0127 14.5954 18.2719 15.9106" stroke="currentColor" stroke-width="1.5"/>
</svg>
