<svg width="24" height="24" viewBox="0 0 24 24" fill="none" xmlns="http://www.w3.org/2000/svg">
<mask id="mask0_1878_11074" style="mask-type:alpha" maskUnits="userSpaceOnUse" x="0" y="0" width="24" height="24">
<path d="M19.4496 13.9875C21.9527 15.6127 24 18.7472 24 23.9103H0C0 18.7472 2.04732 15.6127 4.55044 13.9875C6.31834 16.3226 9.07124 17.7032 12 17.7235C14.9288 17.7032 17.6817 16.3226 19.4496 13.9875ZM12 0C15.8817 0 19.0535 3.39601 19.0535 7.56912C19.0535 11.7422 15.878 15.1345 12 15.1345C8.11831 15.1345 4.96513 11.7385 4.96513 7.56912C4.96513 3.39975 8.11831 0 12 0Z" fill="white"/>
</mask>
<g mask="url(#mask0_1878_11074)">
<path d="M19.4496 13.9875C21.9527 15.6127 24 18.7472 24 23.9103H0C0 18.7472 2.04732 15.6127 4.55044 13.9875C6.31834 16.3226 9.07124 17.7032 12 17.7235C14.9288 17.7032 17.6817 16.3226 19.4496 13.9875ZM12 0C15.8817 0 19.0535 3.39601 19.0535 7.56912C19.0535 11.7422 15.878 15.1345 12 15.1345C8.11831 15.1345 4.96513 11.7385 4.96513 7.56912C4.96513 3.39975 8.11831 0 12 0Z" fill="black"/>
<path d="M24 0H0V24H24V0Z" fill="black"/>
</g>
</svg>
