<svg width="24" height="24" viewBox="0 0 24 24" fill="none" xmlns="http://www.w3.org/2000/svg">
	<rect x="2.40002" y="2.40002" width="19.2" height="19.2" rx="9.6" stroke="currentColor" stroke-width="1.5" stroke-linecap="round" stroke-linejoin="round"/>
	<path d="M12.0277 6.34587C11.2762 6.34587 10.5556 6.64282 10.0243 7.17138C9.49296 7.69995 9.19446 8.41685 9.19446 9.16435C9.19446 9.91186 9.49296 10.6288 10.0243 11.1573C10.5556 11.6859 11.2762 11.9828 12.0277 11.9828C12.7799 11.9828 13.5013 11.6856 14.0331 11.1565C14.565 10.6273 14.8638 9.9097 14.8638 9.1614C14.8638 8.41311 14.565 7.69547 14.0331 7.16635C13.5013 6.63722 12.7799 6.33997 12.0277 6.33997V6.34587Z" stroke="currentColor" stroke-width="1.5" stroke-linecap="round" stroke-linejoin="round"/>
	<path fill-rule="evenodd" clip-rule="evenodd" d="M7.5361 15.9081C7.53016 15.7075 7.57763 15.5127 7.6607 15.3297C7.9277 14.7867 8.69311 14.4974 9.32799 14.3676C9.78486 14.2672 10.2477 14.2023 10.7164 14.1728C11.5768 14.0961 12.449 14.0961 13.3152 14.1728C13.778 14.2023 14.2468 14.2672 14.7037 14.3617C15.3385 14.4856 16.1039 14.7453 16.3709 15.3179C16.543 15.6779 16.543 16.1029 16.3709 16.463C16.098 17.0296 15.3326 17.2894 14.6977 17.4133C14.2349 17.5137 13.7721 17.5786 13.3034 17.6081C12.5973 17.6671 11.8912 17.673 11.1851 17.6376C11.019 17.6376 10.8588 17.6376 10.6986 17.6022C10.2299 17.5668 9.76706 17.5018 9.31019 17.4015C8.66345 17.2716 7.90397 17.0178 7.63103 16.4453C7.54203 16.2623 7.49456 16.0616 7.5005 15.8668L7.5361 15.9081Z" stroke="currentColor" stroke-width="1.5" stroke-linecap="round" stroke-linejoin="round"/>
</svg>
