<svg width="24" height="24" viewBox="0 0 24 24" fill="none" xmlns="http://www.w3.org/2000/svg">
<mask id="mask0_1878_11082" style="mask-type:alpha" maskUnits="userSpaceOnUse" x="0" y="0" width="24" height="24">
<path d="M19.4496 13.9875C21.9527 15.6127 24 18.7472 24 23.9103H21.8817C21.8817 19.9016 20.4247 16.9054 17.9552 15.5305C18.5068 15.0708 19.0078 14.5536 19.4496 13.9875ZM4.55044 13.9875C4.99223 14.5536 5.4932 15.0708 6.04483 15.5305C3.57534 16.9054 2.11831 19.9016 2.11831 23.9103H0C0 18.7472 2.04732 15.6127 4.55044 13.9875ZM12 0C15.878 0 19.0535 3.39601 19.0535 7.56912C19.0535 11.7422 15.878 15.1345 12 15.1345C8.12204 15.1345 4.96513 11.7385 4.96513 7.56912C4.96513 3.39975 8.12204 0 12 0ZM12 2.11831C9.28767 2.11831 7.09838 4.56164 7.09838 7.56912C7.09838 10.5766 9.30635 13.0162 12.0187 13.0162C14.731 13.0162 16.9203 10.5729 16.9203 7.56912C16.9203 4.56538 14.7123 2.11831 12 2.11831Z" fill="white"/>
</mask>
<g mask="url(#mask0_1878_11082)">
<path d="M19.4496 13.9875C21.9527 15.6127 24 18.7472 24 23.9103H21.8817C21.8817 19.9016 20.4247 16.9054 17.9552 15.5305C18.5068 15.0708 19.0078 14.5536 19.4496 13.9875ZM4.55044 13.9875C4.99223 14.5536 5.4932 15.0708 6.04483 15.5305C3.57534 16.9054 2.11831 19.9016 2.11831 23.9103H0C0 18.7472 2.04732 15.6127 4.55044 13.9875ZM12 0C15.878 0 19.0535 3.39601 19.0535 7.56912C19.0535 11.7422 15.878 15.1345 12 15.1345C8.12204 15.1345 4.96513 11.7385 4.96513 7.56912C4.96513 3.39975 8.12204 0 12 0ZM12 2.11831C9.28767 2.11831 7.09838 4.56164 7.09838 7.56912C7.09838 10.5766 9.30635 13.0162 12.0187 13.0162C14.731 13.0162 16.9203 10.5729 16.9203 7.56912C16.9203 4.56538 14.7123 2.11831 12 2.11831Z" fill="black"/>
<path d="M24 0H0V24H24V0Z" fill="black"/>
</g>
</svg>
