<svg width="100" height="100" viewBox="0 0 24 24" fill="none" xmlns="http://www.w3.org/2000/svg">
<mask id="mask0_2_8231" style="mask-type:alpha" maskUnits="userSpaceOnUse" x="0" y="0" width="24" height="24">
<path d="M12 24C18.6274 24 24 18.6274 24 12C24 5.37258 18.6274 0 12 0C5.37258 0 0 5.37258 0 12C0 18.6274 5.37258 24 12 24ZM10.5 4.5H13.5V14.25H10.5V4.5ZM12 15.4275C13.0355 15.4275 13.875 16.267 13.875 17.3025C13.875 18.338 13.0355 19.1775 12 19.1775C10.9645 19.1775 10.125 18.338 10.125 17.3025C10.125 16.267 10.9645 15.4275 12 15.4275Z" fill="white"/>
</mask>
<g mask="url(#mask0_2_8231)">
<path d="M24 0H0V24H24V0Z" fill="black"/>
</g>
</svg>
