<svg width="468" height="349" viewBox="0 0 468 349" fill="none" xmlns="http://www.w3.org/2000/svg">
<path d="M457.334 12.7165V325.633C457.334 332.044 452.11 337.262 445.689 337.262H12.734C6.31318 337.262 1.08881 332.044 1.08881 325.633V12.7165C1.08881 6.30335 6.31318 1.08594 12.734 1.08594H445.798C452.11 1.08594 457.334 6.30335 457.334 12.7165Z" fill="white"/>
<path d="M457.334 12.7165V35.5411H1.08881V12.7165C1.08881 6.30335 6.31318 1.08594 12.734 1.08594H445.798C452.11 1.08594 457.334 6.30335 457.334 12.7165ZM218.437 222.052L218.871 212.921C218.871 212.269 218.327 211.618 217.675 211.618L24.0541 201.4C23.4001 201.4 22.748 201.944 22.748 202.596L22.3113 211.727C22.3113 212.379 22.8557 213.03 23.5097 213.03L217.131 223.248C217.892 223.248 218.437 222.812 218.437 222.052ZM32.8697 239.984V249.116C32.8697 249.768 33.4141 250.312 34.0661 250.312H227.906C228.558 250.312 229.103 249.768 229.103 249.116V239.984C229.103 239.333 228.558 238.791 227.906 238.791H34.0661C33.4141 238.791 32.8697 239.333 32.8697 239.984ZM229.32 273.896L229.103 264.766C229.103 264.114 228.558 263.57 227.797 263.57L34.0661 269.005C33.4141 269.005 32.8697 269.549 32.8697 270.31L33.0871 279.44C33.0871 280.091 33.6315 280.636 34.3932 280.636L228.124 275.201C228.776 275.201 229.32 274.657 229.32 273.896ZM237.047 302.916L43.4261 293.896C42.7741 293.896 42.1201 294.438 42.1201 295.09L41.6854 304.221C41.6854 304.873 42.2297 305.525 42.8818 305.525L236.505 314.547C237.157 314.547 237.811 314.003 237.811 313.351L238.245 304.221C238.245 303.46 237.701 302.916 237.047 302.916Z" fill="#EEC4DA"/>
<path d="M32.8697 60.6473H425.553V185.967H32.8697V60.6473ZM457.226 12.0645C457.226 12.2817 457.226 12.4989 457.226 12.7161V325.633C457.226 332.044 452.002 337.261 445.579 337.261H12.7339C12.0819 337.261 11.4278 337.154 10.7758 337.044C11.1008 343.13 16.1078 348.023 22.3113 348.023H455.376C461.797 348.023 467.021 342.806 467.021 336.392V23.3682C466.911 17.7163 462.668 12.9333 457.226 12.0645Z" fill="#EBE6E8"/>
<path d="M425.553 202.38V337.263H245.645V202.38H313.995L320.525 212.815L313.995 226.51L315.738 247.595L320.525 276.181L323.574 244.661L319.763 230.097L328.362 217.705L331.409 202.489H425.553V202.38ZM271.984 166.077C277.209 160.862 277.209 152.384 271.984 147.167L248.15 123.254L271.984 99.4506C277.209 94.2352 277.209 85.7574 271.984 80.54C266.76 75.3226 258.271 75.3226 253.047 80.54L229.212 104.343L205.376 80.54C200.151 75.3226 191.663 75.3226 186.438 80.54C181.214 85.7574 181.214 94.2352 186.438 99.4506L210.273 123.254L186.438 147.057C181.214 152.274 181.214 160.752 186.438 165.97C191.663 171.187 200.151 171.187 205.376 165.97L229.212 142.166L253.047 165.97C258.271 171.295 266.76 171.295 271.984 166.077Z" fill="#DC0069"/>
<path d="M439.812 10.7596H423.812C423.16 10.7596 422.723 11.1941 422.723 11.8478V27.8248C422.723 28.4765 423.16 28.9109 423.812 28.9109H439.812C440.464 28.9109 440.899 28.4765 440.899 27.8248V11.8478C440.899 11.1941 440.464 10.7596 439.812 10.7596ZM438.724 26.7367H424.901V12.9339H438.724V26.7367ZM413.363 10.7596H397.365C396.711 10.7596 396.277 11.1941 396.277 11.8478V27.8248C396.277 28.4765 396.711 28.9109 397.365 28.9109H413.363C414.017 28.9109 414.452 28.4765 414.452 27.8248V11.8478C414.452 11.1941 414.017 10.7596 413.363 10.7596ZM412.275 26.7367H398.454V12.9339H412.275V26.7367ZM386.917 10.7596H370.918C370.264 10.7596 369.83 11.1941 369.83 11.8478V27.8248C369.83 28.4765 370.264 28.9109 370.918 28.9109H386.917C387.571 28.9109 388.005 28.4765 388.005 27.8248V11.8478C388.005 11.1941 387.571 10.7596 386.917 10.7596ZM385.828 26.7367H372.005V12.9339H385.828V26.7367ZM32.8697 187.053H425.553C426.207 187.053 426.642 186.619 426.642 185.967V60.6478C426.642 59.9961 426.207 59.5617 425.553 59.5617H32.8697C32.2156 59.5617 31.7809 59.9961 31.7809 60.6478V185.967C31.7809 186.619 32.2156 187.053 32.8697 187.053ZM33.9584 61.736H424.466V184.881H33.9584V61.736ZM23.5097 214.117L217.13 224.334H217.24C218.437 224.334 219.525 223.356 219.525 222.16L219.96 213.031C220.07 211.727 219.091 210.639 217.785 210.532L24.1617 200.314C22.8556 200.204 21.7669 201.183 21.6592 202.488L21.2245 211.618C21.2245 213.031 22.2036 214.117 23.5097 214.117ZM23.9444 202.705C23.9444 202.596 24.0541 202.596 24.0541 202.596L217.675 212.813C217.785 212.813 217.785 212.921 217.785 212.921L217.348 222.053C217.348 222.16 217.24 222.27 217.24 222.16L23.6173 211.945C23.5097 211.945 23.5097 211.835 23.5097 211.835L23.9444 202.705ZM34.0661 251.508H227.906C229.212 251.508 230.191 250.419 230.191 249.224V240.094C230.191 238.791 229.103 237.812 227.906 237.812H34.0661C32.76 237.812 31.7809 238.898 31.7809 240.094V249.224C31.7809 250.419 32.76 251.508 34.0661 251.508ZM33.9584 239.985C33.9584 239.877 34.0661 239.877 34.0661 239.877H227.906C228.014 239.877 228.014 239.985 228.014 239.985V249.116C228.014 249.224 227.906 249.224 227.906 249.224H34.0661C33.9584 249.224 33.9584 249.116 33.9584 249.116V239.985ZM229.755 275.528C230.191 275.091 230.409 274.44 230.409 273.896L230.191 264.766C230.191 264.115 229.864 263.57 229.43 263.136C228.993 262.702 228.341 262.484 227.797 262.484L34.0661 267.919C33.4141 267.919 32.8697 268.244 32.433 268.68C31.9983 269.115 31.7809 269.766 31.7809 270.311L31.9983 279.44C31.9983 280.092 32.3253 280.636 32.76 281.07C33.1947 281.505 33.7391 281.722 34.3931 281.722C34.3931 281.722 34.3931 281.722 34.5008 281.722L228.231 276.287C228.776 276.287 229.32 276.07 229.755 275.528ZM34.2834 279.548C34.1758 279.548 34.1758 279.44 34.1758 279.44L33.9584 270.311C33.9584 270.201 34.0661 270.201 34.0661 270.201L227.797 264.766C227.906 264.766 227.906 264.876 227.906 264.876L228.124 274.005C228.124 274.115 228.014 274.115 228.014 274.115L34.2834 279.548ZM237.047 301.83L43.4261 292.808C42.7741 292.808 42.2297 293.026 41.793 293.46C41.3583 293.896 41.0312 294.438 41.0312 295.09L40.5966 304.222C40.4869 305.525 41.5756 306.611 42.7741 306.611L236.395 315.633H236.505C237.701 315.633 238.79 314.654 238.79 313.459L239.224 304.329C239.224 303.678 239.007 303.133 238.572 302.699C238.245 302.047 237.701 301.83 237.047 301.83ZM236.722 313.241C236.722 313.351 236.612 313.351 236.612 313.351L42.8817 304.329C42.7741 304.329 42.7741 304.222 42.7741 304.222L43.2087 295.09C43.2087 294.983 43.3184 294.983 43.3184 294.983L236.939 304.004C237.047 304.004 237.047 304.112 237.047 304.112L236.722 313.241ZM458.313 11.0865C457.551 4.89056 452.219 0 445.689 0H12.7339C5.65906 0 0 5.65185 0 12.7167V325.633C0 331.61 4.13562 336.61 9.68703 337.914C10.4487 344.219 15.7808 349 22.2036 349H455.266C462.231 349 468 343.348 468 336.283V23.3687C468 17.4996 463.974 12.4995 458.313 11.0865ZM2.1775 12.7167C2.1775 6.8476 6.8575 2.17426 12.7339 2.17426H445.798C451.348 2.17426 455.92 6.52075 456.245 12.065V12.2822C456.245 12.3898 456.245 12.4995 456.245 12.607V34.3456H2.1775V12.7167ZM2.1775 325.633V36.6274H456.245V325.633C456.245 331.393 451.565 336.176 445.689 336.176H426.642V202.379C426.642 201.727 426.207 201.293 425.553 201.293H331.409C330.866 201.293 330.43 201.617 330.322 202.161L327.273 217.16L318.894 229.335C318.675 229.552 318.675 229.877 318.784 230.203L322.485 244.55L320.2 267.809L316.717 247.376L314.976 226.616L321.397 213.248C321.506 212.921 321.506 212.487 321.287 212.162L314.758 201.727C314.539 201.4 314.214 201.183 313.887 201.183H245.537C244.883 201.183 244.449 201.617 244.449 202.271V336.066H12.6262C12.2992 336.066 11.9722 336.066 11.7548 336.066C11.4278 336.066 11.2105 335.958 10.8834 335.958C5.98609 335.088 2.1775 330.741 2.1775 325.633ZM314.539 247.703L319.329 276.287C319.438 276.831 319.873 277.158 320.417 277.158C320.962 277.158 321.397 276.722 321.506 276.18L324.553 244.66C324.553 244.55 324.553 244.443 324.553 244.333L320.852 230.203L329.233 218.248C329.341 218.138 329.341 218.031 329.45 217.814L332.28 203.467H424.466V336.176H246.734V203.467H313.343L319.219 212.921L312.908 226.074C312.798 226.291 312.798 226.399 312.798 226.616L314.539 247.703ZM465.825 336.393C465.825 342.152 461.145 346.935 455.266 346.935H22.2036C17.0869 346.935 12.7339 343.241 11.8645 338.35C12.0819 338.35 12.4069 338.35 12.6262 338.35H445.689C452.654 338.35 458.423 332.698 458.423 325.633V13.3683C462.776 14.6737 465.825 18.6954 465.825 23.3687V336.393Z" fill="black"/>
</svg>
