<?xml version="1.0" encoding="utf-8"?>
<!-- Generator: Adobe Illustrator 27.1.1, SVG Export Plug-In . SVG Version: 6.00 Build 0)  -->
<svg version="1.1" xmlns="http://www.w3.org/2000/svg" xmlns:xlink="http://www.w3.org/1999/xlink" x="0px" y="0px"
	 viewBox="0 0 486 478.96" style="enable-background:new 0 0 486 478.96;" xml:space="preserve">
<style type="text/css">
	
		.st0{clip-path:url(#SVGID_00000031173139893054664840000006392321472582100144_);fill:none;stroke:#ffffff;stroke-width:12;stroke-linecap:round;stroke-linejoin:round;stroke-miterlimit:10;}
	
		.st1{clip-path:url(#SVGID_00000031173139893054664840000006392321472582100144_);fill:none;stroke:#ffffff;stroke-width:0.12;stroke-linecap:round;stroke-linejoin:round;stroke-miterlimit:10;}
	.st2{clip-path:url(#SVGID_00000031173139893054664840000006392321472582100144_);}
</style>
<g id="Layer_1">
	<g>
		<defs>
			<polyline id="SVGID_1_" points="-185.78,550 656.02,550 656.02,-45.2 -185.78,-45.2 -185.78,550 			"/>
		</defs>
		<clipPath id="SVGID_00000073688858793405783190000010581050560563345085_">
			<use xlink:href="#SVGID_1_"  style="overflow:visible;"/>
		</clipPath>
		
			<path style="clip-path:url(#SVGID_00000073688858793405783190000010581050560563345085_);fill:none;stroke:#ffffff;stroke-width:12;stroke-linecap:round;stroke-linejoin:round;stroke-miterlimit:10;" d="
			M245.47,461.95c-58.48,0-113.46-22.77-154.81-64.13c-41.35-41.35-64.13-96.33-64.13-154.81c0-58.48,22.77-113.46,64.13-154.81
			s96.33-64.13,154.81-64.13c58.48,0,113.46,22.77,154.81,64.13c41.35,41.35,64.12,96.33,64.12,154.81
			c0,58.48-22.77,113.46-64.12,154.81C358.93,439.18,303.95,461.95,245.47,461.95z M245.47,450.61"/>
		
			<path style="clip-path:url(#SVGID_00000073688858793405783190000010581050560563345085_);fill:none;stroke:#ffffff;stroke-width:0.12;stroke-linecap:round;stroke-linejoin:round;stroke-miterlimit:10;" d="
			M245.47,467.62"/>
		<polyline style="clip-path:url(#SVGID_00000073688858793405783190000010581050560563345085_);" points="281.32,281.08 
			280.42,281.02 279.52,280.9 278.62,280.72 277.72,280.48 276.82,280.18 275.98,279.76 275.14,279.28 274.3,278.74 273.52,278.14 
			272.8,277.48 272.14,276.76 271.54,276.04 271,275.26 270.52,274.42 270.1,273.58 269.8,272.74 269.5,271.9 269.32,271.06 
			269.14,270.16 269.08,269.26 269.02,268.3 269.08,267.4 269.2,266.44 269.44,265.48 269.68,264.52 270.04,263.62 270.46,262.72 
			270.94,261.88 271.48,261.1 272.08,260.32 272.74,259.66 273.4,259 274.12,258.4 274.84,257.92 275.62,257.44 275.74,257.38 
			276.04,257.32 276.58,257.08 277.66,256.66 279.76,255.88 281.86,255.16 285.88,253.78 289.78,252.58 293.44,251.5 296.92,250.48 
			298.6,250 300.16,249.52 301.66,249.04 303.1,248.56 305.86,247.54 308.32,246.58 310.6,245.56 312.7,244.54 314.62,243.52 
			316.42,242.5 318.04,241.42 319.6,240.28 321.1,239.14 322.54,237.88 324.04,236.56 325.48,235.12 326.98,233.5 327.76,232.6 
			328.54,231.7 329.26,230.68 330.04,229.54 330.76,228.34 331.48,226.96 332.14,225.46 332.74,223.78 333.34,221.92 333.88,219.88 
			334.3,217.6 334.42,217 334.48,216.7 334.24,216.7 333.82,216.7 333.04,216.7 326.44,216.7 221.14,216.7 168.46,216.7 
			161.86,216.7 160.24,216.7 159.4,216.7 158.98,216.7 158.8,216.7 158.68,216.7 158.68,216.82 158.68,217.42 158.68,218.62 
			158.68,223.36 158.68,224.56 158.74,224.62 158.86,224.68 159.4,224.98 160.48,225.58 162.64,226.84 166.9,229.3 184.12,239.14 
			201.34,248.98 209.98,253.9 214.24,256.36 215.32,256.96 215.86,257.26 216.16,257.38 216.22,257.44 216.58,257.68 217.36,258.16 
			218.08,258.7 218.8,259.3 219.46,259.96 220.12,260.68 220.66,261.46 221.2,262.3 221.62,263.14 222.04,264.04 222.34,265 
			222.58,265.9 222.7,266.86 222.82,267.82 222.82,268.72 222.76,269.68 222.64,270.58 222.52,271.42 222.28,272.26 221.98,273.16 
			221.56,274 221.14,274.84 220.66,275.62 220.06,276.4 219.46,277.12 218.74,277.78 218.02,278.44 217.18,278.98 216.4,279.52 
			215.5,279.94 214.6,280.3 213.7,280.6 212.8,280.84 211.9,280.96 211.06,281.08 210.58,281.08 210.58,281.14 210.58,281.26 
			210.58,281.44 210.58,282.1 210.58,284.98 210.58,287.8 210.58,289.18 210.58,289.9 210.58,290.26 210.58,290.44 210.58,290.5 
			210.4,290.5 199.12,290.5 193.42,290.5 192.04,290.5 191.68,290.56 191.68,290.92 191.68,291.58 191.68,294.4 191.68,305.74 
			191.68,308.56 191.68,309.28 191.68,309.34 191.68,309.4 191.92,309.4 192.94,309.4 194.98,309.4 203.08,309.4 235.6,309.4 
			268.12,309.4 284.38,309.4 292.48,309.4 296.56,309.4 298.6,309.4 299.62,309.4 300.1,309.4 300.22,309.4 300.22,309.34 
			300.22,298 300.22,292.36 300.22,290.98 300.22,290.62 300.16,290.5 300.1,290.5 299.92,290.5 299.2,290.5 296.38,290.5 
			285.04,290.5 282.22,290.5 281.56,290.5 281.38,290.5 281.32,290.44 281.32,290.26 281.32,289.6 281.32,286.72 281.32,281.08 		
			"/>
		<polyline style="clip-path:url(#SVGID_00000073688858793405783190000010581050560563345085_);" points="104.62,194.08 
			105.28,190.42 106.06,186.76 106.9,183.16 107.86,179.62 108.88,176.08 109.96,172.66 111.16,169.24 112.42,165.88 113.8,162.58 
			115.24,159.34 116.8,156.1 118.48,152.98 120.16,149.86 122.02,146.86 123.88,143.86 125.92,140.92 128.02,138.1 130.18,135.28 
			132.46,132.52 134.8,129.88 137.26,127.24 139.84,124.66 142.48,122.2 145.24,119.8 148.06,117.4 151,115.12 154.06,112.9 
			157.18,110.74 160.42,108.7 163.72,106.66 167.14,104.74 170.62,102.88 170.62,158.86 167.68,161.44 164.74,164.02 161.92,166.78 
			159.16,169.6 156.52,172.54 154,175.6 151.54,178.72 149.14,181.9 146.92,185.2 144.82,188.56 142.78,191.98 140.86,195.46 
			139.12,199 137.44,202.6 135.94,206.2 134.56,209.86 		"/>
		<polygon style="clip-path:url(#SVGID_00000073688858793405783190000010581050560563345085_);" points="131.02,221.5 130,225.88 
			129.16,230.32 128.44,234.82 127.96,239.38 127.6,243.94 127.48,248.56 127.48,253.18 127.72,257.74 128.08,262.36 128.68,266.92 
			129.4,271.48 130.36,275.98 131.44,280.42 132.7,284.8 134.08,289.06 135.64,293.32 99.52,288.88 97.78,286.18 96.16,283.42 
			94.66,280.6 93.28,277.78 92.02,274.84 90.88,271.9 89.8,268.96 88.84,265.96 88,262.9 87.28,259.9 86.62,256.84 86.02,253.78 
			85.54,250.72 85.18,247.66 84.82,244.6 84.58,241.6 84.4,238.54 84.34,235.54 84.28,232.6 84.34,229.66 84.4,226.78 84.58,223.96 
			84.76,221.14 85,218.38 85.3,215.68 85.66,213.1 86.02,210.52 86.44,208.06 86.86,205.66 87.34,203.32 87.88,201.1 88.42,199 		
			"/>
		
			<line style="clip-path:url(#SVGID_00000073688858793405783190000010581050560563345085_);" x1="104.62" y1="194.08" x2="134.56" y2="209.86"/>
		<polyline style="clip-path:url(#SVGID_00000073688858793405783190000010581050560563345085_);" points="359.8,221.5 
			360.82,225.88 361.66,230.32 362.38,234.82 362.86,239.38 363.22,243.94 363.34,248.56 363.34,253.18 363.1,257.74 362.74,262.36 
			362.14,266.92 361.42,271.48 360.52,275.98 359.38,280.42 358.12,284.8 356.74,289.06 355.18,293.32 391.3,288.88 393.04,286.18 
			394.66,283.42 396.16,280.6 397.54,277.78 398.8,274.84 399.94,271.9 401.02,268.96 401.98,265.96 402.82,262.9 403.54,259.9 
			404.2,256.84 404.8,253.78 405.28,250.72 405.64,247.66 406,244.6 406.24,241.6 406.42,238.54 406.48,235.54 406.54,232.6 
			406.48,229.66 406.42,226.78 406.24,223.96 406.06,221.14 405.82,218.38 405.52,215.68 405.16,213.1 404.8,210.52 404.38,208.06 
			403.96,205.66 403.48,203.32 402.94,201.1 402.4,199 359.8,221.5 		"/>
		<polygon style="clip-path:url(#SVGID_00000073688858793405783190000010581050560563345085_);" points="141.58,306.04 88.24,299.5 
			89.14,301.42 90.1,303.34 92.2,307.3 94.54,311.38 97.06,315.52 99.76,319.72 102.7,323.92 105.88,328.24 109.24,332.5 
			112.78,336.76 116.5,341.08 120.46,345.28 124.6,349.48 128.98,353.62 133.48,357.7 138.22,361.66 143.15,365.56 148.25,369.28 
			153.53,372.88 158.99,376.36 161.81,378.04 164.62,379.66 167.5,381.28 170.44,382.78 173.38,384.28 176.44,385.72 179.5,387.1 
			182.56,388.48 185.74,389.74 188.92,390.94 192.16,392.14 195.4,393.22 198.7,394.24 202.06,395.2 205.48,396.1 208.9,396.94 
			212.38,397.72 215.86,398.44 219.46,399.04 223.06,399.58 226.66,400 230.32,400.42 234.04,400.72 237.82,400.9 241.6,401.02 
			245.44,401.08 249.22,401.02 253,400.9 256.78,400.72 260.5,400.42 264.16,400 267.76,399.58 271.36,399.04 274.96,398.44 
			278.44,397.72 281.92,396.94 285.34,396.1 288.76,395.2 292.12,394.24 295.42,393.22 298.66,392.14 301.9,390.94 305.08,389.74 
			308.26,388.48 311.32,387.1 314.38,385.72 317.44,384.28 320.38,382.78 323.32,381.28 326.2,379.66 329.08,378.04 331.84,376.36 
			337.3,372.88 342.58,369.28 347.68,365.56 352.6,361.66 357.34,357.7 361.84,353.62 366.22,349.48 370.36,345.28 374.32,341.08 
			378.04,336.76 381.58,332.5 384.94,328.24 388.12,323.92 391.06,319.72 393.76,315.52 396.28,311.38 398.62,307.3 400.72,303.34 
			401.68,301.42 402.58,299.5 349.24,306.04 347.38,309.34 345.4,312.64 343.3,315.88 341.08,319.12 338.74,322.24 336.28,325.3 
			333.7,328.36 331,331.3 328.18,334.12 325.24,336.88 322.24,339.58 319.12,342.16 315.94,344.68 312.64,347.02 309.22,349.3 
			305.8,351.4 302.26,353.44 298.66,355.36 295,357.1 291.34,358.78 287.56,360.28 283.78,361.66 280,362.86 276.16,364 
			272.26,364.96 268.42,365.8 264.58,366.52 260.68,367.06 256.84,367.48 253,367.84 249.22,368.02 245.44,368.08 241.6,368.02 
			237.82,367.84 233.98,367.48 230.14,367.06 226.24,366.52 222.4,365.8 218.56,364.96 214.66,364 210.82,362.86 207.04,361.66 
			203.26,360.28 199.48,358.78 195.82,357.1 192.16,355.36 188.56,353.44 185.03,351.4 181.61,349.3 178.19,347.02 174.89,344.68 
			171.71,342.16 168.59,339.58 165.59,336.88 162.65,334.12 159.82,331.3 157.12,328.36 154.54,325.3 152.08,322.24 149.74,319.12 
			147.52,315.88 145.42,312.64 143.44,309.34 		"/>
		<polygon style="clip-path:url(#SVGID_00000073688858793405783190000010581050560563345085_);" points="386.2,194.08 
			385.54,190.42 384.76,186.76 383.92,183.16 382.96,179.62 381.94,176.08 380.86,172.66 379.66,169.24 378.4,165.88 377.02,162.58 
			375.58,159.34 374.02,156.1 372.4,152.98 370.66,149.86 368.8,146.86 366.94,143.86 364.9,140.92 362.8,138.1 360.64,135.28 
			358.36,132.52 356.02,129.88 353.56,127.24 350.98,124.66 348.34,122.2 345.58,119.8 342.76,117.4 339.82,115.12 336.76,112.9 
			333.64,110.74 330.4,108.7 327.1,106.66 323.68,104.74 320.2,102.88 320.2,158.86 323.14,161.44 326.08,164.02 328.9,166.78 
			331.66,169.6 334.3,172.54 336.82,175.6 339.28,178.72 341.68,181.9 343.9,185.2 346,188.56 348.04,191.98 349.96,195.46 
			351.7,199 353.38,202.6 354.88,206.2 356.26,209.86 		"/>
	</g>
</g>
<g id="Layer_2">
</g>
<g id="Layer_3">
</g>
</svg>
