<svg width="342" height="342" viewBox="0 0 342 342" fill="none" xmlns="http://www.w3.org/2000/svg">
<circle cx="171" cy="171" r="171" fill="#F5F5F5"/>
<mask id="mask0_12984_209595" style="mask-type:alpha" maskUnits="userSpaceOnUse" x="0" y="0" width="342" height="342">
<circle cx="171" cy="171" r="171" fill="#F5F5F5"/>
</mask>
<g mask="url(#mask0_12984_209595)">
<g filter="url(#filter0_d_12984_209595)">
<path fill-rule="evenodd" clip-rule="evenodd" d="M88.4259 51C75.6974 51 65.3789 61.3185 65.3789 74.047V346.953C65.3789 359.682 75.6974 370 88.4259 370H252.574C265.302 370 275.621 359.682 275.621 346.953V74.047C275.621 61.3185 265.302 51 252.574 51H217.446C216.933 51 216.402 51.0824 216.019 51.4232C215.487 51.8967 215.163 52.5772 215.148 53.3119L215.119 54.7313C215.119 63.7861 207.778 71.1265 198.723 71.1265H142.49C133.435 71.1265 126.094 63.7861 126.094 54.7313L126.065 53.3119C126.05 52.5772 125.726 51.8967 125.194 51.4232C124.811 51.0824 124.28 51 123.767 51H88.4259Z" fill="white"/>
</g>
</g>
<circle cx="292" cy="171" r="32" fill="#DC0069"/>
<mask id="mask1_12984_209595" style="mask-type:alpha" maskUnits="userSpaceOnUse" x="277" y="160" width="31" height="24">
<path d="M279.678 172.93L277.798 174.809L286.212 183.223L307.428 162.012L305.548 160.133L286.212 179.469L279.678 172.93Z" fill="white"/>
</mask>
<g mask="url(#mask1_12984_209595)">
<path d="M279.678 172.93L277.798 174.809L286.212 183.223L307.428 162.012L305.548 160.133L286.212 179.469L279.678 172.93Z" fill="white"/>
<path d="M312.797 151.801H272.797V191.801H312.797V151.801Z" fill="white"/>
</g>
<g filter="url(#filter1_d_12984_209595)">
<rect x="41" y="93.1348" width="197" height="49.0311" rx="3.50222" fill="white"/>
</g>
<path d="M90.3765 107.796L88.1333 115.393H86.9093L85.4804 110.428L84.041 115.393H82.8379L80.6 107.796H82.1025L83.5156 112.813L84.9288 107.796H86.0372L87.4661 112.813L88.8793 107.796H90.3765ZM92.1406 115.498C91.7939 115.498 91.4822 115.433 91.2055 115.303C90.9288 115.174 90.7099 114.986 90.5488 114.741C90.3877 114.493 90.3072 114.191 90.3072 113.838C90.3072 113.242 90.5296 112.79 90.9743 112.482C91.4191 112.171 92.1213 112.009 93.0809 111.999L93.7586 111.988V111.663C93.7586 111.414 93.6851 111.223 93.538 111.09C93.3944 110.954 93.1702 110.887 92.8655 110.89C92.6414 110.894 92.4278 110.947 92.2246 111.048C92.025 111.15 91.8884 111.326 91.8149 111.579H90.5383C90.5593 111.186 90.6732 110.864 90.8798 110.612C91.0864 110.356 91.3666 110.167 91.7203 110.045C92.0775 109.919 92.4821 109.856 92.9338 109.856C93.4907 109.856 93.9372 109.926 94.2734 110.066C94.6097 110.202 94.8531 110.4 95.0037 110.659C95.1543 110.915 95.2295 111.22 95.2295 111.573V115.393H93.9477L93.8217 114.457C93.636 114.85 93.4031 115.121 93.123 115.272C92.8463 115.422 92.5188 115.498 92.1406 115.498ZM92.6554 114.489C92.7955 114.489 92.9303 114.464 93.0599 114.415C93.193 114.363 93.3103 114.295 93.4119 114.211C93.517 114.123 93.601 114.025 93.6641 113.916C93.7271 113.808 93.7586 113.696 93.7586 113.58V112.776L93.207 112.787C92.9514 112.79 92.7132 112.822 92.4926 112.881C92.2719 112.938 92.0933 113.03 91.9567 113.16C91.8236 113.289 91.7571 113.465 91.7571 113.685C91.7571 113.937 91.8446 114.135 92.0198 114.279C92.1949 114.419 92.4068 114.489 92.6554 114.489ZM98.2043 115.487C97.8051 115.487 97.4881 115.44 97.2535 115.345C97.0188 115.251 96.8454 115.126 96.7334 114.972C96.6213 114.815 96.5495 114.641 96.518 114.452C96.4865 114.26 96.4707 114.065 96.4707 113.869V107.586H97.9732V113.68C97.9732 113.88 98.0152 114.042 98.0992 114.169C98.1868 114.291 98.3497 114.366 98.5878 114.394L98.8452 114.41V115.356C98.7402 115.391 98.6333 115.421 98.5248 115.445C98.4162 115.473 98.3094 115.487 98.2043 115.487ZM101.35 115.487C100.951 115.487 100.634 115.44 100.4 115.345C100.165 115.251 99.9915 115.126 99.8795 114.972C99.7674 114.815 99.6956 114.641 99.6641 114.452C99.6325 114.26 99.6168 114.065 99.6168 113.869V107.586H101.119V113.68C101.119 113.88 101.161 114.042 101.245 114.169C101.333 114.291 101.496 114.366 101.734 114.394L101.991 114.41V115.356C101.886 115.391 101.779 115.421 101.671 115.445C101.562 115.473 101.455 115.487 101.35 115.487ZM104.116 113.029C104.112 113.305 104.156 113.547 104.247 113.754C104.338 113.957 104.47 114.114 104.641 114.226C104.816 114.335 105.027 114.389 105.272 114.389C105.534 114.389 105.764 114.333 105.96 114.221C106.16 114.109 106.298 113.925 106.375 113.669H107.757C107.697 114.055 107.543 114.384 107.294 114.657C107.049 114.93 106.751 115.139 106.401 115.282C106.051 115.426 105.687 115.498 105.309 115.498C104.773 115.498 104.3 115.386 103.89 115.161C103.484 114.934 103.167 114.613 102.939 114.2C102.712 113.787 102.598 113.3 102.598 112.74C102.598 112.197 102.701 111.708 102.908 111.274C103.114 110.836 103.414 110.491 103.806 110.239C104.202 109.983 104.676 109.856 105.23 109.856C105.783 109.856 106.247 109.973 106.622 110.208C107 110.439 107.284 110.763 107.473 111.179C107.666 111.593 107.762 112.071 107.762 112.614V113.029H104.116ZM104.111 112.114H106.328C106.328 111.897 106.287 111.698 106.207 111.516C106.126 111.334 106.004 111.19 105.839 111.085C105.678 110.98 105.475 110.927 105.23 110.927C104.992 110.927 104.788 110.985 104.62 111.101C104.456 111.213 104.33 111.36 104.242 111.542C104.155 111.724 104.111 111.915 104.111 112.114ZM111.845 111.027H110.637L110.647 113.922C110.647 114.055 110.663 114.155 110.695 114.221C110.73 114.284 110.782 114.326 110.852 114.347C110.926 114.365 111.019 114.373 111.131 114.373H111.861V115.319C111.791 115.351 111.681 115.38 111.53 115.408C111.383 115.436 111.176 115.45 110.91 115.45C110.434 115.45 110.064 115.389 109.802 115.266C109.542 115.144 109.362 114.972 109.261 114.752C109.159 114.531 109.108 114.275 109.108 113.985V111.027H108.226V109.961H109.161L109.544 108.322H110.637V109.955H111.845V111.027Z" fill="black"/>
<path d="M83.8536 125.106V125.607L80.8312 125.614V125.11L83.8536 125.106ZM82.5998 126.868H82.099L82.092 123.845H82.5963L82.5998 126.868ZM86.3342 127.904V127.509V127.302C86.3342 127.043 86.3821 126.819 86.4778 126.629C86.5759 126.44 86.7043 126.276 86.8631 126.136C87.0242 125.993 87.1993 125.866 87.3884 125.754C87.5799 125.642 87.7702 125.534 87.9593 125.432C88.1507 125.327 88.3258 125.218 88.4846 125.106C88.6434 124.992 88.7706 124.863 88.8664 124.721C88.9644 124.576 89.0134 124.406 89.0134 124.209C89.0134 123.953 88.9224 123.744 88.7403 123.583C88.5605 123.421 88.3165 123.341 88.0083 123.341C87.6768 123.341 87.4106 123.434 87.2098 123.621C87.009 123.808 86.8958 124.057 86.8701 124.367H86.2257C86.2327 124.075 86.3051 123.809 86.4428 123.569C86.5806 123.326 86.7825 123.132 87.0487 122.987C87.3149 122.842 87.6429 122.77 88.0328 122.77C88.3714 122.77 88.6656 122.831 88.9154 122.952C89.1652 123.071 89.3578 123.239 89.4933 123.456C89.631 123.671 89.6999 123.922 89.6999 124.209C89.6999 124.471 89.652 124.695 89.5563 124.882C89.4606 125.069 89.3333 125.231 89.1746 125.369C89.0181 125.504 88.8465 125.626 88.6597 125.733C88.4729 125.84 88.285 125.944 88.0959 126.045C87.9067 126.143 87.734 126.247 87.5775 126.356C87.4211 126.464 87.295 126.587 87.1993 126.728C87.1036 126.868 87.0557 127.035 87.0557 127.228V127.33H89.7279V127.904H86.3342ZM90.8921 122.84H93.9145L93.897 123.4H91.4454L91.3158 125.036C91.4839 124.88 91.6672 124.769 91.8657 124.703C92.0665 124.636 92.2836 124.602 92.5171 124.602C92.823 124.602 93.1043 124.665 93.3611 124.791C93.6203 124.915 93.8281 125.099 93.9845 125.344C94.141 125.587 94.2192 125.888 94.2192 126.248C94.2192 126.598 94.1433 126.903 93.9915 127.162C93.8398 127.421 93.6261 127.623 93.3506 127.768C93.0751 127.91 92.7517 127.981 92.3805 127.981C92.0676 127.981 91.7781 127.926 91.512 127.817C91.2458 127.707 91.017 127.554 90.8255 127.358C90.6364 127.162 90.4975 126.937 90.4088 126.682L90.9691 126.447C91.0532 126.639 91.1582 126.809 91.2843 126.959C91.4127 127.108 91.5645 127.225 91.7396 127.309C91.9147 127.393 92.1132 127.435 92.335 127.435C92.6945 127.435 92.9829 127.331 93.2 127.123C93.4195 126.913 93.5292 126.628 93.5292 126.269C93.5292 126.045 93.4779 125.85 93.3751 125.684C93.2724 125.516 93.1335 125.385 92.9584 125.292C92.7856 125.198 92.5941 125.152 92.384 125.152C92.2463 125.152 92.1178 125.164 91.9988 125.19C91.8797 125.213 91.7618 125.26 91.645 125.33C91.5283 125.4 91.4057 125.506 91.2773 125.649C91.2633 125.656 91.2528 125.659 91.2458 125.659C91.2388 125.657 91.2271 125.652 91.2108 125.645L90.6644 125.474L90.8921 122.84ZM96.843 127.904V122.84H100.037L100.034 123.411H97.4944V125.064H99.7814V125.631H97.4909V127.319L100.104 127.326V127.904H96.843ZM104.888 126.153C104.888 126.543 104.824 126.873 104.696 127.144C104.567 127.415 104.367 127.622 104.093 127.764C103.823 127.904 103.47 127.974 103.036 127.974C102.597 127.974 102.241 127.902 101.968 127.757C101.697 127.612 101.498 127.4 101.372 127.12C101.248 126.84 101.187 126.495 101.187 126.087V122.84H101.859V126.185C101.859 126.593 101.961 126.899 102.164 127.102C102.367 127.305 102.658 127.407 103.036 127.407C103.29 127.407 103.506 127.363 103.684 127.274C103.863 127.185 104 127.051 104.093 126.871C104.189 126.689 104.237 126.46 104.237 126.185V122.84H104.888V126.153ZM109.712 127.904H109.026L108.101 125.722H106.739V127.904H106.091V122.84H108.052C108.417 122.84 108.721 122.896 108.966 123.008C109.212 123.118 109.395 123.277 109.516 123.484C109.638 123.69 109.698 123.936 109.698 124.223C109.698 124.499 109.649 124.728 109.551 124.91C109.456 125.092 109.333 125.239 109.184 125.351C109.034 125.461 108.879 125.546 108.718 125.607L109.712 127.904ZM107.842 125.187C108.223 125.187 108.517 125.11 108.725 124.955C108.933 124.799 109.036 124.568 109.036 124.262C109.036 123.963 108.943 123.74 108.756 123.593C108.572 123.444 108.318 123.369 107.996 123.369H106.739V125.187H107.842Z" fill="#404040"/>
<circle cx="62.8885" cy="117.649" r="10.5067" fill="#DC0069"/>
<rect x="62.6025" y="113.535" width="1.09444" height="8.75556" fill="white"/>
<rect x="67.5273" y="117.365" width="1.09444" height="8.75556" transform="rotate(90 67.5273 117.365)" fill="white"/>
<g filter="url(#filter2_d_12984_209595)">
<path d="M41 154.835C41 153.57 42.0453 152.545 43.3348 152.545H235.373C236.663 152.545 237.708 153.57 237.708 154.835V174.962C233.945 176.314 231.363 179.098 231.363 182.314C231.363 185.529 233.945 188.314 237.708 189.665V209.793C237.708 211.057 236.663 212.083 235.373 212.083H43.3348C42.0453 212.083 41 211.057 41 209.793V190.232C44.7631 188.881 47.3455 186.097 47.3455 182.881C47.3455 179.665 44.7631 176.881 41 175.529V154.835Z" fill="white"/>
<g clip-path="url(#clip0_12984_209595)">
<path fill-rule="evenodd" clip-rule="evenodd" d="M68.3275 189.085C66.6889 189.491 65.6936 188.66 65.2045 188.141C64.9108 187.829 64.6487 187.454 64.345 187.033C63.3804 185.698 61.0448 182.455 61.0448 182.455V189.085H58.6172V178.465C60.2489 178.06 61.2512 178.89 61.7403 179.409C62.034 179.721 62.2961 180.096 62.5997 180.517C63.5644 181.852 65.9 185.095 65.9 185.095V178.465H68.3275V189.085ZM63.4723 172.977C57.5085 172.977 52.6738 177.811 52.6738 183.775C52.6738 189.739 57.5085 194.574 63.4723 194.574C69.4363 194.574 74.2709 189.739 74.2709 183.775C74.2709 177.811 69.4363 172.977 63.4723 172.977Z" fill="black"/>
</g>
<path d="M94.1158 172.46H95.6497V180.057H94.2681L90.6591 174.83V180.057H89.1303V172.46H90.6486L94.1158 177.488V172.46ZM99.2267 180.162C98.6943 180.162 98.2303 180.048 97.8345 179.82C97.4423 179.593 97.1376 179.27 96.9204 178.854C96.7068 178.437 96.6 177.943 96.6 177.372C96.6 176.801 96.7068 176.302 96.9204 175.875C97.1376 175.448 97.4423 175.115 97.8345 174.877C98.2303 174.639 98.6961 174.52 99.2319 174.52C99.7677 174.52 100.232 174.637 100.624 174.872C101.016 175.103 101.319 175.432 101.533 175.859C101.747 176.286 101.853 176.791 101.853 177.372C101.853 177.919 101.748 178.402 101.538 178.822C101.331 179.239 101.032 179.566 100.64 179.804C100.251 180.043 99.78 180.162 99.2267 180.162ZM99.2319 179.022C99.5016 179.022 99.7187 178.943 99.8833 178.785C100.048 178.628 100.167 178.421 100.241 178.165C100.318 177.906 100.356 177.624 100.356 177.32C100.356 177.032 100.321 176.761 100.251 176.505C100.185 176.25 100.069 176.043 99.9043 175.885C99.7397 175.728 99.5156 175.649 99.2319 175.649C98.9622 175.649 98.7433 175.724 98.5752 175.875C98.4106 176.022 98.2898 176.223 98.2128 176.479C98.1357 176.731 98.0972 177.011 98.0972 177.32C98.0972 177.603 98.1322 177.877 98.2023 178.139C98.2723 178.398 98.3896 178.61 98.5542 178.775C98.7188 178.939 98.9447 179.022 99.2319 179.022ZM105.894 175.691H104.686L104.697 178.586C104.697 178.719 104.712 178.819 104.744 178.885C104.779 178.948 104.832 178.99 104.902 179.011C104.975 179.029 105.068 179.037 105.18 179.037H105.91V179.983C105.84 180.015 105.73 180.044 105.579 180.072C105.432 180.1 105.226 180.114 104.959 180.114C104.483 180.114 104.114 180.053 103.851 179.931C103.592 179.808 103.411 179.636 103.31 179.416C103.208 179.195 103.157 178.939 103.157 178.649V175.691H102.275V174.625H103.21L103.593 172.986H104.686V174.619H105.894V175.691ZM108.455 174.625V180.057H106.99V174.625H108.455ZM108.471 172.466V173.847H106.979V172.466H108.471ZM109.759 180.057V174.625H111.267V175.392C111.351 175.259 111.46 175.131 111.593 175.008C111.729 174.882 111.901 174.779 112.108 174.698C112.314 174.618 112.559 174.577 112.843 174.577C113.176 174.577 113.486 174.642 113.773 174.772C114.064 174.901 114.298 175.106 114.477 175.386C114.655 175.663 114.745 176.026 114.745 176.474V180.057H113.211V176.663C113.211 176.369 113.123 176.148 112.948 176.001C112.773 175.854 112.559 175.78 112.307 175.78C112.139 175.78 111.976 175.81 111.819 175.87C111.665 175.929 111.538 176.019 111.44 176.138C111.342 176.257 111.293 176.404 111.293 176.579V180.057H109.759ZM118.203 180.162C117.671 180.162 117.207 180.048 116.811 179.82C116.419 179.593 116.114 179.27 115.897 178.854C115.683 178.437 115.577 177.943 115.577 177.372C115.577 176.801 115.683 176.302 115.897 175.875C116.114 175.448 116.419 175.115 116.811 174.877C117.207 174.639 117.673 174.52 118.208 174.52C118.744 174.52 119.208 174.637 119.601 174.872C119.993 175.103 120.296 175.432 120.509 175.859C120.723 176.286 120.83 176.791 120.83 177.372C120.83 177.919 120.725 178.402 120.515 178.822C120.308 179.239 120.009 179.566 119.616 179.804C119.228 180.043 118.757 180.162 118.203 180.162ZM118.208 179.022C118.478 179.022 118.695 178.943 118.86 178.785C119.024 178.628 119.144 178.421 119.217 178.165C119.294 177.906 119.333 177.624 119.333 177.32C119.333 177.032 119.298 176.761 119.228 176.505C119.161 176.25 119.045 176.043 118.881 175.885C118.716 175.728 118.492 175.649 118.208 175.649C117.939 175.649 117.72 175.724 117.552 175.875C117.387 176.022 117.266 176.223 117.189 176.479C117.112 176.731 117.074 177.011 117.074 177.32C117.074 177.603 117.109 177.877 117.179 178.139C117.249 178.398 117.366 178.61 117.531 178.775C117.695 178.939 117.921 179.022 118.208 179.022ZM126.08 174.52C126.536 174.52 126.928 174.612 127.257 174.798C127.59 174.984 127.851 175.234 128.04 175.549C128.233 175.864 128.343 176.216 128.371 176.605H127.094C127.07 176.462 127.019 176.32 126.942 176.18C126.865 176.036 126.756 175.919 126.616 175.828C126.476 175.733 126.301 175.686 126.091 175.686C125.734 175.686 125.443 175.824 125.219 176.101C124.998 176.374 124.888 176.791 124.888 177.351C124.888 177.88 124.996 178.3 125.214 178.612C125.431 178.92 125.734 179.074 126.122 179.074C126.329 179.074 126.501 179.023 126.637 178.922C126.777 178.82 126.886 178.7 126.963 178.559C127.04 178.416 127.089 178.283 127.11 178.16H128.355C128.331 178.535 128.222 178.875 128.029 179.179C127.837 179.481 127.574 179.72 127.241 179.899C126.912 180.074 126.525 180.162 126.08 180.162C125.576 180.162 125.126 180.05 124.73 179.825C124.335 179.601 124.023 179.281 123.795 178.864C123.571 178.444 123.459 177.943 123.459 177.362C123.459 176.801 123.568 176.308 123.785 175.88C124.002 175.453 124.307 175.12 124.699 174.882C125.095 174.64 125.555 174.52 126.08 174.52ZM131.643 180.162C131.111 180.162 130.647 180.048 130.251 179.82C129.859 179.593 129.554 179.27 129.337 178.854C129.123 178.437 129.016 177.943 129.016 177.372C129.016 176.801 129.123 176.302 129.337 175.875C129.554 175.448 129.859 175.115 130.251 174.877C130.647 174.639 131.112 174.52 131.648 174.52C132.184 174.52 132.648 174.637 133.04 174.872C133.433 175.103 133.736 175.432 133.949 175.859C134.163 176.286 134.27 176.791 134.27 177.372C134.27 177.919 134.165 178.402 133.954 178.822C133.748 179.239 133.448 179.566 133.056 179.804C132.667 180.043 132.196 180.162 131.643 180.162ZM131.648 179.022C131.918 179.022 132.135 178.943 132.3 178.785C132.464 178.628 132.583 178.421 132.657 178.165C132.734 177.906 132.772 177.624 132.772 177.32C132.772 177.032 132.737 176.761 132.667 176.505C132.601 176.25 132.485 176.043 132.321 175.885C132.156 175.728 131.932 175.649 131.648 175.649C131.379 175.649 131.16 175.724 130.992 175.875C130.827 176.022 130.706 176.223 130.629 176.479C130.552 176.731 130.513 177.011 130.513 177.32C130.513 177.603 130.549 177.877 130.619 178.139C130.689 178.398 130.806 178.61 130.971 178.775C131.135 178.939 131.361 179.022 131.648 179.022ZM137.116 180.162C136.863 180.162 136.615 180.123 136.37 180.046C136.128 179.969 135.907 179.855 135.708 179.705C135.508 179.554 135.347 179.368 135.224 179.148C135.105 178.927 135.046 178.672 135.046 178.381V174.625H136.58V178.186C136.58 178.439 136.662 178.645 136.827 178.806C136.991 178.967 137.233 179.048 137.552 179.048C137.853 179.048 138.091 178.971 138.266 178.817C138.445 178.659 138.534 178.44 138.534 178.16V174.625H140.052V180.057H138.896L138.718 178.98C138.655 179.298 138.536 179.544 138.361 179.715C138.189 179.883 137.991 179.999 137.767 180.062C137.546 180.128 137.329 180.162 137.116 180.162ZM141.215 181.748V174.625H142.754L142.76 175.407C142.84 175.278 142.938 175.161 143.054 175.055C143.173 174.947 143.304 174.852 143.448 174.772C143.591 174.691 143.747 174.63 143.915 174.588C144.083 174.542 144.26 174.52 144.446 174.52C144.849 174.52 145.208 174.619 145.523 174.819C145.838 175.015 146.085 175.32 146.264 175.733C146.446 176.143 146.537 176.665 146.537 177.299C146.537 177.957 146.439 178.498 146.243 178.922C146.05 179.342 145.784 179.654 145.444 179.857C145.104 180.06 144.721 180.162 144.294 180.162C144.118 180.162 143.954 180.137 143.8 180.088C143.646 180.043 143.502 179.978 143.369 179.894C143.239 179.81 143.122 179.713 143.017 179.605C142.915 179.493 142.826 179.372 142.749 179.242V181.748H141.215ZM143.926 179.037C144.259 179.037 144.537 178.899 144.761 178.622C144.989 178.346 145.103 177.908 145.103 177.309C145.103 176.784 144.994 176.374 144.777 176.08C144.563 175.782 144.28 175.633 143.926 175.633C143.53 175.633 143.234 175.794 143.038 176.117C142.845 176.435 142.749 176.833 142.749 177.309C142.749 177.614 142.791 177.898 142.875 178.16C142.963 178.423 143.092 178.635 143.264 178.796C143.439 178.957 143.66 179.037 143.926 179.037ZM149.772 180.162C149.239 180.162 148.775 180.048 148.38 179.82C147.987 179.593 147.683 179.27 147.466 178.854C147.252 178.437 147.145 177.943 147.145 177.372C147.145 176.801 147.252 176.302 147.466 175.875C147.683 175.448 147.987 175.115 148.38 174.877C148.775 174.639 149.241 174.52 149.777 174.52C150.313 174.52 150.777 174.637 151.169 174.872C151.561 175.103 151.864 175.432 152.078 175.859C152.292 176.286 152.398 176.791 152.398 177.372C152.398 177.919 152.293 178.402 152.083 178.822C151.877 179.239 151.577 179.566 151.185 179.804C150.796 180.043 150.325 180.162 149.772 180.162ZM149.777 179.022C150.047 179.022 150.264 178.943 150.428 178.785C150.593 178.628 150.712 178.421 150.786 178.165C150.863 177.906 150.901 177.624 150.901 177.32C150.901 177.032 150.866 176.761 150.796 176.505C150.73 176.25 150.614 176.043 150.449 175.885C150.285 175.728 150.061 175.649 149.777 175.649C149.507 175.649 149.288 175.724 149.12 175.875C148.956 176.022 148.835 176.223 148.758 176.479C148.681 176.731 148.642 177.011 148.642 177.32C148.642 177.603 148.677 177.877 148.747 178.139C148.817 178.398 148.935 178.61 149.099 178.775C149.264 178.939 149.49 179.022 149.777 179.022ZM153.304 180.057V174.625H154.812V175.392C154.896 175.259 155.005 175.131 155.138 175.008C155.274 174.882 155.446 174.779 155.653 174.698C155.859 174.618 156.104 174.577 156.388 174.577C156.721 174.577 157.031 174.642 157.318 174.772C157.609 174.901 157.843 175.106 158.022 175.386C158.2 175.663 158.29 176.026 158.29 176.474V180.057H156.756V176.663C156.756 176.369 156.668 176.148 156.493 176.001C156.318 175.854 156.104 175.78 155.852 175.78C155.684 175.78 155.521 175.81 155.364 175.87C155.21 175.929 155.083 176.019 154.985 176.138C154.887 176.257 154.838 176.404 154.838 176.579V180.057H153.304Z" fill="black"/>
<line opacity="0.4" x1="81.0441" y1="204.786" x2="81.0441" y2="159.841" stroke="#9F9F9F" stroke-width="0.583704" stroke-linecap="round" stroke-linejoin="round" stroke-dasharray="1.17 1.75"/>
<path d="M93.7253 192.568H92.9934L91.4139 189.966L90.5348 190.971V192.568H89.8624V187.504H90.5348V190.124L92.8042 187.504H93.5782L91.8867 189.493L93.7253 192.568ZM95.2533 192.729C95.2533 193.068 95.1797 193.319 95.0326 193.482C94.8879 193.648 94.6311 193.731 94.2622 193.731C94.0637 193.731 93.9388 193.717 93.8874 193.689C93.8337 193.661 93.8069 193.647 93.8069 193.647V193.216L94.1641 193.199C94.3275 193.187 94.4419 193.144 94.5073 193.069C94.5727 192.994 94.6054 192.874 94.6054 192.708V188.947H95.2533V192.729ZM95.2708 187.508V188.18H94.5844V187.508H95.2708ZM97.6502 192.638C97.1809 192.638 96.8085 192.477 96.533 192.155C96.2575 191.833 96.1197 191.362 96.1197 190.744C96.1197 190.368 96.1746 190.04 96.2843 189.76C96.3964 189.479 96.5621 189.262 96.7816 189.108C97.0011 188.954 97.2743 188.877 97.6011 188.877C97.7739 188.877 97.9268 188.899 98.0599 188.944C98.1954 188.988 98.3121 189.044 98.4102 189.112C98.5082 189.179 98.5876 189.249 98.6483 189.322C98.7113 189.394 98.758 189.461 98.7884 189.521V187.364H99.4398V192.568H98.946L98.876 191.826C98.8526 191.896 98.8152 191.978 98.7639 192.071C98.7125 192.162 98.6401 192.252 98.5467 192.341C98.4533 192.427 98.3331 192.498 98.186 192.554C98.0413 192.61 97.8626 192.638 97.6502 192.638ZM97.7657 192.141C98.1323 192.141 98.3938 192.03 98.5502 191.808C98.709 191.584 98.7884 191.219 98.7884 190.712C98.7861 190.43 98.7499 190.189 98.6798 189.991C98.6121 189.792 98.5047 189.642 98.3576 189.539C98.2129 189.434 98.0202 189.381 97.7798 189.381C97.4809 189.381 97.2381 189.488 97.0513 189.7C96.8645 189.913 96.7711 190.25 96.7711 190.712C96.7711 191.165 96.8552 191.517 97.0233 191.766C97.1937 192.016 97.4412 192.141 97.7657 192.141ZM100.551 192.568V187.364H101.181V189.479C101.242 189.379 101.323 189.286 101.426 189.199C101.529 189.11 101.654 189.039 101.801 188.986C101.948 188.93 102.118 188.902 102.312 188.902C102.548 188.902 102.762 188.946 102.953 189.035C103.145 189.121 103.296 189.245 103.408 189.406C103.52 189.567 103.577 189.758 103.577 189.98V192.568H102.929V190.11C102.929 189.893 102.854 189.726 102.704 189.609C102.557 189.49 102.365 189.43 102.127 189.43C101.966 189.43 101.814 189.457 101.671 189.511C101.529 189.562 101.413 189.642 101.325 189.749C101.238 189.854 101.195 189.988 101.195 190.152V192.568H100.551ZM105.817 192.638C105.565 192.638 105.33 192.6 105.113 192.523C104.898 192.443 104.72 192.321 104.577 192.155C104.435 191.987 104.345 191.773 104.308 191.514H104.896C104.929 191.657 104.987 191.776 105.071 191.871C105.157 191.965 105.265 192.036 105.393 192.085C105.522 192.132 105.662 192.155 105.813 192.155C106.056 192.155 106.252 192.11 106.402 192.019C106.551 191.927 106.626 191.787 106.626 191.598C106.626 191.465 106.586 191.359 106.507 191.28C106.43 191.198 106.31 191.138 106.146 191.101L105.397 190.915C105.105 190.845 104.871 190.736 104.696 190.586C104.521 190.437 104.434 190.228 104.434 189.959C104.431 189.747 104.481 189.56 104.584 189.399C104.687 189.238 104.841 189.11 105.046 189.017C105.252 188.924 105.508 188.877 105.813 188.877C106.206 188.877 106.522 188.966 106.763 189.143C107.005 189.318 107.131 189.576 107.141 189.917H106.57C106.547 189.744 106.468 189.608 106.335 189.507C106.205 189.405 106.028 189.353 105.806 189.353C105.575 189.353 105.387 189.4 105.243 189.493C105.098 189.584 105.025 189.727 105.025 189.921C105.025 190.049 105.077 190.151 105.18 190.225C105.282 190.298 105.434 190.358 105.635 190.407L106.36 190.59C106.528 190.634 106.666 190.692 106.773 190.765C106.883 190.837 106.969 190.918 107.032 191.006C107.098 191.095 107.143 191.188 107.169 191.287C107.197 191.382 107.211 191.474 107.211 191.563C107.211 191.785 107.155 191.976 107.043 192.138C106.933 192.296 106.774 192.42 106.566 192.509C106.361 192.595 106.111 192.638 105.817 192.638ZM109.846 187.434C110.171 187.434 110.461 187.488 110.718 187.595C110.975 187.703 111.178 187.859 111.328 188.065C111.477 188.27 111.552 188.52 111.552 188.814C111.552 189.089 111.477 189.321 111.328 189.507C111.18 189.694 110.99 189.837 110.757 189.935C110.927 189.967 111.089 190.047 111.243 190.173C111.4 190.299 111.528 190.452 111.629 190.632C111.729 190.811 111.779 190.999 111.779 191.195C111.779 191.487 111.699 191.742 111.538 191.959C111.379 192.176 111.155 192.345 110.865 192.467C110.576 192.586 110.236 192.645 109.846 192.645C109.458 192.645 109.12 192.586 108.83 192.467C108.541 192.345 108.316 192.176 108.154 191.959C107.996 191.742 107.916 191.487 107.916 191.195C107.916 190.999 107.965 190.811 108.063 190.632C108.164 190.452 108.292 190.299 108.449 190.173C108.605 190.047 108.769 189.967 108.939 189.935C108.708 189.837 108.516 189.694 108.365 189.507C108.215 189.321 108.14 189.089 108.14 188.814C108.14 188.52 108.215 188.27 108.365 188.065C108.514 187.859 108.717 187.703 108.974 187.595C109.233 187.488 109.524 187.434 109.846 187.434ZM109.846 189.662C110.154 189.662 110.404 189.586 110.596 189.434C110.789 189.282 110.886 189.071 110.886 188.8C110.886 188.527 110.789 188.312 110.596 188.156C110.402 187.997 110.152 187.917 109.846 187.917C109.54 187.917 109.29 187.997 109.097 188.156C108.903 188.314 108.806 188.529 108.806 188.8C108.806 189.071 108.903 189.282 109.097 189.434C109.29 189.586 109.54 189.662 109.846 189.662ZM109.846 192.12C110.222 192.12 110.522 192.036 110.746 191.868C110.97 191.697 111.082 191.472 111.082 191.192C111.082 191.008 111.031 190.843 110.928 190.698C110.828 190.553 110.685 190.44 110.501 190.358C110.317 190.274 110.098 190.232 109.846 190.232C109.596 190.232 109.379 190.274 109.195 190.358C109.013 190.44 108.87 190.553 108.767 190.698C108.667 190.843 108.617 191.008 108.617 191.192C108.617 191.472 108.728 191.697 108.949 191.868C109.174 192.036 109.472 192.12 109.846 192.12ZM114.109 192.645C113.829 192.645 113.567 192.593 113.324 192.488C113.084 192.38 112.882 192.229 112.719 192.033C112.557 191.836 112.458 191.602 112.421 191.329H113.051C113.11 191.56 113.231 191.748 113.416 191.892C113.6 192.035 113.824 192.106 114.088 192.106C114.387 192.106 114.642 192.028 114.855 191.871C115.07 191.715 115.23 191.473 115.335 191.146C115.44 190.82 115.48 190.4 115.454 189.889C115.395 190.067 115.303 190.223 115.177 190.358C115.051 190.492 114.899 190.597 114.722 190.674C114.544 190.751 114.348 190.789 114.133 190.789C113.8 190.789 113.505 190.724 113.251 190.593C112.996 190.462 112.798 190.276 112.656 190.033C112.515 189.79 112.445 189.499 112.445 189.161C112.445 188.822 112.515 188.523 112.656 188.264C112.796 188.005 112.996 187.802 113.258 187.655C113.519 187.508 113.83 187.434 114.19 187.434C114.582 187.434 114.921 187.536 115.209 187.739C115.496 187.94 115.718 188.229 115.874 188.607C116.031 188.983 116.109 189.435 116.109 189.963C116.109 190.53 116.031 191.013 115.874 191.413C115.72 191.812 115.494 192.118 115.195 192.33C114.898 192.54 114.536 192.645 114.109 192.645ZM114.204 190.239C114.39 190.239 114.568 190.196 114.736 190.11C114.904 190.023 115.041 189.909 115.146 189.767C115.253 189.622 115.307 189.464 115.307 189.294C115.309 189.032 115.265 188.802 115.174 188.604C115.083 188.403 114.953 188.247 114.785 188.135C114.617 188.02 114.421 187.963 114.197 187.963C113.991 187.963 113.809 188.012 113.65 188.11C113.494 188.208 113.37 188.345 113.279 188.52C113.19 188.695 113.146 188.898 113.146 189.129C113.146 189.468 113.236 189.737 113.416 189.938C113.595 190.139 113.858 190.239 114.204 190.239ZM118.631 191.374C118.631 191.643 118.6 191.871 118.539 192.061C118.479 192.25 118.37 192.393 118.214 192.491C118.06 192.589 117.84 192.638 117.555 192.638C117.376 192.638 117.206 192.617 117.048 192.575C116.891 192.533 116.787 192.502 116.736 192.481L116.781 191.861C116.854 191.887 116.937 191.919 117.03 191.959C117.126 191.996 117.244 192.015 117.384 192.015C117.613 192.015 117.769 191.952 117.853 191.826C117.939 191.7 117.983 191.487 117.983 191.188V187.504H118.631V191.374ZM121.353 191.374C121.353 191.643 121.323 191.871 121.262 192.061C121.201 192.25 121.093 192.393 120.936 192.491C120.782 192.589 120.563 192.638 120.278 192.638C120.098 192.638 119.929 192.617 119.77 192.575C119.614 192.533 119.51 192.502 119.458 192.481L119.504 191.861C119.576 191.887 119.659 191.919 119.752 191.959C119.848 191.996 119.966 192.015 120.106 192.015C120.335 192.015 120.491 191.952 120.575 191.826C120.662 191.7 120.705 191.487 120.705 191.188V187.504H121.353V191.374ZM122.324 192.568V192.173V191.966C122.324 191.707 122.372 191.483 122.468 191.294C122.566 191.104 122.694 190.94 122.853 190.8C123.014 190.657 123.189 190.53 123.378 190.418C123.57 190.306 123.76 190.199 123.949 190.096C124.141 189.991 124.316 189.882 124.475 189.77C124.633 189.656 124.761 189.527 124.856 189.385C124.954 189.24 125.003 189.07 125.003 188.874C125.003 188.617 124.912 188.408 124.73 188.247C124.551 188.086 124.307 188.005 123.998 188.005C123.667 188.005 123.401 188.098 123.2 188.285C122.999 188.472 122.886 188.721 122.86 189.031H122.216C122.223 188.739 122.295 188.473 122.433 188.233C122.571 187.99 122.773 187.796 123.039 187.651C123.305 187.506 123.633 187.434 124.023 187.434C124.361 187.434 124.656 187.495 124.905 187.616C125.155 187.735 125.348 187.903 125.483 188.121C125.621 188.335 125.69 188.586 125.69 188.874C125.69 189.135 125.642 189.359 125.546 189.546C125.451 189.733 125.323 189.895 125.165 190.033C125.008 190.168 124.837 190.29 124.65 190.397C124.463 190.504 124.275 190.608 124.086 190.709C123.897 190.807 123.724 190.911 123.568 191.02C123.411 191.128 123.285 191.252 123.189 191.392C123.094 191.532 123.046 191.699 123.046 191.892V191.994H125.718V192.568H122.324ZM127.905 192.638C127.435 192.638 127.063 192.477 126.788 192.155C126.512 191.833 126.374 191.362 126.374 190.744C126.374 190.368 126.429 190.04 126.539 189.76C126.651 189.479 126.817 189.262 127.036 189.108C127.256 188.954 127.529 188.877 127.856 188.877C128.028 188.877 128.181 188.899 128.314 188.944C128.45 188.988 128.567 189.044 128.665 189.112C128.763 189.179 128.842 189.249 128.903 189.322C128.966 189.394 129.013 189.461 129.043 189.521V187.364H129.694V192.568H129.201L129.131 191.826C129.107 191.896 129.07 191.978 129.018 192.071C128.967 192.162 128.895 192.252 128.801 192.341C128.708 192.427 128.588 192.498 128.441 192.554C128.296 192.61 128.117 192.638 127.905 192.638ZM128.02 192.141C128.387 192.141 128.648 192.03 128.805 191.808C128.964 191.584 129.043 191.219 129.043 190.712C129.041 190.43 129.004 190.189 128.934 189.991C128.867 189.792 128.759 189.642 128.612 189.539C128.467 189.434 128.275 189.381 128.034 189.381C127.735 189.381 127.493 189.488 127.306 189.7C127.119 189.913 127.026 190.25 127.026 190.712C127.026 191.165 127.11 191.517 127.278 191.766C127.448 192.016 127.696 192.141 128.02 192.141ZM132.049 192.638C131.797 192.638 131.563 192.6 131.345 192.523C131.131 192.443 130.952 192.321 130.81 192.155C130.667 191.987 130.577 191.773 130.54 191.514H131.128C131.161 191.657 131.219 191.776 131.303 191.871C131.39 191.965 131.497 192.036 131.626 192.085C131.754 192.132 131.894 192.155 132.046 192.155C132.289 192.155 132.485 192.11 132.634 192.019C132.784 191.927 132.858 191.787 132.858 191.598C132.858 191.465 132.819 191.359 132.739 191.28C132.662 191.198 132.542 191.138 132.379 191.101L131.629 190.915C131.337 190.845 131.104 190.736 130.929 190.586C130.754 190.437 130.666 190.228 130.666 189.959C130.664 189.747 130.714 189.56 130.817 189.399C130.919 189.238 131.073 189.11 131.279 189.017C131.484 188.924 131.74 188.877 132.046 188.877C132.438 188.877 132.755 188.966 132.995 189.143C133.238 189.318 133.364 189.576 133.373 189.917H132.802C132.779 189.744 132.701 189.608 132.568 189.507C132.437 189.405 132.261 189.353 132.039 189.353C131.808 189.353 131.62 189.4 131.475 189.493C131.33 189.584 131.258 189.727 131.258 189.921C131.258 190.049 131.309 190.151 131.412 190.225C131.515 190.298 131.667 190.358 131.867 190.407L132.592 190.59C132.76 190.634 132.898 190.692 133.006 190.765C133.115 190.837 133.202 190.918 133.265 191.006C133.33 191.095 133.376 191.188 133.401 191.287C133.429 191.382 133.443 191.474 133.443 191.563C133.443 191.785 133.387 191.976 133.275 192.138C133.165 192.296 133.007 192.42 132.799 192.509C132.593 192.595 132.344 192.638 132.049 192.638ZM136.394 188.947V189.42H135.515V192.568H134.863V189.42H134.1V188.947H134.863V188.387C134.863 188.1 134.937 187.881 135.084 187.732C135.231 187.58 135.45 187.504 135.742 187.504H136.425L136.429 187.963H135.886C135.739 187.963 135.638 188.003 135.585 188.082C135.531 188.161 135.504 188.282 135.504 188.443V188.947H136.394ZM138.8 190.502V191.013L137.024 191.017V190.509L138.8 190.502ZM141.818 188.947V189.42H140.939V192.568H140.288V189.42H139.524V188.947H140.288V188.387C140.288 188.1 140.361 187.881 140.508 187.732C140.655 187.58 140.875 187.504 141.167 187.504H141.85L141.853 187.963H141.31C141.163 187.963 141.063 188.003 141.009 188.082C140.955 188.161 140.929 188.282 140.929 188.443V188.947H141.818ZM144.401 187.434C144.681 187.434 144.939 187.487 145.175 187.592C145.413 187.697 145.61 187.847 145.767 188.043C145.923 188.24 146.02 188.477 146.058 188.754H145.448C145.38 188.514 145.258 188.324 145.08 188.184C144.903 188.043 144.68 187.973 144.411 187.973C144.113 187.973 143.863 188.059 143.662 188.229C143.464 188.397 143.319 188.645 143.228 188.972C143.137 189.296 143.105 189.695 143.133 190.169C143.196 189.999 143.292 189.849 143.42 189.721C143.551 189.59 143.703 189.49 143.876 189.42C144.048 189.347 144.235 189.311 144.436 189.311C144.77 189.311 145.062 189.377 145.312 189.507C145.561 189.636 145.756 189.82 145.896 190.061C146.036 190.299 146.107 190.584 146.107 190.915C146.107 191.254 146.034 191.554 145.889 191.815C145.747 192.075 145.544 192.278 145.28 192.425C145.016 192.572 144.704 192.645 144.345 192.645C143.953 192.645 143.612 192.544 143.322 192.341C143.035 192.138 142.812 191.848 142.653 191.472C142.497 191.094 142.419 190.641 142.419 190.113C142.419 189.572 142.495 189.1 142.646 188.698C142.8 188.297 143.025 187.986 143.319 187.767C143.613 187.545 143.974 187.434 144.401 187.434ZM144.331 189.837C144.146 189.837 143.969 189.881 143.799 189.97C143.63 190.056 143.493 190.171 143.385 190.313C143.28 190.455 143.228 190.613 143.228 190.786C143.225 191.043 143.27 191.271 143.361 191.472C143.454 191.671 143.585 191.827 143.753 191.941C143.921 192.054 144.116 192.11 144.338 192.11C144.546 192.11 144.73 192.061 144.891 191.962C145.052 191.864 145.178 191.728 145.27 191.553C145.363 191.378 145.41 191.176 145.41 190.947C145.41 190.716 145.368 190.517 145.284 190.351C145.202 190.186 145.08 190.058 144.919 189.97C144.758 189.881 144.562 189.837 144.331 189.837ZM148.261 192.638C148.009 192.638 147.774 192.6 147.557 192.523C147.342 192.443 147.164 192.321 147.021 192.155C146.879 191.987 146.789 191.773 146.751 191.514H147.34C147.372 191.657 147.431 191.776 147.515 191.871C147.601 191.965 147.709 192.036 147.837 192.085C147.966 192.132 148.106 192.155 148.257 192.155C148.5 192.155 148.696 192.11 148.846 192.019C148.995 191.927 149.07 191.787 149.07 191.598C149.07 191.465 149.03 191.359 148.951 191.28C148.874 191.198 148.754 191.138 148.59 191.101L147.841 190.915C147.549 190.845 147.315 190.736 147.14 190.586C146.965 190.437 146.878 190.228 146.878 189.959C146.875 189.747 146.925 189.56 147.028 189.399C147.131 189.238 147.285 189.11 147.49 189.017C147.696 188.924 147.952 188.877 148.257 188.877C148.65 188.877 148.966 188.966 149.206 189.143C149.449 189.318 149.575 189.576 149.585 189.917H149.014C148.991 189.744 148.912 189.608 148.779 189.507C148.648 189.405 148.472 189.353 148.25 189.353C148.019 189.353 147.831 189.4 147.687 189.493C147.542 189.584 147.469 189.727 147.469 189.921C147.469 190.049 147.521 190.151 147.623 190.225C147.726 190.298 147.878 190.358 148.079 190.407L148.804 190.59C148.972 190.634 149.11 190.692 149.217 190.765C149.327 190.837 149.413 190.918 149.476 191.006C149.542 191.095 149.587 191.188 149.613 191.287C149.641 191.382 149.655 191.474 149.655 191.563C149.655 191.785 149.599 191.976 149.487 192.138C149.377 192.296 149.218 192.42 149.01 192.509C148.805 192.595 148.555 192.638 148.261 192.638ZM153.376 188.947L152.07 192.568H151.481L150.171 188.947H150.781L151.744 191.756H151.804L152.77 188.947H153.376Z" fill="#404040"/>
</g>
<g filter="url(#filter3_d_12984_209595)">
<rect x="41" y="222.467" width="197" height="49.0311" rx="3.50222" fill="white"/>
</g>
<path d="M84.104 244.83C83.7293 244.83 83.3615 244.782 83.0008 244.688C82.6401 244.593 82.3109 244.451 82.0132 244.262C81.7155 244.073 81.4686 243.837 81.2724 243.553C81.0798 243.269 80.9642 242.937 80.9257 242.555H82.4965C82.549 242.786 82.6488 242.981 82.7959 243.138C82.943 243.296 83.1286 243.417 83.3528 243.501C83.5769 243.585 83.8256 243.627 84.0987 243.627C84.3789 243.627 84.6346 243.592 84.8657 243.522C85.0969 243.452 85.2825 243.346 85.4226 243.206C85.5627 243.063 85.6327 242.884 85.6327 242.671C85.6327 242.478 85.5749 242.32 85.4594 242.198C85.3473 242.075 85.1949 241.975 85.0023 241.898C84.8097 241.821 84.5908 241.758 84.3456 241.709L83.0323 241.441C82.4579 241.333 82.0027 241.105 81.6664 240.758C81.3302 240.408 81.1569 239.942 81.1464 239.361C81.1429 238.885 81.2689 238.473 81.5246 238.126C81.7838 237.776 82.134 237.507 82.5753 237.317C83.0201 237.128 83.5174 237.034 84.0672 237.034C84.7221 237.034 85.272 237.137 85.7168 237.344C86.165 237.547 86.5048 237.823 86.7359 238.174C86.9706 238.52 87.0914 238.907 87.0984 239.335H85.5592C85.5311 239.069 85.4506 238.857 85.3175 238.699C85.1844 238.541 85.0128 238.428 84.8027 238.358C84.5961 238.288 84.3597 238.253 84.0935 238.253C83.8904 238.253 83.7047 238.275 83.5366 238.321C83.372 238.366 83.2319 238.431 83.1164 238.515C83.0008 238.596 82.9115 238.692 82.8484 238.804C82.7854 238.916 82.7539 239.042 82.7539 239.182C82.7539 239.403 82.8274 239.582 82.9745 239.718C83.1216 239.855 83.3965 239.967 83.7993 240.054L85.1021 240.322C85.5679 240.413 85.9374 240.548 86.2106 240.727C86.4873 240.905 86.6939 241.107 86.8305 241.331C86.9706 241.555 87.0616 241.784 87.1036 242.019C87.1492 242.25 87.1719 242.464 87.1719 242.66C87.1719 243.07 87.0424 243.439 86.7832 243.769C86.5275 244.094 86.1703 244.353 85.7115 244.546C85.2527 244.735 84.7169 244.83 84.104 244.83ZM88.4093 244.725V237.128H90.6367L92.3756 242.544L94.1302 237.128H96.3524V244.725H94.8026V238.914L92.9745 244.725H91.7715L89.9538 238.941V244.725H88.4093ZM100.79 244.83C100.415 244.83 100.047 244.782 99.6867 244.688C99.326 244.593 98.9968 244.451 98.6991 244.262C98.4014 244.073 98.1545 243.837 97.9584 243.553C97.7658 243.269 97.6502 242.937 97.6117 242.555H99.1824C99.235 242.786 99.3348 242.981 99.4819 243.138C99.629 243.296 99.8146 243.417 100.039 243.501C100.263 243.585 100.512 243.627 100.785 243.627C101.065 243.627 101.321 243.592 101.552 243.522C101.783 243.452 101.968 243.346 102.109 243.206C102.249 243.063 102.319 242.884 102.319 242.671C102.319 242.478 102.261 242.32 102.145 242.198C102.033 242.075 101.881 241.975 101.688 241.898C101.496 241.821 101.277 241.758 101.032 241.709L99.7183 241.441C99.1439 241.333 98.6886 241.105 98.3524 240.758C98.0162 240.408 97.8428 239.942 97.8323 239.361C97.8288 238.885 97.9549 238.473 98.2106 238.126C98.4697 237.776 98.8199 237.507 99.2612 237.317C99.706 237.128 100.203 237.034 100.753 237.034C101.408 237.034 101.958 237.137 102.403 237.344C102.851 237.547 103.191 237.823 103.422 238.174C103.657 238.52 103.777 238.907 103.784 239.335H102.245C102.217 239.069 102.137 238.857 102.003 238.699C101.87 238.541 101.699 238.428 101.489 238.358C101.282 238.288 101.046 238.253 100.779 238.253C100.576 238.253 100.391 238.275 100.223 238.321C100.058 238.366 99.9179 238.431 99.8023 238.515C99.6867 238.596 99.5974 238.692 99.5344 238.804C99.4714 238.916 99.4398 239.042 99.4398 239.182C99.4398 239.403 99.5134 239.582 99.6605 239.718C99.8076 239.855 100.082 239.967 100.485 240.054L101.788 240.322C102.254 240.413 102.623 240.548 102.897 240.727C103.173 240.905 103.38 241.107 103.516 241.331C103.657 241.555 103.748 241.784 103.79 242.019C103.835 242.25 103.858 242.464 103.858 242.66C103.858 243.07 103.728 243.439 103.469 243.769C103.213 244.094 102.856 244.353 102.397 244.546C101.939 244.735 101.403 244.83 100.79 244.83ZM109.287 239.188C109.742 239.188 110.134 239.28 110.463 239.466C110.796 239.652 111.057 239.902 111.246 240.217C111.439 240.532 111.549 240.884 111.577 241.273H110.3C110.276 241.13 110.225 240.988 110.148 240.848C110.071 240.704 109.963 240.587 109.822 240.496C109.682 240.401 109.507 240.354 109.297 240.354C108.94 240.354 108.649 240.492 108.425 240.769C108.204 241.042 108.094 241.459 108.094 242.019C108.094 242.548 108.203 242.968 108.42 243.28C108.637 243.588 108.94 243.742 109.329 243.742C109.535 243.742 109.707 243.691 109.843 243.59C109.984 243.488 110.092 243.367 110.169 243.227C110.246 243.084 110.295 242.951 110.316 242.828H111.561C111.537 243.203 111.428 243.543 111.236 243.847C111.043 244.148 110.78 244.388 110.448 244.567C110.118 244.742 109.731 244.83 109.287 244.83C108.782 244.83 108.332 244.718 107.936 244.493C107.541 244.269 107.229 243.949 107.001 243.532C106.777 243.112 106.665 242.611 106.665 242.03C106.665 241.469 106.774 240.975 106.991 240.548C107.208 240.121 107.513 239.788 107.905 239.55C108.301 239.308 108.761 239.188 109.287 239.188ZM112.517 244.725V239.293H113.993V240.58C114.08 240.303 114.203 240.061 114.361 239.855C114.522 239.645 114.716 239.482 114.944 239.366C115.171 239.247 115.429 239.188 115.716 239.188C115.765 239.188 115.81 239.191 115.853 239.198C115.898 239.202 115.931 239.209 115.952 239.219V240.68C115.921 240.666 115.882 240.657 115.837 240.653C115.795 240.65 115.756 240.646 115.721 240.643C115.42 240.618 115.163 240.627 114.949 240.669C114.735 240.711 114.562 240.783 114.429 240.884C114.296 240.986 114.199 241.11 114.14 241.257C114.08 241.405 114.051 241.569 114.051 241.751V244.725H112.517ZM117.909 242.361C117.905 242.637 117.949 242.879 118.04 243.086C118.131 243.289 118.262 243.446 118.434 243.558C118.609 243.667 118.819 243.721 119.064 243.721C119.327 243.721 119.556 243.665 119.752 243.553C119.952 243.441 120.09 243.257 120.167 243.002H121.549C121.49 243.387 121.335 243.716 121.087 243.989C120.842 244.262 120.544 244.471 120.194 244.614C119.843 244.758 119.479 244.83 119.101 244.83C118.565 244.83 118.092 244.718 117.683 244.493C117.276 244.266 116.959 243.945 116.732 243.532C116.504 243.119 116.39 242.632 116.39 242.072C116.39 241.529 116.494 241.04 116.7 240.606C116.907 240.168 117.206 239.823 117.599 239.571C117.994 239.315 118.469 239.188 119.022 239.188C119.576 239.188 120.04 239.305 120.414 239.54C120.793 239.771 121.076 240.095 121.265 240.511C121.458 240.925 121.554 241.403 121.554 241.946V242.361H117.909ZM117.903 241.447H120.12C120.12 241.229 120.08 241.03 119.999 240.848C119.919 240.666 119.796 240.522 119.632 240.417C119.471 240.312 119.267 240.259 119.022 240.259C118.784 240.259 118.581 240.317 118.413 240.433C118.248 240.545 118.122 240.692 118.035 240.874C117.947 241.056 117.903 241.247 117.903 241.447ZM124.52 244.83C123.791 244.83 123.224 244.579 122.818 244.078C122.411 243.574 122.208 242.874 122.208 241.977C122.208 241.41 122.291 240.918 122.455 240.501C122.62 240.084 122.863 239.762 123.185 239.534C123.508 239.303 123.902 239.188 124.367 239.188C124.564 239.188 124.746 239.21 124.914 239.256C125.085 239.298 125.241 239.357 125.381 239.435C125.521 239.512 125.644 239.601 125.749 239.702C125.854 239.804 125.94 239.913 126.007 240.028V236.918H127.546V244.725H126.432L126.259 243.611C126.21 243.761 126.141 243.909 126.054 244.052C125.966 244.196 125.854 244.327 125.718 244.446C125.581 244.562 125.413 244.655 125.213 244.725C125.017 244.795 124.786 244.83 124.52 244.83ZM124.856 243.726C125.241 243.726 125.528 243.592 125.718 243.322C125.91 243.052 126.007 242.597 126.007 241.956C126.003 241.585 125.959 241.277 125.875 241.032C125.791 240.786 125.665 240.604 125.497 240.485C125.332 240.363 125.122 240.301 124.867 240.301C124.534 240.301 124.257 240.429 124.037 240.685C123.816 240.937 123.706 241.361 123.706 241.956C123.706 242.562 123.809 243.009 124.015 243.296C124.222 243.583 124.502 243.726 124.856 243.726ZM130.323 239.293V244.725H128.857V239.293H130.323ZM130.338 237.134V238.515H128.846V237.134H130.338ZM134.905 240.359H133.697L133.708 243.254C133.708 243.387 133.723 243.487 133.755 243.553C133.79 243.616 133.842 243.658 133.912 243.679C133.986 243.697 134.079 243.705 134.191 243.705H134.921V244.651C134.851 244.683 134.741 244.712 134.59 244.74C134.443 244.768 134.236 244.782 133.97 244.782C133.494 244.782 133.124 244.721 132.862 244.599C132.603 244.476 132.422 244.304 132.321 244.084C132.219 243.863 132.168 243.607 132.168 243.317V240.359H131.286V239.293H132.221L132.604 237.654H133.697V239.287H134.905V240.359Z" fill="black"/>
<path d="M83.8536 254.438V254.939L80.8312 254.946V254.442L83.8536 254.438ZM82.5998 256.2H82.099L82.092 253.177H82.5963L82.5998 256.2ZM87.2028 257.236V253.205H86.2257V252.782C86.5292 252.782 86.765 252.759 86.9331 252.715C87.1012 252.671 87.2203 252.603 87.2904 252.512C87.3627 252.421 87.4024 252.308 87.4094 252.172H87.8717V257.236H87.2028ZM89.5719 252.172H92.5943L92.5768 252.732H90.1252L89.9957 254.368C90.1638 254.212 90.347 254.101 90.5455 254.035C90.7463 253.968 90.9634 253.934 91.1969 253.934C91.5028 253.934 91.7841 253.997 92.041 254.123C92.3001 254.247 92.5079 254.431 92.6644 254.676C92.8208 254.919 92.899 255.22 92.899 255.58C92.899 255.93 92.8231 256.235 92.6714 256.494C92.5196 256.753 92.306 256.955 92.0305 257.1C91.7549 257.242 91.4316 257.313 91.0603 257.313C90.7475 257.313 90.458 257.259 90.1918 257.149C89.9256 257.039 89.6968 256.886 89.5053 256.69C89.3162 256.494 89.1773 256.269 89.0886 256.014L89.6489 255.779C89.733 255.971 89.8381 256.141 89.9641 256.291C90.0926 256.44 90.2443 256.557 90.4194 256.641C90.5945 256.725 90.793 256.767 91.0148 256.767C91.3744 256.767 91.6627 256.663 91.8799 256.455C92.0993 256.245 92.2091 255.96 92.2091 255.601C92.2091 255.377 92.1577 255.182 92.055 255.016C91.9522 254.848 91.8133 254.717 91.6382 254.624C91.4654 254.53 91.274 254.484 91.0638 254.484C90.9261 254.484 90.7977 254.496 90.6786 254.522C90.5595 254.545 90.4416 254.592 90.3249 254.662C90.2081 254.732 90.0855 254.838 89.9571 254.981C89.9431 254.988 89.9326 254.991 89.9256 254.991C89.9186 254.989 89.9069 254.984 89.8906 254.977L89.3442 254.806L89.5719 252.172ZM95.5228 257.236V252.172H98.7168L98.7133 252.743H96.1742V254.396H98.4612V254.963H96.1707V256.651L98.7834 256.658V257.236H95.5228ZM103.568 255.485C103.568 255.875 103.504 256.206 103.376 256.476C103.247 256.747 103.046 256.954 102.773 257.096C102.502 257.236 102.15 257.306 101.716 257.306C101.277 257.306 100.921 257.234 100.647 257.089C100.377 256.944 100.178 256.732 100.052 256.452C99.9283 256.172 99.8664 255.827 99.8664 255.419V252.172H100.539V255.517C100.539 255.925 100.64 256.231 100.844 256.434C101.047 256.637 101.337 256.739 101.716 256.739C101.97 256.739 102.186 256.695 102.363 256.606C102.543 256.517 102.68 256.383 102.773 256.203C102.869 256.021 102.917 255.792 102.917 255.517V252.172H103.568V255.485ZM108.392 257.236H107.706L106.781 255.054H105.419V257.236H104.771V252.172H106.732C107.096 252.172 107.401 252.228 107.646 252.34C107.891 252.45 108.075 252.609 108.196 252.817C108.317 253.022 108.378 253.268 108.378 253.555C108.378 253.831 108.329 254.06 108.231 254.242C108.135 254.424 108.013 254.571 107.863 254.683C107.714 254.793 107.559 254.878 107.398 254.939L108.392 257.236ZM106.522 254.519C106.903 254.519 107.197 254.442 107.405 254.287C107.612 254.131 107.716 253.9 107.716 253.594C107.716 253.295 107.623 253.072 107.436 252.925C107.252 252.776 106.998 252.701 106.676 252.701H105.419V254.519H106.522Z" fill="#404040"/>
<circle cx="62.8885" cy="246.983" r="10.5067" fill="#DC0069"/>
<rect x="62.6025" y="242.869" width="1.09444" height="8.75556" fill="white"/>
<rect x="67.5273" y="246.699" width="1.09444" height="8.75556" transform="rotate(90 67.5273 246.699)" fill="white"/>
<defs>
<filter id="filter0_d_12984_209595" x="29.6055" y="33.1133" width="281.788" height="390.547" filterUnits="userSpaceOnUse" color-interpolation-filters="sRGB">
<feFlood flood-opacity="0" result="BackgroundImageFix"/>
<feColorMatrix in="SourceAlpha" type="matrix" values="0 0 0 0 0 0 0 0 0 0 0 0 0 0 0 0 0 0 127 0" result="hardAlpha"/>
<feOffset dy="17.8867"/>
<feGaussianBlur stdDeviation="17.8867"/>
<feColorMatrix type="matrix" values="0 0 0 0 0 0 0 0 0 0 0 0 0 0 0 0 0 0 0.08 0"/>
<feBlend mode="normal" in2="BackgroundImageFix" result="effect1_dropShadow_12984_209595"/>
<feBlend mode="normal" in="SourceGraphic" in2="effect1_dropShadow_12984_209595" result="shape"/>
</filter>
<filter id="filter1_d_12984_209595" x="5.97778" y="75.6237" width="267.044" height="119.076" filterUnits="userSpaceOnUse" color-interpolation-filters="sRGB">
<feFlood flood-opacity="0" result="BackgroundImageFix"/>
<feColorMatrix in="SourceAlpha" type="matrix" values="0 0 0 0 0 0 0 0 0 0 0 0 0 0 0 0 0 0 127 0" result="hardAlpha"/>
<feOffset dy="17.5111"/>
<feGaussianBlur stdDeviation="17.5111"/>
<feColorMatrix type="matrix" values="0 0 0 0 0 0 0 0 0 0 0 0 0 0 0 0 0 0 0.08 0"/>
<feBlend mode="normal" in2="BackgroundImageFix" result="effect1_dropShadow_12984_209595"/>
<feBlend mode="normal" in="SourceGraphic" in2="effect1_dropShadow_12984_209595" result="shape"/>
</filter>
<filter id="filter2_d_12984_209595" x="5.97778" y="135.034" width="267.044" height="129.582" filterUnits="userSpaceOnUse" color-interpolation-filters="sRGB">
<feFlood flood-opacity="0" result="BackgroundImageFix"/>
<feColorMatrix in="SourceAlpha" type="matrix" values="0 0 0 0 0 0 0 0 0 0 0 0 0 0 0 0 0 0 127 0" result="hardAlpha"/>
<feOffset dy="17.5111"/>
<feGaussianBlur stdDeviation="17.5111"/>
<feColorMatrix type="matrix" values="0 0 0 0 0 0 0 0 0 0 0 0 0 0 0 0 0 0 0.08 0"/>
<feBlend mode="normal" in2="BackgroundImageFix" result="effect1_dropShadow_12984_209595"/>
<feBlend mode="normal" in="SourceGraphic" in2="effect1_dropShadow_12984_209595" result="shape"/>
</filter>
<filter id="filter3_d_12984_209595" x="5.97778" y="204.956" width="267.044" height="119.076" filterUnits="userSpaceOnUse" color-interpolation-filters="sRGB">
<feFlood flood-opacity="0" result="BackgroundImageFix"/>
<feColorMatrix in="SourceAlpha" type="matrix" values="0 0 0 0 0 0 0 0 0 0 0 0 0 0 0 0 0 0 127 0" result="hardAlpha"/>
<feOffset dy="17.5111"/>
<feGaussianBlur stdDeviation="17.5111"/>
<feColorMatrix type="matrix" values="0 0 0 0 0 0 0 0 0 0 0 0 0 0 0 0 0 0 0.08 0"/>
<feBlend mode="normal" in2="BackgroundImageFix" result="effect1_dropShadow_12984_209595"/>
<feBlend mode="normal" in="SourceGraphic" in2="effect1_dropShadow_12984_209595" result="shape"/>
</filter>
<clipPath id="clip0_12984_209595">
<rect width="21.597" height="21.597" fill="white" transform="translate(52.6738 172.977)"/>
</clipPath>
</defs>
</svg>
